<?xml version="1.0" encoding="UTF-8"?>
<!DOCTYPE svg PUBLIC "-//W3C//DTD SVG 1.1//EN" "http://www.w3.org/Graphics/SVG/1.1/DTD/svg11.dtd">
<!-- Creator: CorelDRAW (Evaluation Version) -->
<svg xmlns="http://www.w3.org/2000/svg" xml:space="preserve" width="13.1356in" height="0.445815in" version="1.1" style="shape-rendering:geometricPrecision; text-rendering:geometricPrecision; image-rendering:optimizeQuality; fill-rule:evenodd; clip-rule:evenodd"
viewBox="0 0 16165.86 548.66"
 xmlns:xlink="http://www.w3.org/1999/xlink"
 xmlns:xodm="http://www.corel.com/coreldraw/odm/2003">
 <defs>
  <style type="text/css">
   <![CDATA[
    .fil1 {fill:none}
    .fil0 {fill:white}
    .fil2 {fill:white;fill-rule:nonzero}
   ]]>
  </style>
 </defs>
 <g id="Layer_x0020_1">
  <metadata id="CorelCorpID_0Corel-Layer"/>
  <polygon class="fil0" points="27.39,0 -0,0 -0,548.66 27.39,548.66 "/>
  <polygon class="fil0" points="2044.69,0 2017.31,0 2017.31,548.66 2044.69,548.66 "/>
  <polygon class="fil0" points="4062,0 4034.62,0 4034.62,548.66 4062,548.66 "/>
  <polygon class="fil0" points="6079.31,0 6051.93,0 6051.93,548.66 6079.31,548.66 "/>
  <polygon class="fil0" points="8096.62,0 8069.23,0 8069.23,548.66 8096.62,548.66 "/>
  <polygon class="fil0" points="10113.93,0 10086.54,0 10086.54,548.66 10113.93,548.66 "/>
  <polygon class="fil0" points="12131.24,0 12103.85,0 12103.85,548.66 12131.24,548.66 "/>
  <polygon class="fil0" points="14148.55,0 14121.16,0 14121.16,548.66 14148.55,548.66 "/>
  <polygon class="fil0" points="16165.86,0 16138.47,0 16138.47,548.66 16165.86,548.66 "/>
  <rect class="fil1" y="-0" width="16165.86" height="548.66"/>
  <path class="fil2" d="M308.7 9.43l-38.97 146.45 -18.66 0 -28.51 -95.99c-0.82,-2.87 -1.64,-5.74 -2.46,-8.82 -0.82,-3.08 -1.64,-5.95 -2.26,-8.61 -0.62,-2.66 -1.23,-5.13 -1.85,-6.97 -0.41,-2.05 -0.62,-3.49 -0.82,-4.52 -0.21,1.03 -0.41,2.46 -0.62,4.52 -0.41,1.85 -1.03,4.31 -1.64,6.97 -0.62,2.66 -1.43,5.74 -2.26,8.82 -0.62,3.08 -1.43,6.15 -2.46,9.23l-27.69 95.38 -18.66 0 -38.77 -146.45 19.28 0 22.77 89.43c0.82,3.08 1.64,6.36 2.26,9.44 0.62,3.08 1.23,5.95 1.85,9.02 0.62,2.87 1.23,5.75 1.64,8.41 0.41,2.66 0.82,5.33 1.23,8 0.41,-2.66 0.82,-5.54 1.23,-8.41 0.62,-2.87 1.23,-5.74 1.85,-8.82 0.62,-3.08 1.43,-6.36 2.25,-9.43 0.82,-3.08 1.64,-6.15 2.46,-9.23l25.84 -88.41 19.08 0 26.87 89.02c1.02,3.08 1.85,6.36 2.66,9.64 0.82,3.08 1.64,6.15 2.26,9.23 0.62,3.08 1.23,5.95 1.64,8.61 0.62,2.87 1.03,5.54 1.44,7.8 0.41,-3.49 1.02,-6.97 1.64,-10.66 0.62,-3.9 1.44,-7.8 2.46,-11.9 1.03,-4.1 2.05,-8.2 3.08,-12.51l22.56 -89.23 19.28 0z"/>
  <path id="_1" class="fil2" d="M367.16 43.89c9.44,0 17.44,2.05 24.21,6.15 6.77,4.1 12.1,9.85 15.59,17.43 3.69,7.38 5.54,16 5.54,26.05l0 10.87 -75.28 0c0.2,12.52 3.48,21.95 9.43,28.51 6.15,6.36 14.77,9.64 25.64,9.64 6.97,0 13.13,-0.62 18.46,-1.85 5.54,-1.43 11.08,-3.28 16.82,-5.74l0 15.8c-5.54,2.46 -11.08,4.31 -16.61,5.33 -5.54,1.23 -11.9,1.85 -19.49,1.85 -10.46,0 -19.69,-2.05 -27.69,-6.36 -8,-4.31 -14.15,-10.66 -18.66,-19.08 -4.31,-8.41 -6.57,-18.66 -6.57,-30.77 0,-12.1 2.05,-22.36 5.95,-30.97 4.1,-8.61 9.85,-15.18 17.03,-19.89 7.38,-4.72 16,-6.98 25.64,-6.98zm-0.2 14.77c-8.61,0 -15.38,2.66 -20.51,8.2 -4.92,5.54 -7.8,13.33 -8.82,23.18l56 0c0,-6.36 -1.02,-11.69 -2.87,-16.41 -1.85,-4.71 -4.72,-8.41 -8.61,-11.08 -3.9,-2.66 -9.03,-3.9 -15.18,-3.9z"/>
  <path id="_2" class="fil2" d="M482.84 43.89c9.44,0 17.44,2.05 24.21,6.15 6.77,4.1 12.1,9.85 15.59,17.43 3.69,7.38 5.54,16 5.54,26.05l0 10.87 -75.28 0c0.2,12.52 3.48,21.95 9.43,28.51 6.15,6.36 14.77,9.64 25.64,9.64 6.97,0 13.13,-0.62 18.46,-1.85 5.54,-1.43 11.08,-3.28 16.82,-5.74l0 15.8c-5.54,2.46 -11.08,4.31 -16.61,5.33 -5.54,1.23 -11.9,1.85 -19.49,1.85 -10.46,0 -19.69,-2.05 -27.69,-6.36 -8,-4.31 -14.15,-10.66 -18.66,-19.08 -4.31,-8.41 -6.57,-18.66 -6.57,-30.77 0,-12.1 2.05,-22.36 5.95,-30.97 4.1,-8.61 9.85,-15.18 17.03,-19.89 7.38,-4.72 16,-6.98 25.64,-6.98zm-0.2 14.77c-8.61,0 -15.38,2.66 -20.51,8.2 -4.92,5.54 -7.8,13.33 -8.82,23.18l56 0c0,-6.36 -1.02,-11.69 -2.87,-16.41 -1.85,-4.71 -4.72,-8.41 -8.61,-11.08 -3.9,-2.66 -9.03,-3.9 -15.18,-3.9z"/>
  <path id="_3" class="fil2" d="M573.91 81.43c0,2.26 -0.2,5.13 -0.41,8.61 -0.21,3.49 -0.21,6.57 -0.41,9.23l0.82 0c0.82,-1.03 2.05,-2.66 3.69,-4.72 1.64,-2.05 3.29,-4.1 4.92,-6.15 1.85,-2.25 3.29,-3.9 4.52,-5.33l35.07 -37.12 21.13 0 -44.51 46.97 47.59 62.97 -21.74 0 -38.15 -51.28 -12.52 10.87 0 40.41 -17.85 0 0 -155.89 17.85 0 0 81.43z"/>
  <path id="_4" class="fil2" d="M774.31 155.89l-17.64 0 0 -102.35c0,-3.9 0,-7.38 0.2,-10.05 0,-2.67 0,-5.33 0.2,-7.59 0.21,-2.46 0.21,-4.92 0.41,-7.59 -2.26,2.26 -4.1,4.1 -5.95,5.54 -1.85,1.43 -4.1,3.49 -6.77,5.74l-15.59 12.72 -9.43 -12.1 39.59 -30.77 14.97 0 0 146.45z"/>
  <path class="fil2" d="M6341.46 9.43l-38.97 146.45 -18.66 0 -28.51 -95.99c-0.82,-2.87 -1.64,-5.74 -2.46,-8.82 -0.82,-3.08 -1.64,-5.95 -2.26,-8.61 -0.62,-2.66 -1.23,-5.13 -1.85,-6.97 -0.41,-2.05 -0.62,-3.49 -0.82,-4.52 -0.21,1.03 -0.41,2.46 -0.62,4.52 -0.41,1.85 -1.03,4.31 -1.64,6.97 -0.62,2.66 -1.43,5.74 -2.26,8.82 -0.62,3.08 -1.43,6.15 -2.46,9.23l-27.69 95.38 -18.66 0 -38.77 -146.45 19.28 0 22.77 89.43c0.82,3.08 1.64,6.36 2.26,9.44 0.62,3.08 1.23,5.95 1.85,9.02 0.62,2.87 1.23,5.75 1.64,8.41 0.41,2.66 0.82,5.33 1.23,8 0.41,-2.66 0.82,-5.54 1.23,-8.41 0.62,-2.87 1.23,-5.74 1.85,-8.82 0.62,-3.08 1.43,-6.36 2.25,-9.43 0.82,-3.08 1.64,-6.15 2.46,-9.23l25.84 -88.41 19.08 0 26.87 89.02c1.02,3.08 1.85,6.36 2.66,9.64 0.82,3.08 1.64,6.15 2.26,9.23 0.62,3.08 1.23,5.95 1.64,8.61 0.62,2.87 1.03,5.54 1.44,7.8 0.41,-3.49 1.02,-6.97 1.64,-10.66 0.62,-3.9 1.44,-7.8 2.46,-11.9 1.03,-4.1 2.05,-8.2 3.08,-12.51l22.56 -89.23 19.28 0z"/>
  <path id="_1_0" class="fil2" d="M6399.92 43.89c9.44,0 17.44,2.05 24.21,6.15 6.77,4.1 12.1,9.85 15.59,17.43 3.69,7.38 5.54,16 5.54,26.05l0 10.87 -75.28 0c0.2,12.52 3.48,21.95 9.43,28.51 6.15,6.36 14.77,9.64 25.64,9.64 6.97,0 13.13,-0.62 18.46,-1.85 5.54,-1.43 11.08,-3.28 16.82,-5.74l0 15.8c-5.54,2.46 -11.08,4.31 -16.61,5.33 -5.54,1.23 -11.9,1.85 -19.49,1.85 -10.46,0 -19.69,-2.05 -27.69,-6.36 -8,-4.31 -14.15,-10.66 -18.66,-19.08 -4.31,-8.41 -6.57,-18.66 -6.57,-30.77 0,-12.1 2.05,-22.36 5.95,-30.97 4.1,-8.61 9.85,-15.18 17.03,-19.89 7.38,-4.72 16,-6.98 25.64,-6.98zm-0.2 14.77c-8.61,0 -15.38,2.66 -20.51,8.2 -4.92,5.54 -7.8,13.33 -8.82,23.18l56 0c0,-6.36 -1.02,-11.69 -2.87,-16.41 -1.85,-4.71 -4.72,-8.41 -8.61,-11.08 -3.9,-2.66 -9.03,-3.9 -15.18,-3.9z"/>
  <path id="_2_1" class="fil2" d="M6515.61 43.89c9.44,0 17.44,2.05 24.21,6.15 6.77,4.1 12.1,9.85 15.59,17.43 3.69,7.38 5.54,16 5.54,26.05l0 10.87 -75.28 0c0.2,12.52 3.48,21.95 9.43,28.51 6.15,6.36 14.77,9.64 25.64,9.64 6.97,0 13.13,-0.62 18.46,-1.85 5.54,-1.43 11.08,-3.28 16.82,-5.74l0 15.8c-5.54,2.46 -11.08,4.31 -16.61,5.33 -5.54,1.23 -11.9,1.85 -19.49,1.85 -10.46,0 -19.69,-2.05 -27.69,-6.36 -8,-4.31 -14.15,-10.66 -18.66,-19.08 -4.31,-8.41 -6.57,-18.66 -6.57,-30.77 0,-12.1 2.05,-22.36 5.95,-30.97 4.1,-8.61 9.85,-15.18 17.03,-19.89 7.38,-4.72 16,-6.98 25.64,-6.98zm-0.2 14.77c-8.61,0 -15.38,2.66 -20.51,8.2 -4.92,5.54 -7.8,13.33 -8.82,23.18l56 0c0,-6.36 -1.02,-11.69 -2.87,-16.41 -1.85,-4.71 -4.72,-8.41 -8.61,-11.08 -3.9,-2.66 -9.03,-3.9 -15.18,-3.9z"/>
  <path id="_3_2" class="fil2" d="M6606.68 81.43c0,2.26 -0.2,5.13 -0.41,8.61 -0.21,3.49 -0.21,6.57 -0.41,9.23l0.82 0c0.82,-1.03 2.05,-2.66 3.69,-4.72 1.64,-2.05 3.29,-4.1 4.92,-6.15 1.85,-2.25 3.29,-3.9 4.52,-5.33l35.07 -37.12 21.13 0 -44.51 46.97 47.59 62.97 -21.74 0 -38.15 -51.28 -12.52 10.87 0 40.41 -17.85 0 0 -155.89 17.85 0 0 81.43z"/>
  <path id="_4_3" class="fil2" d="M6847.49 122.66l-21.33 0 0 33.23 -17.43 0 0 -33.23 -70.15 0 0 -15.38 68.92 -98.66 18.66 0 0 97.84 21.33 0 0 16.2zm-38.77 -62.35c0,-3.49 0,-6.77 0.2,-9.64 0,-3.08 0,-5.74 0.21,-8.41 0.2,-2.67 0.2,-5.13 0.2,-7.38 0.2,-2.46 0.2,-4.72 0.41,-6.98l-0.82 0c-1.02,2.67 -2.46,5.33 -4.1,8.41 -1.64,3.08 -3.29,5.54 -4.72,7.59l-43.89 62.56 52.51 0 0 -46.15z"/>
  <path class="fil2" d="M2298.12 9.43l-38.97 146.45 -18.66 0 -28.51 -95.99c-0.82,-2.87 -1.64,-5.74 -2.46,-8.82 -0.82,-3.08 -1.64,-5.95 -2.26,-8.61 -0.62,-2.66 -1.23,-5.13 -1.85,-6.97 -0.41,-2.05 -0.62,-3.49 -0.82,-4.52 -0.21,1.03 -0.41,2.46 -0.62,4.52 -0.41,1.85 -1.03,4.31 -1.64,6.97 -0.62,2.66 -1.43,5.74 -2.26,8.82 -0.62,3.08 -1.43,6.15 -2.46,9.23l-27.69 95.38 -18.66 0 -38.77 -146.45 19.28 0 22.77 89.43c0.82,3.08 1.64,6.36 2.26,9.44 0.62,3.08 1.23,5.95 1.85,9.02 0.62,2.87 1.23,5.75 1.64,8.41 0.41,2.66 0.82,5.33 1.23,8 0.41,-2.66 0.82,-5.54 1.23,-8.41 0.62,-2.87 1.23,-5.74 1.85,-8.82 0.62,-3.08 1.43,-6.36 2.25,-9.43 0.82,-3.08 1.64,-6.15 2.46,-9.23l25.84 -88.41 19.08 0 26.87 89.02c1.02,3.08 1.85,6.36 2.66,9.64 0.82,3.08 1.64,6.15 2.26,9.23 0.62,3.08 1.23,5.95 1.64,8.61 0.62,2.87 1.03,5.54 1.44,7.8 0.41,-3.49 1.02,-6.97 1.64,-10.66 0.62,-3.9 1.44,-7.8 2.46,-11.9 1.03,-4.1 2.05,-8.2 3.08,-12.51l22.56 -89.23 19.28 0z"/>
  <path id="_1_4" class="fil2" d="M2356.58 43.89c9.44,0 17.44,2.05 24.21,6.15 6.77,4.1 12.1,9.85 15.59,17.43 3.69,7.38 5.54,16 5.54,26.05l0 10.87 -75.28 0c0.2,12.52 3.48,21.95 9.43,28.51 6.15,6.36 14.77,9.64 25.64,9.64 6.97,0 13.13,-0.62 18.46,-1.85 5.54,-1.43 11.08,-3.28 16.82,-5.74l0 15.8c-5.54,2.46 -11.08,4.31 -16.61,5.33 -5.54,1.23 -11.9,1.85 -19.49,1.85 -10.46,0 -19.69,-2.05 -27.69,-6.36 -8,-4.31 -14.15,-10.66 -18.66,-19.08 -4.31,-8.41 -6.57,-18.66 -6.57,-30.77 0,-12.1 2.05,-22.36 5.95,-30.97 4.1,-8.61 9.85,-15.18 17.03,-19.89 7.38,-4.72 16,-6.98 25.64,-6.98zm-0.2 14.77c-8.61,0 -15.38,2.66 -20.51,8.2 -4.92,5.54 -7.8,13.33 -8.82,23.18l56 0c0,-6.36 -1.02,-11.69 -2.87,-16.41 -1.85,-4.71 -4.72,-8.41 -8.61,-11.08 -3.9,-2.66 -9.03,-3.9 -15.18,-3.9z"/>
  <path id="_2_5" class="fil2" d="M2472.26 43.89c9.44,0 17.44,2.05 24.21,6.15 6.77,4.1 12.1,9.85 15.59,17.43 3.69,7.38 5.54,16 5.54,26.05l0 10.87 -75.28 0c0.2,12.52 3.48,21.95 9.43,28.51 6.15,6.36 14.77,9.64 25.64,9.64 6.97,0 13.13,-0.62 18.46,-1.85 5.54,-1.43 11.08,-3.28 16.82,-5.74l0 15.8c-5.54,2.46 -11.08,4.31 -16.61,5.33 -5.54,1.23 -11.9,1.85 -19.49,1.85 -10.46,0 -19.69,-2.05 -27.69,-6.36 -8,-4.31 -14.15,-10.66 -18.66,-19.08 -4.31,-8.41 -6.57,-18.66 -6.57,-30.77 0,-12.1 2.05,-22.36 5.95,-30.97 4.1,-8.61 9.85,-15.18 17.03,-19.89 7.38,-4.72 16,-6.98 25.64,-6.98zm-0.2 14.77c-8.61,0 -15.38,2.66 -20.51,8.2 -4.92,5.54 -7.8,13.33 -8.82,23.18l56 0c0,-6.36 -1.02,-11.69 -2.87,-16.41 -1.85,-4.71 -4.72,-8.41 -8.61,-11.08 -3.9,-2.66 -9.03,-3.9 -15.18,-3.9z"/>
  <path id="_3_6" class="fil2" d="M2563.33 81.43c0,2.26 -0.2,5.13 -0.41,8.61 -0.21,3.49 -0.21,6.57 -0.41,9.23l0.82 0c0.82,-1.03 2.05,-2.66 3.69,-4.72 1.64,-2.05 3.29,-4.1 4.92,-6.15 1.85,-2.25 3.29,-3.9 4.52,-5.33l35.07 -37.12 21.13 0 -44.51 46.97 47.59 62.97 -21.74 0 -38.15 -51.28 -12.52 10.87 0 40.41 -17.85 0 0 -155.89 17.85 0 0 81.43z"/>
  <path id="_4_7" class="fil2" d="M2797.58 155.89l-96.81 0 0 -14.97 38.35 -38.77c7.38,-7.38 13.54,-13.95 18.67,-19.69 5.13,-5.75 8.82,-11.28 11.48,-16.82 2.67,-5.54 3.9,-11.69 3.9,-18.25 0,-8 -2.46,-14.15 -7.18,-18.26 -4.72,-4.31 -11.08,-6.36 -18.66,-6.36 -7.18,0 -13.33,1.23 -18.87,3.69 -5.33,2.46 -10.87,5.95 -16.41,10.26l-9.64 -12.1c3.9,-3.28 8,-6.15 12.51,-8.82 4.72,-2.67 9.64,-4.72 14.97,-6.15 5.54,-1.44 11.28,-2.26 17.44,-2.26 9.23,0 17.02,1.64 23.59,4.72 6.57,3.08 11.69,7.59 15.18,13.54 3.69,5.74 5.54,12.71 5.54,20.71 0,7.59 -1.64,14.77 -4.72,21.54 -3.08,6.77 -7.59,13.33 -13.13,19.89 -5.54,6.36 -12.1,13.33 -19.69,20.72l-30.56 30.15 0 0.82 74.05 0 0 16.41z"/>
  <path class="fil2" d="M12401.51 9.43l-38.97 146.45 -18.66 0 -28.51 -95.99c-0.82,-2.87 -1.64,-5.74 -2.46,-8.82 -0.82,-3.08 -1.64,-5.95 -2.26,-8.61 -0.62,-2.66 -1.23,-5.13 -1.85,-6.97 -0.41,-2.05 -0.62,-3.49 -0.82,-4.52 -0.21,1.03 -0.41,2.46 -0.62,4.52 -0.41,1.85 -1.03,4.31 -1.64,6.97 -0.62,2.66 -1.43,5.74 -2.26,8.82 -0.62,3.08 -1.43,6.15 -2.46,9.23l-27.69 95.38 -18.66 0 -38.77 -146.45 19.28 0 22.77 89.43c0.82,3.08 1.64,6.36 2.26,9.44 0.62,3.08 1.23,5.95 1.85,9.02 0.62,2.87 1.23,5.75 1.64,8.41 0.41,2.66 0.82,5.33 1.23,8 0.41,-2.66 0.82,-5.54 1.23,-8.41 0.62,-2.87 1.23,-5.74 1.85,-8.82 0.62,-3.08 1.43,-6.36 2.25,-9.43 0.82,-3.08 1.64,-6.15 2.46,-9.23l25.84 -88.41 19.08 0 26.87 89.02c1.02,3.08 1.85,6.36 2.66,9.64 0.82,3.08 1.64,6.15 2.26,9.23 0.62,3.08 1.23,5.95 1.64,8.61 0.62,2.87 1.03,5.54 1.44,7.8 0.41,-3.49 1.02,-6.97 1.64,-10.66 0.62,-3.9 1.44,-7.8 2.46,-11.9 1.03,-4.1 2.05,-8.2 3.08,-12.51l22.56 -89.23 19.28 0z"/>
  <path id="_1_8" class="fil2" d="M12459.97 43.89c9.44,0 17.44,2.05 24.21,6.15 6.77,4.1 12.1,9.85 15.59,17.43 3.69,7.38 5.54,16 5.54,26.05l0 10.87 -75.28 0c0.2,12.52 3.48,21.95 9.43,28.51 6.15,6.36 14.77,9.64 25.64,9.64 6.97,0 13.13,-0.62 18.46,-1.85 5.54,-1.43 11.08,-3.28 16.82,-5.74l0 15.8c-5.54,2.46 -11.08,4.31 -16.61,5.33 -5.54,1.23 -11.9,1.85 -19.49,1.85 -10.46,0 -19.69,-2.05 -27.69,-6.36 -8,-4.31 -14.15,-10.66 -18.66,-19.08 -4.31,-8.41 -6.57,-18.66 -6.57,-30.77 0,-12.1 2.05,-22.36 5.95,-30.97 4.1,-8.61 9.85,-15.18 17.03,-19.89 7.38,-4.72 16,-6.98 25.64,-6.98zm-0.2 14.77c-8.61,0 -15.38,2.66 -20.51,8.2 -4.92,5.54 -7.8,13.33 -8.82,23.18l56 0c0,-6.36 -1.02,-11.69 -2.87,-16.41 -1.85,-4.71 -4.72,-8.41 -8.61,-11.08 -3.9,-2.66 -9.03,-3.9 -15.18,-3.9z"/>
  <path id="_2_9" class="fil2" d="M12575.65 43.89c9.44,0 17.44,2.05 24.21,6.15 6.77,4.1 12.1,9.85 15.59,17.43 3.69,7.38 5.54,16 5.54,26.05l0 10.87 -75.28 0c0.2,12.52 3.48,21.95 9.43,28.51 6.15,6.36 14.77,9.64 25.64,9.64 6.97,0 13.13,-0.62 18.46,-1.85 5.54,-1.43 11.08,-3.28 16.82,-5.74l0 15.8c-5.54,2.46 -11.08,4.31 -16.61,5.33 -5.54,1.23 -11.9,1.85 -19.49,1.85 -10.46,0 -19.69,-2.05 -27.69,-6.36 -8,-4.31 -14.15,-10.66 -18.66,-19.08 -4.31,-8.41 -6.57,-18.66 -6.57,-30.77 0,-12.1 2.05,-22.36 5.95,-30.97 4.1,-8.61 9.85,-15.18 17.03,-19.89 7.38,-4.72 16,-6.98 25.64,-6.98zm-0.2 14.77c-8.61,0 -15.38,2.66 -20.51,8.2 -4.92,5.54 -7.8,13.33 -8.82,23.18l56 0c0,-6.36 -1.02,-11.69 -2.87,-16.41 -1.85,-4.71 -4.72,-8.41 -8.61,-11.08 -3.9,-2.66 -9.03,-3.9 -15.18,-3.9z"/>
  <path id="_3_10" class="fil2" d="M12666.72 81.43c0,2.26 -0.2,5.13 -0.41,8.61 -0.21,3.49 -0.21,6.57 -0.41,9.23l0.82 0c0.82,-1.03 2.05,-2.66 3.69,-4.72 1.64,-2.05 3.29,-4.1 4.92,-6.15 1.85,-2.25 3.29,-3.9 4.52,-5.33l35.07 -37.12 21.13 0 -44.51 46.97 47.59 62.97 -21.74 0 -38.15 -51.28 -12.52 10.87 0 40.41 -17.85 0 0 -155.89 17.85 0 0 81.43z"/>
  <polygon id="_4_11" class="fil2" points="12822.2,155.89 12882.3,25.84 12803.34,25.84 12803.34,9.43 12901.58,9.43 12901.58,23.38 12842.1,155.89 "/>
  <path class="fil2" d="M4320.32 9.43l-38.97 146.45 -18.66 0 -28.51 -95.99c-0.82,-2.87 -1.64,-5.74 -2.46,-8.82 -0.82,-3.08 -1.64,-5.95 -2.26,-8.61 -0.62,-2.66 -1.23,-5.13 -1.85,-6.97 -0.41,-2.05 -0.62,-3.49 -0.82,-4.52 -0.21,1.03 -0.41,2.46 -0.62,4.52 -0.41,1.85 -1.03,4.31 -1.64,6.97 -0.62,2.66 -1.43,5.74 -2.26,8.82 -0.62,3.08 -1.43,6.15 -2.46,9.23l-27.69 95.38 -18.66 0 -38.77 -146.45 19.28 0 22.77 89.43c0.82,3.08 1.64,6.36 2.26,9.44 0.62,3.08 1.23,5.95 1.85,9.02 0.62,2.87 1.23,5.75 1.64,8.41 0.41,2.66 0.82,5.33 1.23,8 0.41,-2.66 0.82,-5.54 1.23,-8.41 0.62,-2.87 1.23,-5.74 1.85,-8.82 0.62,-3.08 1.43,-6.36 2.25,-9.43 0.82,-3.08 1.64,-6.15 2.46,-9.23l25.84 -88.41 19.08 0 26.87 89.02c1.02,3.08 1.85,6.36 2.66,9.64 0.82,3.08 1.64,6.15 2.26,9.23 0.62,3.08 1.23,5.95 1.64,8.61 0.62,2.87 1.03,5.54 1.44,7.8 0.41,-3.49 1.02,-6.97 1.64,-10.66 0.62,-3.9 1.44,-7.8 2.46,-11.9 1.03,-4.1 2.05,-8.2 3.08,-12.51l22.56 -89.23 19.28 0z"/>
  <path id="_1_12" class="fil2" d="M4378.78 43.89c9.44,0 17.44,2.05 24.21,6.15 6.77,4.1 12.1,9.85 15.59,17.43 3.69,7.38 5.54,16 5.54,26.05l0 10.87 -75.28 0c0.2,12.52 3.48,21.95 9.43,28.51 6.15,6.36 14.77,9.64 25.64,9.64 6.97,0 13.13,-0.62 18.46,-1.85 5.54,-1.43 11.08,-3.28 16.82,-5.74l0 15.8c-5.54,2.46 -11.08,4.31 -16.61,5.33 -5.54,1.23 -11.9,1.85 -19.49,1.85 -10.46,0 -19.69,-2.05 -27.69,-6.36 -8,-4.31 -14.15,-10.66 -18.66,-19.08 -4.31,-8.41 -6.57,-18.66 -6.57,-30.77 0,-12.1 2.05,-22.36 5.95,-30.97 4.1,-8.61 9.85,-15.18 17.03,-19.89 7.38,-4.72 16,-6.98 25.64,-6.98zm-0.2 14.77c-8.61,0 -15.38,2.66 -20.51,8.2 -4.92,5.54 -7.8,13.33 -8.82,23.18l56 0c0,-6.36 -1.02,-11.69 -2.87,-16.41 -1.85,-4.71 -4.72,-8.41 -8.61,-11.08 -3.9,-2.66 -9.03,-3.9 -15.18,-3.9z"/>
  <path id="_2_13" class="fil2" d="M4494.46 43.89c9.44,0 17.44,2.05 24.21,6.15 6.77,4.1 12.1,9.85 15.59,17.43 3.69,7.38 5.54,16 5.54,26.05l0 10.87 -75.28 0c0.2,12.52 3.48,21.95 9.43,28.51 6.15,6.36 14.77,9.64 25.64,9.64 6.97,0 13.13,-0.62 18.46,-1.85 5.54,-1.43 11.08,-3.28 16.82,-5.74l0 15.8c-5.54,2.46 -11.08,4.31 -16.61,5.33 -5.54,1.23 -11.9,1.85 -19.49,1.85 -10.46,0 -19.69,-2.05 -27.69,-6.36 -8,-4.31 -14.15,-10.66 -18.66,-19.08 -4.31,-8.41 -6.57,-18.66 -6.57,-30.77 0,-12.1 2.05,-22.36 5.95,-30.97 4.1,-8.61 9.85,-15.18 17.03,-19.89 7.38,-4.72 16,-6.98 25.64,-6.98zm-0.2 14.77c-8.61,0 -15.38,2.66 -20.51,8.2 -4.92,5.54 -7.8,13.33 -8.82,23.18l56 0c0,-6.36 -1.02,-11.69 -2.87,-16.41 -1.85,-4.71 -4.72,-8.41 -8.61,-11.08 -3.9,-2.66 -9.03,-3.9 -15.18,-3.9z"/>
  <path id="_3_14" class="fil2" d="M4585.54 81.43c0,2.26 -0.2,5.13 -0.41,8.61 -0.21,3.49 -0.21,6.57 -0.41,9.23l0.82 0c0.82,-1.03 2.05,-2.66 3.69,-4.72 1.64,-2.05 3.29,-4.1 4.92,-6.15 1.85,-2.25 3.29,-3.9 4.52,-5.33l35.07 -37.12 21.13 0 -44.51 46.97 47.59 62.97 -21.74 0 -38.15 -51.28 -12.52 10.87 0 40.41 -17.85 0 0 -155.89 17.85 0 0 81.43z"/>
  <path id="_4_15" class="fil2" d="M4814.24 43.69c0,6.57 -1.23,12.31 -3.69,17.02 -2.46,4.72 -5.95,8.61 -10.66,11.69 -4.51,3.08 -9.85,5.13 -16,6.36l0 0.82c11.69,1.43 20.51,5.13 26.26,11.08 5.74,5.95 8.61,13.95 8.61,23.59 0,8.41 -2.05,16 -5.95,22.56 -3.9,6.77 -10.05,11.9 -18.46,15.59 -8.2,3.69 -18.87,5.54 -31.79,5.54 -7.59,0 -14.77,-0.62 -21.33,-1.85 -6.57,-1.02 -12.92,-3.08 -18.87,-6.15l0 -16.82c6.15,3.08 12.72,5.33 19.89,7.18 7.18,1.64 13.95,2.46 20.51,2.46 13.13,0 22.56,-2.46 28.31,-7.59 5.95,-5.13 8.82,-12.31 8.82,-21.33 0,-6.15 -1.64,-11.08 -4.92,-14.77 -3.08,-3.9 -7.8,-6.57 -13.95,-8.41 -6.15,-1.85 -13.54,-2.66 -22.15,-2.66l-14.15 0 0 -15.38 14.36 0c8,0 14.77,-1.23 20.31,-3.49 5.33,-2.26 9.43,-5.54 12.31,-9.64 2.66,-4.31 4.1,-9.02 4.1,-14.56 0,-7.18 -2.46,-12.51 -7.18,-16.41 -4.72,-3.9 -11.28,-5.95 -19.49,-5.95 -5.13,0 -9.85,0.62 -14.15,1.64 -4.31,1.03 -8.2,2.46 -11.9,4.31 -3.49,1.85 -7.18,3.9 -10.87,6.36l-9.03 -12.31c5.13,-4.1 11.69,-7.59 19.28,-10.67 7.79,-3.08 16.61,-4.51 26.46,-4.51 15.38,0 26.66,3.49 34.05,10.26 7.59,6.77 11.28,15.59 11.28,26.05z"/>
  <path class="fil2" d="M10384.88 9.43l-38.97 146.45 -18.66 0 -28.51 -95.99c-0.82,-2.87 -1.64,-5.74 -2.46,-8.82 -0.82,-3.08 -1.64,-5.95 -2.26,-8.61 -0.62,-2.66 -1.23,-5.13 -1.85,-6.97 -0.41,-2.05 -0.62,-3.49 -0.82,-4.52 -0.21,1.03 -0.41,2.46 -0.62,4.52 -0.41,1.85 -1.03,4.31 -1.64,6.97 -0.62,2.66 -1.43,5.74 -2.26,8.82 -0.62,3.08 -1.43,6.15 -2.46,9.23l-27.69 95.38 -18.66 0 -38.77 -146.45 19.28 0 22.77 89.43c0.82,3.08 1.64,6.36 2.26,9.44 0.62,3.08 1.23,5.95 1.85,9.02 0.62,2.87 1.23,5.75 1.64,8.41 0.41,2.66 0.82,5.33 1.23,8 0.41,-2.66 0.82,-5.54 1.23,-8.41 0.62,-2.87 1.23,-5.74 1.85,-8.82 0.62,-3.08 1.43,-6.36 2.25,-9.43 0.82,-3.08 1.64,-6.15 2.46,-9.23l25.84 -88.41 19.08 0 26.87 89.02c1.02,3.08 1.85,6.36 2.66,9.64 0.82,3.08 1.64,6.15 2.26,9.23 0.62,3.08 1.23,5.95 1.64,8.61 0.62,2.87 1.03,5.54 1.44,7.8 0.41,-3.49 1.02,-6.97 1.64,-10.66 0.62,-3.9 1.44,-7.8 2.46,-11.9 1.03,-4.1 2.05,-8.2 3.08,-12.51l22.56 -89.23 19.28 0z"/>
  <path id="_1_16" class="fil2" d="M10443.34 43.89c9.44,0 17.44,2.05 24.21,6.15 6.77,4.1 12.1,9.85 15.59,17.43 3.69,7.38 5.54,16 5.54,26.05l0 10.87 -75.28 0c0.2,12.52 3.48,21.95 9.43,28.51 6.15,6.36 14.77,9.64 25.64,9.64 6.97,0 13.13,-0.62 18.46,-1.85 5.54,-1.43 11.08,-3.28 16.82,-5.74l0 15.8c-5.54,2.46 -11.08,4.31 -16.61,5.33 -5.54,1.23 -11.9,1.85 -19.49,1.85 -10.46,0 -19.69,-2.05 -27.69,-6.36 -8,-4.31 -14.15,-10.66 -18.66,-19.08 -4.31,-8.41 -6.57,-18.66 -6.57,-30.77 0,-12.1 2.05,-22.36 5.95,-30.97 4.1,-8.61 9.85,-15.18 17.03,-19.89 7.38,-4.72 16,-6.98 25.64,-6.98zm-0.2 14.77c-8.61,0 -15.38,2.66 -20.51,8.2 -4.92,5.54 -7.8,13.33 -8.82,23.18l56 0c0,-6.36 -1.02,-11.69 -2.87,-16.41 -1.85,-4.71 -4.72,-8.41 -8.61,-11.08 -3.9,-2.66 -9.03,-3.9 -15.18,-3.9z"/>
  <path id="_2_17" class="fil2" d="M10559.02 43.89c9.44,0 17.44,2.05 24.21,6.15 6.77,4.1 12.1,9.85 15.59,17.43 3.69,7.38 5.54,16 5.54,26.05l0 10.87 -75.28 0c0.2,12.52 3.48,21.95 9.43,28.51 6.15,6.36 14.77,9.64 25.64,9.64 6.97,0 13.13,-0.62 18.46,-1.85 5.54,-1.43 11.08,-3.28 16.82,-5.74l0 15.8c-5.54,2.46 -11.08,4.31 -16.61,5.33 -5.54,1.23 -11.9,1.85 -19.49,1.85 -10.46,0 -19.69,-2.05 -27.69,-6.36 -8,-4.31 -14.15,-10.66 -18.66,-19.08 -4.31,-8.41 -6.57,-18.66 -6.57,-30.77 0,-12.1 2.05,-22.36 5.95,-30.97 4.1,-8.61 9.85,-15.18 17.03,-19.89 7.38,-4.72 16,-6.98 25.64,-6.98zm-0.2 14.77c-8.61,0 -15.38,2.66 -20.51,8.2 -4.92,5.54 -7.8,13.33 -8.82,23.18l56 0c0,-6.36 -1.02,-11.69 -2.87,-16.41 -1.85,-4.71 -4.72,-8.41 -8.61,-11.08 -3.9,-2.66 -9.03,-3.9 -15.18,-3.9z"/>
  <path id="_3_18" class="fil2" d="M10650.09 81.43c0,2.26 -0.2,5.13 -0.41,8.61 -0.21,3.49 -0.21,6.57 -0.41,9.23l0.82 0c0.82,-1.03 2.05,-2.66 3.69,-4.72 1.64,-2.05 3.29,-4.1 4.92,-6.15 1.85,-2.25 3.29,-3.9 4.52,-5.33l35.07 -37.12 21.13 0 -44.51 46.97 47.59 62.97 -21.74 0 -38.15 -51.28 -12.52 10.87 0 40.41 -17.85 0 0 -155.89 17.85 0 0 81.43z"/>
  <path id="_4_19" class="fil2" d="M10788.96 93.32c0,-8.41 0.62,-16.82 1.64,-25.02 1.23,-8.21 3.28,-16 6.15,-23.38 2.87,-7.18 6.77,-13.74 11.9,-19.28 5.13,-5.75 11.49,-10.26 19.08,-13.33 7.8,-3.28 17.23,-4.92 28.31,-4.92 2.87,0 5.95,0.2 9.44,0.41 3.48,0.2 6.36,0.82 8.61,1.43l0 15.38c-2.46,-0.82 -5.33,-1.43 -8.41,-1.85 -3.08,-0.41 -6.15,-0.62 -9.23,-0.62 -9.43,0 -17.23,1.64 -23.59,4.72 -6.36,3.08 -11.28,7.38 -14.98,12.92 -3.48,5.54 -6.15,11.69 -7.79,18.87 -1.64,7.18 -2.67,14.77 -3.08,22.77l1.23 0c2.05,-3.28 4.71,-6.15 7.79,-8.82 3.08,-2.67 6.98,-4.72 11.28,-6.15 4.51,-1.44 9.64,-2.26 15.59,-2.26 8.41,0 15.8,1.85 22.15,5.33 6.36,3.48 11.49,8.41 14.97,15.18 3.49,6.57 5.33,14.56 5.33,24 0,10.05 -1.85,18.87 -5.74,26.26 -3.9,7.38 -9.23,13.13 -16.21,17.03 -6.77,3.9 -14.97,5.95 -24.61,5.95 -6.97,0 -13.54,-1.23 -19.48,-3.9 -5.95,-2.66 -11.28,-6.57 -16,-11.9 -4.52,-5.33 -8,-12.1 -10.67,-20.31 -2.46,-8 -3.69,-17.64 -3.69,-28.51zm49.64 49.44c8.61,0 15.59,-2.67 20.92,-8.21 5.33,-5.54 8,-14.15 8,-25.84 0,-9.23 -2.46,-16.61 -7.18,-22.15 -4.71,-5.54 -11.69,-8.2 -21.13,-8.2 -6.36,0 -12.1,1.43 -16.82,4.1 -4.72,2.66 -8.41,5.95 -11.08,10.05 -2.67,4.1 -4.1,8.41 -4.1,12.72 0,4.51 0.62,9.02 2.05,13.33 1.23,4.31 3.08,8.41 5.75,12.1 2.66,3.69 5.95,6.57 9.85,8.82 3.9,2.26 8.61,3.29 13.74,3.29z"/>
  <path class="fil2" d="M8363.05 9.43l-38.97 146.45 -18.66 0 -28.51 -95.99c-0.82,-2.87 -1.64,-5.74 -2.46,-8.82 -0.82,-3.08 -1.64,-5.95 -2.26,-8.61 -0.62,-2.66 -1.23,-5.13 -1.85,-6.97 -0.41,-2.05 -0.62,-3.49 -0.82,-4.52 -0.21,1.03 -0.41,2.46 -0.62,4.52 -0.41,1.85 -1.03,4.31 -1.64,6.97 -0.62,2.66 -1.43,5.74 -2.26,8.82 -0.62,3.08 -1.43,6.15 -2.46,9.23l-27.69 95.38 -18.66 0 -38.77 -146.45 19.28 0 22.77 89.43c0.82,3.08 1.64,6.36 2.26,9.44 0.62,3.08 1.23,5.95 1.85,9.02 0.62,2.87 1.23,5.75 1.64,8.41 0.41,2.66 0.82,5.33 1.23,8 0.41,-2.66 0.82,-5.54 1.23,-8.41 0.62,-2.87 1.23,-5.74 1.85,-8.82 0.62,-3.08 1.43,-6.36 2.25,-9.43 0.82,-3.08 1.64,-6.15 2.46,-9.23l25.84 -88.41 19.08 0 26.87 89.02c1.02,3.08 1.85,6.36 2.66,9.64 0.82,3.08 1.64,6.15 2.26,9.23 0.62,3.08 1.23,5.95 1.64,8.61 0.62,2.87 1.03,5.54 1.44,7.8 0.41,-3.49 1.02,-6.97 1.64,-10.66 0.62,-3.9 1.44,-7.8 2.46,-11.9 1.03,-4.1 2.05,-8.2 3.08,-12.51l22.56 -89.23 19.28 0z"/>
  <path id="_1_20" class="fil2" d="M8421.51 43.89c9.44,0 17.44,2.05 24.21,6.15 6.77,4.1 12.1,9.85 15.59,17.43 3.69,7.38 5.54,16 5.54,26.05l0 10.87 -75.28 0c0.2,12.52 3.48,21.95 9.43,28.51 6.15,6.36 14.77,9.64 25.64,9.64 6.97,0 13.13,-0.62 18.46,-1.85 5.54,-1.43 11.08,-3.28 16.82,-5.74l0 15.8c-5.54,2.46 -11.08,4.31 -16.61,5.33 -5.54,1.23 -11.9,1.85 -19.49,1.85 -10.46,0 -19.69,-2.05 -27.69,-6.36 -8,-4.31 -14.15,-10.66 -18.66,-19.08 -4.31,-8.41 -6.57,-18.66 -6.57,-30.77 0,-12.1 2.05,-22.36 5.95,-30.97 4.1,-8.61 9.85,-15.18 17.03,-19.89 7.38,-4.72 16,-6.98 25.64,-6.98zm-0.2 14.77c-8.61,0 -15.38,2.66 -20.51,8.2 -4.92,5.54 -7.8,13.33 -8.82,23.18l56 0c0,-6.36 -1.02,-11.69 -2.87,-16.41 -1.85,-4.71 -4.72,-8.41 -8.61,-11.08 -3.9,-2.66 -9.03,-3.9 -15.18,-3.9z"/>
  <path id="_2_21" class="fil2" d="M8537.19 43.89c9.44,0 17.44,2.05 24.21,6.15 6.77,4.1 12.1,9.85 15.59,17.43 3.69,7.38 5.54,16 5.54,26.05l0 10.87 -75.28 0c0.2,12.52 3.48,21.95 9.43,28.51 6.15,6.36 14.77,9.64 25.64,9.64 6.97,0 13.13,-0.62 18.46,-1.85 5.54,-1.43 11.08,-3.28 16.82,-5.74l0 15.8c-5.54,2.46 -11.08,4.31 -16.61,5.33 -5.54,1.23 -11.9,1.85 -19.49,1.85 -10.46,0 -19.69,-2.05 -27.69,-6.36 -8,-4.31 -14.15,-10.66 -18.66,-19.08 -4.31,-8.41 -6.57,-18.66 -6.57,-30.77 0,-12.1 2.05,-22.36 5.95,-30.97 4.1,-8.61 9.85,-15.18 17.03,-19.89 7.38,-4.72 16,-6.98 25.64,-6.98zm-0.2 14.77c-8.61,0 -15.38,2.66 -20.51,8.2 -4.92,5.54 -7.8,13.33 -8.82,23.18l56 0c0,-6.36 -1.02,-11.69 -2.87,-16.41 -1.85,-4.71 -4.72,-8.41 -8.61,-11.08 -3.9,-2.66 -9.03,-3.9 -15.18,-3.9z"/>
  <path id="_3_22" class="fil2" d="M8628.26 81.43c0,2.26 -0.2,5.13 -0.41,8.61 -0.21,3.49 -0.21,6.57 -0.41,9.23l0.82 0c0.82,-1.03 2.05,-2.66 3.69,-4.72 1.64,-2.05 3.29,-4.1 4.92,-6.15 1.85,-2.25 3.29,-3.9 4.52,-5.33l35.07 -37.12 21.13 0 -44.51 46.97 47.59 62.97 -21.74 0 -38.15 -51.28 -12.52 10.87 0 40.41 -17.85 0 0 -155.89 17.85 0 0 81.43z"/>
  <path id="_4_23" class="fil2" d="M8812.26 66.05c10.05,0 18.66,1.64 26.05,5.13 7.38,3.49 13.13,8.41 17.03,14.77 4.1,6.36 6.15,13.95 6.15,23.18 0,10.05 -2.25,18.87 -6.56,26.05 -4.31,7.38 -10.66,12.92 -18.87,16.82 -8,3.9 -17.85,5.95 -29.33,5.95 -7.59,0 -14.56,-0.62 -21.13,-2.05 -6.77,-1.43 -12.31,-3.28 -16.82,-5.95l0 -17.02c4.92,3.08 10.87,5.33 17.85,7.18 7.18,1.64 13.95,2.46 20.31,2.46 7.18,0 13.54,-1.02 19.08,-3.28 5.33,-2.26 9.43,-5.74 12.51,-10.46 3.08,-4.72 4.52,-10.66 4.52,-17.85 0,-9.64 -2.87,-16.82 -8.82,-21.95 -5.95,-5.13 -15.18,-7.79 -27.89,-7.79 -3.9,0 -8.2,0.41 -13.13,1.02 -4.92,0.62 -8.82,1.44 -11.9,2.05l-9.02 -5.75 5.54 -69.12 73.43 0 0 16.41 -58.05 0 -3.49 42.46c2.26,-0.41 5.54,-0.82 9.43,-1.44 3.9,-0.62 8.41,-0.82 13.13,-0.82z"/>
  <path class="fil2" d="M14429.87 9.43l-38.97 146.45 -18.66 0 -28.51 -95.99c-0.82,-2.87 -1.64,-5.74 -2.46,-8.82 -0.82,-3.08 -1.64,-5.95 -2.26,-8.61 -0.62,-2.66 -1.23,-5.13 -1.85,-6.97 -0.41,-2.05 -0.62,-3.49 -0.82,-4.52 -0.21,1.03 -0.41,2.46 -0.62,4.52 -0.41,1.85 -1.03,4.31 -1.64,6.97 -0.62,2.66 -1.43,5.74 -2.26,8.82 -0.62,3.08 -1.43,6.15 -2.46,9.23l-27.69 95.38 -18.66 0 -38.77 -146.45 19.28 0 22.77 89.43c0.82,3.08 1.64,6.36 2.26,9.44 0.62,3.08 1.23,5.95 1.85,9.02 0.62,2.87 1.23,5.75 1.64,8.41 0.41,2.66 0.82,5.33 1.23,8 0.41,-2.66 0.82,-5.54 1.23,-8.41 0.62,-2.87 1.23,-5.74 1.85,-8.82 0.62,-3.08 1.43,-6.36 2.25,-9.43 0.82,-3.08 1.64,-6.15 2.46,-9.23l25.84 -88.41 19.08 0 26.87 89.02c1.02,3.08 1.85,6.36 2.66,9.64 0.82,3.08 1.64,6.15 2.26,9.23 0.62,3.08 1.23,5.95 1.64,8.61 0.62,2.87 1.03,5.54 1.44,7.8 0.41,-3.49 1.02,-6.97 1.64,-10.66 0.62,-3.9 1.44,-7.8 2.46,-11.9 1.03,-4.1 2.05,-8.2 3.08,-12.51l22.56 -89.23 19.28 0z"/>
  <path id="_1_24" class="fil2" d="M14488.32 43.89c9.44,0 17.44,2.05 24.21,6.15 6.77,4.1 12.1,9.85 15.59,17.43 3.69,7.38 5.54,16 5.54,26.05l0 10.87 -75.28 0c0.2,12.52 3.48,21.95 9.43,28.51 6.15,6.36 14.77,9.64 25.64,9.64 6.97,0 13.13,-0.62 18.46,-1.85 5.54,-1.43 11.08,-3.28 16.82,-5.74l0 15.8c-5.54,2.46 -11.08,4.31 -16.61,5.33 -5.54,1.23 -11.9,1.85 -19.49,1.85 -10.46,0 -19.69,-2.05 -27.69,-6.36 -8,-4.31 -14.15,-10.66 -18.66,-19.08 -4.31,-8.41 -6.57,-18.66 -6.57,-30.77 0,-12.1 2.05,-22.36 5.95,-30.97 4.1,-8.61 9.85,-15.18 17.03,-19.89 7.38,-4.72 16,-6.98 25.64,-6.98zm-0.2 14.77c-8.61,0 -15.38,2.66 -20.51,8.2 -4.92,5.54 -7.8,13.33 -8.82,23.18l56 0c0,-6.36 -1.02,-11.69 -2.87,-16.41 -1.85,-4.71 -4.72,-8.41 -8.61,-11.08 -3.9,-2.66 -9.03,-3.9 -15.18,-3.9z"/>
  <path id="_2_25" class="fil2" d="M14604.01 43.89c9.44,0 17.44,2.05 24.21,6.15 6.77,4.1 12.1,9.85 15.59,17.43 3.69,7.38 5.54,16 5.54,26.05l0 10.87 -75.28 0c0.2,12.52 3.48,21.95 9.43,28.51 6.15,6.36 14.77,9.64 25.64,9.64 6.97,0 13.13,-0.62 18.46,-1.85 5.54,-1.43 11.08,-3.28 16.82,-5.74l0 15.8c-5.54,2.46 -11.08,4.31 -16.61,5.33 -5.54,1.23 -11.9,1.85 -19.49,1.85 -10.46,0 -19.69,-2.05 -27.69,-6.36 -8,-4.31 -14.15,-10.66 -18.66,-19.08 -4.31,-8.41 -6.57,-18.66 -6.57,-30.77 0,-12.1 2.05,-22.36 5.95,-30.97 4.1,-8.61 9.85,-15.18 17.03,-19.89 7.38,-4.72 16,-6.98 25.64,-6.98zm-0.2 14.77c-8.61,0 -15.38,2.66 -20.51,8.2 -4.92,5.54 -7.8,13.33 -8.82,23.18l56 0c0,-6.36 -1.02,-11.69 -2.87,-16.41 -1.85,-4.71 -4.72,-8.41 -8.61,-11.08 -3.9,-2.66 -9.03,-3.9 -15.18,-3.9z"/>
  <path id="_3_26" class="fil2" d="M14695.08 81.43c0,2.26 -0.2,5.13 -0.41,8.61 -0.21,3.49 -0.21,6.57 -0.41,9.23l0.82 0c0.82,-1.03 2.05,-2.66 3.69,-4.72 1.64,-2.05 3.29,-4.1 4.92,-6.15 1.85,-2.25 3.29,-3.9 4.52,-5.33l35.07 -37.12 21.13 0 -44.51 46.97 47.59 62.97 -21.74 0 -38.15 -51.28 -12.52 10.87 0 40.41 -17.85 0 0 -155.89 17.85 0 0 81.43z"/>
  <path id="_4_27" class="fil2" d="M14881.12 7.38c8.61,0 16.2,1.23 22.77,3.9 6.57,2.67 11.69,6.77 15.38,11.9 3.9,5.13 5.74,11.69 5.74,19.28 0,5.95 -1.23,11.08 -3.9,15.38 -2.46,4.31 -5.74,8.2 -10.05,11.69 -4.31,3.28 -8.82,6.15 -13.95,8.82 5.95,2.87 11.49,6.15 16.41,9.85 4.92,3.49 8.82,7.8 11.69,12.51 3.07,4.72 4.51,10.46 4.51,17.23 0,8.21 -2.05,15.18 -5.95,21.13 -3.9,5.95 -9.64,10.66 -16.82,13.94 -7.18,3.29 -15.59,4.92 -25.23,4.92 -10.46,0 -19.49,-1.64 -26.87,-4.71 -7.18,-3.08 -12.71,-7.59 -16.61,-13.33 -3.69,-5.95 -5.54,-12.92 -5.54,-21.33 0,-6.77 1.44,-12.51 4.31,-17.43 2.67,-4.92 6.36,-9.23 11.08,-12.72 4.72,-3.48 9.64,-6.56 14.98,-9.02 -4.72,-2.67 -9.03,-5.75 -12.92,-9.23 -3.9,-3.49 -7.18,-7.59 -9.44,-12.1 -2.25,-4.51 -3.28,-9.85 -3.28,-15.79 0,-7.59 1.85,-13.75 5.74,-18.87 3.9,-5.13 9.03,-9.23 15.59,-11.9 6.56,-2.67 13.94,-4.1 22.36,-4.1zm-30.77 111.38c0,7.18 2.46,13.13 7.59,17.85 5.13,4.71 12.92,6.97 23.38,6.97 10.05,0 17.64,-2.26 22.77,-6.97 5.33,-4.72 8,-10.87 8,-18.46 0,-4.72 -1.23,-9.03 -3.9,-12.52 -2.46,-3.69 -5.95,-6.97 -10.66,-9.85 -4.52,-2.87 -9.85,-5.54 -16.21,-7.79l-3.28 -1.23c-5.95,2.66 -11.08,5.33 -15.18,8.41 -4.1,3.08 -7.18,6.36 -9.43,10.26 -2.05,3.9 -3.08,8.2 -3.08,13.33zm30.56 -96.81c-7.59,0 -13.75,1.85 -18.67,5.54 -4.71,3.48 -7.18,8.82 -7.18,15.59 0,5.13 1.23,9.23 3.69,12.71 2.25,3.49 5.54,6.36 9.64,8.82 4.1,2.25 8.61,4.51 13.54,6.77 4.72,-2.05 9.03,-4.31 12.72,-6.77 3.9,-2.46 6.97,-5.33 9.23,-8.82 2.26,-3.48 3.28,-7.79 3.28,-12.71 0,-6.77 -2.46,-12.1 -7.18,-15.59 -4.72,-3.69 -11.08,-5.54 -19.08,-5.54z"/>
  <polygon class="fil0" points="315.57,274.33 288.19,274.33 288.19,548.66 315.57,548.66 "/>
  <polygon class="fil0" points="2332.88,274.33 2305.49,274.33 2305.49,548.66 2332.88,548.66 "/>
  <polygon class="fil0" points="4350.19,274.33 4322.8,274.33 4322.8,548.66 4350.19,548.66 "/>
  <polygon class="fil0" points="6367.5,274.33 6340.11,274.33 6340.11,548.66 6367.5,548.66 "/>
  <polygon class="fil0" points="8384.81,274.33 8357.42,274.33 8357.42,548.66 8384.81,548.66 "/>
  <polygon class="fil0" points="10402.11,274.33 10374.73,274.33 10374.73,548.66 10402.11,548.66 "/>
  <polygon class="fil0" points="12419.42,274.33 12392.04,274.33 12392.04,548.66 12419.42,548.66 "/>
  <polygon class="fil0" points="14436.73,274.33 14409.35,274.33 14409.35,548.66 14436.73,548.66 "/>
  <polygon class="fil0" points="603.76,274.33 576.38,274.33 576.38,548.66 603.76,548.66 "/>
  <polygon class="fil0" points="2621.07,274.33 2593.68,274.33 2593.68,548.66 2621.07,548.66 "/>
  <polygon class="fil0" points="4638.38,274.33 4610.99,274.33 4610.99,548.66 4638.38,548.66 "/>
  <polygon class="fil0" points="6655.69,274.33 6628.3,274.33 6628.3,548.66 6655.69,548.66 "/>
  <polygon class="fil0" points="8673,274.33 8645.61,274.33 8645.61,548.66 8673,548.66 "/>
  <polygon class="fil0" points="10690.3,274.33 10662.92,274.33 10662.92,548.66 10690.3,548.66 "/>
  <polygon class="fil0" points="12707.61,274.33 12680.23,274.33 12680.23,548.66 12707.61,548.66 "/>
  <polygon class="fil0" points="14724.92,274.33 14697.54,274.33 14697.54,548.66 14724.92,548.66 "/>
  <polygon class="fil0" points="891.95,274.33 864.56,274.33 864.56,548.66 891.95,548.66 "/>
  <polygon class="fil0" points="2909.26,274.33 2881.87,274.33 2881.87,548.66 2909.26,548.66 "/>
  <polygon class="fil0" points="4926.56,274.33 4899.18,274.33 4899.18,548.66 4926.56,548.66 "/>
  <polygon class="fil0" points="6943.87,274.33 6916.49,274.33 6916.49,548.66 6943.87,548.66 "/>
  <polygon class="fil0" points="8961.18,274.33 8933.8,274.33 8933.8,548.66 8961.18,548.66 "/>
  <polygon class="fil0" points="10978.49,274.33 10951.1,274.33 10951.1,548.66 10978.49,548.66 "/>
  <polygon class="fil0" points="12995.8,274.33 12968.41,274.33 12968.41,548.66 12995.8,548.66 "/>
  <polygon class="fil0" points="15013.11,274.33 14985.72,274.33 14985.72,548.66 15013.11,548.66 "/>
  <polygon class="fil0" points="1180.13,274.33 1152.75,274.33 1152.75,548.66 1180.13,548.66 "/>
  <polygon class="fil0" points="3197.44,274.33 3170.06,274.33 3170.06,548.66 3197.44,548.66 "/>
  <polygon class="fil0" points="5214.75,274.33 5187.36,274.33 5187.36,548.66 5214.75,548.66 "/>
  <polygon class="fil0" points="7232.06,274.33 7204.67,274.33 7204.67,548.66 7232.06,548.66 "/>
  <polygon class="fil0" points="9249.37,274.33 9221.98,274.33 9221.98,548.66 9249.37,548.66 "/>
  <polygon class="fil0" points="11266.68,274.33 11239.29,274.33 11239.29,548.66 11266.68,548.66 "/>
  <polygon class="fil0" points="13283.98,274.33 13256.6,274.33 13256.6,548.66 13283.98,548.66 "/>
  <polygon class="fil0" points="15301.29,274.33 15273.91,274.33 15273.91,548.66 15301.29,548.66 "/>
  <polygon class="fil0" points="1468.32,274.33 1440.93,274.33 1440.93,548.66 1468.32,548.66 "/>
  <polygon class="fil0" points="3485.63,274.33 3458.24,274.33 3458.24,548.66 3485.63,548.66 "/>
  <polygon class="fil0" points="5502.94,274.33 5475.55,274.33 5475.55,548.66 5502.94,548.66 "/>
  <polygon class="fil0" points="7520.24,274.33 7492.86,274.33 7492.86,548.66 7520.24,548.66 "/>
  <polygon class="fil0" points="9537.55,274.33 9510.17,274.33 9510.17,548.66 9537.55,548.66 "/>
  <polygon class="fil0" points="11554.86,274.33 11527.48,274.33 11527.48,548.66 11554.86,548.66 "/>
  <polygon class="fil0" points="13572.17,274.33 13544.78,274.33 13544.78,548.66 13572.17,548.66 "/>
  <polygon class="fil0" points="15589.48,274.33 15562.09,274.33 15562.09,548.66 15589.48,548.66 "/>
  <polygon class="fil0" points="15877.67,274.33 15850.28,274.33 15850.28,548.66 15877.67,548.66 "/>
  <polygon class="fil0" points="1756.51,274.33 1729.12,274.33 1729.12,548.66 1756.51,548.66 "/>
  <polygon class="fil0" points="3773.82,274.33 3746.43,274.33 3746.43,548.66 3773.82,548.66 "/>
  <polygon class="fil0" points="5791.13,274.33 5763.74,274.33 5763.74,548.66 5791.13,548.66 "/>
  <polygon class="fil0" points="7808.43,274.33 7781.05,274.33 7781.05,548.66 7808.43,548.66 "/>
  <polygon class="fil0" points="9825.74,274.33 9798.36,274.33 9798.36,548.66 9825.74,548.66 "/>
  <polygon class="fil0" points="11843.05,274.33 11815.67,274.33 11815.67,548.66 11843.05,548.66 "/>
  <polygon class="fil0" points="13860.36,274.33 13832.97,274.33 13832.97,548.66 13860.36,548.66 "/>
 </g>
</svg>
