<?xml version="1.0" encoding="UTF-8"?><svg id="Layer_2" xmlns="http://www.w3.org/2000/svg" viewBox="0 0 422.44 422.34"><g id="Layer_2-2"><g id="Layer_1-2"><g isolation="isolate"><g isolation="isolate"><path d="M164.33,400.3l-.07.27c-1.37-.28-1.85,0-2.1,1.01l-2.11,8.17c-.16.62-.07.93.31,1.03.18.05.52.04.88,0l.54-.05-.07.25-3.69.82-.15-.1,2.8-10.87c.2-.78-.08-1.2-1.44-1.56l.07-.27,5.02,1.3Z" fill="#fff"/></g></g><g isolation="isolate"><g isolation="isolate"><path d="M138.13,398.63l5,1.85-4.03-3.46.46-.52,3.88,3.64-2.41-4.74.63-.3,2.21,4.82-.4-5.28.69-.06.19,5.33,1.65-5.06.66.23-1.87,4.99,3.47-4.05.51.48-3.61,3.87,4.74-2.38.29.63-4.84,2.21,5.31-.42.03.69-5.3.2,5.05,1.65-.24.68-4.98-1.87,4.02,3.46-.46.52-3.89-3.64,2.4,4.75-.62.3-2.22-4.82.41,5.29-.7.05-.19-5.32-1.64,5.06-.66-.23,1.86-4.98-3.47,4.04-.51-.47,3.61-3.88-4.74,2.39-.31-.62,4.84-2.21-5.3.42-.04-.69,5.31-.19-5.06-1.65.23-.66Z" fill="#fff"/></g></g><g isolation="isolate"><g isolation="isolate"><path d="M128.34,387.64l6.71,3-.09.21-4.51,1.88c-2.37.98-3.57,2-4.23,3.46-.7,1.56-.16,2.83,1.3,3.49,1.24.55,2.08.27,3.52-1.1l.32.25c-1.26,1.85-2.99,2.76-5.1,1.82-1.94-.87-2.58-2.74-1.82-4.44.61-1.36,1.85-2.34,4.1-3.27l4.18-1.75-4.02-1.8c-.72-.32-1.17-.29-2.16.41l-.19-.21,1.98-1.94Z" fill="#fff"/></g></g><g isolation="isolate"><g isolation="isolate"><path d="M112.37,377.46c3.63,2.09,4.85,6.8,2.75,10.44-2.09,3.63-6.72,4.85-10.35,2.76-.88-.51-1.63-1.28-2.21-2.08,3.35,1.91,7.48.84,9.4-2.5,1.91-3.32.84-7.56-2.5-9.49.96.06,1.99.34,2.9.87ZM105.13,390.06c3.34,1.92,7.46.84,9.39-2.51,1.86-3.23.85-7.32-2.24-9.34l-.03.05c1.63,2.33,1.82,5.54.31,8.16-1.59,2.75-4.45,3.99-7.41,3.6l-.02.03Z" fill="#fff"/></g></g><g isolation="isolate"><g isolation="isolate"><path d="M94.48,379.32c-1.49,1.13-3.18,1.46-4.77.32-1.42-1.02-1.78-2.55-.88-3.8.53-.73,1.47-1.21,2.94-1.08-.46-.77-.61-1.15-.68-1.72-.09-.78.17-1.66.75-2.45.58-.81,1.38-1.37,2.24-1.63,1.44-.45,3.2.15,4.56,1.13,1.11.8,1.48,1.55,1.08,2.1-.23.32-.67.35-1.02.1-.26-.19-.44-.45-.64-1.07-.28-.8-.54-1.11-.97-1.42-1.13-.81-2.73-.39-3.66.91-.83,1.16-.84,2.29,0,3.35.26.35.58.65,1.45,1.27l-.15.21c-.72-.22-1.24-.34-1.68-.37-1.06-.11-2.04.22-2.71,1.15-.75,1.04-.48,2.02.53,2.74.95.68,2,.7,3.44.02l.2.24Z" fill="#fff"/></g></g><g isolation="isolate"><g isolation="isolate"><path d="M75.21,359.62l3.99,3.53-2.5-4.69.62-.32,2.3,4.79-.53-5.29.7-.05.32,5.29,1.54-5.06.67.2-1.75,5.03,3.37-4.12.53.45-3.55,3.97,4.7-2.52.3.63-4.77,2.3,5.29-.51.05.69-5.31.31,5.1,1.53-.22.66-5.01-1.74,4.11,3.37-.47.54-3.96-3.54,2.5,4.68-.61.32-2.31-4.8.52,5.3-.69.05-.33-5.3-1.54,5.08-.67-.21,1.75-5.03-3.36,4.12-.53-.45,3.54-3.97-4.69,2.51-.3-.62,4.77-2.31-5.28.51-.06-.69,5.31-.31-5.09-1.53.22-.66,5.02,1.74-4.13-3.37.45-.53Z" fill="#fff"/></g></g><g isolation="isolate"><g isolation="isolate"><path d="M68.48,348.72l2.23-2.21,1.03,1.04-2.23,2.21,3.71,3.74-.85.85-10.1,1.7-.58-.59,5.94-5.89-1.36-1.38.85-.85,1.36,1.38ZM64.07,355.15l7.76-1.33-3.18-3.21-4.58,4.54Z" fill="#fff"/></g></g><g isolation="isolate"><g isolation="isolate"><path d="M58.82,330.59c2.64,3.26,2.07,8.09-1.19,10.73-3.26,2.63-8.02,2.1-10.65-1.16-.64-.79-1.05-1.78-1.31-2.73,2.44,2.99,6.68,3.47,9.67,1.05,2.98-2.41,3.51-6.75,1.09-9.75.88.4,1.73,1.04,2.4,1.86ZM47.53,339.74c2.42,3,6.65,3.47,9.66,1.04,2.9-2.34,3.43-6.52,1.28-9.52l-.04.04c.68,2.76-.3,5.82-2.65,7.73-2.47,2-5.58,2.12-8.21.69l-.03.02Z" fill="#fff"/></g></g><g isolation="isolate"><g isolation="isolate"><path d="M36.49,321.1c.14-.02.32.04.48.29l1.99,3.05,1.75-.24c-1.05-2.53-1.21-3.54-.56-5.25.3-.78.8-1.31,1.64-1.86,1.51-.99,2.8-1.15,4.28-.6,1.02.39,1.82,1.1,2.52,2.17.77,1.18.93,2.25.33,2.64-.39.26-.77.12-1.06-.32-.24-.36-.35-.71-.27-1.48.07-.68-.02-1.13-.23-1.45-.72-1.1-2.69-1.27-4.05-.39-1.01.66-1.57,1.52-1.67,2.6-.11,1.13.1,2.56,1.09,4.07.09.14.09.21,0,.27-.03.02-.09.04-.09.04l-4.85.72-2.13-3.26c-.24-.36-.41-.45-.9-.49l.02-.21,1.71-.31Z" fill="#fff"/></g></g><g isolation="isolate"><g isolation="isolate"><path d="M30.55,300.57l2.45,4.73-.65-5.27.69-.07.42,5.3,1.42-5.12.67.2-1.61,5.05,3.26-4.17.55.42-3.45,4.06,4.63-2.63.33.61-4.74,2.42,5.29-.66.06.7-5.28.43,5.11,1.43-.2.66-5.06-1.63,4.21,3.27-.44.53-4.05-3.43,2.62,4.62-.63.34-2.42-4.73.64,5.27-.69.08-.43-5.31-1.42,5.13-.66-.2,1.61-5.06-3.26,4.18-.55-.44,3.44-4.06-4.62,2.63-.33-.61,4.73-2.43-5.28.65-.06-.69,5.28-.44-5.11-1.42.19-.67,5.07,1.62-4.2-3.26.44-.54,4.05,3.43-2.63-4.63.61-.33Z" fill="#fff"/></g></g><g isolation="isolate"><g isolation="isolate"><path d="M18.99,290.38c1.63,2.51,4.33,3.63,7.14,2.96-1.02-.56-1.4-1.09-1.73-1.85-.88-2.02-.04-3.86,2.18-4.83,1.1-.48,2.2-.59,3.14-.32,1.07.29,1.96,1.05,2.45,2.19.59,1.36.43,2.72-.41,3.81-.67.87-1.75,1.73-2.96,2.25-1.86.81-3.78.87-5.58.2-2.2-.8-3.2-1.99-4.5-4.25l.26-.16ZM25.46,291.76c.43.98,1.29,1.82,2.87,1.13,2.62-1.14,3.98-2.72,3.27-4.34-.54-1.24-2.06-1.34-3.82-.57-2.21.96-3.03,2.18-2.33,3.78Z" fill="#fff"/></g></g><g isolation="isolate"><g isolation="isolate"><path d="M25.78,267.56c1.28,3.99-1,8.29-5,9.57-3.99,1.28-8.23-.94-9.51-4.94-.31-.97-.34-2.04-.23-3.02,1.19,3.67,4.96,5.66,8.63,4.49,3.65-1.17,5.72-5.02,4.55-8.69.67.69,1.24,1.6,1.56,2.6ZM11.94,272c1.17,3.67,4.94,5.65,8.63,4.47,3.55-1.13,5.56-4.83,4.64-8.41l-.05.02c-.36,2.82-2.39,5.32-5.27,6.24-3.03.97-5.97-.05-7.91-2.33h-.04Z" fill="#fff"/></g></g><g isolation="isolate"><g isolation="isolate"><path d="M20.16,251.34l.25,1.2-11.73-1.34.83,3.96c.22,1.07.55,1.33,1.96,1.84l-.1.37-2.94-.54-1.42-6.79.29-.06,12.85,1.37Z" fill="#fff"/></g></g><g isolation="isolate"><g isolation="isolate"><path d="M10.35,229.35l.56,5.3,1.31-5.15.67.19-1.53,5.09,3.18-4.26.55.43-3.34,4.12,4.55-2.7.36.59-4.69,2.53,5.27-.76.09.69-5.3.54,5.17,1.31-.2.67-5.07-1.52,4.24,3.19-.43.54-4.12-3.36,2.73,4.57-.61.33-2.53-4.66.76,5.26-.71.09-.54-5.29-1.31,5.14-.67-.18,1.53-5.1-3.19,4.26-.54-.42,3.34-4.13-4.56,2.71-.35-.6,4.68-2.53-5.26.77-.09-.69,5.29-.54-5.16-1.31.2-.66,5.08,1.51-4.24-3.18.42-.55,4.13,3.36-2.73-4.57.6-.34,2.53,4.67-.77-5.27.69-.09Z" fill="#fff"/></g></g><g isolation="isolate"><g isolation="isolate"><path d="M16.24,218.9c.09,2.12-1.15,3.66-2.92,3.73-1.3.05-2.05-.35-3.54-2.3-1.52,2-2.22,2.42-3.44,2.47-1.8.07-2.99-1.44-3.08-3.53-.08-1.86,1.09-3.21,2.56-3.26,1.41-.06,2.07.57,3.14,2.39,1.45-2.37,2.44-3.01,3.94-3.07,1.94-.08,3.23,1.32,3.33,3.57ZM3.8,219.44c.05,1.26.78,2.04,1.94,1.99,1.16-.05,2-.78,2.91-2.47-.8-1.25-1.61-1.7-2.78-1.66-1.3.05-2.13.86-2.08,2.13ZM10.14,219.82c.95,1.07,1.73,1.43,2.95,1.38,1.73-.07,2.67-1.07,2.61-2.49-.05-1.22-.93-2.03-2.15-1.98-1.16.05-1.89.64-2.71,1.95l-.71,1.14Z" fill="#fff"/></g></g><g isolation="isolate"><g isolation="isolate"><path d="M17.56,201.43c-.15,4.19-3.75,7.46-7.94,7.31s-7.43-3.67-7.28-7.86c.04-1.01.37-2.04.8-2.92-.12,3.85,2.76,7,6.61,7.14,3.83.14,7.08-2.79,7.22-6.64.4.88.63,1.92.59,2.97ZM3.04,200.93c-.14,3.85,2.74,6.98,6.61,7.12,3.72.13,6.87-2.67,7.21-6.34h-.06c-1.29,2.53-4.04,4.2-7.07,4.09-3.17-.11-5.61-2.06-6.65-4.87h-.04Z" fill="#fff"/></g></g><g isolation="isolate"><g isolation="isolate"><path d="M16.7,192.18c-.18-2.9-1.9-5.21-4.88-6.31.69.89.87,1.82.75,2.92-.23,2.02-1.9,3.19-4.18,2.93-2.52-.29-4.22-2.17-3.96-4.39.14-1.2.77-2.14,1.75-2.77,1.02-.64,2.41-.94,3.98-.76,2.15.24,4.1,1.22,5.29,2.87,1.26,1.75,1.57,3.02,1.63,5.48h-.38ZM9.95,185.62c-3.14-.36-4.84.3-5.03,1.93-.06.56.11,1.07.48,1.44.46.43,1.53.84,2.54.95,2.22.25,3.72-.48,3.88-1.88.09-.82-.16-2.23-1.15-2.35l-.73-.08Z" fill="#fff"/></g></g><g isolation="isolate"><g isolation="isolate"><path d="M14.8,164.86l-1.13,5.2,2.87-4.47.58.39-3.06,4.35,4.36-3.04.39.58-4.47,2.86,5.17-1.13.16.68-5.25.93,5.24.93-.14.68-5.2-1.16,4.49,2.87-.41.57-4.34-3.04,3.02,4.37-.58.38-2.86-4.48,1.15,5.2-.68.13-.93-5.22-.93,5.23-.7-.14,1.16-5.19-2.87,4.46-.58-.38,3.06-4.36-4.37,3.04-.38-.57,4.47-2.87-5.18,1.14-.14-.68,5.24-.93-5.24-.92.14-.68,5.19,1.15-4.48-2.87.39-.57,4.35,3.03-3.02-4.36.57-.39,2.87,4.48-1.15-5.19.68-.14.93,5.23.93-5.24.68.14Z" fill="#fff"/></g></g><g isolation="isolate"><g isolation="isolate"><path d="M22.75,159.08l-.27-.08c.31-1.36.04-1.85-.95-2.13l-8.11-2.34c-.61-.18-.93-.09-1.04.29-.05.18-.05.51-.02.88l.04.54-.25-.07-.71-3.71.1-.15,10.78,3.11c.78.22,1.21-.04,1.6-1.4l.27.08-1.44,4.99Z" fill="#fff"/></g></g><g isolation="isolate"><g isolation="isolate"><path d="M26.46,147.97c-1.04,3.04-4.68,2.89-7.6,1.9-3.15-1.07-5.63-3.29-4.65-6.16.79-2.33,3.86-3.09,7.5-1.85,3.06,1.04,5.74,3.21,4.75,6.11ZM14.63,143.97c-.5,1.48,1.32,2.99,4.93,4.22s5.91,1.14,6.43-.39c.52-1.51-1.26-3.01-4.78-4.21-3.7-1.26-6.05-1.19-6.58.38Z" fill="#fff"/></g></g><g isolation="isolate"><g isolation="isolate"><path d="M33.99,132.21c-1.66,3.85-6.2,5.6-10.05,3.94-3.85-1.66-5.59-6.12-3.93-9.97.4-.93,1.09-1.76,1.81-2.43-1.51,3.55.03,7.53,3.57,9.05,3.52,1.52,7.61-.04,9.14-3.57.06.96-.11,2.02-.53,2.99ZM20.64,126.48c-1.53,3.54.02,7.5,3.58,9.03,3.42,1.47,7.37,0,9.02-3.3l-.05-.02c-2.12,1.89-5.29,2.45-8.07,1.25-2.92-1.26-4.48-3.96-4.44-6.95l-.03-.02Z" fill="#fff"/></g></g><g isolation="isolate"><g isolation="isolate"><path d="M37.06,122.23l-.25-.13c.58-1.27.42-1.8-.5-2.28l-7.46-3.94c-.57-.3-.89-.28-1.08.07-.09.17-.15.49-.19.85l-.07.54-.23-.12.06-3.77.13-.12,9.93,5.24c.71.38,1.19.2,1.85-1.04l.25.13-2.42,4.59Z" fill="#fff"/></g></g><g isolation="isolate"><g isolation="isolate"><path d="M41.46,114.1l-.24-.14c.64-1.24.5-1.78-.39-2.3l-7.27-4.29c-.55-.32-.88-.32-1.08.02-.1.16-.18.49-.24.84l-.1.53-.23-.13.24-3.77.13-.12,9.67,5.7c.7.41,1.18.26,1.9-.96l.24.14-2.64,4.47Z" fill="#fff"/></g></g><g isolation="isolate"><g isolation="isolate"><path d="M50.29,89.39l-3.15,4.29,4.44-2.92.37.59-4.56,2.73,5.22-1,.12.69-5.24.8,5.18,1.07-.13.68-5.17-1.29,4.41,2.99-.4.57-4.28-3.17,2.93,4.45-.6.36-2.73-4.54.98,5.22-.69.11-.79-5.26-1.06,5.22-.67-.16,1.27-5.15-2.98,4.4-.58-.41,3.17-4.27-4.44,2.91-.38-.58,4.57-2.74-5.23,1-.12-.68,5.25-.81-5.19-1.07.15-.68,5.17,1.28-4.41-2.97.4-.57,4.27,3.16-2.93-4.45.59-.36,2.74,4.54-.99-5.21.68-.12.79,5.26,1.06-5.21.68.15-1.28,5.16,2.98-4.41.57.4Z" fill="#fff"/></g></g><g isolation="isolate"><g isolation="isolate"><path d="M59.89,87.35l-.22-.18c.84-1.11.79-1.67,0-2.33l-6.46-5.43c-.49-.41-.81-.46-1.07-.16-.12.14-.26.45-.37.79l-.18.51-.2-.17.86-3.68.15-.09,8.59,7.22c.62.52,1.12.45,2.03-.63l.21.18-3.34,3.97Z" fill="#fff"/></g></g><g isolation="isolate"><g isolation="isolate"><path d="M69.77,76.17l-4.99,5.4-.17-.15-.34-4.87c-.17-2.56-.76-4.03-1.93-5.11-1.26-1.16-2.63-1.05-3.72.12-.92.99-.92,1.88-.08,3.69l-.34.23c-1.35-1.78-1.66-3.71-.09-5.41,1.44-1.56,3.42-1.57,4.79-.31,1.09,1.01,1.63,2.5,1.79,4.93l.32,4.52,2.99-3.23c.54-.58.65-1.01.3-2.18l.26-.12,1.2,2.49Z" fill="#fff"/></g></g><g isolation="isolate"><g isolation="isolate"><path d="M81.08,67.33c-3.08,2.85-7.94,2.61-10.78-.47-2.85-3.07-2.64-7.86.44-10.7.74-.69,1.71-1.17,2.64-1.5-2.81,2.63-3.02,6.9-.4,9.72,2.61,2.81,6.97,3.05,9.8.43-.34.9-.92,1.8-1.69,2.52ZM71.19,56.68c-2.83,2.62-3.02,6.87-.38,9.71,2.53,2.73,6.74,2.98,9.58.63l-.04-.04c-2.71.87-5.83.1-7.89-2.12-2.16-2.33-2.49-5.43-1.24-8.15l-.03-.03Z" fill="#fff"/></g></g><g isolation="isolate"><g isolation="isolate"><path d="M87.91,59.44l-.18-.22c1.04-.92,1.11-1.48.47-2.29l-5.24-6.62c-.4-.5-.7-.62-1.01-.37-.15.12-.34.39-.52.7l-.28.46-.16-.21,1.58-3.43.17-.06,6.97,8.8c.5.63,1.01.67,2.11-.21l.17.22-4.07,3.22Z" fill="#fff"/></g></g><g isolation="isolate"><g isolation="isolate"><path d="M88.48,46.74c-.6-1.77-.37-3.48,1.22-4.62,1.42-1.02,2.99-.87,3.88.38.53.73.68,1.78.09,3.13.88-.19,1.29-.21,1.85-.1.77.17,1.52.69,2.09,1.49.58.81.86,1.75.83,2.64-.03,1.5-1.17,2.99-2.52,3.96-1.12.8-1.94.91-2.34.36-.23-.32-.12-.75.23-1,.26-.19.57-.27,1.22-.27.85,0,1.22-.16,1.65-.47,1.13-.81,1.24-2.46.31-3.76-.83-1.16-1.9-1.53-3.18-1.08-.41.13-.8.34-1.67.97l-.15-.21c.44-.62.71-1.07.89-1.47.44-.96.44-2-.23-2.93-.75-1.04-1.76-1.1-2.77-.38-.95.68-1.3,1.67-1.12,3.25l-.29.12Z" fill="#fff"/></g></g><g isolation="isolate"><g isolation="isolate"><path d="M113.27,34.74l-4.62,2.65,5.24-.88.1.69-5.28.65,5.18,1.19-.17.68-5.12-1.39,4.31,3.07-.4.57-4.21-3.27,2.83,4.51-.6.36-2.63-4.63.89,5.26-.7.09-.66-5.25-1.21,5.17-.67-.17,1.4-5.13-3.08,4.35-.55-.42,3.24-4.2-4.5,2.82-.37-.61,4.62-2.63-5.23.87-.11-.68,5.29-.66-5.19-1.2.17-.67,5.13,1.38-4.32-3.07.41-.57,4.21,3.26-2.83-4.5.6-.36,2.63,4.62-.88-5.25.68-.09.67,5.26,1.2-5.17.67.16-1.4,5.14,3.07-4.34.56.42-3.25,4.2,4.51-2.84.36.6Z" fill="#fff"/></g></g><g isolation="isolate"><g isolation="isolate"><path d="M122.9,36.74l-.12-.25c1.22-.68,1.4-1.21.94-2.14l-3.71-7.58c-.28-.57-.56-.75-.91-.58-.17.08-.42.31-.66.58l-.37.39-.12-.24,2.27-3.02.18-.02,4.94,10.08c.36.73.84.86,2.11.24l.12.25-4.66,2.28Z" fill="#fff"/></g></g><g isolation="isolate"><g isolation="isolate"><path d="M134.36,28l1.25,2.88-1.35.58-1.25-2.88-4.83,2.09-.48-1.1,2.1-10.02.76-.33,3.32,7.68,1.78-.77.48,1.1-1.78.77ZM129.98,21.56l-1.58,7.71,4.14-1.79-2.56-5.92Z" fill="#fff"/></g></g><g isolation="isolate"><g isolation="isolate"><path d="M150.36,27.03c-3.97,1.36-8.31-.83-9.67-4.8-1.36-3.97.77-8.25,4.74-9.61.96-.33,2.04-.38,3.02-.3-3.64,1.27-5.55,5.08-4.31,8.72,1.24,3.63,5.14,5.61,8.79,4.37-.68.69-1.57,1.27-2.57,1.61ZM145.64,13.28c-3.65,1.25-5.54,5.06-4.29,8.72,1.2,3.52,4.95,5.46,8.5,4.46l-.02-.05c-2.83-.31-5.37-2.28-6.35-5.14-1.03-3.01-.08-5.97,2.17-7.95v-.04Z" fill="#fff"/></g></g><g isolation="isolate"><g isolation="isolate"><path d="M159.81,22.59l-.07-.27c1.33-.42,1.61-.9,1.36-1.9l-2.1-8.18c-.16-.62-.39-.85-.78-.75-.18.05-.47.22-.76.43l-.45.31-.07-.25,2.83-2.49h.18s2.79,10.88,2.79,10.88c.2.78.65,1.02,2.01.67l.07.27-5.03,1.29Z" fill="#fff"/></g></g><g isolation="isolate"><g isolation="isolate"><path d="M171.74,8.35c-.03.14-.15.28-.45.34l-3.57.74-.41,1.72c2.74-.05,3.74.17,5.09,1.41.61.56.92,1.23,1.13,2.21.36,1.77.05,3.02-1.01,4.2-.74.81-1.69,1.29-2.94,1.55-1.38.28-2.43.04-2.57-.66-.09-.46.17-.76.68-.87.42-.09.79-.07,1.48.29.6.32,1.06.4,1.43.32,1.29-.27,2.17-2.04,1.84-3.62-.24-1.18-.84-2.01-1.8-2.51-1.01-.52-2.42-.84-4.19-.48-.17.03-.23,0-.25-.1,0-.04,0-.1,0-.1l1.11-4.78,3.81-.79c.42-.09.57-.21.79-.66l.19.09-.34,1.7Z" fill="#fff"/></g></g><g isolation="isolate"><g isolation="isolate"><path d="M193.03,10.35l-5.3.54,5.14,1.33-.19.67-5.09-1.55,4.25,3.2-.43.55-4.11-3.35,2.68,4.56-.59.36-2.52-4.7.75,5.27-.69.08-.52-5.3-1.33,5.16-.67-.21,1.54-5.07-3.21,4.23-.54-.43,3.37-4.11-4.58,2.71-.33-.61,4.67-2.51-5.26.74-.08-.71,5.29-.52-5.13-1.33.18-.67,5.1,1.55-4.25-3.2.42-.54,4.12,3.35-2.69-4.57.61-.35,2.51,4.69-.75-5.26.69-.08.53,5.29,1.33-5.15.66.2-1.53,5.08,3.2-4.23.55.42-3.37,4.12,4.57-2.71.34.61-4.68,2.51,5.27-.75.08.69Z" fill="#fff"/></g></g><g isolation="isolate"><g isolation="isolate"><path d="M201,16.1v-.28c1.38-.12,1.76-.53,1.72-1.57l-.31-8.44c-.02-.64-.2-.91-.6-.9-.19,0-.5.11-.84.26l-.5.21v-.26s3.29-1.83,3.29-1.83l.17.05.41,11.22c.03.81.42,1.13,1.83,1.08v.28s-5.17.19-5.17.19Z" fill="#fff"/></g></g><g isolation="isolate"><g isolation="isolate"><path d="M216.64,3.39c-2.96.44-5.1,2.44-5.65,5.27.93-.7,1.57-.82,2.4-.81,2.2.04,3.53,1.56,3.49,3.99-.02,1.2-.38,2.25-1.01,2.99-.71.85-1.77,1.34-3.01,1.33-1.48-.02-2.66-.74-3.3-1.95-.51-.97-.85-2.31-.82-3.62.03-2.03.78-3.8,2.13-5.16,1.64-1.66,3.14-2.09,5.73-2.33l.03.3ZM212.7,8.7c-1.07-.02-2.19.42-2.22,2.15-.05,2.86.83,4.75,2.59,4.78,1.35.02,2.07-1.32,2.1-3.24.04-2.41-.73-3.66-2.48-3.69Z" fill="#fff"/></g></g><g isolation="isolate"><g isolation="isolate"><path d="M230.06,18.35c-4.18-.36-7.27-4.12-6.9-8.3.36-4.18,4.04-7.23,8.22-6.87,1.01.09,2.02.48,2.88.95-3.84-.31-7.13,2.4-7.47,6.24-.33,3.82,2.43,7.21,6.27,7.54-.9.36-1.95.53-3,.44ZM231.3,3.87c-3.84-.33-7.11,2.38-7.45,6.24-.32,3.71,2.32,6.99,5.97,7.52v-.06c-2.46-1.42-3.99-4.25-3.72-7.27.27-3.17,2.34-5.5,5.2-6.4v-.04Z" fill="#fff"/></g></g><g isolation="isolate"><g isolation="isolate"><path d="M240.5,18.1l.05-.28c1.38.15,1.84-.17,2.01-1.19l1.38-8.33c.1-.63-.02-.94-.4-1-.19-.03-.52,0-.87.08l-.53.1.04-.26,3.6-1.14.16.08-1.84,11.07c-.13.8.18,1.19,1.57,1.42l-.05.28-5.12-.85Z" fill="#fff"/></g></g><g isolation="isolate"><g isolation="isolate"><path d="M251.76,20.33l-1.19-.26,6-10.17-3.95-.85c-1.07-.23-1.43-.04-2.47,1.04l-.29-.24,1.68-2.46,6.78,1.46-.06.29-6.48,11.18Z" fill="#fff"/></g></g><g isolation="isolate"><g isolation="isolate"><path d="M275.82,20.31l-5.07-1.64,4.17,3.3-.44.54-4.03-3.47,2.6,4.64-.62.33-2.41-4.73.61,5.25-.69.09-.4-5.32-1.45,5.12-.67-.2,1.67-5.06-3.3,4.18-.53-.46,3.45-4.01-4.64,2.58-.32-.62,4.74-2.4-5.29.63-.06-.69,5.29-.41-5.12-1.44.21-.68,5.05,1.66-4.16-3.29.43-.54,4.04,3.48-2.59-4.65.61-.32,2.42,4.73-.62-5.27.69-.08.41,5.31,1.44-5.12.67.2-1.66,5.05,3.3-4.18.53.45-3.45,4.03,4.63-2.58.33.61-4.75,2.41,5.28-.63.07.69-5.3.41,5.13,1.44-.2.67Z" fill="#fff"/></g></g><g isolation="isolate"><g isolation="isolate"><path d="M280.79,28.79l.11-.26c1.32.45,1.83.23,2.21-.73l3.13-7.84c.24-.59.18-.92-.18-1.06-.17-.07-.51-.1-.87-.1h-.54s.1-.26.1-.26l3.76-.34.14.12-4.16,10.42c-.3.75-.08,1.2,1.23,1.73l-.11.26-4.82-1.92Z" fill="#fff"/></g></g><g isolation="isolate"><g isolation="isolate"><path d="M291.45,33.57c-1.93-.88-2.75-2.68-2.01-4.29.54-1.18,1.24-1.67,3.65-2.12-1.1-2.26-1.16-3.07-.66-4.18.75-1.64,2.64-2.02,4.54-1.16,1.69.77,2.37,2.42,1.76,3.76-.58,1.28-1.45,1.59-3.56,1.73,1.46,2.36,1.59,3.54.97,4.9-.8,1.76-2.64,2.29-4.69,1.36ZM293.38,27.72c-1.38.36-2.06.9-2.57,2.01-.72,1.57-.25,2.86,1.05,3.45,1.11.51,2.23.09,2.74-1.02.48-1.06.28-1.98-.52-3.3l-.7-1.14ZM296.58,22.23c-1.15-.52-2.17-.23-2.65.84-.48,1.06-.21,2.14.89,3.71,1.48-.15,2.25-.67,2.73-1.73.54-1.18.2-2.29-.97-2.82Z" fill="#fff"/></g></g><g isolation="isolate"><g isolation="isolate"><path d="M306.44,42.65c-3.67-2.03-4.96-6.72-2.93-10.39,2.03-3.67,6.64-4.96,10.31-2.93.89.49,1.65,1.26,2.25,2.04-3.38-1.85-7.49-.71-9.36,2.66-1.86,3.36-.72,7.58,2.66,9.44-.97-.04-2-.31-2.92-.82ZM313.46,29.93c-3.37-1.87-7.47-.72-9.34,2.67-1.8,3.26-.73,7.33,2.39,9.3l.03-.05c-1.67-2.3-1.91-5.51-.45-8.16,1.54-2.78,4.38-4.06,7.35-3.73l.02-.03Z" fill="#fff"/></g></g><g isolation="isolate"><g isolation="isolate"><path d="M316.06,46.67l.15-.24c1.2.7,1.75.59,2.32-.27l4.65-7.04c.35-.53.37-.86.04-1.08-.16-.1-.48-.2-.83-.28l-.53-.12.14-.22,3.75.43.11.14-6.19,9.36c-.45.67-.32,1.16.86,1.94l-.16.23-4.33-2.86Z" fill="#fff"/></g></g><g isolation="isolate"><g isolation="isolate"><path d="M322.77,51.2c2.61,1.28,5.47.93,7.9-1.12-1.12.16-2.01-.14-2.91-.8-1.64-1.2-1.83-3.23-.48-5.08,1.5-2.05,3.97-2.59,5.77-1.27.97.71,1.48,1.73,1.54,2.9.05,1.2-.38,2.56-1.31,3.84-1.27,1.75-3.09,2.96-5.12,3.18-2.14.22-3.4-.13-5.57-1.3l.18-.34ZM331.81,48.58c1.86-2.55,2.13-4.35.81-5.32-.46-.33-.98-.44-1.48-.29-.6.19-1.49.92-2.08,1.74-1.32,1.8-1.42,3.48-.28,4.31.67.49,2.02.96,2.61.16l.43-.59Z" fill="#fff"/></g></g><g isolation="isolate"><g isolation="isolate"><path d="M347.44,63.07l-3.96-3.56,2.47,4.71-.62.31-2.27-4.81.49,5.29-.7.05-.28-5.3-1.57,5.05-.67-.2,1.79-5.02-3.4,4.1-.53-.46,3.58-3.95-4.71,2.48-.3-.63,4.78-2.27-5.29.47-.04-.69,5.31-.27-5.09-1.57.23-.65,5,1.77-4.09-3.4.47-.54,3.94,3.57-2.46-4.7.62-.32,2.28,4.81-.48-5.3.69-.05.29,5.3,1.57-5.06.67.21-1.78,5.02,3.39-4.09.53.46-3.56,3.95,4.71-2.48.3.62-4.78,2.28,5.28-.47.06.69-5.32.28,5.08,1.56-.22.66-5.01-1.78,4.1,3.4-.46.53Z" fill="#fff"/></g></g><g isolation="isolate"><g isolation="isolate"><path d="M352.51,76.89l-5.14-5.26.16-.16,4.88-.09c2.57-.04,4.06-.55,5.2-1.67,1.22-1.2,1.19-2.58.07-3.72-.95-.97-1.84-1.02-3.68-.27l-.21-.35c1.85-1.26,3.79-1.47,5.41.18,1.48,1.52,1.4,3.5.06,4.8-1.06,1.04-2.58,1.5-5.02,1.54l-4.54.09,3.08,3.15c.55.57.98.7,2.16.41l.1.27-2.55,1.07Z" fill="#fff"/></g></g><g isolation="isolate"><g isolation="isolate"><path d="M356.38,81.54c-2.13-2.4-.21-5.5,2.09-7.55,2.49-2.21,5.64-3.28,7.65-1.02,1.64,1.84.79,4.88-2.09,7.44-2.42,2.15-5.62,3.41-7.66,1.12ZM365.68,73.21c-1.04-1.17-3.26-.32-6.11,2.21-2.85,2.54-3.9,4.58-2.83,5.79,1.06,1.19,3.24.39,6.02-2.08,2.92-2.6,4.02-4.68,2.92-5.91Z" fill="#fff"/></g></g><g isolation="isolate"><g isolation="isolate"><path d="M366.39,95.87c-2.54-3.34-1.82-8.15,1.52-10.69,3.34-2.53,8.08-1.86,10.61,1.48.61.81,1,1.81,1.23,2.77-2.34-3.06-6.57-3.68-9.64-1.35-3.06,2.32-3.71,6.64-1.38,9.71-.87-.43-1.7-1.09-2.34-1.93ZM377.95,87.07c-2.33-3.07-6.54-3.67-9.62-1.33-2.96,2.25-3.63,6.41-1.57,9.47l.04-.03c-.6-2.78.47-5.81,2.88-7.64,2.53-1.92,5.65-1.95,8.23-.44l.03-.02Z" fill="#fff"/></g></g><g isolation="isolate"><g isolation="isolate"><path d="M376.64,108.21l-3.98-6.18.19-.12,4.8.89c2.52.48,4.09.28,5.43-.59,1.44-.93,1.68-2.29.82-3.63-.73-1.14-1.59-1.37-3.55-1l-.13-.38c2.06-.86,4.01-.68,5.26,1.27,1.15,1.79.67,3.71-.9,4.71-1.25.8-2.83.95-5.22.5l-4.46-.82,2.38,3.7c.43.66.81.88,2.04.84l.05.28-2.71.54Z" fill="#fff"/></g></g><g isolation="isolate"><g isolation="isolate"><path d="M378.5,111.28l.24-.14c.76,1.17,1.3,1.31,2.2.79l7.31-4.22c.55-.32.71-.61.52-.95-.09-.16-.34-.39-.62-.62l-.42-.35.23-.13,3.17,2.06.04.17-9.72,5.62c-.7.4-.8.9-.1,2.12l-.24.14-2.6-4.49Z" fill="#fff"/></g></g><g isolation="isolate"><g isolation="isolate"><path d="M395.68,131.12l-2.19-4.85.36,5.3-.7.03-.13-5.32-1.69,5.04-.66-.24,1.88-4.96-3.48,3.99-.53-.45,3.67-3.87-4.77,2.37-.3-.63,4.87-2.16-5.32.37-.02-.7,5.29-.14-5.03-1.71.24-.65,4.97,1.9-4.02-3.49.47-.51,3.86,3.64-2.37-4.76.65-.31,2.16,4.86-.36-5.29.69-.04.14,5.32,1.7-5.04.65.23-1.88,4.97,3.49-4,.52.46-3.66,3.87,4.76-2.37.3.63-4.85,2.17,5.31-.36.02.69-5.3.15,5.02,1.7-.23.66-4.97-1.9,4.02,3.49-.47.51-3.86-3.65,2.38,4.77-.63.3Z" fill="#fff"/></g></g><g isolation="isolate"><g isolation="isolate"><path d="M394.71,145.8l-2.57-6.89.21-.08,4.5,1.9c2.36,1.01,3.94,1.14,5.43.58,1.6-.6,2.13-1.88,1.57-3.37-.47-1.27-1.27-1.67-3.25-1.74l-.05-.4c2.2-.4,4.06.19,4.87,2.36.74,1.99-.14,3.76-1.89,4.41-1.39.52-2.97.32-5.21-.63l-4.18-1.75,1.54,4.12c.28.74.61,1.04,1.81,1.25v.29s-2.78-.05-2.78-.05Z" fill="#fff"/></g></g><g isolation="isolate"><g isolation="isolate"><path d="M397.58,154.6l-2.23-7,.21-.07,4.4,2.11c2.31,1.12,3.88,1.33,5.4.84,1.63-.52,2.22-1.77,1.73-3.29-.41-1.29-1.18-1.73-3.17-1.89l-.03-.4c2.22-.29,4.05.39,4.75,2.59.65,2.02-.32,3.75-2.1,4.32-1.42.45-2.98.18-5.17-.88l-4.09-1.95,1.34,4.19c.24.75.56,1.07,1.75,1.34l-.03.28-2.76-.18Z" fill="#fff"/></g></g><g isolation="isolate"><g isolation="isolate"><path d="M399.68,168.78c-.96-4.08,1.65-8.19,5.73-9.15,4.08-.96,8.13,1.59,9.09,5.67.23.99.17,2.06,0,3.03-.9-3.75-4.5-6.03-8.25-5.15-3.74.88-6.1,4.56-5.22,8.31-.62-.74-1.11-1.69-1.35-2.71ZM413.82,165.44c-.88-3.75-4.48-6.02-8.25-5.13-3.62.85-5.92,4.38-5.28,8.02h.06c.58-2.8,2.8-5.13,5.74-5.82,3.09-.73,5.95.52,7.7,2.95h.04Z" fill="#fff"/></g></g><g isolation="isolate"><g isolation="isolate"><path d="M404.01,184.21l-1.11-7.27.22-.03,4.02,2.77c2.11,1.46,3.62,1.92,5.2,1.67,1.69-.26,2.47-1.4,2.22-2.98-.21-1.34-.9-1.9-2.83-2.36l.03-.41c2.23.06,3.94,1.01,4.29,3.3.32,2.1-.9,3.66-2.74,3.94-1.47.23-2.97-.29-4.97-1.67l-3.74-2.56.67,4.35c.12.78.38,1.14,1.52,1.59l-.07.28-2.7-.61Z" fill="#fff"/></g></g><g isolation="isolate"><g isolation="isolate"><path d="M413.92,185.39c1.83.36,3.21,1.4,3.41,3.35.18,1.74-.72,3.02-2.25,3.19-.9.09-1.88-.29-2.76-1.47-.27.86-.46,1.22-.83,1.66-.53.58-1.35.97-2.33,1.08-.99.1-1.94-.12-2.71-.58-1.29-.77-2.02-2.49-2.2-4.15-.14-1.37.17-2.14.85-2.21.39-.04.71.27.75.7.03.32-.05.63-.37,1.19-.41.74-.46,1.14-.41,1.67.15,1.38,1.53,2.3,3.12,2.13,1.42-.15,2.27-.9,2.51-2.23.09-.42.1-.86-.01-1.93l.26-.03c.32.69.57,1.15.84,1.5.62.86,1.52,1.37,2.66,1.25,1.27-.13,1.83-.99,1.7-2.22-.12-1.16-.81-1.96-2.27-2.58l.04-.31Z" fill="#fff"/></g></g><g isolation="isolate"><g isolation="isolate"><path d="M412.07,212.88l-.03-5.32-1.83,4.99-.65-.25,2.04-4.91-3.6,3.92-.51-.48,3.74-3.76-4.8,2.23-.3-.63,4.92-2.05-5.32.23-.02-.7h5.33s-5.01-1.83-5.01-1.83l.27-.65,4.89,2.02-3.9-3.61.48-.5,3.77,3.75-2.26-4.83.64-.27,2.05,4.9-.23-5.31.71-.02v5.32s1.83-4.98,1.83-4.98l.65.24-2.04,4.92,3.6-3.92.5.48-3.74,3.77,4.81-2.24.29.64-4.91,2.05,5.31-.24.02.7h-5.32s5,1.83,5,1.83l-.26.64-4.9-2.01,3.9,3.6-.48.51-3.77-3.75,2.26,4.82-.64.28-2.05-4.9.24,5.32h-.7Z" fill="#fff"/></g></g><g isolation="isolate"><g isolation="isolate"><path d="M405.25,225.92l.44-7.34h.22s3.35,3.57,3.35,3.57c1.75,1.88,3.14,2.64,4.73,2.73,1.71.1,2.71-.85,2.8-2.45.08-1.35-.48-2.04-2.27-2.9l.12-.39c2.17.53,3.64,1.82,3.5,4.13-.13,2.12-1.65,3.38-3.51,3.27-1.48-.09-2.85-.9-4.51-2.68l-3.12-3.29-.26,4.39c-.05.79.14,1.2,1.15,1.88l-.13.26-2.51-1.17Z" fill="#fff"/></g></g><g isolation="isolate"><g isolation="isolate"><path d="M407.55,234.53l-3.12-.34.16-1.46,3.12.34.56-5.23,1.2.13,7.69,6.76-.09.82-8.32-.9-.21,1.93-1.2-.13.21-1.92ZM415.31,233.89l-5.93-5.18-.48,4.49,6.41.69Z" fill="#fff"/></g></g><g isolation="isolate"><g isolation="isolate"><path d="M400.52,248.95c.77-4.12,4.82-6.83,8.94-6.05,4.12.77,6.8,4.73,6.03,8.86-.19,1-.67,1.96-1.23,2.77.69-3.79-1.69-7.33-5.48-8.04-3.77-.71-7.42,1.71-8.12,5.5-.27-.93-.33-1.99-.14-3.03ZM414.81,251.6c.71-3.79-1.67-7.31-5.48-8.03-3.66-.69-7.19,1.62-8.07,5.2h.06c1.66-2.3,4.62-3.54,7.6-2.99,3.12.58,5.24,2.87,5.86,5.8h.04Z" fill="#fff"/></g></g><g isolation="isolate"><g isolation="isolate"><path d="M398.26,264.83l1.91-7.1.22.06,2.56,4.16c1.34,2.19,2.54,3.21,4.08,3.63,1.65.45,2.82-.29,3.24-1.83.35-1.31-.06-2.1-1.64-3.3l.19-.36c2.02.95,3.2,2.52,2.59,4.75-.55,2.05-2.3,2.98-4.1,2.5-1.43-.39-2.6-1.46-3.88-3.54l-2.39-3.86-1.14,4.25c-.21.76-.11,1.2.75,2.07l-.18.22-2.22-1.65Z" fill="#fff"/></g></g><g isolation="isolate"><g isolation="isolate"><path d="M406.27,276.75c-.11-.09-.17-.27-.08-.56l1.12-3.47-1.29-1.21c-1.3,2.4-1.99,3.17-3.73,3.74-.79.26-1.52.2-2.47-.1-1.72-.55-2.66-1.45-3.16-2.95-.34-1.04-.29-2.11.1-3.32.43-1.34,1.16-2.13,1.84-1.92.45.14.58.52.42,1.02-.13.41-.33.72-.98,1.15-.57.37-.87.73-.98,1.09-.4,1.25.71,2.89,2.25,3.39,1.15.37,2.17.26,3.07-.34.95-.62,1.93-1.69,2.48-3.41.05-.16.1-.2.21-.17.04.01.08.05.08.05l3.62,3.32-1.19,3.7c-.13.41-.1.6.19,1.01l-.18.12-1.31-1.13Z" fill="#fff"/></g></g><g isolation="isolate"><g isolation="isolate"><path d="M394.04,294.3l2.13-4.88-3.69,3.82-.49-.49,3.86-3.66-4.88,2.12-.27-.65,4.94-1.93-5.29.09-.02-.69,5.33.12-4.96-1.95.27-.64,4.87,2.16-3.84-3.7.51-.48,3.65,3.83-2.1-4.88.64-.26,1.92,4.96-.11-5.33h.69s-.11,5.31-.11,5.31l1.94-4.95.66.28-2.16,4.86,3.69-3.81.49.49-3.86,3.67,4.88-2.12.26.64-4.95,1.94,5.3-.1v.7s-5.31-.12-5.31-.12l4.95,1.94-.27.64-4.86-2.15,3.83,3.7-.5.48-3.67-3.83,2.11,4.87-.64.27-1.93-4.96.11,5.32h-.7s.12-5.31.12-5.31l-1.94,4.96-.64-.27Z" fill="#fff"/></g></g><g isolation="isolate"><g isolation="isolate"><path d="M382.5,303.43l3.39-6.52.2.1,1.61,4.61c.84,2.43,1.79,3.68,3.21,4.42,1.52.79,2.82.32,3.56-1.1.62-1.2.39-2.06-.9-3.58l.27-.31c1.77,1.36,2.58,3.14,1.52,5.19-.98,1.89-2.89,2.42-4.54,1.56-1.32-.69-2.23-1.99-3.03-4.28l-1.51-4.28-2.03,3.9c-.36.7-.36,1.15.29,2.18l-.22.18-1.82-2.09Z" fill="#fff"/></g></g><g isolation="isolate"><g isolation="isolate"><path d="M388.5,318.23c1.06-2.8.36-5.64-1.84-7.5.15,1.15-.05,1.77-.47,2.49-1.11,1.9-3.09,2.32-5.18,1.1-1.04-.6-1.78-1.43-2.12-2.34-.4-1.04-.31-2.2.31-3.27.75-1.28,1.94-1.96,3.31-1.92,1.09.03,2.43.39,3.56,1.05,1.76,1.02,2.94,2.53,3.46,4.38.65,2.25.29,3.76-.77,6.14l-.28-.12ZM385.79,312.2c.54-.93.71-2.11-.79-2.98-2.47-1.44-4.55-1.6-5.44-.07-.68,1.17.14,2.45,1.8,3.42,2.08,1.21,3.55,1.15,4.43-.36Z" fill="#fff"/></g></g><g isolation="isolate"><g isolation="isolate"><path d="M368.79,322.56c2.38-3.45,7.18-4.27,10.63-1.89s4.29,7.09,1.9,10.54c-.58.83-1.41,1.51-2.25,2.03,2.17-3.18,1.44-7.39-1.73-9.58-3.16-2.18-7.47-1.46-9.66,1.71.13-.96.51-1.96,1.1-2.82ZM380.76,330.8c2.19-3.17,1.45-7.36-1.74-9.56-3.06-2.11-7.22-1.45-9.49,1.47l.05.03c2.45-1.44,5.67-1.36,8.16.36,2.61,1.8,3.61,4.76,2.99,7.68l.03.02Z" fill="#fff"/></g></g><g isolation="isolate"><g isolation="isolate"><path d="M360.28,336.13l4.63-5.71.17.14.65,4.84c.33,2.54,1.02,3.97,2.26,4.98,1.33,1.08,2.7.88,3.7-.36.85-1.05.8-1.94-.16-3.68l.32-.25c1.46,1.69,1.9,3.6.44,5.39-1.34,1.65-3.31,1.79-4.76.62-1.15-.94-1.79-2.39-2.1-4.81l-.61-4.49-2.77,3.42c-.5.61-.59,1.05-.16,2.2l-.25.13-1.36-2.41Z" fill="#fff"/></g></g><g isolation="isolate"><g isolation="isolate"><path d="M356.34,340.41l.81-.91,5.88,10.24,2.69-3.01c.73-.81.74-1.23.31-2.67l.35-.14,1.31,2.68-4.62,5.17-.22-.2-6.51-11.16Z" fill="#fff"/></g></g><g isolation="isolate"><g isolation="isolate"><path d="M344.47,361.37l3.93-3.6-4.92,2-.25-.65,5.01-1.79-5.32-.03.02-.7,5.3.24-4.87-2.06.26-.64,4.82,2.27-3.74-3.79.51-.48,3.58,3.95-2.01-4.94.66-.24,1.79,4.98.05-5.31.69.03-.25,5.31,2.06-4.91.63.29-2.25,4.8,3.78-3.74.49.52-3.94,3.57,4.92-1.99.26.64-5.01,1.8,5.32.04-.02.69-5.31-.23,4.89,2.06-.28.64-4.82-2.26,3.74,3.77-.51.48-3.58-3.93,2.01,4.93-.65.24-1.8-4.98-.04,5.3h-.7s.25-5.33.25-5.33l-2.05,4.91-.63-.28,2.26-4.81-3.78,3.75-.48-.51Z" fill="#fff"/></g></g><g isolation="isolate"><g isolation="isolate"><path d="M330.21,365.06l5.73-4.6.14.18-.39,4.87c-.21,2.56.15,4.09,1.15,5.34,1.07,1.33,2.45,1.43,3.7.43,1.06-.85,1.19-1.73.63-3.63l.37-.17c1.07,1.96,1.09,3.92-.71,5.37-1.66,1.33-3.62,1.05-4.78-.4-.93-1.16-1.24-2.72-1.04-5.14l.35-4.52-3.43,2.75c-.62.49-.79.9-.62,2.11l-.28.08-.82-2.64Z" fill="#fff"/></g></g><g isolation="isolate"><g isolation="isolate"><path d="M325.23,368.45c1.72-1.25,3.68-1.07,4.72.36.76,1.05.84,1.9.05,4.22,2.5.15,3.25.5,3.96,1.49,1.06,1.46.46,3.29-1.23,4.52-1.5,1.09-3.27.87-4.14-.32-.83-1.14-.67-2.04.25-3.94-2.78.11-3.86-.35-4.75-1.57-1.14-1.57-.7-3.42,1.13-4.75ZM329.38,373.01c.37-1.38.23-2.24-.49-3.23-1.02-1.4-2.37-1.62-3.52-.79-.99.72-1.17,1.9-.46,2.89.68.94,1.58,1.22,3.12,1.17l1.34-.04ZM332.58,378.49c1.02-.74,1.26-1.78.58-2.72-.69-.94-1.76-1.23-3.67-1.05-.59,1.36-.52,2.29.16,3.23.76,1.05,1.9,1.3,2.93.54Z" fill="#fff"/></g></g><g isolation="isolate"><g isolation="isolate"><path d="M309.97,377.02c3.57-2.2,8.29-1.01,10.49,2.56s1.06,8.22-2.51,10.42c-.87.53-1.9.82-2.88.95,3.27-2.03,4.3-6.17,2.29-9.46-2.01-3.27-6.25-4.35-9.53-2.33.51-.82,1.25-1.59,2.15-2.14ZM317.6,389.39c3.28-2.02,4.3-6.15,2.27-9.45-1.95-3.17-6.03-4.24-9.27-2.49l.03.05c2.82-.32,5.74,1.04,7.32,3.62,1.66,2.71,1.39,5.81-.37,8.24l.02.03Z" fill="#fff"/></g></g><g isolation="isolate"><g isolation="isolate"><path d="M296.67,386.01l6.54-3.35.1.2-1.36,4.69c-.72,2.46-.68,4.04.05,5.46.78,1.52,2.11,1.9,3.53,1.17,1.2-.62,1.52-1.45,1.35-3.43l.39-.1c.65,2.14.28,4.06-1.78,5.11-1.89.97-3.76.3-4.6-1.36-.68-1.32-.67-2.91.02-5.25l1.25-4.36-3.92,2c-.7.36-.96.72-1.03,1.94l-.29.02-.27-2.75Z" fill="#fff"/></g></g><g isolation="isolate"><g isolation="isolate"><path d="M294.49,387.03c-2.39,1.64-3.5,4.31-2.91,7.43.41-1.05,1.12-1.68,2.13-2.14,1.85-.84,3.71,0,4.66,2.08,1.05,2.31.31,4.73-1.73,5.65-1.1.5-2.24.44-3.28-.08-1.07-.55-2.04-1.59-2.69-3.03-.89-1.97-1.05-4.15-.25-6.02.86-1.98,1.79-2.89,3.87-4.21l.21.32ZM292.32,396.18c1.3,2.88,2.74,4,4.23,3.33.51-.23.87-.64.99-1.15.13-.62-.07-1.74-.49-2.67-.92-2.04-2.33-2.95-3.61-2.37-.75.34-1.83,1.29-1.42,2.19l.3.67Z" fill="#fff"/></g></g><g isolation="isolate"><g isolation="isolate"><path d="M272.03,402.67l5.05-1.7-5.31-.17.04-.69,5.3.39-4.85-2.18.3-.63,4.75,2.36-3.62-3.86.5-.48,3.49,4.03-1.89-4.98.66-.23,1.67,5.06.16-5.33.7.05-.38,5.28,2.2-4.83.62.3-2.38,4.75,3.87-3.66.46.52-4,3.48,4.97-1.88.24.67-5.05,1.67,5.3.17-.03.69-5.31-.39,4.85,2.19-.29.62-4.76-2.36,3.63,3.86-.51.47-3.49-4.02,1.89,4.97-.66.23-1.68-5.04-.16,5.32-.69-.05.37-5.29-2.19,4.83-.63-.29,2.38-4.76-3.87,3.65-.47-.52,4.01-3.48-4.98,1.9-.23-.66Z" fill="#fff"/></g></g><g isolation="isolate"><g isolation="isolate"><path d="M266.77,407.81c-.07,1.87-.9,3.39-2.79,3.88-1.69.45-3.1-.25-3.49-1.74-.23-.87,0-1.91,1.03-2.96-.89-.13-1.28-.27-1.76-.57-.66-.43-1.17-1.19-1.42-2.13-.25-.96-.18-1.94.17-2.77.57-1.39,2.15-2.38,3.77-2.8,1.33-.35,2.14-.15,2.31.5.1.38-.16.74-.57.85-.31.08-.63.05-1.23-.18-.8-.29-1.2-.29-1.71-.15-1.35.35-2.04,1.86-1.63,3.4.36,1.38,1.23,2.1,2.58,2.14.43.02.87-.04,1.9-.31l.07.26c-.63.42-1.05.74-1.35,1.06-.76.74-1.12,1.71-.83,2.82.33,1.24,1.25,1.65,2.45,1.34,1.13-.3,1.81-1.1,2.2-2.64h.31Z" fill="#fff"/></g></g><g isolation="isolate"><g isolation="isolate"><path d="M251.53,401.33c3.14-.67,4.88,2.54,5.53,5.55.69,3.25.06,6.52-2.9,7.15-2.41.51-4.63-1.72-5.44-5.49-.67-3.16-.19-6.57,2.81-7.21ZM254.17,413.53c1.53-.32,1.89-2.67,1.1-6.4s-2.05-5.66-3.63-5.32c-1.56.33-1.94,2.62-1.17,6.26.81,3.82,2.08,5.8,3.7,5.46Z" fill="#fff"/></g></g><g isolation="isolate"><g isolation="isolate"><path d="M234.12,402.94c4.16-.55,7.99,2.45,8.54,6.61s-2.38,7.94-6.54,8.49c-1.01.13-2.07-.03-3.02-.3,3.82-.53,6.44-3.89,5.94-7.71-.5-3.8-3.93-6.51-7.75-6.01.8-.54,1.79-.94,2.83-1.08ZM236.05,417.34c3.82-.51,6.43-3.87,5.92-7.71-.49-3.69-3.78-6.33-7.46-6.05v.06c2.72.86,4.82,3.29,5.22,6.29.42,3.15-1.1,5.87-3.69,7.37v.04Z" fill="#fff"/></g></g><g isolation="isolate"><g isolation="isolate"><path d="M225.91,415c-.45,1.81-1.56,3.13-3.51,3.24-1.75.09-2.98-.87-3.07-2.41-.05-.9.39-1.87,1.6-2.69-.84-.31-1.2-.52-1.61-.91-.56-.55-.9-1.4-.96-2.38-.05-.99.21-1.93.72-2.68.84-1.25,2.59-1.89,4.26-1.98,1.37-.07,2.12.28,2.16.96.02.39-.3.69-.73.72-.32.02-.63-.08-1.17-.43-.72-.45-1.12-.52-1.65-.49-1.39.08-2.37,1.41-2.28,3,.08,1.43.78,2.31,2.1,2.62.42.11.86.14,1.93.08v.26c-.69.28-1.16.52-1.53.76-.89.58-1.45,1.45-1.38,2.6.07,1.28.89,1.87,2.13,1.8,1.16-.06,2-.71,2.69-2.14l.3.06Z" fill="#fff"/></g></g><g isolation="isolate"><g isolation="isolate"><path d="M214.74,405.82v.28c-1.38.1-1.77.5-1.76,1.53l.14,8.44c.01.64.18.92.58.91.19,0,.51-.1.84-.24l.5-.2v.26s-3.33,1.76-3.33,1.76l-.17-.05-.18-11.22c-.01-.81-.39-1.14-1.8-1.12v-.28s5.18-.08,5.18-.08Z" fill="#fff"/></g></g><g isolation="isolate"><g isolation="isolate"><path d="M189.03,410.99l5.3.49-4.79-2.3.31-.62,4.69,2.5-3.55-3.96.53-.46,3.39,4.08-1.75-4.99.65-.24,1.56,5.1.29-5.32.7.05-.52,5.3,2.3-4.81.62.33-2.49,4.67,3.96-3.53.45.53-4.1,3.38,5.02-1.78.21.66-5.07,1.56,5.31.29-.05.71-5.29-.51,4.78,2.3-.3.62-4.7-2.5,3.55,3.96-.52.45-3.4-4.08,1.76,5-.66.23-1.56-5.09-.28,5.31-.7-.05.51-5.29-2.3,4.8-.61-.32,2.48-4.68-3.96,3.53-.46-.52,4.1-3.39-5.01,1.78-.22-.66,5.08-1.56-5.32-.28.05-.7Z" fill="#fff"/></g></g><g isolation="isolate"><g isolation="isolate"><path d="M176.06,401.22c4.13.7,6.91,4.69,6.21,8.83-.7,4.13-4.61,6.88-8.75,6.19-1-.17-1.97-.64-2.79-1.18,3.8.62,7.3-1.82,7.95-5.62.64-3.78-1.84-7.38-5.64-8.03.92-.28,1.99-.37,3.03-.19ZM173.66,415.55c3.8.64,7.28-1.8,7.93-5.62.62-3.67-1.75-7.16-5.34-7.98v.06c2.33,1.62,3.62,4.56,3.12,7.54-.53,3.13-2.78,5.29-5.7,5.96v.04Z" fill="#fff"/></g></g></g></g></svg>