<?xml version="1.0" encoding="UTF-8"?><svg id="Layer_2" xmlns="http://www.w3.org/2000/svg" viewBox="0 0 585.07 585.07"><g id="Layer_1-2"><path d="M585.07,292.53c0,161.56-130.97,292.53-292.53,292.53S0,454.1,0,292.53,130.97,0,292.53,0s292.53,130.97,292.53,292.53ZM289.08,1.57c-8.85-.3-17.63.4-26.41,1.2l1.89,14.92,24.52-1.11V1.57ZM296.28,1.57v15.01l24.6,1.19c.35-4.99,1.37-9.97,1.2-14.99l-25.8-1.21ZM261.46,2.77l-28.23,4.49c-.77.48-.42.89-.34,1.52.54,4.5,2.39,9.23,2.77,13.8l27.03-4.48.5-.67-1.74-14.66ZM322.09,18.38l26.74,4.09c.83-.09,3.61-13.36,3.22-14.51-.64-1.88-24.45-4.35-27.81-5.11-.7.25-.84.76-.95,1.43-.72,4.36-.64,9.64-1.2,14.11ZM234.44,22.55l-2.99-14.98-28.15,8.16c1.22,4.71,3.64,9.21,4.15,14.06l26.99-7.23ZM377.3,29.79l4.55-14.43-28.26-7.21-3.29,14.42,27.01,7.22ZM206.17,30.31c.64-1-3.53-14-4.5-14.29-3.38.66-26.17,8.88-26.55,10.52l5.33,13.45,25.73-9.68ZM378.51,30.38l25.53,9.46c.89-.13,5.32-11.62,6.14-13.39l-27.12-10.52-4.55,14.44ZM289.08,17.78c-36.41.45-72.76,8.16-106.05,22.7-8.86,3.87-17.3,8.56-26,12.72l4.06,7.5-3.45,2.09c-.42-1.34-3.22-7.33-4.41-7.14-40.16,23.83-73.56,57.49-97.62,97.48l7.15,3.94c.01,8.17-7.72-1.31-9.54-.02-22.17,40.3-35.15,85.71-35.44,132.02h10.2v6.6h-8.7c-.37,0-.91.47-1.5,0,.2,25.34,4.12,50.63,11.24,74.89,5.85,19.93,14.08,39.23,24.46,57.2l.61.5,7.44-4.09,1.2,3.49-7.13,3.96c23.63,40.07,57.17,73.55,97.02,97.49,1.72.26,3.81-7.38,5.64-6.91,5.68,1.72-2.5,7.05-.97,9.39,39.84,22.72,85.7,35.57,131.79,35.4v-10.2h6.6v8.7c0,.45.28,1.92.87,1.97,10.54-.64,21.2-1.01,31.75-2.36,34.43-4.4,68.85-16.06,98.88-33.21,1.57-2.04-7.31-8.92-.06-9.06l4.5,6.93c39.73-24.31,74.72-57.56,97.54-98.42l-7.14-3.9,2.03-3.3,7.45,4.16c17.18-30.74,29.06-64.9,33.58-99.99.78-6.04,1.55-12.46,1.88-18.53.24-4.45-.64-9.27.61-13.49l-10.81-.6c.27-2.15-.8-5.02.9-6.61h9l.75-.87c-.75-6.77-.49-13.64-1.06-20.43-3.23-38.76-15.83-76.83-34.79-110.49l-7.53,3.94-2.09-3.3c1.06-1.13,7.44-3.42,7.22-4.77-23.53-40.16-57.48-73.88-97.57-97.48l-4.47,6.86c-7.56-.49,2.41-7.47,0-9.64-39.97-22.31-85.49-34.76-131.46-35.11v10.2s-6.6,0-6.6,0v-10.2ZM173.83,26.78l-24.57,12.06,6.62,13.11,23.96-11.37-6.01-13.8ZM436.13,38.79l-24.33-11.87-6.24,13.3,22.98,11.68c1.27-.24,6.76-11.1,7.58-13.11ZM145.26,40.84l-23.45,15.55,8.5,12.82,23.45-15.55-8.5-12.82ZM463.14,56.2l-23.11-14.95c-.77,0-7.72,12.32-7.55,13.38l21.95,14.17,8.71-12.6ZM120.6,56.96l-22.6,18.44,9.85,12.08,22.6-18.44-9.85-12.08ZM455.34,69.98l21.9,17.41,9.89-11.09-23.11-18.9-8.67,11.73-.02.86ZM88.59,107.21l18.57-19.59-9.86-11.01-20.71,20.7,10.79,9.62,1.2.28ZM488.35,76.85l-10.86,10.86,20.16,20.16,10.86-10.86-20.16-20.16ZM75.76,98.23l-18.36,22.48,11.8,8.63,17.55-20.72c.21-1.22-9.37-9.13-11-10.4ZM514.84,129.33c.59.33,1.16.04,1.71-.23,1.24-.59,8.59-6.1,9.63-7.18.45-.47,1.28-.93,1.14-1.73l-18.25-21.99-11.1,9.89,16.88,21.23ZM68.79,130.03l-12.24-7.77c-.82.2-8.52,12.07-9.61,13.81-.9,1.43-5.73,8.67-5.13,9.52,2.52.28,11.55,7.46,13.09,6.55l13.89-22.12ZM529.1,122.28c-1.54-.9-10.4,7.18-12.58,8.1l14.17,22.46,12.85-7.58-14.44-22.98ZM39.73,148.64l-12.89,24.31c.06.8,11.56,5.72,13.38,6.21l12.3-23.04-12.79-7.48ZM557.93,173.78l-11.97-25.16-13.19,7.21,11.45,23.36c1,.71,11.55-5.13,13.71-5.41ZM39.99,180.44l-13.8-6.01-10.19,27.57,14.35,4.21,9.64-25.78ZM559.1,175.11c-1.39-.88-11.69,4.73-13.78,5.69l10.03,25.41,14.03-4.17-10.28-26.93ZM29.78,207.45c-2.49.04-13.11-4.89-14.43-3.96l-7.17,27.95,14.39,3.02,7.21-27.01ZM569.98,203.24l-14.38,4.24,6.58,26.97,15.01-3.01-7.21-28.21ZM22.58,235.66c-4.17-.34-9.64-2.81-13.6-2.98-.68-.03-1.31-.13-1.75.54l-4.47,28.24,15.61,1.21,4.2-27.01ZM577.78,232.65l-14.99,3.03,4.22,26.95,14.98-1.16-4.21-28.82ZM3.07,289.08c4.36.35,9.11-.26,13.5,0l1.2-25.21-15.01-1.2c-.79,8.79-1.51,17.57-1.19,26.42.6-.46,1.05-.04,1.5,0ZM568.78,289.08h15.01l-1.2-26.41c-4.5.69-9.69.41-14.1,1.21-.69.13-1.21.22-1.47.97l1.76,24.23ZM15.68,296.28c-4.27.59-9.69-.43-14.11,0-.24,8.64.28,17.24,1.2,25.81l15.01-1.2-1.21-25.21c-.22-.3-.72.58-.89.6ZM583.79,296.28h-15.01l-1.8,25.21,15.05.94,1.76-26.15ZM18.38,322.09l-15.61,1.21,5.18,28.76,13.96-3.02-3.53-26.95ZM581.99,323.89l-14.94-1.13-4.24,25.53.55,1.74,14.43,2.68,4.2-28.82ZM22.57,350.3l-15,3.01,8.18,28.16,14.03-4.17-7.21-27.01ZM577.19,353.9l-15-3.01-7.21,27.01c2.36-.13,13.92,5.11,14.98,4.18l7.23-28.18ZM30.36,378.53c-.78-.68-12.67,3.67-14.43,4.55l10.54,27.18,13.52-5.95-9.63-25.78ZM569.38,383.32c-2.37.13-13.91-5.11-14.98-4.19l-9.63,25.78,13.82,5.76,10.79-27.35ZM38.83,436.09c1.04.73,12.02-6.2,13.75-7.46l-11.45-22.15-1.42-.96-12.95,5.75,12.07,24.82ZM557.98,411.53c-2.72.1-12.11-6.23-13.82-5.15l-11.14,23.16,12.36,6.93,12.6-24.94ZM54.96,432.55c-.66-.21-1.16.06-1.75.3-1.64.66-8.74,4.87-10.2,6.01-.58.45-1.24.81-1.15,1.67l14.62,22.61,12.3-9.3c-5.25-6.6-10.08-13.71-13.82-21.28ZM543.57,439.74l-12.92-7.15-14.63,21.85c0,.66,9.31,7.31,10.55,8.01.65.37,1.22.9,2,.43l15.01-23.14ZM69.93,455.38c-.81-.56-12.34,7.89-12.4,8.65l18.16,22.51,11.07-9.89-16.84-21.26ZM515.12,455.98l-17.12,20.75,11.07,10.31,18.25-22.4-12.19-8.66ZM86.4,478.35c-1.28,1.06-9.87,8.94-9.75,9.61l20.65,20.19,9.91-11.1-19.49-19.35c-.51.08-.92.32-1.32.65ZM477.56,496.77c-.83,1.24,8.75,10.25,9.89,11.97l20.7-20.69-11.09-9.88-19.5,18.6ZM129.41,514.78l-21.29-16.8-9.76,11.09,21.85,18.25c.88.16,1.21-.7,1.67-1.2.97-1.05,7.91-10.77,7.53-11.34ZM476.13,498.6l-20.71,17.14,8.63,12.22,22.45-18.29-10.36-11.06ZM121.62,528.55l23.12,14.98,7.4-12.38-.78-1.41-20.43-13.76-9.3,12.57ZM453.85,516.67l-21.85,14.59,7.5,12.26,23-14.72c.24-.99-7.33-10.61-8.65-12.13ZM179.23,544.2l-23.64-11.48-6.98,12.93,24.27,12.28c.74-.17,6.8-13.12,6.35-13.73ZM410.93,558.58l25.18-12.9-7.2-12.91-23.74,11.99,5.76,13.82ZM174.43,559.17l26.73,10.12c.95-.09,4.23-12.11,5.03-13.97l-25.75-10.55-6.01,14.4ZM404.29,545.38l-26.38,9.6,4.81,14.4c3.65-1.37,25.43-8.35,26.75-10.18.96-1.34-4.97-11.38-5.18-13.82ZM234.46,562.18l-27-7.21c-.35,2.1-4.92,14.14-4.19,14.98l28.18,7.23,3-15ZM377.31,555.57l-27.01,6.61,3.05,14.96,28.16-7.17-4.21-14.4ZM262.64,567l-27.58-4.23-2.38,14.99,28.79,4.23,1.17-14.98ZM349.1,562.78l-27.61,4.21,1.83,14.97,28.78-4.17-3.01-15ZM288.48,583.79c-.85-2.56,1.76-14.15.04-15.35l-24.64-1.46-1.21,15.61,25.82,1.2ZM296.28,568.18v15.61l25.56-1.77-1.58-15.02c-7.93,1.11-15.99,1.4-23.98,1.19Z" fill="#fff"/><path d="M295.08,38.79c1.02.77-.07,1.09-.89,1.19-2.14.27-7.36.09-8.74,1.47-.94.95-7.81,16.34-8.25,18.16-.11.47-.18.89-.12,1.37,3.63-1.26,8.87-1.04,8.71,3.91s-6.43,3.25-5.11,1.49c5.26,3.46,5.81-5.23.3-5.34-3.09-.06-6.39,3.24-6.87,6.24l19.47,30.3c.52-2.59,4.78-.38,6.21-1.28l.69-2.61,2.4-49.82c-.46-2.5-4.03-2.14-6.01-2.1v-1.8c6.31,1.53,19.48-1.57,23.06,4.85,4.64,8.3-7.69,16-10.45,5.95,1.5.88,1.63,2.72,3.56,3.33,7.41,2.36,9.35-9.27,2.72-11.72-1.88-.69-6.06-1.5-7.04.73l-1.66,30.13c5.58.16,9.51,3.49,12.9,7.58.48.58,1.66,4.49,2.11,1.46,1.78-12,3.41-24.01,5.37-35.98-.08-3.12-3.61-2.65-5.96-2.74v-1.8c5.54,1.51,19.03.72,22.12,5.79,5.24,8.58-7.41,16.88-10.71,6.22l3.87,3.64c6.98,2.71,10.28-9.07,2.72-11.74-2.96-1.05-6.26-1.84-6.93,2.05l-7.52,49.57.33,1.52,5.73,1.18v1.8s-9.81-1.23-9.81-1.23c-3.07,6.15-8.75,9.27-15.68,9.05-17.24-.56-25.9-24.9-34.84-36.62l-9.29,23.77.55,1.77,3.88-.25.95,1.71-13.2,1.2v-1.8c1.23,0,2.7.07,3.79-.57,2.75-1.62,9.42-23.82,11.79-27.95l-14.99-24c-.54-.61-1.2-1.34-1.95-1.65-1.32-.55-3.6.13-3.44-1.35,3.35-1.56,8.27-1.27,12-1.51l-2.39,2.09,14.39,20.11c.53-3.6,9.68-20,8.35-22.14-2.16-1.38-5.42,1.66-4.74-1.87l18.61-1.8ZM313.09,97.61c2.15-.41,4.4,1.6,6.04-.27.75-.86,2.41-10.06,2.25-11.31-.71-5.22-9.27-12.52-14.88-11.83l-.52,21.83c.68,2.07,6.11-.22,5.92,2.78l-17.4-.3c6.38,8.74,19.77,13.76,25.8,1.8l-7.2-.9v-1.8Z" fill="#fff"/><path d="M197.66,74.01c-2.04,1.8-7.64,2.04-7.32-1.01,4.87,3.38,9.97-.74,7.65-6.45-2.66-6.55-13.19-3.04-12.66.6l23.32,46.98c1.97.98,3.03-.25,4.62-.8.97-.33.96-1.23,1.98.2l-15.6,8.69c34.5,12.42,28.02-35.76-.6-27.6-.25-1.45.16-1.13,1.19-1.48,17.5-5.81,32.43,19.09,18.63,30.6-15.97,13.32-37.35-5.79-52.23-12.32l3.54,24.96.99,1.43,3.68-1.69,1.38,1.1c-2.18.13-10.12,7.76-11.4,6.61l2.73-4.16c-.03-9.93-2.06-20.01-3.49-29.89-5.75-1.84-22.31-13.99-27.17-13.91-1.28.02-3.42,2.39-3.28.25l9.3-6.9c2.47,2.11-.77,1.62-1.5,3.58l4.04.47,18.76,10.34-2.52-22.98-1.35-1.04-2.73,1.52-1.79-.61c4.41-2.88,9.16-7.25,13.71-9.69.82-.44,1.37-1.07,2.48-.81l-7.7,5.8,1.71,23.01c1.12-.58.9-1.8,2.18-2.91,6.24-5.4,12.53,6.17,3.82,5.91l2.73-1.76c1.48-5.91-5.75-5.75-7.58-.98-1.66,4.35-.8,5.56,2.64,7.65,2.89,1.75,27.24,15.81,28.54,14.85.14-.1.24-1.16,1.03-1.67,2.02-1.32,5.11-1.17,3.38-4.71-8.07-13.13-13.17-30.76-21.36-43.47-2.83-4.4-3.65-.95-7.59-.82-.33-1.78.29-1.25,1.17-1.8,2.51-1.58,12.47-6.59,15.02-7.22,7.21-1.79,12.87,7.51,7.63,12.14Z" fill="#fff"/><path d="M39.99,292.98c.12-.48,1.01-1.25,1.51-.31l.88,3.01c.02-1.44,1.83-2.04,3-2.7,5.92-3.37,12.46-5.8,18.61-8.7l-19.64-11.9c-3.46-.54-.48,4.77-3.76,4.7l.6-19.2c1.34.33.81.86.81,1.65-.06,6.37-1.86,7.37,4.04,11.2,4.64,3.01,10.26,5.22,14.67,8.75,1.57.12.62-.24.42-1.02-.69-2.7-1.47-3.77.74-6.2,3.83-4.2,9.75.32,5.42,4.22-.57-1.36,1.49-3.98-.68-4.72-7.3-2.47-5.97,10.7.64,10.71,11.59-6.3,30.53-11.34,39.37-21.29,18.57-20.91-23.5-34.37-28.83-10.52-1.45-.42.09-3.8.49-4.62,7.39-15.25,37.22-11.47,34.28,10.87-2.08,15.82-27.96,22.99-40.16,29.17-.34.45,2.71,2.2,3.2,2.5,3.69,2.2,14.95,8.98,18.37,9.84.81.21,1.6.34,2.44.26l.11-3.8,1.69-1,1.49,28.8-2.06-5.73-5.13-.26c-14.59,2.74-31.08,2.24-45.48,4.94-4.39.82-2.52,3.55-2.85,7.05l-1.5-.59-1.95-17.56c2.41-13.54,22.22-5.19,10.66,4.35.06-1.74,1.86-2.24,2.27-4.03,1.78-7.77-9.67-8.47-11.47-1.87-.72,2.65-.02,4.37.29,6.99l2.06.68c15.05-2.26,30.41-2.76,45.48-4.85,1.57-.22,6.01-.58,6.69-1.72,1.05-1.75-.79-7.92-3.02-9.01l-23.55-13.12-1.96.17c-3.67,2.86-24.62,10.31-26.09,12.96-.69,1.23.25,3.78-2.11,3.59v-11.7Z" fill="#fff"/><path d="M287.87,488.35l-6.21.09-.92.88-.07,2.03c8.1-.05,14,5.74,16.92,12.8l2.29,7.61,6.34-25.18c.87-1.56,2.87-1.39,4.41-1.15l22.76,52.56c.45,1.06,1.13,1.66,2.21,2.05,2.06.76,3.84-1.41,3.32,1.73l-15.61,1.2c.18-3.16,4.16-1.1,6-2.09l-2.52-2.88-19.68-44.83-12.34,48.93c.04.47.26,1.2.6,1.49,1.5,1.27,11.52-.02,13.98-.47,1.16-.21.72.05.76,1.07l-23.41,1.8c.6-3.42,3.77-.1,5.43-3.86s5.86-21,6.41-25.4c1.32-10.48-6.44-25.1-18.45-24.16l-1.8,25.21,6.82-1.27,5.78-4.72c-2.35,4.85-7.21,7.55-12.61,7.19l-1.07,23.28,6.48.74v1.8s-19.47-1.24-19.47-1.24c-5.38-1.29-8.11-4.62-6.81-10.34s11.9-5.38,12.47.77c-1.26-.33-1.58-1.98-2.43-2.67-5.64-4.57-12.57,3.12-8.04,8.64,1.76,2.15,9.23,3.66,10.78,1.84s1.6-20.48,2.08-24.3c-5.26-5.53-7.81-12.49-3.23-19.47,2.51-3.82,7.67-4.6,4.9-10.11l-6.44-1.64c.72-1.07,1.49-.93,2.6-.87,3.22.17,7.06.9,10.3,1.15,2.25.18,7.3-1.14,7.49,1.8ZM274.07,494.96c-.76-.86-4.16,3.39-4.58,4.11-3.17,5.43-2.22,12.11,2.49,16.29,1.35.25.84-.59.89-1.48.41-6.31.89-12.61,1.19-18.92Z" fill="#fff"/><path d="M202.04,466.14c-2.7-.59-4.84-4.27-7.19-.9,8.49,5.74,8.08,15.9,6,24.91l15.89-18.66,3.28.09c-.24,5.48-.66,11.01-1.17,16.47-1.2,12.94-3.88,27.43-4.24,40.21-.12,4.15,1.9,2.65,3.04,5.7l-12.6-5.11c-1.08-2.22,4.32.8,4.79.31l4.2-50.42-30.94,37.18c-1.83,5.6,8.41,4.87,11.14,8.43l-19.21-7.2c.92-3.64,2.6,1.24,6.32-2.37s16.37-19.67,17.97-24.04c2.1-5.74,2.86-14.57-.37-20.01-.63-1.07-4.06-4.8-5.29-3.96l-12.03,21.24c2.8,2.82,8.39,1.76,11.1-.86,1.03,1.71-4,3.4-5.47,3.56-2.76.3-4.23-.96-6.74-1.08-1.96,5.49-9.56,13.76-10.76,18.98-.72,3.14,1.45,3.41,4.06,4.36.24.59-.5,1.76-.89,1.78-.98.05-15.55-9-16.51-10.49-3.38-5.22,1.16-13.13,7.22-11.44,2.65.74,5.77,5.15,2.99,6.94-.71-13.14-16.23-2.23-8.44,5.13,2.72,2.56,4.84,3.42,7.12.47,1.43-1.85,10.94-17.94,11.25-19.39.28-1.3-1.25-5.75-.94-8.72.5-4.81,4.55-10.25,9.02-11.98,2.24-.87,7.64-.82,5.7-5.1-.66-1.46-5.37-2.64-3.91-4.21.57-.61,13.54,7.06,14.61,7.89,1.01.77,1.18.93.98,2.31ZM188.24,465.54c-8.67.7-14.13,10.68-10.79,18.6l10.79-18.6Z" fill="#fff"/><path d="M122.21,385.72l7.8,12.9c-2.54,2.94-3.42-5.29-6.58-1.8,5.33,7.82-2.34,17.51-7.81,23.1l21.45-8.89c1.26-.63,3.96.44,3.7,1.9l-34.78,46.96c-.14,1.65,2.31,2.49.32,3.83l-7.5-10.19c2.44-.58,2.41,2.34,4.19,3l.69-2.62,28.73-38.19-45.01,18.91c-2.66,3.22,4.76,7.67,5.39,11.1-1.3.15-2.17-1.76-2.98-2.72-2.13-2.53-5.07-6.05-6.87-8.74-.74-1.1-1.78-2.03-1.56-3.54l4.35,2.31c11.96-6.19,27.11-8.3,34.91-20.37,2.3-3.56,5.25-11.13,2.44-14.95-.71-.96-1.7.08-2.49.5-6.52,3.5-12.61,8-19.16,11.49-1.4,2.15,4.07,4.46,5.61,4.7,1.8.28,4.19-1.41,3.74.71-4,.3-8.63.14-10.28-4.12l-1.28.04c-3.08,3.03-17.7,9.21-19.36,11.89s2.91,4.1.61,5.99c-.78-.04-7.81-12.01-8.23-13.36-3.44-10.98,17.09-14.54,11.52-1.64l-1.2-.31c3.37-4.85-.58-8.57-5.84-6.44-5.89,2.39-4.66,13.48,1.89,10.88,1.72-.68,19.41-11.34,20.15-12.26.93-1.14,1.15-3.86,2.52-5.89,2.4-3.58,7.32-7.07,11.66-7.56,3.09-.34,5.86,1.56,7.99.24,3.02-1.86.92-3.69-.53-5.99l1.78-.89ZM118.01,393.52c-8.26-1.28-15.62,3.5-18,11.4l17.25-10.02.75-1.37Z" fill="#fff"/><path d="M86.8,145.63c-.95,3.11-4.8,6.43-4.1,9.76l11.3,17.85c-.03-1.79,1.7-5.36,3.43-5.88,5.07-1.52,9.03,4.13,3.48,6.48-1.21-1.72,1.4-.93,1.55-2.71s-1.88-3.58-3.81-3.21c-4.8.94-4.1,8.6-1.22,11.32,6.16.19,12.34.34,18.51.57,9.39.35,23.37,2.32,31.5-3.86,17.54-13.35-12.94-36.97-25.82-20.12-1.53-1.95,5.73-5.43,7.06-5.83,17.47-5.3,33.93,15.25,18.97,29.78-7.71,7.49-20.15,5.9-29.97,6.09l-17.68-1.22c2.38,2.72,13.63,22.73,15.89,22.2l2.09-3.32,1.81.62c-1.79,1.34-5.06,9.95-6.34,10.46-.39.15-.99.02-1.45.04,1.39-2.1,1.75-4.53.54-6.84l-14.93-22.88-27.95-1.52c-1.19-.03-2.3.21-3.27.94-.53.4-2.39,4.08-3,1.16-.12-.56,5.18-9.65,5.71-9.86.35-.14,1.01.04,1.48-.01l-1.19,3h24.6s-11.99-19.52-11.99-19.52c-2.67-1.68-2.36,3.51-4.81,3.32-.24-1.13.18-1.79.56-2.73,1.01-2.46,3.86-7.19,5.33-9.67.38-.64,2.76-5.33,3.7-4.39Z" fill="#fff"/><path d="M441.53,496.16c.21,1.47.08,1.25-.73,1.98s-11.47,7.04-12.17,7c-.38-.02-1.22-1.34-.89-1.78.73-.03,4.6-1.49,3.91-2.41l-39.32-33.61,9.64,49.47c2.37,3.45,11.45-4.6,14.36-5.66.22,1.22-.77,1.71-1.59,2.3-5.19,3.7-12.55,6.54-17.91,10.29l-.89-1.78c2.59-.3,3.68-1.93,3.62-4.48-.09-3.99-3.66-20.97-4.99-25.08-4.13-12.76-24.04-23.89-32.37-8.69-8.18,14.92,15.42,29.43,22.27,9.03.31-.93-.53-1.72,1.26-1.4-1.15,12.75-17.16,17.28-24.12,5.81-5.88-9.68,1.6-21.39,12.64-21.66,8.66-.21,14.05,5.63,19.28,11.64l-5.32-26.15,3.12-1.98,43.65,37.4c2.38,1.96,4.19.37,6.57-.27Z" fill="#fff"/><path d="M513.44,414.99c-3.96,2.55,1.09-4.93.71-5.26l-50.42-10.2,31.04,38.43,1.69.54c2.25-.17,6.35-8.57,7.81-10.78.46-.7-.15-1.55,1.48-1.19-1.2,2.52-10.65,19.36-11.72,19.79-.35.14-1.01-.04-1.48.01.63-3.03,3.02-3.25.87-6.57-2.72-4.19-16.65-20.59-20.48-22.73-8.54-4.76-23.27-5.27-27.31,5.48-5.94,15.81,14.8,25.56,21.83,12.22,2.61-4.95,1.5-5.61.6-10.44-.22-1.16.08-.76,1.08-.78,4.36,11.96-7.54,23.4-19.02,16.32-9.8-6.04-8.31-20.79,1.8-25.44,7.54-3.47,14.88-1.26,22.02,1.91l-17.13-20.39,1.92-3.55,57.16,12.24c2.12.16,2.79-1.99,3.96-3.28.87.7.96.75.65,1.83-.19.67-6.49,11.46-7.07,11.83Z" fill="#fff"/><path d="M510.55,186.44c-.72,3.36-2.26,5.09.57,8.14,3.41,3.68,9.23,1.42,10.12-3.19.6-3.11-2.14-11.33-6.38-8.75l-44.49,22.72c-3.62,2.26,2.75,5.58.27,8.07-.72-.54-1.16-1.21-1.61-1.98-1.32-2.25-7.44-13.95-7.7-15.71-.14-.92-.02-1.04.9-.9l3.32,5.12,1.81.04c12.59-6.79,25.84-12.44,38.41-19.26,1.38-.75,7.06-3.6,7.52-4.51,1.37-2.75-3.13-4.88-.62-7.2,1.99,5.1,10.08,16.21,9.86,21.26-.25,5.68-7.64,9.55-11.96,5.44-2.3-2.19-2.9-7.38,0-9.3Z" fill="#fff"/><path d="M477.55,357.51c-4.9,8.12,1.67,8.43,7.82,11.08,12.82,5.51,25.96,10.35,38.81,15.81,2.02.04,2.75-3.32,3.48-4.72.37-.71.22-1.88,1.51-.87.99.78,0,1.23-.29,2.11-1.24,3.7-5.87,16-8.09,18.32-5.45,5.67-14.43,1.35-12.34-6.34.63-2.31,4.94-6.15,6.31-3.59-9.12,1.37-6.11,14.05,2.84,10.95,3.1-1.07,8.1-9.04,3.31-10.78l-46.9-19.06c-2.4-.29-3.07,3.41-3.65,5.29l-1.81.4,7.21-19.21,1.79.61Z" fill="#fff"/><path d="M496.76,163.63c.33-.31,1.28-.43,1.06.75-.29,1.57-.71,2.54-.44,4.3.99,6.47,13.89,4.98,10.96-4.96-.6-2.03-3.64-7.12-6.17-5.17l-42.68,28.14c-1.92,2.57,2.27,4.68,1.84,7.54-1.25.28-1.36-.66-1.93-1.37-3.69-4.63-6.26-10.54-10.06-15.14,3.02-2.87,3.22,5.73,7.21,3.65l43.13-28.98-2.93-6.17c1.45-1.35,4.73,4.68,5.41,5.69,2.02,2.97,7.8,11.27,7.8,14.42,0,9.2-13.85,10.16-13.87.6,0-.58.45-3.09.66-3.3Z" fill="#fff"/><path d="M417.53,85l2.12,4.77c2.44,3.29,8.43,2.04,9.61-1.74,1.77-5.69-2.94-9.22-7.75-10.74l-2.45,2.35-24.7,42.55c-1.42,4.56,4.76,3.48,4.54,7.22l-17.12-9.58.03-1.83c2,0,4.39,4.14,7.19,1.8l25.41-44.26c1.74-2.82-6.54-4.12-4.7-6.15.69-.76,16.02,9.14,17.98,9.93,2.92,2.91,4.09,6,2.16,9.91-3.3,6.69-13.67,3.21-12.33-4.23Z" fill="#fff"/><path d="M486.55,283.97c.14-.5,1.15-1.1,1.8-.9.26,2.31-1.14,6.57,2.12,7.18,11.2.2,22.42-.19,33.62,0,4.8.08,9.94,1.11,15.01.65,5.33-.48,3.7-2.79,3.88-7.23h1.8v20.71c0,.54-1.52,3.33-2.07,3.93-5.54,6.12-15.54-.4-11.39-7.79,1.51-2.69,4.72-2.89,3.25-1.26-.9,1-2.8.38-3.03,3.92-.56,8.63,11.15,8.09,12.05.6.61-5.03.77-7.13-4.49-7.54-15.77-1.22-32.16.91-48.01.08-3.71.22-2.6,4.42-2.74,7.15h-1.8v-19.51Z" fill="#fff"/><path d="M542.37,256.06c-.3,7.67,7.35,28.61-6.29,27.63-6.43-.46-8.27-9.72-2.12-12.01l-2.89,4.65c-.21,6.68,7.67,9.13,11.21,3.36,1.48-2.41,1.62-10.02-1.43-10.44l-51.35,5.7-1.01.47c-1.99,1.94,1.55,6.16-1.35,6.77l-2.4-20.11c2.56-.08,1.53,2.73,1.93,4.37.75,3.03,2.97,2.25,5.57,2.23l48.37-5.78c1.99-2.8-2.04-7.61,1.75-6.82Z" fill="#fff"/><path d="M488.35,304.69l-.51,6.52c2.74,1.21,5.73,1.39,8.69,1.81,14.11,1.99,28.47,2.58,42.55,4.88,3.82.16,3.24-3.74,3.29-6.61h1.8c-1.08,5.81-.44,18.45-3.69,23.02-2.12,2.99-7.08,3.8-10.09,1.86-4.25-2.73-3.07-11.26,2.37-11.68l-3.64,3.86c-3.02,7.58,9.12,12.03,11.76,2.77.49-1.72,1.4-5.85-.34-6.92l-51.89-6.34c-2.38.33-2.14,4.42-2.71,6.23l-1.81.4,2.4-19.81h1.8Z" fill="#fff"/><path d="M152.69,500.47c.36.53.54,2.03-.75,1.67-3.12-2.98-14.91-9.22-15.79-13.02-1.28-5.56,2.46-11.03,8.45-9.65,2.62.6,5.41,4.76,3.12,7.07-.61-13.23-16.59-3.06-9,4.81,1.17,1.21,4.47,3.31,6.05,1.84l29.81-41.64c1.58-2.88-2.29-3.72-3.73-5.52l1.42-.85,13.57,10.44c-.21,1.11-.81.69-1.51.33-2.32-1.17-3.5-3.85-5.95-.58l-28.84,40.2c-1.69,2.84,2.51,3.93,3.15,4.89Z" fill="#fff"/><path d="M115.01,370.71l6.61,14.4c-4.31-.22-1.33-4.94-7.04-3.13l-44.56,22.08-1.03,1.14,1.61,4.21c-.7.69-.67,1.26-1.49.3-.73-.85-6.79-13.21-6.9-14.15-.98-8.06,11.93-11.72,13.18-5.33.38,1.96,0,5.62-2.38,4.79,5.73-6.44-4.19-9.6-8.42-4.21-2.3,2.93-.72,9.65,2.42,9.09l45.8-22.08c5.17-2.21-2.34-6.11,2.2-7.1Z" fill="#fff"/><path d="M108.96,355.75c.56.36,4.41,11.44,4.61,12.55s.43,1.62-.66,2.41l-2.7-4.54-49.52,18.94c-1.34,1.2,2.7,7.5-.81,5.32-.69-.43-5.49-14.16-5.52-15.24-.19-7.81,13.29-10.57,13.83-2.93.07.97-1.36,4.71-2.99,4.45.07-1.77,1.75-1.82,1.86-3.9.32-6.05-10.06-4.73-11.32.15-.66,2.55.2,7.94,3.59,7.25l48.12-18.55c2.59-.69-2.25-8.31,1.5-5.9Z" fill="#fff"/></g></svg>