<?xml version="1.0" encoding="UTF-8"?><svg id="Layer_2" xmlns="http://www.w3.org/2000/svg" viewBox="0 0 514.82 503.47"><g id="Layer_2-2"><g id="Layer_1-2"><path d="M392.4,390.7c2.79-.17,5.35.96,7.62,2.46.54.36,1.75,1.76,1.88,1.77.88.08,1.3-.88,1.96-1.34,6.3-4.48,12.75-3.71,18.43,1.31,6.5-6.86,18.6-5.13,21.99,3.93.3.79,1.06,3.37,1.06,4.06v6.77c4.26-1.24,8.67.83,10.01,5.17,2.39,7.72-4.58,16.57-8.51,22.64,1.93.64,3.71-.24,5.42-.62l2.7,5.58c-2.94,1.14-5.88,1.94-9.1,1.44-1.12-.17-2.95-1.38-3.67-1.4-.96-.02-2.95,1.31-4.52,1.47-2.78.28-6.37-.09-8.5-1.95l2.65-5.26c1.53.71,6.75,1.86,7.2-.46l-.03-33.04c-.61-5.29-6.57-8.26-10.94-4.99-1.21.91-2.86,3.45-2.86,4.96v35.03h-6.01v-35.03c0-4.3-5.31-7.28-9.27-5.96-1.86.62-4.56,3.69-4.56,5.66v35.33h-5.86l-.45-.45v-35.78c0-.81-1.84-3.21-2.56-3.76-1.36-1.02-2.67-.91-4.06-1.66v-5.86l-.02-.02ZM445.32,417.01v11.28c.46-.17.81-1.06,1.06-1.5,1.26-2.28,4.19-7.93,2.82-10.34-.84-1.48-3.56-.83-3.87.57h-.01Z" fill="#fff"/><path d="M169.59,450.23c3.97-.35,7.22,1.75,10.07,4.22,2.52-2.27,4.88-3.92,8.41-4.23,4.87-.43,7.93,1.05,11.44,4.23,2.35-1.95,4.91-3.94,8.11-4.23,7.78-.72,13.77,3.9,14.89,11.59l.06,34.22c1.78,2.17,4.88.75,7.16.34l2.67,5.14c-4.95,3.47-14.26,2.44-16.18-3.94-.81-11.34.99-23.98,0-35.17-.6-6.68-10-8.26-12.81-2.26-.16.34-.74,1.77-.74,1.97v35.18l-.45.45h-5.41l-.45-.45v-35.48c0-1.03-1.45-3.06-2.26-3.75-3.26-2.78-8.42-1.97-10.5,1.82-.16.29-.77,1.48-.77,1.64v35.78l-.45.45h-4.51c-.41,0-1.1-.06-1.35-.45v-35.18c0-.84-1.43-3.28-2.09-3.92-1.53-1.48-3.11-1.35-4.82-2.09v-5.88Z" fill="#fff"/><path d="M198.16,18.74l1.49-7.37c7.94-22.15,40.4-8.39,30.38,12.64-.48,1.01-2.82,4.94-4.01,4.63l-3.78-4.08c1.59-2.48,3.2-4.31,3.29-7.47.36-12.8-18.53-15.74-20.73-.58-.69,4.77-.73,10.13-1.24,15-.77,7.27-1.57,14.6-2.57,21.81l-5.53-.03c-.78-7.06-1.66-14.12-2.42-21.19-.53-4.96-.6-10.06-1.24-14.99-2.72-20.73-30.02-8.16-17.48,7.18l-3.7,4.39c-1.07.17-3.27-3.09-3.79-4.03-7.22-13.15,5.3-28.27,19.66-23.87,7.51,2.3,11.72,10.44,11.66,17.95h0Z" fill="#fff"/><path d="M46,314.17l.61.32c10.91-5.15,21.59,7.85,14.25,17.54-4.5,5.95-12.41,5.85-17.85,1.23-.25,1.53-6.6,4.97-7.51,4.18l-1.2-5.97c3.09-.68,5.35-2.64,5.68-5.89.95-9.4-.65-20.42-.07-29.99-1.07-4.22-5.63-6.53-9.4-3.83-.97.7-2.56,2.88-2.56,4.06v32.02h-6.01v-31.72c0-.16-.63-1.93-.78-2.23-.96-1.92-3.11-3.22-5.23-3.34v-6.01c3.46-.38,6.32,1.56,8.93,3.57,5.72-5.17,14.93-5.08,19.28,1.75,1.56,2.46,1.86,3.98,1.86,6.86v17.44h0ZM50.13,319.8c-5.9,1.21-4.94,11.18,1.9,10.62,7.28-.59,6.15-12.28-1.9-10.62Z" fill="#fff"/><path d="M344.29.1v6.01c-3.79.34-7.55,3.02-8.29,6.9-.29,1.53-.2,3.3-.52,4.9-.59,2.98-2.66,6.87-5.33,8.36v.44c12.3,10.3,2.85,29.85-12.99,26.23-11.86-2.72-15.1-19.09-5.36-26.22-3.01-2.65-5.11-5.9-5.67-9.96-.23-1.66,0-3.57-.41-5.3-1.07-4.48-4.28-4.95-8.34-5.34V.1c7.86-.42,13.69,3.6,14.7,11.62.22,1.73-.02,3.13.43,4.98,1.5,6.2,8.63,9.07,13.75,4.9,4.26-3.47,2.61-6.75,3.89-11.14,1.75-5.99,7.85-10.61,14.15-10.36h-.01ZM319.25,29.94c-10.56,1.66-8.6,19.04,3.46,17,10.29-1.74,8.35-18.85-3.46-17Z" fill="#fff"/><path d="M414.9,102.59l.05-29.87c-.12-.64-3.66-2.82-4.52-3.6-1.11-1.01-2.02-2.18-3-3.31l4.92-3.74c7.72,9.72,22.59,10.07,30.13-.02.25-.06,3.45,2.32,3.88,2.71.4.37,1.25.88.93,1.49-.2.4-3.2,3.27-3.77,3.76-.95.83-3.41,1.96-3.6,3.01l-.03,28.58c.14,1.14,2.19,2.04,3.16,2.85,1.44,1.2,3.07,2.44,4.08,4.04.16.26.46.4.16.76-.91.51-4.04,3.46-4.77,3.27-.46-.12-2.42-2.43-3.08-2.97-8.27-6.81-20.6-5.16-27.05,3.24l-4.96-3.7c2.03-2.55,4.49-5.13,7.46-6.51h0ZM433.6,74.97c-4.06,1.04-8.27,1.04-12.33,0v24.66c4.19-.78,8.13-.78,12.33,0,0,0,0-24.66,0-24.66Z" fill="#fff"/><path d="M487.2,328.38c.16.14.78.26,1.03.27,1.48.04.77-.88,1.14-1.41.52-.77,5.09.2,6.19.18.62,8.04-10.87,10.35-14.19,3.34-2.31-4.87.57-7.4,2.42-11.52,2.93-6.53,8.66-20.25,6.44-27.1-1.95-6.02-8.84-5.75-9.87.82-1.49,9.49,5.87,20.78-1.94,28.73-4.96,5.04-13.95,3.06-16.29-3.55-2.96-8.33,4.93-15.35,12.99-12.84-1.86-6.78-2.43-16.88,3.77-21.64,7.08-5.44,16.04.22,17.8,8.04s-2.61,19.43-5.58,26.43c-.7,1.66-4.26,8.23-4.25,9.24,0,.27.17.83.36,1h-.02ZM470.81,311.07c-4.46.66-3.73,7.81,1.1,7.15,4.5-.62,3.63-7.85-1.1-7.15Z" fill="#fff"/><path d="M76.37,81.59c-.71-6.83-3.75-13.46-8.71-18.19l4.39-4.34c6.36,5.66,9.68,14.13,10.68,22.49l17.1.04c.48-7.22,3.63-15.15,8.43-20.59.43-.49,1.78-2.15,2.39-1.83.42.21,3.94,3.9,3.89,4.19-4.61,4.98-7.92,11.35-8.4,18.23h4.51v6.01h-4.51c.51,6.82,3.7,13.35,8.4,18.23.05.28-3.49,3.98-3.89,4.19-.61.32-2.23-1.6-2.69-2.13-4.82-5.49-7.25-13.04-8.41-20.16l-16.67-.15c-.82,3.87-1.4,7.57-2.93,11.25-.78,1.87-6.11,11.33-7.93,11.33l-4.06-4.06c3.68-4.75,6.86-9.4,7.98-15.48.1-.56.73-3.02-.01-3.02h-4.36v-6.01h4.81,0Z" fill="#fff"/><path d="M338.88,476.69h12.03v6.31h-19.09c-.32,0-1.72-1.31-1.92-1.69-1.35-2.63,1.49-4.42,2.72-6.53,3.59-6.18,1.71-13.95-4.17-17.89-11.82-7.92-26.12,5.2-19.46,17.65,1.27,2.37,4.19,3.79,2.85,6.82-.22.51-1.54,1.63-1.98,1.63h-18.64l-.45-.45v-5.41l.45-.45h11.58c-1.65-4.69-2.32-8.93-1.05-13.83,1.69-6.56,7.64-12.51,14.28-13.98,16.82-3.72,29.37,12.2,22.86,27.82h0Z" fill="#fff"/><path d="M479.9,177.21c4.25,3.42,6.76,8.23,5.21,13.77-3.51,12.53-22.32,10.85-23.55-1.9-1.34-13.95,19.04-20,29.93-19.4,8.03.44,17.07,3.69,22.4,9.79l-4.37,4.07c-.58,0-1.7-1.5-2.28-1.94-7.84-5.92-17.99-6.83-27.34-4.38h0ZM472,182.09c-6.24,1.28-5.21,11.84,1.99,11.34,7.73-.53,6.51-13.09-1.99-11.34Z" fill="#fff"/><path d="M466.25,201.43c.12-.09.11-.46.29-.48.75-.08,2.81,2.1,3.64,2.67,7.6,5.17,17.51,5.98,26.26,3.66l-3.44-3.62c-4.22-6.26-1.74-15.29,5.47-17.95,12.88-4.77,22.36,10.96,11.81,20.83-12.28,11.49-36.36,11.07-47.81-1.51,1.24-1.23,2.4-2.51,3.78-3.59h0ZM501.77,191.11c-3.38.57-5.27,4.31-4.29,7.45,1.37,4.37,7.12,5.41,9.9,1.77,3.28-4.3-.36-10.12-5.62-9.22h.01Z" fill="#fff"/><path d="M96.52,401.82v21.95h7.22v6.31h-7.22v11.13h-6.31v-11.13h-7.22v-5.86l.45-.45h6.77v-21.65c-.52-.13-.6.22-.9.45-1.15.88-6.56,7.06-7.06,7.06l-4.35-4.35,15.48-15.48,15.48,15.48-4.35,4.35-7.97-7.81h-.02Z" fill="#fff"/><path d="M28.39,187.56c3.07-3.08,5.97-6.42,9.4-9.1l11.73,11.35.86-.25,9.01-9.03,4.35,4.35-14.02,13.96-11.99-11.7-11.77,11.7-11.99-11.7-9.62,9.61-4.35-4.35,14.03-13.94,11.52,11.24c1.12.52,2.15-1.46,2.83-2.14h.01Z" fill="#fff"/><path d="M38.18,194.65l11.59,11.65,9.38-9.22c.91-.24,3.74,3.36,4.58,4.07l-13.72,13.91-.86-.25-11.15-11.11-11.99,11.69-11.79-11.69-.86.25-9.05,9.02L.01,208.89l13.96-14.24,11.99,11.7,12.21-11.7h0Z" fill="#fff"/><polygon points="350.91 487.52 350.91 493.83 291.22 493.83 290.77 493.38 290.77 487.97 291.22 487.52 350.91 487.52" fill="#fff"/></g></g></svg>