<?xml version="1.0" encoding="UTF-8"?><svg id="Layer_2" xmlns="http://www.w3.org/2000/svg" viewBox="0 0 924.53 913.76"><g id="Layer_1-2"><path d="M436.21.59c298.68-14.59,536.71,245.29,479.89,542.89-56.58,296.36-390.41,456.86-660.36,321.99C83.62,779.48-21,593.16,3.56,399.93,31.21,182.36,217.15,11.29,436.21.59ZM596.42,43.3c-40.35-10.35-81.1-18.94-123.03-19.58l-2.97,113.58c29.79.37,59.33,4.88,88.01,12.57l37.99-106.57ZM453.41,136.29V26.79c0-.31,1.38-1.41,1-2.49-29.02-.2-58.52,3.46-86.81,9.68-12.79,2.81-25.97,6.34-38.11,10.8l33.88,106.09,2.43.42c28.56-8.19,58.15-11.67,87.61-14.99ZM346.29,157.17l-33.49-106.82c-39.37,12.67-76.27,33.13-109.26,57.63l66.59,89.17c2.47.63,16.9-10.18,20.37-12.28,17.75-10.74,36.19-20.75,55.79-27.7ZM613.95,50.3l-39.46,104.39c.34,1.5,17.53,7.98,20.6,9.42,14.26,6.71,30.16,14.33,43.63,22.37,3.08,1.84,14.99,11.2,16.99,10.7l69.6-87.19c-.51-2-11.37-8.47-13.98-10.12-30.83-19.54-62.84-37.38-97.38-49.58ZM194.27,272.16c11.69-17.28,27.24-33.68,42.62-47.9,2.91-2.69,18.57-14.25,18.56-16.48l-67.52-87.56c-32.02,24.63-59.32,55.15-83.4,87.42,2.06,3,5.21,4.85,8,7.04,21.94,17.14,51.4,39.72,74.58,54.42,1.66,1.06,5.3,4.16,7.17,3.06ZM740.07,124.38l-70.72,84.43c-.1.61.22,1.02.52,1.5,1.03,1.59,16.79,12.99,20.06,15.96,9.38,8.52,19.45,19.53,27.99,29.01,2.54,2.83,13.9,17.95,15.96,18l89.54-62.44c.06-1.97-10.86-15.29-13.04-18.02-17.4-21.78-39.54-45.21-60.96-63.04-1.91-1.59-7.12-6.08-9.36-5.4ZM443.21,157.59c-168.15,9.24-295.61,146.66-286.78,316.2,9.52,182.77,182.57,308.66,360.18,277.2,125.49-22.23,234.1-123.18,249.69-252.31,23.64-195.77-128.22-351.79-323.08-341.08ZM40.49,340.21l107.29,27.01c1.65-.55,4.55-13.51,5.62-16.44,7.84-21.58,18.41-43.15,29.83-63l-89.17-64.43c-18.49,27.07-32.93,56.97-44.39,87.69-1.41,3.79-10.32,27.54-9.17,29.16ZM884.42,339.29c-10.54-40.05-27.64-78.57-50.5-112.98l-90.58,62.58c4.4,9.1,9.98,17.55,14.26,26.73,7.64,16.38,13.11,33.86,19.47,50.75l107.35-27.07ZM137.42,474.3c-.5-23.39-.02-46.19,3.14-69.36.49-3.58,4.53-20.21,3.44-21.7l-108.63-25.53c-10.39,38.83-13.39,79.47-11.51,119.65l113.57-3.05ZM886.22,358.51l-105.77,25.27c1.73,2.83,2.08,6.16,2.65,9.33,3.45,19.3,5.75,39.01,6.36,58.64.18,5.93.41,12.42-.99,18.14l.9,1.95,111.63,6.5-.54-46.59c-2.83-21.66-2.64-48.92-9.32-69.68-.39-1.22-.65-2.46-1.71-3.33l-3.2-.24ZM899.42,498.29l-110.9-8.89c-2.27,15.01-4.22,30.08-7.59,44.9s-8.34,27.89-12.09,41.99c16.4,8.72,33.49,16.21,50.61,23.46,16.35,6.92,33.09,13.96,50.01,19.13,14.27-38.93,25.07-79.28,29.97-120.59ZM138.39,490.31l-113.56,6.93c3.41,41.85,14.77,82.89,30.54,121.63l101.89-40.73c1.33-2.1-5.52-20.66-6.57-24.64-5.45-20.75-9.44-41.93-12.31-63.19ZM714.07,666.63c.6.84.49,2.29,1.38,3.09l78.32,69.51c27.77-30.02,48.84-65.63,66.61-102.37l-99.41-44.62c-14.35,25.59-29.22,51.18-49.55,72.56.03.63,2.08,1.05,2.64,1.83ZM63.41,636.31c17.94,38.09,41.67,73.52,69.5,104.97l81.39-74.68-.36-2.28c-16.63-17.13-29.16-36.58-40.71-57.35-1.58-2.84-5.35-12.92-7.54-13.54l-102.29,42.88ZM628.54,731.44l56.35,97.61c35.87-20.32,68.07-46.53,96.5-76.26l-82.48-75.46c-21.91,19.82-44.93,38.85-70.37,54.1ZM225.9,678.54l-80.41,77.12c28.01,29.86,60.97,54.92,96.3,75.56l54.63-97.47c-.04-2.19-10.41-7.32-12.92-9.04-7.02-4.84-14.24-9.83-21-15-12.75-9.75-24.21-21.02-36.6-31.17ZM398.31,770.39c-29.65-5.68-58.46-15.33-85.3-29.03l-53.49,98.45c37.28,21.11,78.55,35.43,120.89,42.49l17.9-111.91ZM614.34,741.36c-11.14,3.63-21.98,9.12-33.15,13.2-18.08,6.61-36.77,11.7-55.35,16.67l20.53,110.64c42.5-8.62,84.18-22.97,121.99-44.18l-54.02-96.33ZM527.39,885.26l-18.97-111.54c-30.9,3.87-61.98,2.59-92.89-.32l-16.68,111.96c42.37,6.59,86.22,6.94,128.55-.1Z" fill="#fff"/><path d="M324.15,764.53c5.49-.87,10.13.26,15.45,1.07,19.12,2.91,46.81,10.28,43.72,35.1-.86,6.94-7.28,12.68-7.71,16.3-.24,1.98.96,4.03.74,6.62-.61,7.01-7.64,23.4-11.11,29.98-3.97,7.53-10.96,8.83-19.08,7.44-4.25-.73-8.33-4.64-12.25-4.82-8.89-.4-11.64,5.75-20.54-4.39-1.36-1.56-2.29-4.67-2.92-5.08-.76-.51-7.85-1.38-10.56-2.44-20.04-7.84-13.98-27.23-4.31-41.36,1.83-2.67,8.05-7.37,8.63-9.37,1-3.4.46-9.69,1.45-13.55,2.05-8.02,10.56-14.25,18.49-15.5ZM372.11,804.98c6.21-5.49,2.83-16.36-2.77-21.11s-32.34-12.56-39.25-12.21c-13.19.67-23.77,17.73-10.37,25.84,9.65,5.84,36.14,11.28,47.14,9.73,1.4-.2,4.22-1.33,5.26-2.25ZM312.41,840.29c-.24-4.52-4.85-1.94-8.08-4.41-6.23-4.78-1.25-14.91,1.91-20.25,1.7-2.87,12.71-13.77,5.66-14.38-9.39-.82-23.42,27.43-14.78,34.1,2.36,1.82,11.94,4.33,15.28,4.94ZM323.14,806.49c-6.04,1.35-10.35,14.47-9.76,20.32.39,3.85,3.14,6.46,4.01,10.1.93,3.86-.97,9.61,4.03,11.87,8.04,3.64,9.11-5.33,14.62-8.35,6.91-3.79,10.63-1.54,14.87-11.13,3.22-7.27,3.81-13.54-4.14-16.87-3.83-1.61-15.15-5.17-19.12-5.92-1.64-.31-2.87-.39-4.52-.02ZM366.27,817.44l-6.85-1.14c-.08,3.29,1.42,6,.96,9.41-.58,4.3-13.39,25.18-17.44,24.59-2.63-.39.36-4.24-1.02-5-1.03,1.11-4.53,4.09-2.5,5.48,3.86,2.64,14.22,3.8,17.72.24.47-.48,3.68-6.29,4.15-7.35,3.47-7.8,5.14-17.75,4.98-26.24Z" fill="#fff"/><path d="M103.21,502.59c5.23-.58,9.45-.72,14.47.93,16.74,5.52,13.37,22.23,17.2,35.8,3.45,12.22,14.09,22.01,1.55,33.49-7.26,6.65-16.88,8.68-24.52,1.5-3.61,4.74-1,9.26-7.15,12.83-5.01,2.91-25.72,5.66-31.6,4.89-10.63-1.39-18.16-6.26-19.65-17.35-.42-3.1.49-6.97-.31-9.69-.51-1.72-5.82-6.65-7.52-11.48-9.88-28.04,1.08-41.11,28.5-45.96,5.16-.91,10.92-.59,15.65-1.35,4.37-.71,8.14-3.04,13.38-3.62ZM109.41,515.3c.36,4.14,10.99-.89,10.98-1.51-3.65-4.68-18.96-4.76-22.54-1.56-4.9,4.38,4.6,22.66,7.05,28.04,3.59-2.98,23.28-12.81,18.6-18.55-1.37-1.68-12.18-.88-14.4-.23-1.81.52-2.37,3.25-4.68,2.8-5.44-9.03-2.19-12.01,7.98-10.99l-3,2ZM102.43,579.29c3.07-1.69,3.11-6.29,2.89-9.35-.52-7.32-11.82-44.62-15.88-50.17-.98-1.34-6.98-5.32-8.02-4.47l21.01,63.99ZM95.41,581.29l-19.48-63c-3.39-4.08-15.94,6.15-20.92,6.11-4.99,3.26-4.52,22.99-1.53,27.33,2.57,3.73,9.2,0,12.94.57,1.57-6.12-3.27-6.94-5.24-10.27-1.61-2.73-6.44-15.29-3.23-17.73,3.72-1.1,10.97,13.44,12.26,16.7,1.79,4.55,9.68,38.85,8.2,40.29-8.29,2.69-8.44-17.65-10-19-9.66-.58-8.71,15.55-2.01,18.51,10.46,4.62,18.45,1.17,29.01.48ZM128.41,531.3l-23.06,13.69c.92,9.56,7.61,30.49,20.32,27.06,3.4-.92,8.97-6.89,8.74-10.75-.81-.9-21.5,6.89-21.99-1.99,4.13-.67,10.01-5.03,4.88-8.45-1.96-1.31-3.75.63-2.89-4.57-4.23-1.02-.21,5.32-2.99,6v-7c5.11-1.44,5.94,3.1,9.99,3.99-12.29-15.17,6.01-3.19,9-6l-2-11.99ZM119.41,559.28c.86.63,12.41-2.07,13.59-2.92,3.52-2.56-1-12.4-7.63-6.54-1.09.96-.21,2.78-.86,3.76-.95,1.43-4.87,2.56-5.1,5.71Z" fill="#fff"/><path d="M593.17,761.55c20.57-2.79,25.73,9.34,33.1,25.38,6.18,13.46,18.61,39.47,6.18,51.89-6.45,6.44-15.02,5.9-21.39,9.61-2.9,1.69-4.72,5.29-7.94,7.06-6.76,3.7-12.25,2.12-19.12,2.88-5.71.62-8.42,3.17-15.65,1.49-13.84-3.22-20.89-32.13-23.62-44.38-3.44-15.43-7.55-29.67,8.02-39.36,7.23-4.5,32-13.43,40.43-14.57ZM573.72,780.58c3.38-4.15,9.03-1.16,11.56,2.34,4.83,12.46,7.71,26.17,12.38,38.62,1.16,3.08,6.17,15.39,8.17,16.83,4.47,3.24,19.59-.82,23.02-5.13,1.29-1.62,2.56-9.16,2.55-11.44-.05-6.04-9.96-29.29-13.13-35.86-6.11-12.67-8.23-20.76-24.36-16.62-1.21.31-1.81-.76-1.51,1.48.14,1.09,4.42,8.66,5,9.03,2.52,1.58,6.88-1.54,10.01.48.58,3.28-3.42,1.43-5.96,3.52-4.14,3.4.72,7.33.98,11.47.77.6,5.32-7.22,7.97-2.5-.05.85-8.62,4.27-5.55,8.57,1.6,2.24,10.28-1.25,13.57.94.32,2.69-.11,1.56-1.48,2-1.61.51-8.22,2.35-8.56,3.66,1.41,11.09,4.95,28.28,20.03,20.34-.55,6.94-5.34,6.73-10.94,6.09l-.08,2.87c-6.04.66-7.6-3.15-9.83-7.61-8.11-16.22-11.61-36.84-19.66-53.33-1.21-1.42-2.79-2.83-4.81-2.77-.54.02-10.01,2.66-10.45,2.97-.71.5-3.11,6.83-3.26,8.27-1.01,9.67,10.52,38.96,14.24,49.81.71,2.08,2.37,3.69,3.11,5.89.84,2.48,1.33,10.29,2.67,11.33s2.69-.03,2.96-1.11c.55-2.16-7.2-23.08-8.46-27.39-1.57-5.37-2.57-11.25-4.22-16.78-1.78-5.97-9.71-21.35-5.96-25.94ZM559.42,802.3c2.37-.13,5.53.87,6.89-1.58,1.15-4.76-6.47-11.64-6.75-13.06-.43-2.19,4.29-4.93,2.36-7.35-18.08,5.86-12.6,24.71-9,38.99,1.6,6.36,7.64,26.45,11.46,30.54,5.09,5.45,19.28,4.49,19.03-1.92l-12.46-30.49-14.53,4.86c-2.29-2.59,4.98-5.11,6.77-5.72,2.29-.78,4.81-1.24,7.23-1.28.62-.62-2.55-9.39-3.2-9.8-.47-.3-11.01-.82-7.8-3.19Z" fill="#fff"/><path d="M615.42,159.3v-4.02c-20.09.8-24.82-9.98-18.2-27.68,3.65-9.76,20.99-43.95,28.28-49.72,14.01-11.08,35.65-.07,48.83,7.99,9.26,5.67,24.51,17.82,24.13,29.89-.22,6.99-11.73,25.87-16.53,31.55-4.36,5.15-19.61,21.33-24.56,24.44-8.22,5.17-11.08-1.44-16.37-3.54-3.79-1.5-9.38-.3-12.08-3.92-1.23-1.64-1.23-5.2-3.13-5.86l-10.36.87ZM691.41,116.29c-2.12-13.2-19.51-23.86-30.69-29.8-13.25-7.03-25.75-11.72-35.74,2.87-1.94,2.83-6.84,11.44-8.38,14.61-5.94,12.22,4.81,11.11,13.33,15.04,7.16-6,9.63-15.87,11.49-24.7-12.83-1.64-17.54,6.01-16,17.99l-3.97-.02c-2.89-13.49,1.81-22.79,16.47-23.06,9.7-.18,9.91,7.42,14.01,14.07,2.2.65,1.37-1.83,2.44-2.5,1.68-1.05,11.84-1.71,11.04,2.5-4.01-.9-12.01,1.38-14.75,4.25-1,1.05-1.15,3.86-2.07,5.44-4.44,7.6-8.61,13.83-11.18,22.31l2.98.49c-3.73,10.53-13.74,8.96-19.99,15.51l9.55-2.99.95,2c3.47-1.33,3.93-4.72,5.51-6.5,2.07-2.33,5.28-4.6,6.86-7.14,5.11-8.27,7.45-27.35,17.41-30.59,3.98-1.29,15.08-2.4,15.73,3.23-18.48-3.21-25.65,11.78-28.98,27.01,4.27-4.03,5.19-11.13,8.55-15.94,6-8.56,16-10.37,25.84-8.97,4.89.7,5.5,3.54,9.59,4.9ZM611.26,121.15c-5.64,2.59-10.84,19.19-8.36,24.15,6.22,5.48,9.8,1.96,15.49-.54,1.44-.63,3.43-.27,4.98-1.02,1.94-.93,2.57-3.42,4.03-4.83.4-.38,2.03.24,2.54-.56.18-.29.15-4.27,1.3-6.75,1.85-4.02,6.15-8.02,8.69-12.3,2.9-4.89,11.49-19.06,2.49-21.01,1.25,4.23-4.88,23.05-8,24.5l-12.3,2.51c-2.73-2.34-15.08-15.21-10.86-4.16ZM650.41,142.29h16.5c3.96,0,8.24-11.77,12.51-9.49l-5.01,9.48c2.54,2.3,10.53-9.49,8.99-10.99-3.55.53-10.95-1.18-13.59.9-2.35,1.84-3.49,11.41-10.38,5.6,3.92-1.22,4.66-5.63,6.24-7.24.3-.31,7.04-3.64,7.72-3.82,3.74-.97,9.39,1.97,10.52.56,1.91-2.39-1.6-1.86-1.54-2.51.17-1.92,3.17-3.71,1.95-6.41-18.22-4.58-29.18,7.42-33.91,23.92ZM675.41,146.3c-7.5.5-12.28,3.92-20.26,1.75-1.95-.53-4.55-3.93-6.1-3.66-1.11.2-2.76,2.99-4.26,3.78-2.17,1.15-4.35.82-6.31,1.69-12.45,5.52-5.24,17.54,4.96,4.93.69-.85.17-2.63.88-3.03,2.45-1.38,11.57,5.07,15.76,5.29,2.13.11,3.19-2.09,5.33-1.75l.48,1.98,9.51-10.98ZM660.41,160.3c-3.97.09-8.07.36-11.51-1.98-5.25,6.6,8.79,8.16,11.51,1.98Z" fill="#fff"/><path d="M254.7,773.57c-1.68,2.09-1.82,8.6-2.81,11.7-3.81,11.9-12.17,24.82-26.75,21.79-3.28-.68-15.21-8.65-17.76-11.24-2.17-2.21-4.77-8.18-6-9-1.83-1.22-7.02-1.76-10.31-3.69-5.49-3.23-14.3-12.55-16.39-18.6-3.58-10.35,4.35-25.79,14.06-30.42,2.42-1.15,6.73-1.49,8.17-2.83,2.26-2.1,4.83-12.04,7.31-15.69,5.86-8.64,26.57-15.47,36.12-9.74,5.96,3.58,27.83,22.54,30.93,28.07,5.91,10.57,3.83,23.57-4.84,31.88-2.75,2.64-10.46,6.17-11.74,7.75ZM267.41,743.28c.67-.89-2.3-4.53-3.03-5.46-5.26-6.76-22.16-24.02-29.94-26.05-8.85-2.31-20.77,3.04-20.05,13.01.37,5.14,3.85,10.06,7.52,13.51,1.47-3.4,5.24-3.67,8.24-5.69,2.03-1.37,3.89-4.05,6.68-5.38,1-.48,9.21-3.28,9.56-2.92.46,2.44-.25,2.51-1.64,3.85-4.16,4.02-15.62,9.6-21.36,11.16,3.21,5.9,18.86,16.14,25.27,14.81,5.53-1.15,11.37-11.18,18.73-10.84ZM268.4,747.29c-10.67,8.67-15.99,16.8-31.26,11.77-8.17-2.69-23.07-18.56-26.6-26.4l-3.12-9.36c-1.73,4.72-2.49,12.28-.5,16.98.62,1.46,16.45,15,19.01,16.99,6.03,4.66,12.9,10.32,20.94,10.07,7.38-.23,20.7-12.13,21.52-20.04ZM203.13,753c2.86-3.24-5.03-13.91-8.79-13.23-4.36.79-12.67,12.56-12.99,17.04-.45,6.27,12.62,22.21,18.5,21.5,1.51-.18,2.51-1.86,4.04-1.96,6.11-.39,6.32,6.27,13.94-3.15,5.46-6.74,5.52-12.54-2.51-17.35-4.99-2.98-13.61,3.1-13.87,7.98-.14,2.68,2.82,6.47-.66,8.38-3.12,1.02-10.02-4.93-10.95-7.89-2.07-6.6,4.37-10.84,7.08-16.04,2.45,5.71-2.96,10.3-2.5,15.99l4.98-8.52c.74-1.42,2.92-1.85,3.73-2.77ZM229.15,769.45c-4.7.83-7.4,6.9-6.91,11.17l-1.32,1.65c-1.37-3.47-12.45.71-12.48,1.52,5.62,12.01,22.16,21.26,31.97,8,2.12-2.87,5.11-11.74,4.92-15.07s-12.87-7.86-16.18-7.27Z" fill="#fff"/><path d="M147.17,612.56c19.73-2.83,32.58,22.46,38.28,38.2,3.97,10.95,7.61,19.96-2.57,28.51-3.87,3.25-13.28,6.15-14.95,8.05-2.99,3.41.2,8.42-7.03,13.97-26.28,20.18-46.07,4.41-60.31-19.67-10.04-16.97-15.17-43.94,8.96-50.68,2.63-.73,5.6-.22,7.84-1.16s4.73-6.22,7.69-8.31,18.32-8.36,22.09-8.9ZM167.4,632.29c.99-1.25-8.61-10.57-10.24-11.24-4.6-1.88-11.2-.72-14.61,2.88-1.75,1.85-13.62,21.31-14.36,23.64-2.39,7.54,4,20.48,9.69,25.75,4.61,4.27,15.3,9.42,21.55,8.57,4.14-.56,20-8.82,21.75-12.34,2.27-4.57-.45-8.53-.78-13.25l-7.96,13.59c-9.87-.32-20.38,3.23-28.07-5.05-3.15-3.39-6.21-11.52-6.02-16.06.34-7.85,7.21-16.06,14.61-18.45l14.45,1.97ZM124.5,633.21c3.72,2.68,9.25-6.45,8.9-9.92-2.7.72-13.56,6.56-8.9,9.92ZM155.14,636.52c-4.01.83-11.03,7.23-11.67,11.33-1.91,12.06,10.04,21.87,21.84,16.84,8.84-3.77,13.21-8.55,9.29-18.09-3.68-8.96-9.77-12.08-19.46-10.08ZM123.24,641.47c-.16-.27-4.94-2.89-5.56-3.02-5.22-1.11-19.47,5.51-17.26,12.83l11.44-5.03c5.29,7.56-6.41,8.11-11.02,10l2.59,8.03c1.6,1.1,6.08-5.29,8.24-6.23s6.16-.61,7.75-2.25c.96-.99,4.5-13.17,3.81-14.33ZM131.4,678.29c-4.28-8.74-9.21-24.5-19.4-10.92-7.8,10.39,2.79,19.84,9.34,27.51l13.01-12.97c-4.04-6.78-14.83,5.23-19.5,1.47-5.63-7.59,10.04-3.38,14.08-6.73l2.47,1.64ZM147.41,691.3c1.72,7.5-14.46,8.19-14.99,10.51-.87,3.76,7.58,2.43,9.73,1.72,1.29-.43,13.01-8.32,13.76-9.28,4.76-6.1-12.24-10.18-15.18-9.22-4.84,1.58-10.15,9.39-11.31,14.27,6.98-1.4,8.92-10.14,17.99-7.99Z" fill="#fff"/><path d="M444.21,782.59c8.74-.76,34.36,0,42.45,1.95,18.72,4.49,20.3,30.42,17.52,46.02-.47,2.65-2.97,5.64-2.62,8,.43,2.82,4.57,5.3,6.05,8.02,8.05,14.81-6.26,31.1-21.7,30.78-5.46-.11-9.73-3.35-14.07-4.02-1.66-.26-16.95-1-17.83-.83-1.04.2-5.34,4.79-9.35,5.53-27.42,5.09-38.62-25.06-17.28-40.26-4.06-3.26-6.57-4.68-7.88-10.1-1.72-7.13,1.34-29.33,5.46-35.34,4.77-6.96,11.19-9.06,19.24-9.76ZM495.4,810.28c2.58-5.9.08-14.89-5.99-17.49-7.5-3.21-39.78-3.68-48.26-2.26-11.76,1.98-10.36,12.75-12.22,21.78-1.43,6.96-5.3,8.89.04,16.91,10.81,16.22,46,15.25,61.13,6.27,8.17-4.85,6.28-11.42,4.29-19.2-3.24,3.24-1.76,7.67-4.54,11.95-9.05,13.95-48.86,12.04-55.65-4.26-2.25-5.4-1.9-18.53.77-23.62,2.36-4.5,7.31-6.43,12.05-6.95,6.81-.74,30.05.56,36.06,2.68,4.35,1.54,8.79,3.99,10.54,8.46.78,2,.08,5.27,1.76,5.73ZM450.19,800.58c-4.91.58-9.84,1.67-10.72,7.27-.97,6.21-.45,16.78,5.99,19.89,2.98,1.44,17.6,2.71,21.42,2.55,11.99-.5,22.29-3.57,21.57-17.46-.57-11.02-8.78-10.6-17.56-11.53-5.34-.56-15.58-1.33-20.71-.72ZM443.41,845.3c-13.33-3.14-20.32,2.42-17.94,16.44,1.43,8.44,13.33,10.16,19.94,7.05,3.84-1.8,3.99-6.94,2.81-10.81-1.01-3.32-9.44-4.05-4.81-12.68ZM474.42,867.29c9.61.47,18.06,4.79,24.99-4.5,9.14-12.26-6.35-23.05-14.95-16.95-2.43,1.73-3.2,10.01-5.17,13.83-1.56,3.04-4.18,4.53-4.87,7.62ZM470.24,861.13l-1.22-7.93-11.47-1.78-2.2,10.37c4.61,2.77,10.37,1.8,14.89-.66Z" fill="#fff"/><path d="M93.62,463.13c-.19-.21.37-3.95-2.69-4.59-4.14,2.11-4.85,5.89-10.08,6.69-24.32,3.71-45.9-8.49-46.47-34.39-.68-30.6,8.96-62.86,46.84-51.85,9.65,2.8,8.03,2.8,18.53,3.68,19.31,1.62,33.77,7.16,28.2,29.65-1.04,4.21-4.08,8.56-4.55,12.44-1.4,11.4,9.87,23.42-.49,33.52-4.46,4.35-25.62,8.82-29.28,4.85ZM93.3,391.4c-2.42-1.69-7.47-.17-8.93-.67-2.07-.71-4.31-4.41-8.69-5.21-10.25-1.86-22.66-.15-27.25,10.29-.26,1.95.04,1.36,1.5,1.51,2.97.32,6.49-1.18,10-1.1,6.67.14,16.43,2.67,22.18,2.85,1.46.05,3.54-2.94,5.39-.11,2.81,4.32-3.31,7.89-4.03,11.87-.6,3.3.78,6.2.57,8.79-.44,5.5-3.2,11.97-.87,17.42.86,2,3.37,3.06,4.02,4.98.68,2.03.18,5.04,1.24,7.26l4.98-42.5-.1-15.38ZM100.42,391.3c1.31,5.78-1.6,11.37-2.04,17.46s.83,13.21-.02,18.98c-.51,3.51-3.19,8.19-3.68,12.31-2.08,17.42,8.55,18.26,21.83,11.84,1.91-4.34,1.47-8.98-1.56-12.62-4.15-4.99-17.22-8.56-7.88-15.82,5.23-4.06,8.95-1.58,11.65-9.35,4.93-14.23-4.14-23.11-18.29-22.79ZM77.27,404.43c-1.66-2.59-23.5-2.74-27.14-1.93-5.03,1.12-8.51,8.79-3.02,11.59,10.88-.97,33.77,9.64,30.16-9.66ZM68.91,420.29c-6.82-1.36-17.68,1.01-25,0-4.13,5.85-1.11,11.65,6.07,11.93,1.88.07,3.82-.99,5.89-.98,6.85.03,13.71.08,20.54.05,1.22-4.69-3.19-10.14-7.5-11ZM82.18,456.06c.8-.8,1.28-3.13,1.29-4.29.06-6.82-9.1-13.91-15.49-14.52-4.11-.39-23.16-.84-24.47,3.7-1.14,3.95,11.49,13.84,14.87,14.89,3.87,1.21,21.33,2.7,23.81.22Z" fill="#fff"/><path d="M810.15,503.53c9.68-1.63,39.64.5,49.26,3.26,7.19,2.06,18.49,9.54,21.22,16.78,2.84,7.54-.98,27.22-5.38,34.06-1.39,2.16-5.1,4.56-5.63,6.37-1.11,3.74.26,10.47-.2,14.8-2.38,22.4-38.42,16.67-52.38,9.38-2.1-1.1-5.6-4.61-6.32-4.79-1.77-.42-2.71,1.39-4.37,1.43-9.05.25-20.48-10.94-19.97-19.99.37-6.49,7.44-13.84,7.81-17.17.16-1.47-1.59-5.12-1.8-7.82-.83-10.8,5.37-34.22,17.78-36.3ZM812.4,533.29c4-5.48-.06-8.54.05-12.39s3.65-6.27,3.48-9.6c-5.01.91-4.03,4.89-6.33,8.67-3.72,6.13-9.96,11.08-8.58,19.13,1.61,9.34,13.68,12.73,21.88,11.16,6.52-1.24,6.27-16.87,4.43-21.88l-4.76-.24-1.14-4.85,9.91.05c-.46,7.8,7.08,4.98,10.13,8.4,5.02,5.65-5.11,1.58-5.61,1.54-4.86-.4-2.14,2.8-2.63,5.2-1.43,6.97-5.74,9.75,1.86,14.64,4.51,2.9,12.06,3.02,13.29,9.71,2.79,15.23-14.96,11.32-22.47,4.47-6.78-6.2-3.34-9.18-16.02-11.99-3.19-.71.68,1.59.13,3.97-.2.87-2,5.45-3.59,4l-1.18-8.33-2.34-1.71c-8.33,5.49-9,16.49.15,21.89,6.59-1,4.25-2.93,5.6-6.06,1.63-3.75,3.94-5.69,2.75-10.79h6.01c.95.95-4.45,12.67-.89,18.4,4.15,6.69,31.99,9.64,38.93,7.15,7.5-2.7,6.88-14.4,4.38-20.45-2.2-5.3-7.41-5.09-6.37-12.51,1.43-10.11,23.14-14.63,16-27.13-4.16-7.27-26.67-11-34.56-11.43-4.43-.24-7.22-.61-10.99,1.98-11.98,8.26,1.01,16.75-6.52,26.48-2.91,3.76-7.45,4.9-11.96,3-1.53-.65-5.6-4.73-.78-4.24,2.81.28,6.42,2.29,8.75-.75,1.41-4.43-5.68-3.18-7.41-4.4l-.58-3.09,6.98,1.99ZM868.4,556.29l3-16c-4.81,4.99-13.04,12.02-3,16ZM841.41,567.28l-7.7-8.83-9.3,1.85c.65,3.35,4.11,2.09,5.02,2.61,3.76,2.11,5.8,5.88,11.98,4.37Z" fill="#fff"/><path d="M731.42,731.29c18.21-1.02,29.67,23.61,16.64,36.65-4.35,4.35-10.63,4.11-12.41,5.58-1.27,1.05-1.11,9.04-6.76,13.75-5.74,4.78-11.3,3.49-15.87,6.13s-2.42,9.11-13.2,11.85c-12.98,3.3-34.23-17.02-28.42-30.9-14.69-4.39-28.73-23.43-20.82-38.4,5.58-10.57,40.61-34.71,52.35-35.65,13.81-1.1,31.01,16.82,28.49,30.98ZM705.41,707.29l-9.99,3.5c6.11,2.57,11.13,6.94,12.99,13.5-2.85,2.6-13.81-9.78-14.48-12.98-9.75,6.43-29.39,15.65-35.36,25.63-3.48,5.82-.59,19.26,6.4,20.27,13.87,2,20.74-4.27,30.46-12.39,4.76-3.98,8.3-10.83,14.98-11.51l-7.97,10.52c-9.97,10.79-20.84,21.7-37.03,17.48,6.42,9.11,10.98,8.53,19.73,3.22,7.36-4.47,34.01-24.77,37.69-31.31,5.29-9.38-4.65-19-11.91-23.94-3.28.26-1.12.17-.41,1.13,4.41,5.93,5.78,13.5,4.74,20.74l-3.84,1.15c4.72-10.78-6.3-14.66-6.01-25ZM733.11,738.64c-5.21-.07-12.43,4.95-13.68,10.18.05,2.08,7.1,7.81,8.98,9.97,2.61,2.98,2.72,8.05,8.39,7.5,13.92-1.34,12.17-27.45-3.7-27.66ZM716.65,784.99c4.23,2.39,12.7-7.52,12.47-12.05-.34-6.62-9.42-19.12-17.08-18.62-6.32.41-19.51,11.56-18.45,18.26.74,4.68,10.06,9.96,14.41,10.62,4.9.75,4.27-.69,8.66,1.79ZM679.67,776.54c-5.77,5.9,11.08,22.4,16.32,22.75,3.56.24,11.54-6.38,8.99-10.05-8.01-2.66-13.07-9.83-17.54-16.51l-1.38-.35c-1.24,2.18-5.35,3.11-6.38,4.17Z" fill="#fff"/><path d="M398,43.86c9.93-6.25,19.19-7.97,30.98-3.63,14.57,5.37,17.16,38.33,15.35,51.47-.62,4.54-4.35,7.84-4.73,10.29-.3,1.93,1.05,4.93.86,7.78-1.44,21.96-40.65,27.37-57.43,25.41s-14.77-8.48-19.13-20.87c-6.33-17.98-21.42-47.98-4.02-64.07,5.09-4.71,17.15-7.52,23.94-6.85s7.77,4.5,14.19.46ZM430.12,69.99c5.5-5.07,1.62-19.96-3.72-23.25-.66-.4-13.84-.58-15.39-.35-14.97,2.14-11.41,28.23-1.04,28.87,3.72.23,17.4-2.73,20.15-5.27ZM362.43,85.29c4.07-1.74,7.55-5.4,11.95-6.53,7.13-1.84,17.48.82,18.94-9.06,1.06-7.22-.91-19.73-10.24-19.34-21.75.92-27.77,15.71-20.65,34.93ZM430.42,96.28c2.25,2.25,6.09-8.41,6.09-10.49.03-11.39-14.11-7.22-21.11-5.02-11.08,3.48-13.55,14.88-8.59,24.62,4.1,3.27,23.06,1.76,24.64-5.6-2.11-5.86-7.49,3.63-12.9-1.63-.98-9.69,18.45-15.31,11.86-1.89ZM372.15,87.52c-13.46,2.71-3.9,25.8,5.89,26.72,6.91.65,18.82-8.11,17.98-14.96-1.51-12.44-13.4-13.86-23.87-11.76ZM374.77,123.94c5.41,5.1,21.83,4.46,28.9,3.1,5.54-1.06,27.09-7.93,29.24-12.76.72-1.62.58-3.29.5-4.99-6.65,3.79-14.68,5.78-22.38,4.88-3.28-.38-8.52-3.39-10.88-2.74-1.54.42-4.37,4.33-6.39,5.69-6.02,4.04-14.84,6.21-21.32,2.17-.61.73,1.69,4.03,2.34,4.65Z" fill="#fff"/><path d="M502.2,36.57c13.18-1.7,54.35,4.2,64.16,13.28,11.54,10.69,3.7,37.1-2.73,49.15-5.13,9.61-3.83,8-6.67,18.33-3.68,13.38-12.33,18.31-25.74,14.66-1.83-.5-3.05-2.58-5.27-2.62-2.52-.04-5.68,2.16-10.04,1.98s-6.69-2.48-10.05-3c-8.14-1.25-17.85,3.24-22.18-6.82-3.73-8.68-2.99-18.74,3.56-25.75-2.91-2.75-4.37-5.98-4.83-9.99-.82-7.27,1.48-33.21,4.49-39.52,2.77-5.8,9.21-8.92,15.3-9.7ZM508.41,56.29c10.98-.67,17.82-3.96,30.02-.52,8.44,2.38,18.71,12.32,21.43,20.57.81,2.45-.28,5.96,1.54,6.94,3.13-9.52,7.9-21.63-1.49-28.99-8.21-6.43-47.38-12.34-57.91-10.92-2.2.3-6.2,1.65-7.62,3.38-3.75,4.54-2.24,23.04-3.95,29.53l6.46-10.02c1.34-3.16,11.24-7.86,11.53-9.97-5.62.34-8.37-3.02-12.99-1l.43-5.06c2.41-3.48,12.9,3.57,12.56,6.06ZM553.16,98.02c6.24-5.66-1.17-23.56-5.77-29.21-6.27-7.69-18.64-11.96-28.2-9.24-10.7,3.05-24.86,14.49-25.76,26.34-.67,8.82,16.85,11.66,21.51,7.39,4.81-4.41.96-13.92,7.9-14.99,5.37,10.43-4.07,15.79,11.17,18.87,3.37.68,17.14,2.65,19.14.83ZM504.14,101.57c-.98-.99-5.52-2.98-7.2-3.32l.47,2.04c-8.23-1.59-10.99,16.94-4.97,19.48,11.75,4.96,18.23-11.56,11.7-18.2ZM520.07,103.59c-7.73.42-9.81,13.76-9.23,19.77,15.45,5.14,13.63-4.92,15.43-16.38-.47-1.99-4.28-3.5-6.2-3.39ZM534.7,106.59c-7.27,5.29-5.15,23.77,7.29,18.77,6.64-2.67,9.18-13.69,8.94-20.12-1.33-1.76-7.85-2.3-10.06-2.03-1.95.24-1.43,1.73-2.15,2.08-1.31.65-3.05.59-4.01,1.29Z" fill="#fff"/><path d="M299.42,84.3l14.97,11.7,1.19,17.63c9.01,4.81,12.4,12.85,14.54,22.45,1.65,7.38.83,16.98-7.77,19.72-2.6.83-8.88-.02-13.18,1.73-2.02.82-2.94,3.22-4.47,3.62-1.86.49-3.59-1.07-5.26-.41-2.06.81-3.81,5.66-5.49,7.57-6.19,7-12.1,9.93-21.82,7.76-5.64-1.26-16.46-15.29-18.44-20.56-1.18-3.13-.87-7.71-1.77-9.23-.49-.83-4.03-2.67-5.5-4.5-2.27-2.83-2.98-6.63-5.47-9.53-2.73-3.19-6.72-4.64-9.37-8.63-6.88-10.39-3.25-19.55,5.31-27.35,2.51-2.28,11.07-6.5,11.44-7.06.15-.22-.88-1.58-.7-2.28.51-2.02,18.23-11.14,21.42-12.49,7.09-2.99,21.3-8.5,28.28-4.56,3.75,2.11,11.07,11.44,6.44,15.36l-4.36-.93ZM297.41,83.29c-4.6-18.09-22.38-.68-32,2.5-2.11,2.02-.55,1.74,1.14,1.14,2.07-.74,7.81-3.64,9.36-3.64h21.5ZM310.4,113.29c1.63-17.58-12.03-26.97-28.48-25.98-5.36.32-18.98,3.68-23.46,6.54-1.82,1.16-9.61,12.68-10.01,14.99-1.67,9.62-1.66,18.91,3.42,27.48,6.29,10.6,15.04,1.55,24.53,2.96-3.97-3.75-6.94-3.12-10.19-8.3-16.51-26.3,30.98-44.33,41.06-26.06l3.13,8.36ZM248.41,98.3c-10.24,4.59-15.8,14.45-7.49,23.99.36-9.31,4.75-15.76,7.49-23.99ZM293.74,129.1c-1.25-2.35,3.92-5.9,4.58-10.39,1.55-10.58-1.75-13.67-12.33-12.32-11,1.41-21.04,11.39-13.62,22.19,2.99,4.35,14.12,3.31,14.1,7.21-2.2,3.65-4.41,4.76-4.06,9.51-8.42-3.65-14.86.8-22.9,3.09-1.56,2.19,3.14,9.5,5.39,8.91,1.53-2.3,2.37-3.98,5.51-4.02l-1.99-4.98c3.8-.62,8.08-3.23,10.98.49-4.23,1.09-3.53,6.63-5.21,8.27-.89.87-6.13,2.25-7.77,3.24-2.14,2.97,20.36,16.88,20.44,2.87.05-8.21-7.31-13.83.03-20.92,3.3-3.19,6.98-3.95,11.48-2.42,4.84,1.65,4.45,8.4,10.04,8.44l-4.97-7.5,4.98-1.5c-2.69-7.49-6.13-8.98-14.01-8,1.83-2.48-.48-1.82-.67-2.19ZM321.14,149.01c3.09-2.02,3.53-8.35,2.83-11.78-.99-4.87-9.75-22.01-13.14-10.97-1.86,6.04,10.63,11.43,8.63,19.37l-4.35,1.54-4.2-4.87c-1.9,6.23,5.1,10.07,10.23,6.72Z" fill="#fff"/><path d="M741.15,152.53c16.97-2.91,32.53,11.82,42.66,23.86,19.49,23.15,12.13,34.66-7.38,53.41-10.37,9.97-30.87,28.1-46.21,22.18-5.33-2.06-26.4-24.62-30.78-30.23-6.55-8.4-9.89-18.8-5.2-29.15,5.24-11.58,34.44-37.95,46.91-40.09ZM755.41,164.29c-1.27-5.44-9.52-5.7-14.03-4.52-8.04,2.1-11.51,8.48-16.73,12.55-3.37,2.63-7.68,4.35-11.25,7.47-8.86,7.75-16.3,19.39-12.98,31.51l7.05-10.44c4.41-2.47,9.21-2.63,13.64-5.36,10.41-6.41,9.94-19.15,17.81-25.19,4.48-3.43,10.98-5.2,16.49-6.01ZM750.42,204.3c3.35,3.47,1.9,9.41,8.25,7.77,3.07-.8,16-11.53,17.08-14.94,2.2-6.98-1.05-15.74-5.36-21.32-.99-1.28-7.73-8.12-8.59-8.28-4.5-.86-16.05,3.82-19.88,6.76-6.5,4.99-7.75,13.69-11.49,20.51,8.02-.34,24.41,4.26,26.97,13.01,1.52,5.21-5.81-4.63-6.98-3.51ZM740.42,244.28c10.88.66,15.16-8.08,21.46-14.02,5.66-5.34,21.08-17.68,24.4-23.6,4.96-8.86-2.67-17.23-7.37-24.37,1.09,10.63,5.68,16.54-3.27,25-2.64,2.5-15.5,9.41-15.98,10.23-.63,1.06-.86,6.29-1.77,8.74-2.46,6.62-5.79,10.48-11.54,14.46-1.92,1.33-4.97,1.72-5.93,3.56ZM748.06,232.94c16.87-14.82-15.6-41.5-33.14-28.64-6.73,4.93-9.9,10.21-4.96,17.95,2.78,4.36,16.96,16.43,22.06,16.98,7.55.81,6.08-2.28,8.64-3.68,1.88-1.03,4.29.12,7.4-2.61Z" fill="#fff"/><path d="M158.22,229.5c-.26-.37-5.16-1.83-6.74-2.77-24.09-14.28-28.86-29.19-9.58-51.45,9.17-10.59,32.88-30.33,47.55-26.51,16.25,4.23,24.29,21.05,32.55,33.44,7.04,10.56,15.88,14.27,9.44,29.61-4.31,10.26-11.21,12.82-21.59,14.41.59,11.7-9.43,27.3-21.92,27.51-9.77.17-24.42-11.19-28.74-19.73-.72-1.42-.44-3.77-.96-4.51ZM215.41,181.28c-1.77-1.5-4.04-6.04-5.44-7.05-1.68-1.21-3.82-.7-5.62-2.38-2.15-2.01-3.84-7.3-7.41-10.59-11.11-10.23-18.53-3.01-30.52,1.04l.99,2.5,20.58,20.48c8.28-5.45,17.99-6.64,27.43-4ZM145.41,198.3c2.46-1.9,15.95,13.98,20.29,12.85,2.75-.72,8.31-9.8,10.66-12.41,3.17-3.52,9.53-5.84,9.99-11.81-9.57-5.74-15.03-14.59-22.43-22.46-1.97,1.89-5.73,3.54-7.44,5.38-1.18,1.27-1.31,3.16-2.52,4.48-5.31,5.8-15.9,16.14-15.63,24.46.31,9.56,17.36,27.77,26.08,16.98l-6.97-2.01c-7.45-2.39-9.23-9.06-12.02-15.46ZM185.41,244.28c-4.78-8.62-11.7-17.18-2.49-25.98,12.5-11.96,20.53,1.61,28.53.57,6.23-.81,13.5-9.45,12.92-15.96-1.66-18.43-26.65-25.43-35.96-8.63,2.86.48,7.37,1.42,9,4-2.34-.54-7.75,1.45-9.37,2.93-1.2,1.11-.43,2.85-.64,3.08-.38.42-4.9-2.9-10.48,2.01-2.11,1.85-9.31,13.47-10.06,15.94-3.62,11.93,8.04,20.44,18.54,22.04ZM187.42,244.29c10.75,1.34,20.11-21.25,8.28-24.8-10.31-3.1-15.3,11.34-8.78,17.8.18-6.1,2.53-10.03,8.49-11.99-1.39,4.81-.45,12.39-4.53,15.99-1.65,1.46-4.12.04-3.45,3Z" fill="#fff"/><path d="M119.4,342.29c-6.24,4.44-11.85,6.99-18.93,2.45-2.38-1.53-5.57-6.61-7.77-7.27-2.95-.88-5.8.81-8.74.85-11.34.18-20.48-2.22-22.28-14.8-2.91-20.28,8.19-42.05,18.92-58.56,10.17-15.66,26.36-17.72,41.17-6.53,1.91,1.44,2.49,4.08,4.89,5.11,3.32,1.42,6.08.47,10.09,2.91,5.47,3.34,6.62,10.15,9.09,11.91,2.32,1.66,5.27.55,7.85,1.15,8.48,1.95,14.66,9.77,12.05,18.6-1.21,4.1-6.04,7.93-7.08,10.91-3.13,9.04-5.03,19.42-9.06,28.94-5.87,13.9-22.39,18.2-30.21,4.31ZM107.41,275.3c6.85,1.49,7.53-3.21,10.87-7.69-4.57-10.15-21.48-9.24-28.41-2.35-.93.92-3.49,4.45-3.5,5.57-.03,4.1,18.2,8.45,21.72,10.3l3.29-2.33-3.98-3.49ZM105.41,337.29l.69-8.81,22.88-54.14c.42-7.14-7.1,1.72-9.08,3.95-12.03,13.49-21.09,32.05-20.54,50.48.1,3.33,1.84,9.01,6.05,8.53ZM108.41,338.28c8.55,1.31,12.15-6.48,15.54-12.94,4.51-8.58,15.55-35.75,14.35-44.45-.27-1.96-.81-4.23-2.4-5.57l-27.5,62.97ZM82.71,278.6c-10.19,8.49,10.15,15.85,15.21,19.66l4.05-11.95c-3.54-3.18-15.28-11.04-19.26-7.72ZM140.42,299.31c6.44-2.95,8.44.86,12.49,4.97,4.92-4.69,8.29-12.76.23-16.23-7.38-3.18-11.16,6.6-13.42,12.06-2.85,6.88-3.9,14.48-7.31,21.17,9.94,3.77,18.06-2.7,14.81-13.3-.9-2.92-7.95-4.03-6.8-8.67ZM74.71,303.01c1.41,1.69,12.02,7.05,14.31,7.28,4.54.45,8.55-4.07,4.92-8.04-1.02-1.11-15.23-10.73-16.2-10.83-4.16.84-5.59,8.52-3.03,11.58ZM69.41,320.29c-1.48,12.13,23.62,15.18,24.79,3.26,1.07-10.88-17.21-11.83-23.31-17.25-2.38-.8-1.71,5.27-1.48,6.49.92,5.01,15.22,5.22,19.31,7.69,4.44,2.69.4,5.3-3.55,4.65-4.18-.7-9.98-6.72-15.76-4.84ZM143.41,328.3c-3.79.95-8.51-1.82-11.73-1.77-5.1.07-8.16,16.01-.62,16.64,4.46.37-1.47-10.47,3.97-12.74l3.45,1.49c.74,3.24-2.43,4.3-3.06,6.89-.3,1.22-.35,3.23,1.48,2.48,5.03-3.51,5.29-7.45,6.51-12.98Z" fill="#fff"/><path d="M776.69,708.02c-1.42-1.47-4.32-8.32-4.35-10.64-12.19-.24-41.94-18.89-41.94-31.58,0-8.56,8.29-13.71,11.44-19.58,1.28-2.37,1.6-5.96,3.21-8.79,8.15-14.4,15.81-30.75,35.17-25.43,8.65,2.38,41.58,19.38,47.69,25.31,4.14,4.02,7.37,10.62,7.57,16.48.55,15.67-26.3,54.15-42.65,56.42-3.79.53-13.45.6-16.14-2.18ZM758.82,684.88c2.13,1.23,4.77,3.94,7.14,4.37,4.26.77,14.09.23,17.36-2.56,5.22-4.45,7.79-6.05,13.04-9.96,9.13-6.79,17.59-23.03,14.59-34.47-2.2-8.38-26.66-22.13-35.02-22.97-22.5-2.27-6.67,15.49,1.99,22.01,7.58,5.71,18.8,7.17,17.56,18.54-.64,5.9-2.4,7.46-6.13,10.9-.99.91-1.5,2.73-2.23,3.25-1.66,1.19-7.12,1.69-9.17,1.29-9.08-4.58-17.8-14.06-26.21-18.8-6.09-3.44-9.03-1.41-11.26,5.37-2.43,7.4,1.06,10.92,6.47,15.42,3.58,2.98,8.15,5.46,11.87,7.62ZM759.11,633.41c-2.9.75-8.87,12.2-7.18,15.86.9,1.94,11.72,10.33,14.19,11.83,1.54.93,12.31,6.54,13.3,6.78,4.31,1.05,10.24-6.68,8.53-10.55-1.35-3.07-8.73-5.88-11.57-8.5-3.24-2.99-12.48-16.66-17.27-15.42ZM780.56,696.42c-1.22,1.38-.06,5.13,2.09,6.14,12.51,5.85,24.75-11.84,30.99-20.54,5.12-7.14,17.24-24.93,13.26-33.7-.87-1.92-10.29-10.67-12.48-9.01,6.33,6.78,3.09,18.56-.22,26.27-4.93,11.45-20.45,21.69-30.27,29.77-1.02.84-3.1.79-3.36,1.09Z" fill="#fff"/><path d="M855.15,376.53c10.73-1.82,23.75,1.39,28.78,11.75,7.21,14.87,8.47,53.42,1.22,68.25-5.13,10.48-16.48,12.3-27.17,10.7-3.54-.53-8.38-4.55-10.22-4.73-1.58-.16-8.92,4.07-11.92,4.73-13.91,3.03-30.96-.97-35.96-15.89-3.29-9.83,1.97-16.4,1.6-24.53-.3-6.64-5.04-15.13-4.68-24.83.53-14.17,15.05-18.71,27.13-19.66,5.93-.47,14.19,1.83,18.78.77,3.47-.8,6.89-5.61,12.44-6.55ZM859.41,385.3c-11.93-2.22-13.16,8.71-7.87,16.87l8.71-4.06-.84-12.82ZM876.2,408.09c1.4-2.54.55-14.27-.91-17.17-4.43-8.81-14.98-7-10.87,4.38l7.04-1.46c11.24,10.82-9.53,14.64-11.52,18.48-1.67,3.24-2.59,22.74-.54,24.49s7.11.78,11.04,3.96c8.6,6.95,2.42,16.23-7.39,15.43l-2.64-5.39c2.05-2.92,3.99,1.4,7.38.41l1.5-2.27c-3.56-9.42-16.43-4.4-15.87,4.77.53,8.69,16.55,7.3,21.52,2.6,5.55-5.26,3.94-16.67-1.47-21.57-1.83-1.66-4.69-2.16-5.95-4.05-4.45-6.66-1.56-12.61,2.93-17.87,1.46-1.71,5.57-4.41,5.75-4.74ZM837.41,432.29c-5.17.98-8.37-5.78-12.7-6.78-6.87-1.59-14.47.78-16.63,7.96-6.09,20.27,7.1,30.78,26.54,25.54s18.17-38.52,12.57-53.98c-3.88-10.71-8.66-15.13-20.32-14.77-7.78.24-21.81,1.57-21.54,11.54.06,2.07.91,9.55,1.27,11.72,1.4,8.43,6.49,8.22,13.81,7.77-10.46-9.43-9.61-25.72,6.78-25.71,16.42,0,17.86,26.97,15.77,38.77-1.25,7.06-7.79,16.6-14.91,18.85-2.92-3.81-14.82-12.62-14.43-17.25.58-6.93,14.01-8.01,14.79.34-12.24-6.33-8.81,6.51-.94,9.52,4.62,1.77,10.29-7.98,10.85-12.1.88-6.35-1.73-28.88-7.61-32.21-9.01-5.11-16.1,3.87-12.81,12.81,3.9,4.07,9.12,2.22,13.5-.01.48,3.68-1.34,6.23-3.97,8.5,0,.7,10.72,5.72,9.98,9.49ZM867.41,396.3c-4.01-.31.04,5.22-4.9,6.58l.91,3.41c4.79-.44,4.05-6.61,3.99-9.99ZM881.4,433.29c.92-4.73,3.94-18.75-4.02-17.59-13.56,1.98-5.46,15.76,4.02,17.59Z" fill="#fff"/><path d="M773.27,319.46c-8.57-4.8-13.37-18-11.62-27.44s21.93-20.74,31.64-18.86c1.22-11.87,20.28-23.22,31.16-20.4,20.85,5.41,45.13,50.96,37.17,71.22-4.52,11.5-27.02,21.29-38.71,20.3-2.34-.2-5.37-1.98-6.82-1.76-1.68.26-6.1,4.77-8.97,5.95-24.06,9.93-39.93-4.74-33.84-29.03ZM834.41,272.28c-6.78-7.65-24.11-16.2-29.01-2.5l8.01,1.5c-5.25-.09-9.42-1.06-12.4,4.1-2.44,4.22-1.51,7.9,3.35,9.46,9.66,3.11,7.89-6.49,11.77-9.6,3.56-2.86,13.51-2.11,18.29-2.96ZM850.41,307.29l-2.97-.49c8.52-6.21-4.2-36.15-14.04-30.03-5.98,3.72,1.21,9.44,2.34,13.7l5.15,22.85c1.28,1.95,8.12.53,6.53-3.03l2.99,1v-4ZM829.67,302.05c-2.79-2.73-2.5-21.32-6.24-23.29-1.75-1.08-4.72-.35-5.49,1.48-.2.49-.65,9.44-.6,10.56.27,6.63,4.69,16.12,4.61,23.46,7.46,8.66,17.82-1.52,11.4-10.41-1.19-1.64-3.06-1.2-3.68-1.8ZM804.26,319.48c-.27-.42-2.01-.34-2.66-1.85-.38-.89-4.06-11.27-4.17-11.9-1.51-8.73,7.22-12.86-3.68-20.27-11.75-7.99-23.05,3.72-21.24,16.25.62,4.29,6.38,16.11,11.91,14.59-4.1,9.92-3.49,25.48,10.49,26.06,12.12.5,25.68-10.53,9.41-16.52-1.53-1.49.4-5.66-.05-6.36ZM814.43,325.29c2.02,1.55,3.78-3.89,3.8-5.47.08-4.45-3.72-21.68-5.07-26.77-2.8-10.56-10.52,5.13-9.74,10.23,2.99-.84,4.79,3.16,5.87,5.64,2.3,5.31,2.4,11.16,5.14,16.37ZM855.4,314.29c-5.81,7.08-8.77,5.68-16.25,7.24-2.73.57-5.48,2.14-8.38,2.42-4.59.44-8.73-3.35-10.13,5.09-1.83,11.02,7.6,8.06,14.09,5.07,7.29-3.37,20.86-10.83,20.67-19.82Z" fill="#fff"/><path d="M329.13,776.51c5.75-1.33,14.92.89,20.34,3.23,1.89.82,13.1,7.03,13.98,8.02,5.63,6.37-1.48,13.36-8.56,13.58-1.99.06-19.59-4.33-21.73-5.28-7.25-3.23-13.6-17.34-4.02-19.55ZM332.08,782.41l-1.71,2.38c.05,5.57,24.97,14.53,29.02,7-7.74-6.28-17.48-8.82-27.32-9.38Z" fill="#fff"/><path d="M332.58,835.14c-.38-2.44-2.87-1.82-4.65-3.86-.82-.94-4.24-9.6-4.35-10.68-.33-3.26,6.51-4.48,7.45-7.37,16.15,3.02,16.4,16.47,1.54,21.9ZM330.72,826c4.32,5.34,11.26-.53,5.65-5.17-6.54-5.42-9.42.51-5.65,5.17Z" fill="#fff"/><path d="M625.41,822.28c-2.13,1.01-11.8,2.39-10.99-1.47l7.4-4.43,3.6,5.9Z" fill="#fff"/><path d="M575.41,843.3c1.21,4.6-5.22,11.42-8.52,6.02s5.21-4.48,8.52-6.02Z" fill="#fff"/><path d="M573.42,827.3v3.99s-12.99,3.01-12.99,3.01c.45-6.28,7.99-7.24,12.99-7Z" fill="#fff"/><path d="M622.41,132.3l.77,8.38c-6.86,8.83-8.78-8.79-.77-8.38Z" fill="#fff"/><path d="M610.42,134.29c-.94-3.02,2.92-9.89,6.48-8.99,5.25,1.33-5.15,10.49-6.48,8.99Z" fill="#fff"/><path d="M256.13,740.03c-1.04,1.08-5.23,2.2-6.98,3.25-1.21.73-1.32,2.82-3.67,3.59s-4.73.4-7.07.43c-.84-4.69,3.89-4.24,6.68-5.81,1.59-.9,9.35-6.01,9.93-6.1,2.61-.4,2.8,2.9,1.11,4.65Z" fill="#fff"/><path d="M233.93,715.32c1.26,1.28,1.99,1.01.43,2.41-2.11,1.91-12.45,9.04-14.64,9.39-1.28.21-3.23-.21-3.28-1.32-.18-3.75,14.52-7.94,17.49-10.48Z" fill="#fff"/><path d="M212.42,784.3c2.2-.99,5.35,1.74,6.48,1.62.82-.08,1.64-1.65,2.81-1.47,1.06.17,2.09,2.31,4.07,1.79,3.29-.87,1.48-7.98,4.12-6.94,5.27,3.37,2.15,13.8-3.96,13.89-3.17.04-13.41-4.47-13.52-8.89Z" fill="#fff"/><path d="M164.42,657.3l-7.11-.63c-1.37-3.88-5.58-14.69.06-15.97,2.85-.65,8.54,15.1,7.04,16.6Z" fill="#fff"/><path d="M471.66,813.54c2.31-2.83,10.65,1.09,8.61,4.62-.32.55-9.32,6.6-10.46,7.03-4.33,1.62-11.9,1.13-16.14-.65-3.16-1.33-4.04-4.89-6.18-6.82-2.02-1.82-6.83-1.68-4.57-5.43,9.42-1.32,7.57,9.71,20.02,9.07,8.59-.44,6.06-4.57,8.72-7.82Z" fill="#fff"/><path d="M440.32,856.39c1.46,7.23-6.49,14.33-9.51,4.93-1.67-5.21,5.61-6.93,9.51-4.93Z" fill="#fff"/><path d="M492.18,863.05c-4.18,2.38-9.35.92-9.51-4.44-.3-10.11,15.37-3.84,9.51,4.44Z" fill="#fff"/><path d="M110.78,413.67c-2.08,1.65-3.42,5.18-7.42,1.18-8.55-8.56,8.83-18.8,11.65-8.57,1.13,4.11-1.7,5.37-4.24,7.39Z" fill="#fff"/><path d="M103.11,439.4c3.98-1.02,13.67,11.85,4.19,11.4-7.23-.34-8.65-10.26-4.19-11.4Z" fill="#fff"/><path d="M77.37,446.34c3.02,11.75-2.04,5.85-8.53,5.02-3.68-.47-14.71.95-15.45-4.56-.4-2.08.82-1.4,2.2-1.8,6.37-1.85,14.87,2.45,21.78,1.34Z" fill="#fff"/><path d="M840.41,536.3l6.05-.46c3.74-11.19-14.45-6.04-15.04-15.54,7.34,1.45,23.88.11,23.51,10.51-.21,6.1-14.79,17.4-14.52,5.49Z" fill="#fff"/><path d="M669.4,733.3c1.49,4.08.86,12.34,4.62,14.89,2.27,1.54,6.31.6,5.39,5.1-1.1,1.09-9.46-2.58-10.45-4.04-1.3-1.91-4.15-19.43.45-15.95Z" fill="#fff"/><path d="M681.93,729.49c1.34.1,5.88,11.93,6.66,14.14.53,1.48,1.21,1.17-.67,2.63-6.68-1.62-5.97-9.54-9.37-14.49l3.38-2.28Z" fill="#fff"/><path d="M692.42,724.3c2.13-.46,2.27,1.09,3.17,2.32,1.32,1.81,3.73,4.75,4.65,6.36.62,1.08,1.77,2.87-.34,3.31-4.35.91-7.44-8.79-7.48-11.99Z" fill="#fff"/><path d="M716.15,775.03c-.84.72-4.61,1.52-5.74.83l-2.54-7.59c2.32-3.3,13.4,2.39,8.28,6.76Z" fill="#fff"/><path d="M739.42,756.29c-2.16.57-9.81,0-9-3.47.88-3.76,11.3-2.53,9,3.47Z" fill="#fff"/><path d="M369.08,60.45c26.85-3.01,5.71,19.65-1.66,1.37l1.66-1.37Z" fill="#fff"/><path d="M417.41,54.28l-2-2.98c5.07-.22,4.17,8.88,2,10.49-1.79,1.33-8.25,3.46-10.09,1.09-5.22-6.73,4.24-10.38,10.09-8.6Z" fill="#fff"/><path d="M378.19,99.54l.76,2.84c-1.03,3.91-7.4,4.97-9.47,1.27.17-4.6,4.86-6.89,8.71-4.12Z" fill="#fff"/><path d="M534.08,73.63c5.49,5.65,3.93,21.19-5.23,16.72l-.57-11.92c-11.15-4.19-13.7.95-15.94,10.79l-2.87.03-1.96-6.52c3.54-1.85,3.06-8.73,6.5-11.35,4.98-3.78,15.79-2.15,20.07,2.24Z" fill="#fff"/><path d="M560.27,60.41c.79,1.31.21,3.95-1.36,4.86l-8.5-6.97c1.79-.63,9.19,1,9.86,2.11Z" fill="#fff"/><path d="M498.34,115.22c-.65.92-4.68.85-5.82-.04l.91-6.88c2.27.93,6.8,4.24,4.92,6.92Z" fill="#fff"/><path d="M283.4,166.29c-6.45.24-6.11-10.83-1.48-14,1.77,1.39,2.31,13.3,1.48,14Z" fill="#fff"/><path d="M757.04,183.69c.34.21.48,1.28,1.11,1.65,1.6.93,3.1-.52,4.69,1.99,3.67,5.79-.46,8.84-6.33,6.88-.57-2.55.54-5.92-.23-8.3-.6-1.88-3.71-.71-2.86-3.6,1.58-.32,2.45.66,3.62,1.39Z" fill="#fff"/><path d="M732.2,212.51c.27.15,3.29,4.62,3.48,5.07,1.57,3.62-1.74,10.25-6.26,9.7l1.99-1.98c-5.84.44-10.4-.56-8.99-7.48.49-2.41,3.48-3.13,2-5.52,2.08.36,6.21-.7,7.79.21Z" fill="#fff"/><path d="M207.17,197.51c12.24-2.02,12.7,14.44,5.54,16.58-12.67,3.79-17.81-14.55-5.54-16.58ZM213.27,202.44c-2.82-1.6-5.83-.99-8.42.81-1.98,10.2,10.88,9.37,8.42-.81Z" fill="#fff"/><path d="M148.42,182.3l22.98,18.5c-6.13,8.08-18.11-9.17-21.51-14.48-.85-1.33-2.01-1.91-1.47-4.02Z" fill="#fff"/><path d="M174.07,186.64c.82.87,4.5,5.43,4.34,6.14-4.1,4.48-9.39-4.36-12.47-7.51-3.78-3.86-7.94-5.55-9.53-11.96l17.65,13.34Z" fill="#fff"/><path d="M195.41,178.29c-9.78,1.09-8.21-12.17-12.49-18.02l.99-2.95c3.1,2.01,13.57,18.91,11.49,20.97Z" fill="#fff"/><path d="M108.41,273.29l-8.71-4.79-.29,1.79-2.94-.02-.63-4.97c6.74-5.17,13.18.29,12.57,8Z" fill="#fff"/><path d="M155.41,299.29l-3.08-.59-3.91-8.4c5.56-.23,7.6,4.06,6.99,9Z" fill="#fff"/><path d="M797.98,641.75c1.26,1.24,2.89,1.57,2.43,3.53-2.08,0-4.21.24-6.27-.22-4.01-.91-17.11-12.41-20.12-15.88-2.1-2.41-4.51-7.87.46-6.48,2.89.81,20.32,15.93,23.5,19.04Z" fill="#fff"/><path d="M749.74,667.99c-1.43-1.69-3-8.01.16-6.68,1.72.72,9.09,9.37,11.5,11.5s5.77,3.4,7.99,5.99c.18,2.52-6.54-.27-7.32-.66-2.13-1.07-10.81-8.34-12.34-10.15Z" fill="#fff"/><path d="M774.41,657.29c-7.79-1.9-17.16-6.36-14.99-15.99,1.58,1.56,16.98,14.17,14.99,15.99Z" fill="#fff"/><path d="M783.06,292.46l4.43,2.27c2.48,3.34-.72,11.49-5.61,11.54-5.89-.11-3.26-12.23,1.17-13.81Z" fill="#fff"/><path d="M795.41,330.28l.5,3.02,1.49-2c.59,2.46,2.22,5.1-.5,6.98-5.36,1.69-4.43-11.4-1.49-8Z" fill="#fff"/><path d="M827.41,311.29c-4.08.04-3.22-6.28-3.99-8.99,5.74-.8,3.75,5.5,3.99,8.99Z" fill="#fff"/></g></svg>