<?xml version="1.0" encoding="UTF-8"?>
<svg id="Layer_1" xmlns="http://www.w3.org/2000/svg" version="1.1" viewBox="0 0 433 433">
  <!-- Generator: Adobe Illustrator 29.5.1, SVG Export Plug-In . SVG Version: 2.1.0 Build 141)  -->
  <defs>
    <style>
      .st0 {
        fill: none;
      }

      .st1 {
        fill: #fff;
        stroke: #fff;
        stroke-miterlimit: 10;
        stroke-width: .2px;
      }
    </style>
  </defs>
  <ellipse class="st0" cx="216.3" cy="216.5" rx="194" ry="193.8"/>
  <path class="st1" d="M167.5,404.2l-4.9,18.6,3.8-1.5-.9,3.3-3.8,1.5-3.1-.8,5.8-21.9,3.1.8h0Z"/>
  <path class="st1" d="M154.5,419.2c-.2.7-.6,1.3-1,1.8s-.9.9-1.5,1.1-1.1.4-1.8.4-1.2,0-1.8-.3c-.6-.2-1.1-.5-1.6-.9s-.9-.9-1.2-1.4-.5-1.1-.5-1.8,0-1.3.3-2.1l4.2-12.6c.2-.7.6-1.3,1-1.8s.9-.9,1.5-1.1,1.1-.4,1.8-.4,1.2,0,1.8.3,1.2.5,1.6.9c.5.4.9.9,1.2,1.4s.5,1.1.5,1.8,0,1.3-.3,2.1l-4.2,12.6ZM155.5,405.6c.1-.4.1-.9,0-1.2s-.5-.6-.9-.8-.9-.1-1.2,0c-.4.2-.6.5-.8,1l-4.2,12.6c-.1.4-.1.9,0,1.2s.5.6.9.8.9.1,1.2,0c.4-.2.6-.5.8-1l4.2-12.6Z"/>
  <path class="st1" d="M142.5,415.2c-.3.7-.7,1.3-1.1,1.7-.5.5-1,.8-1.6,1s-1.2.3-1.8.3-1.2-.1-1.8-.4-1.1-.6-1.6-1-.8-.9-1.1-1.5-.4-1.2-.4-1.8,0-1.3.4-2l4.9-12.4c.3-.7.7-1.3,1.1-1.7.5-.5,1-.8,1.6-1s1.2-.3,1.8-.3,1.2.1,1.8.4,1.1.6,1.6,1,.8.9,1.1,1.5.4,1.2.4,1.8,0,1.3-.4,2l-4.9,12.4h0ZM144.4,401.6c.2-.4.2-.8,0-1.2-.2-.4-.5-.7-.9-.9-.4-.2-.8-.2-1.2,0s-.7.5-.8.9l-4.9,12.4c-.2.4-.2.8,0,1.2.2.4.5.7.9.9.4.2.8.2,1.2,0s.7-.5.8-.9l4.9-12.4Z"/>
  <path class="st1" d="M129.2,400.3c-.2.5-.6.8-1.2,1-.5.2-1.1.2-1.6,0s-.8-.6-1-1.2c-.2-.5-.2-1.1,0-1.6s.6-.8,1.2-1,1.1-.2,1.6,0,.8.6,1,1.2c.2.5.2,1.1,0,1.6Z"/>
  <path class="st1" d="M123.8,397.6c-.3.5-.7.8-1.2,1s-1.1.1-1.6-.1-.8-.7-1-1.2,0-1.1,0-1.6c.3-.5.7-.8,1.2-1s1.1-.1,1.6.1c.5.3.8.7,1,1.2s0,1.1,0,1.6Z"/>
  <path class="st1" d="M118.4,394.8c-.3.5-.7.8-1.2,1-.5.1-1.1,0-1.5-.2-.5-.3-.8-.7-1-1.2,0-.5,0-1.1.2-1.5.3-.5.7-.8,1.2-1,.5-.1,1.1,0,1.5.2.5.3.8.7,1,1.2,0,.5,0,1.1-.2,1.5Z"/>
  <path class="st1" d="M109.8,378.6l-10.6,16,4-.2-1.9,2.9-4,.2-2.7-1.8,12.6-18.9,2.7,1.8h0Z"/>
  <path class="st1" d="M82.1,386.5l1.8-2.4,5.1,3.9,3.7-4.9h-1.4c-.5-.1-1-.3-1.4-.7-.9-.7-1.4-1.5-1.5-2.4s.2-2,1-3l3.5-4.7c.5-.6,1-1.1,1.5-1.4.6-.3,1.2-.5,1.8-.6.6,0,1.2,0,1.8.1.6.2,1.2.4,1.7.8s.9.8,1.3,1.4c.3.5.5,1.1.6,1.7v1.9c0,.6-.4,1.3-.9,1.9l-.6.8-2.6-2,.5-.7c.3-.4.5-.9.4-1.3s-.3-.8-.7-1.1c-.4-.3-.8-.4-1.2-.3-.4,0-.7.3-1.1.8l-3.2,4.2c-.3.4-.4.7-.3,1.2s.2.8.6,1c.2.2.4.3.6.3h.6c.2,0,.3,0,.5-.2.2,0,.3-.1.4-.2l2.3,1.7-7.4,9.8-7.4-5.6h0Z"/>
  <path class="st1" d="M82.6,381c-.5.6-1,1-1.6,1.3s-1.2.4-1.8.5-1.2,0-1.8-.3c-.6-.2-1.1-.5-1.6-.9s-.9-.9-1.2-1.4c-.3-.5-.5-1.1-.5-1.7s0-1.2.2-1.8c.2-.6.5-1.2,1-1.8l8.6-10.1c.5-.6,1-1,1.6-1.3s1.2-.4,1.8-.5,1.2,0,1.8.3c.6.2,1.1.5,1.6.9s.9.9,1.2,1.4c.3.5.5,1.1.5,1.7s0,1.2-.2,1.8c-.2.6-.5,1.2-1,1.8l-8.6,10.1ZM88.8,368.8c.3-.4.4-.7.4-1.2s-.2-.8-.6-1.1c-.4-.3-.7-.4-1.2-.4s-.8.2-1.1.6l-8.6,10.1c-.3.4-.4.7-.4,1.2s.2.8.6,1.1c.4.3.7.4,1.2.4s.8-.2,1.1-.6l8.6-10.1Z"/>
  <path class="st1" d="M74.8,362.6c-.4.4-.9.6-1.4.6s-1.1-.2-1.4-.6c-.4-.4-.6-.9-.6-1.4s.2-1.1.6-1.4.9-.6,1.4-.6,1.1.2,1.4.6c.4.4.6.9.6,1.4s-.2,1.1-.6,1.4Z"/>
  <path class="st1" d="M70.5,358.4c-.4.4-.9.6-1.5.5-.6,0-1-.2-1.4-.6s-.6-.9-.5-1.5c0-.6.2-1,.6-1.4s.9-.6,1.5-.5c.6,0,1,.2,1.4.6s.6.9.5,1.5c0,.6-.2,1-.6,1.4Z"/>
  <path class="st1" d="M66.3,354c-.4.4-.9.5-1.5.5s-1-.2-1.4-.7c-.4-.4-.5-.9-.5-1.5s.2-1,.7-1.4c.4-.4.9-.5,1.5-.5s1,.2,1.4.7c.4.4.5.9.5,1.5s-.2,1-.7,1.4Z"/>
  <path class="st1" d="M65.8,338.9l-2.4,1.9-12.3,2.1c-.6,0-1.1.3-1.5.5s-.8.5-1.3.9c-.2.2-.4.3-.7.5-.2.2-.4.4-.5.6s-.2.5-.2.7c0,.3,0,.6.4.9.3.4.6.6,1,.7.4,0,.8,0,1.2-.4l1.5-1.1,2,2.6-1.4,1.1c-.5.4-1.1.7-1.7.9s-1.3.2-1.9.1c-.6,0-1.2-.2-1.8-.6-.6-.3-1.1-.7-1.5-1.3-.5-.7-.8-1.3-1-2v-2c.2-.6.5-1.2.9-1.8s.9-1.1,1.5-1.5c.4-.3.8-.6,1.1-.8s.6-.4.9-.6.6-.3,1-.4c.4,0,.8-.2,1.4-.3l10.2-1.9-3.6-4.6,2.6-2,5.9,7.6h0l.2.2h0Z"/>
  <path class="st1" d="M43.9,339.9c-.6.4-1.3.7-1.9.8-.6.1-1.3.1-1.9,0-.6-.1-1.2-.4-1.7-.7-.5-.4-.9-.8-1.3-1.3-.4-.5-.6-1.1-.8-1.7s-.2-1.2,0-1.8.3-1.2.7-1.7c.3-.6.8-1,1.5-1.5l11-7.5c.6-.4,1.3-.7,1.9-.8s1.3-.1,1.9,0c.6.1,1.2.4,1.7.7.5.4.9.8,1.3,1.3s.6,1.1.8,1.7.2,1.2,0,1.8c0,.6-.3,1.2-.7,1.7s-.8,1-1.5,1.5l-11,7.5h0ZM53,329.7c.4-.3.6-.6.7-1,0-.4,0-.8-.3-1.2-.3-.4-.6-.6-1-.7s-.8,0-1.2.3l-11,7.5c-.4.3-.6.6-.7,1,0,.4,0,.8.3,1.2.3.4.6.6,1,.7s.8,0,1.2-.3l11-7.5Z"/>
  <path class="st1" d="M36.9,329.5c-.7.4-1.3.6-2,.7s-1.3,0-1.9-.1c-.6-.2-1.1-.4-1.6-.8s-.9-.9-1.2-1.4-.5-1.1-.7-1.7,0-1.2,0-1.8c.1-.6.4-1.2.8-1.7s.9-1,1.5-1.4l11.4-6.8c.7-.4,1.3-.6,2-.7.6,0,1.3,0,1.9.1.6.2,1.1.4,1.6.8s.9.9,1.2,1.4.5,1.1.7,1.7,0,1.2,0,1.8-.4,1.2-.8,1.7c-.4.5-.9,1-1.5,1.4l-11.4,6.8ZM46.6,319.8c.4-.2.7-.6.8-1s0-.8-.2-1.2c-.2-.4-.6-.6-1-.7s-.8,0-1.2.2l-11.4,6.8c-.4.2-.7.6-.8,1s0,.8.2,1.2c.2.4.6.6,1,.7s.8,0,1.2-.2l11.4-6.8Z"/>
  <path class="st1" d="M35.3,309.5c-.5.2-1,.3-1.6,0s-.9-.5-1.2-1c-.2-.5-.3-1,0-1.6s.5-.9,1-1.2c.5-.2,1-.3,1.6,0s.9.5,1.2,1c.2.5.3,1,0,1.6s-.5.9-1,1.2Z"/>
  <path class="st1" d="M32.6,304.1c-.5.2-1,.2-1.6,0-.5-.2-.9-.5-1.2-1-.2-.5-.2-1,0-1.6.2-.5.5-.9,1-1.2s1-.2,1.6,0c.5.2.9.5,1.2,1s.2,1,0,1.6c-.2.5-.5.9-1,1.2Z"/>
  <path class="st1" d="M30.1,298.6c-.5.2-1,.2-1.6,0s-.9-.6-1.1-1.1-.2-1,0-1.6.6-.9,1.1-1.1,1-.2,1.6,0,.9.6,1.1,1.1.2,1,0,1.6-.6.9-1.1,1.1Z"/>
  <path class="st1" d="M34.4,284.2l-2.9,1-12.4-1.9h-1.5c-.4,0-.9.2-1.5.4-.3,0-.5.2-.8.3s-.5.2-.7.4c-.2.2-.3.4-.4.6s0,.6,0,1c.2.5.4.8.8,1s.8.2,1.3,0l1.8-.6,1.1,3.1-1.7.6c-.6.2-1.3.3-1.9.3s-1.3-.2-1.8-.5c-.6-.3-1.1-.6-1.5-1.1s-.8-1-1-1.7c-.3-.8-.4-1.5-.3-2.2,0-.7.3-1.3.7-1.8s.9-1,1.4-1.4c.6-.4,1.2-.7,2-1,.5-.2,1-.3,1.3-.4s.7-.2,1.1-.2h1.1c.4,0,.8,0,1.4.2l10.3,1.5-1.9-5.5,3.1-1.1,3.2,9.1h-.3Z"/>
  <path class="st1" d="M6.2,270l2.9-.8,1.7,6.2,5.9-1.6c-.4-.2-.7-.5-1-.9s-.6-.9-.7-1.4c-.3-1.1-.2-2,.2-2.9s1.3-1.4,2.6-1.8l5.6-1.6c.7-.2,1.4-.3,2.1-.2s1.2.3,1.8.6,1,.7,1.4,1.2.6,1.1.8,1.7.2,1.2.2,1.8-.2,1.2-.5,1.7-.7,1-1.2,1.4-1.1.7-1.9.9l-.9.3-.9-3.1.8-.2c.5-.1.9-.4,1.1-.8s.3-.8.1-1.3c-.1-.5-.4-.8-.7-1-.4-.2-.8-.2-1.3,0l-5.1,1.4c-.4.1-.8.4-1,.7-.2.4-.3.8-.2,1.2,0,.3.2.5.3.6s.3.3.4.4.3.1.5.2h.4l.8,2.8-11.8,3.3-2.5-8.9h.1Z"/>
  <path class="st1" d="M10.1,265.9c-.7.2-1.4.2-2.1,0s-1.2-.4-1.7-.7-.9-.8-1.3-1.3c-.3-.5-.6-1.1-.7-1.7s0-1.2,0-1.9.3-1.2.6-1.7.7-1,1.3-1.4c.5-.4,1.2-.7,1.9-.8l13-2.8c.7-.2,1.4-.2,2.1,0,.6.1,1.2.4,1.7.7s.9.8,1.3,1.3c.3.5.6,1.1.7,1.7s.1,1.2,0,1.9c0,.6-.3,1.2-.6,1.7-.3.5-.7,1-1.3,1.4-.5.4-1.2.7-1.9.8l-13,2.8h0ZM22.4,260c.5,0,.8-.3,1-.7.2-.4.3-.8.2-1.2,0-.5-.3-.8-.7-1-.4-.2-.8-.3-1.2-.2l-13,2.8c-.5,0-.8.3-1,.7-.2.4-.3.8-.2,1.2,0,.5.3.8.7,1s.8.3,1.2.2c0,0,13-2.8,13-2.8Z"/>
  <path class="st1" d="M15,246.6c-.5,0-1,0-1.5-.4s-.7-.8-.8-1.3,0-1,.4-1.5c.3-.5.8-.7,1.3-.8.5,0,1,0,1.5.4s.7.8.8,1.3,0,1-.4,1.5c-.3.5-.8.7-1.3.8Z"/>
  <path class="st1" d="M14.2,240.6c-.5,0-1,0-1.5-.4-.4-.4-.7-.8-.8-1.4,0-.5,0-1,.4-1.5s.8-.7,1.4-.8c.5,0,1,0,1.5.4.4.4.7.8.8,1.4,0,.5,0,1-.4,1.5s-.8.7-1.4.8Z"/>
  <path class="st1" d="M13.6,234.6c-.5,0-1-.1-1.5-.5-.4-.4-.7-.8-.7-1.4s.1-1,.5-1.5c.4-.4.8-.7,1.4-.7s1,.1,1.5.5c.4.4.7.8.7,1.4s-.1,1-.5,1.5c-.4.4-.8.7-1.4.7Z"/>
  <path class="st1" d="M9.2,218.6c0-1-.1-1.7-.4-2s-.8-.5-1.6-.5h-2.9c-.5,0-.8.2-1.1.5s-.4.7-.4,1.2.2,1,.6,1.2c.4.2.7.4,1.1.3h1.9v3.2h-1.9c-.7,0-1.3,0-1.9-.3-.6-.2-1.1-.6-1.5-1s-.8-1-1-1.5c-.3-.6-.4-1.2-.4-1.9s0-1.6.5-2.2c.5-.6.7-1,1-1.3.2-.2.5-.4.8-.6.3-.2.6-.3.9-.4.7-.2,1.7-.3,3.1-.3h1.9c.5,0,.9,0,1.2.2.3.1.6.3.9.6.2.3.5.6.8,1.1.3-.5.6-.9.9-1.2.3-.3.6-.5.9-.6.4-.1.8-.2,1.4-.2h3.9c.5,0,.9,0,1.2.1.3,0,.6.1.9.2.2,0,.5.2.7.4.6.4,1.1.9,1.5,1.5s.6,1.4.6,2.5,0,1.1-.2,1.6-.4,1.1-.8,1.6-.9.9-1.5,1.2-1.4.5-2.2.5h-1.9v-3.2h1.7c.5,0,.9-.2,1.3-.5s.5-.7.5-1.2-.2-.9-.5-1.2-.8-.4-1.3-.4h-3.2c-.9,0-1.5.2-1.7.6-.2.2-.3.5-.3.8v1.3h-3.5Z"/>
  <path class="st1" d="M4.3,209.8c-.8,0-1.4-.2-2-.5-.6-.3-1.1-.7-1.5-1.1-.4-.5-.7-1-.9-1.6s-.3-1.2-.2-1.8c0-.6.2-1.2.4-1.8.2-.6.6-1.1,1.1-1.5s1-.7,1.6-1,1.3-.3,2.1-.3l13.3.7c.8,0,1.4.2,2,.5s1.1.7,1.5,1.1c.4.5.7,1,.9,1.6s.3,1.2.2,1.8-.2,1.2-.4,1.8c-.3.6-.6,1.1-1.1,1.5-.4.4-1,.7-1.6,1-.6.2-1.3.3-2.1.3l-13.3-.7h0ZM17.8,207.3c.5,0,.9,0,1.2-.4.3-.3.5-.7.5-1.1s-.1-.9-.4-1.2-.7-.5-1.1-.5l-13.3-.7c-.5,0-.9,0-1.2.4s-.5.7-.5,1.1,0,.9.4,1.2c.3.3.7.5,1.1.5l13.3.7h0Z"/>
  <path class="st1" d="M5.1,197.2c-.8,0-1.4-.3-2-.6s-1-.7-1.4-1.2-.6-1-.8-1.6-.2-1.2-.1-1.9.2-1.2.5-1.8.7-1,1.1-1.4c.5-.4,1-.7,1.6-.9s1.3-.2,2.1-.2l13.2,1.5c.8,0,1.4.3,2,.6s1,.7,1.4,1.2.6,1,.8,1.6c.2.6.2,1.2.1,1.9s-.2,1.2-.5,1.8-.7,1-1.1,1.4c-.5.4-1,.7-1.6.9s-1.3.2-2.1.2l-13.2-1.5h0ZM18.7,195.5c.5,0,.9,0,1.2-.3s.5-.6.6-1.1,0-.9-.3-1.2-.6-.5-1.1-.6l-13.2-1.5c-.5,0-.9,0-1.2.3s-.5.6-.6,1.1c0,.5,0,.9.3,1.2s.6.5,1.1.6c0,0,13.2,1.5,13.2,1.5Z"/>
  <path class="st1" d="M16,180.4c-.5,0-1-.4-1.3-.9s-.4-1-.3-1.5c0-.5.4-1,.9-1.3s1-.4,1.5-.3c.5,0,1,.4,1.3.9s.4,1,.3,1.5-.4,1-.9,1.3-1,.4-1.5.3Z"/>
  <path class="st1" d="M17.1,174.5c-.5-.1-1-.4-1.3-.9s-.4-1-.3-1.5.4-1,.9-1.3,1-.4,1.5-.3,1,.4,1.3.9.4,1,.3,1.5-.4,1-.9,1.3-1,.4-1.5.3Z"/>
  <path class="st1" d="M18.5,168.6c-.5-.1-.9-.4-1.2-.9-.3-.5-.4-1-.2-1.5.1-.5.4-.9.9-1.2s1-.4,1.5-.2c.5.1.9.4,1.2.9.3.5.4,1,.2,1.5-.1.5-.4.9-.9,1.2s-1,.4-1.5.2Z"/>
  <path class="st1" d="M19.4,152c.3-.9.4-1.6.3-2,0-.4-.6-.8-1.4-1l-2.8-.9c-.4-.1-.8-.1-1.2,0-.4.2-.6.5-.8,1s-.1,1,.1,1.3c.3.3.6.6.9.7l1.8.6-1,3.1-1.8-.6c-.6-.2-1.2-.5-1.7-1s-.9-.9-1.1-1.5c-.3-.6-.4-1.2-.5-1.8,0-.6,0-1.3.2-1.9.3-.8.7-1.5,1.2-1.9s1-.7,1.4-.9c.3-.1.6-.2.9-.3s.6,0,1,0c.7,0,1.7.3,3.1.7.7.2,1.3.5,1.8.6.5.2.8.4,1.1.6.3.2.5.5.6.9s.3.8.4,1.3c.5-.4.9-.7,1.2-.8.3-.2.7-.2,1.1-.3.4,0,.9,0,1.4.2s1.1.3,1.9.6c.7.2,1.3.4,1.7.6.5.2.8.4,1.1.5.3.2.5.3.7.5s.4.4.6.6c.4.6.7,1.2.9,1.9s0,1.6-.2,2.5c-.2.5-.4,1-.8,1.5s-.8.9-1.3,1.2-1.1.5-1.8.6c-.7,0-1.4,0-2.3-.3l-1.8-.6,1-3.1,1.6.5c.5.2.9.2,1.3,0s.7-.5.8-.9c.2-.5.1-.9,0-1.3-.2-.4-.6-.6-1.1-.8l-3.1-1c-.8-.3-1.5-.3-1.8,0-.2.1-.4.3-.5.6s-.3.7-.5,1.2l-2.7-.9h0Z"/>
  <path class="st1" d="M16.9,131.4l2.8,1.1-2.4,6,5.7,2.3c-.2-.4-.3-.8-.3-1.3s0-1,.3-1.6c.4-1,1.1-1.7,1.9-2.1.9-.4,1.9-.3,3.2.2l5.4,2.2c.7.3,1.3.7,1.7,1.1.5.5.8,1,1,1.6s.3,1.2.3,1.8,0,1.2-.4,1.8c-.2.6-.6,1.1-1,1.6s-.9.8-1.5,1.1-1.2.4-1.8.4-1.3-.1-2-.4l-.9-.4,1.2-3,.8.3c.5.2,1,.2,1.4,0,.4-.2.7-.5.9-.9.2-.5.2-.9,0-1.2-.2-.4-.5-.6-1-.8l-4.9-2c-.4-.2-.8-.2-1.2,0s-.7.4-.9.8c0,.3-.1.5-.1.7s0,.4.1.6.2.3.3.4c.1.2.2.3.3.3l-1.1,2.7-11.3-4.6,3.5-8.6h0Z"/>
  <path class="st1" d="M22.4,130.5c-.7-.3-1.2-.7-1.7-1.2s-.7-1-.9-1.6c-.2-.6-.3-1.2-.2-1.8,0-.6.2-1.2.5-1.8.3-.6.6-1.1,1.1-1.5.4-.4,1-.8,1.5-1,.6-.2,1.2-.3,1.8-.3s1.3.2,2,.5l12,5.7c.7.3,1.2.7,1.7,1.2.4.5.7,1,.9,1.6s.3,1.2.2,1.8-.2,1.2-.5,1.8-.6,1.1-1.1,1.5c-.4.4-1,.8-1.5,1-.6.2-1.2.3-1.8.3s-1.3-.2-2-.5l-12-5.7h0ZM35.9,133.3c.4.2.8.2,1.2,0s.7-.4.9-.8c.2-.4.2-.8,0-1.2,0-.4-.4-.7-.9-.9l-12-5.7c-.4-.2-.8-.2-1.2,0s-.7.4-.9.8c-.2.4-.2.8,0,1.2.1.4.4.7.9.9l12,5.7h0Z"/>
  <path class="st1" d="M38.1,118.1c-.5-.3-.8-.7-.9-1.2,0-.5,0-1.1.2-1.5s.7-.8,1.2-.9,1.1,0,1.5.2c.5.3.8.7.9,1.2s0,1.1-.2,1.5c-.3.5-.7.8-1.2.9s-1.1,0-1.5-.2Z"/>
  <path class="st1" d="M41.1,112.9c-.5-.3-.8-.7-.9-1.3s0-1.1.2-1.5c.3-.5.7-.8,1.3-.9s1.1,0,1.5.2c.5.3.8.7.9,1.3s0,1.1-.2,1.5c-.3.5-.7.8-1.3.9s-1.1,0-1.5-.2Z"/>
  <path class="st1" d="M44.3,107.7c-.5-.3-.8-.7-.9-1.3,0-.6,0-1.1.3-1.5.3-.5.7-.8,1.3-.9s1.1,0,1.5.3c.5.3.8.7.9,1.3s0,1.1-.3,1.5c-.3.5-.7.8-1.3.9s-1.1,0-1.5-.3Z"/>
  <path class="st1" d="M62.2,98.7l-2.7-2-3.9,5.1-2.4-1.8-10.1-13.5,2.1-2.7,10,13.7,1.9-2.6-5.1-3.9,2-2.6,5.1,3.9.9-1.2,2.4,1.8-.9,1.2,2.7,2-2,2.6h0Z"/>
  <path class="st1" d="M52.1,82.4c-.6-.5-1-1-1.3-1.6s-.4-1.2-.5-1.8,0-1.2.3-1.8.5-1.1.9-1.6.9-.9,1.4-1.2,1.1-.5,1.7-.5,1.2,0,1.9.2c.6.2,1.2.5,1.8,1l10.1,8.6c.6.5,1,1,1.3,1.6s.4,1.2.5,1.8c0,.6,0,1.2-.3,1.8s-.5,1.1-.9,1.6-.9.9-1.4,1.2-1.1.5-1.7.5-1.2,0-1.9-.2c-.6-.2-1.2-.5-1.8-1l-10.1-8.6h0ZM64.3,88.6c.4.3.7.4,1.2.4s.8-.2,1.1-.6c.3-.4.4-.7.4-1.2s-.2-.8-.6-1.1l-10.1-8.6c-.4-.3-.7-.4-1.2-.4s-.8.2-1.1.6-.4.7-.4,1.2.2.8.6,1.1l10.1,8.6Z"/>
  <path class="st1" d="M60.3,72.9c-.5-.5-.9-1.1-1.2-1.7-.2-.6-.4-1.2-.4-1.8s0-1.2.4-1.8c.2-.6.6-1.1,1-1.6s.9-.8,1.5-1.1,1.2-.4,1.8-.4,1.2,0,1.8.3c.6.2,1.2.6,1.7,1.1l9.6,9.2c.5.5.9,1.1,1.2,1.7.2.6.4,1.2.4,1.8s0,1.2-.4,1.8c-.2.6-.6,1.1-1,1.6s-.9.8-1.5,1.1-1.2.4-1.8.4-1.2,0-1.8-.3c-.6-.2-1.2-.6-1.7-1.1l-9.6-9.2h0ZM72.2,79.8c.3.3.7.5,1.1.5s.8-.2,1.1-.5c.3-.3.5-.7.5-1.1s-.2-.8-.5-1.1l-9.6-9.2c-.3-.3-.7-.5-1.1-.5s-.8.2-1.1.5-.5.7-.5,1.1.2.8.5,1.1l9.6,9.2Z"/>
  <path class="st1" d="M79.2,66.2c-.4-.4-.5-.9-.5-1.5s.2-1,.7-1.4c.4-.4.9-.5,1.5-.5s1,.2,1.4.7c.4.4.5.9.5,1.5s-.2,1-.7,1.4c-.4.4-.9.5-1.5.5s-1-.2-1.4-.7Z"/>
  <path class="st1" d="M83.7,62.2c-.4-.4-.5-.9-.5-1.5s.3-1,.7-1.4.9-.5,1.5-.5,1,.3,1.4.7.5.9.5,1.5-.3,1-.7,1.4c-.4.4-.9.5-1.5.5s-1-.3-1.4-.7Z"/>
  <path class="st1" d="M88.3,58.4c-.3-.4-.5-.9-.4-1.5,0-.6.3-1,.7-1.4.4-.3.9-.5,1.5-.4.6,0,1,.3,1.4.7.3.4.5.9.4,1.5,0,.6-.3,1-.7,1.4-.4.3-.9.5-1.5.4-.6,0-1-.3-1.4-.7Z"/>
  <path class="st1" d="M108.1,55.6l-1.9-2.8-5.3,3.6-1.7-2.5-5.3-16,2.8-1.9,5.1,16.2,2.7-1.8-3.6-5.3,2.7-1.8,3.6,5.3,1.3-.9,1.7,2.5-1.3.9,1.9,2.8-2.7,1.8h0Z"/>
  <path class="st1" d="M109.7,27.9l1.6,2.6-5.5,3.3,3.1,5.2c0-.4.3-.8.6-1.2.3-.4.7-.8,1.2-1.1.9-.6,1.9-.7,2.8-.5s1.7.9,2.4,2.1l3,5c.4.7.6,1.3.7,1.9v1.9c0,.6-.4,1.1-.8,1.6s-.9.9-1.4,1.2-1.1.5-1.7.6-1.2,0-1.8,0-1.2-.4-1.7-.8c-.5-.4-1-.9-1.4-1.5l-.5-.8,2.8-1.7.4.7c.3.5.6.8,1.1.9s.8,0,1.3-.2c.4-.2.7-.6.7-1s0-.8-.3-1.3l-2.7-4.6c-.2-.4-.5-.6-1-.8s-.8,0-1.2,0-.4.3-.5.5-.2.4-.2.5v.9l-2.5,1.5-6.3-10.5,8-4.8h0v.3h-.2Z"/>
  <path class="st1" d="M114.7,30.5c-.3-.7-.5-1.3-.6-2s0-1.3.2-1.8c.2-.6.5-1.1.9-1.6s.9-.8,1.5-1.1,1.2-.5,1.8-.5,1.2,0,1.8.1c.6.2,1.1.5,1.7.9.5.4.9.9,1.3,1.6l6.1,11.8c.3.7.5,1.3.6,2s0,1.3-.2,1.8c-.2.6-.5,1.1-.9,1.6s-.9.8-1.5,1.1c-.6.3-1.2.5-1.8.5h-1.8c-.6-.2-1.1-.5-1.7-.9-.5-.4-.9-.9-1.3-1.6l-6.1-11.8h0ZM123.7,40.8c.2.4.5.7.9.8s.8,0,1.2,0,.7-.5.8-.9,0-.8,0-1.2l-6.1-11.8c-.2-.4-.5-.7-.9-.8-.4-.1-.8,0-1.2.1-.4.2-.7.5-.8.9s0,.8,0,1.2l6.1,11.8h0Z"/>
  <path class="st1" d="M134.7,30.2c-.2-.5-.2-1,0-1.6.2-.5.6-.9,1.1-1.1s1-.2,1.6,0c.5.2.9.6,1.1,1.1.2.5.2,1,0,1.6-.2.5-.6.9-1.1,1.1s-1,.2-1.6,0c-.5-.2-.9-.6-1.1-1.1Z"/>
  <path class="st1" d="M140.2,27.8c-.2-.5-.2-1,0-1.6s.6-.9,1.1-1.1,1-.2,1.6,0,.9.6,1.1,1.1.2,1,0,1.6c-.2.5-.6.9-1.1,1.1s-1,.2-1.6,0c-.5-.2-.9-.6-1.1-1.1Z"/>
  <path class="st1" d="M145.9,25.7c-.2-.5-.2-1,0-1.6s.6-.9,1.1-1.1,1-.2,1.6,0,.9.6,1.1,1.1.2,1,0,1.6-.6.9-1.1,1.1-1,.2-1.6,0-.9-.6-1.1-1.1Z"/>
  <path class="st1" d="M163.4,6.5l.8,2.9-6.2,1.7,1.6,5.9c.2-.4.5-.7.9-1,.4-.3.9-.6,1.4-.7,1.1-.3,2-.2,2.9.2.8.5,1.4,1.3,1.8,2.6l1.6,5.6c.2.7.3,1.4.2,2.1s-.3,1.2-.6,1.8-.7,1-1.2,1.3-1.1.6-1.7.8c-.6.2-1.2.2-1.9.2s-1.2-.2-1.8-.5c-.5-.3-1-.7-1.4-1.2s-.7-1.1-.9-1.9l-.2-.9,3.1-.9.2.8c.1.5.4.9.8,1.1.4.2.8.3,1.3.1.5-.1.8-.4,1-.7s.2-.8,0-1.3l-1.4-5.1c-.1-.4-.4-.8-.7-1-.4-.2-.8-.3-1.2-.2-.3,0-.5.2-.6.3-.2.1-.3.3-.4.4s-.1.3-.2.5v.4l-2.8.8-3.2-11.8,9-2.5h0l-.2.2h0Z"/>
  <path class="st1" d="M167.5,10.3c-.2-.7-.2-1.4,0-2.1s.4-1.2.7-1.7.8-.9,1.3-1.3c.5-.3,1.1-.6,1.7-.7s1.2,0,1.9,0,1.2.3,1.7.6c.5.3,1,.7,1.4,1.3.4.5.7,1.2.8,1.9l2.8,13c.2.7.2,1.4,0,2.1s-.4,1.2-.7,1.7-.8.9-1.3,1.3-1.1.6-1.7.7c-.6.1-1.2.1-1.9,0-.6,0-1.2-.3-1.7-.6s-1-.7-1.4-1.3c-.4-.5-.7-1.2-.8-1.9,0,0-2.8-13-2.8-13ZM173.4,22.6c0,.5.3.8.7,1s.8.3,1.2.2c.5,0,.8-.3,1-.7.2-.4.3-.8.2-1.2l-2.8-13c0-.5-.3-.8-.7-1s-.8-.3-1.2-.2-.8.3-1,.7-.3.8-.2,1.2c0,0,2.8,13,2.8,13Z"/>
  <path class="st1" d="M179.8,7.8c-.1-.8,0-1.4,0-2.1.2-.6.4-1.2.8-1.7.4-.5.8-.9,1.4-1.2.5-.3,1.1-.5,1.8-.6h1.9c.6,0,1.2.4,1.7.7.5.4.9.8,1.3,1.4.3.5.6,1.2.7,2l2,13.2c.1.8,0,1.5,0,2.1-.2.6-.4,1.2-.8,1.7-.4.5-.8.9-1.4,1.2-.5.3-1.1.5-1.8.6h-1.9c-.6-.1-1.2-.4-1.7-.7-.5-.3-.9-.8-1.3-1.4s-.6-1.2-.7-2c0,0-2-13.2-2-13.2ZM185,20.4c0,.5.3.8.6,1.1.3.3.7.4,1.2.3.5,0,.8-.3,1.1-.6.2-.3.3-.8.3-1.2l-2-13.2c0-.5-.3-.8-.6-1.1s-.7-.4-1.2-.3c-.5,0-.8.3-1.1.6-.2.3-.3.8-.3,1.2,0,0,2,13.2,2,13.2Z"/>
  <path class="st1" d="M198.8,13.9c0-.5.1-1,.5-1.5.4-.4.8-.7,1.4-.7s1,.1,1.5.5c.4.4.7.8.7,1.4s-.1,1-.5,1.5c-.4.4-.8.7-1.4.7s-1-.1-1.5-.5c-.4-.4-.7-.8-.7-1.4Z"/>
  <path class="st1" d="M204.9,13.5c0-.5.2-1,.5-1.5.4-.4.9-.6,1.4-.7.5,0,1,.2,1.5.5.4.4.6.9.7,1.4,0,.5-.2,1-.5,1.5-.4.4-.9.6-1.4.7-.5,0-1-.2-1.5-.5-.4-.4-.6-.9-.7-1.4Z"/>
  <path class="st1" d="M210.9,13.2c0-.5.2-1,.6-1.4.4-.4.9-.6,1.4-.6s1,.2,1.4.6c.4.4.6.9.6,1.4s-.2,1-.6,1.4c-.4.4-.9.6-1.4.6s-1-.2-1.4-.6-.6-.9-.6-1.4Z"/>
  <path class="st1" d="M233.6.6l-.2,3.1-6.4-.4-.3,6.1c.3-.3.7-.5,1.2-.7s1-.2,1.6-.2c1.1,0,2,.4,2.6,1.2.6.7.9,1.7.9,3.1l-.3,5.8c0,.8-.2,1.4-.5,2s-.7,1.1-1.2,1.5-1,.7-1.6.9c-.6.2-1.2.3-1.9.2-.6,0-1.2-.2-1.8-.4s-1.1-.6-1.5-1.1c-.4-.4-.7-1-1-1.6s-.3-1.3-.3-2.1v-1l3.3.2v.8c0,.5,0,1,.3,1.3s.7.5,1.2.5.9,0,1.2-.4.4-.7.5-1.2l.3-5.3c0-.4,0-.8-.4-1.2s-.6-.5-1.1-.5h-.7c-.2,0-.4.2-.5.3s-.2.2-.3.4-.2.3-.2.3l-2.9-.2.7-12.2,9.3.5h0v.3h0Z"/>
  <path class="st1" d="M246.4,2l-.3,3-6.4-.7-.7,6.1c.3-.3.7-.5,1.2-.6s1-.2,1.6-.1c1.1.1,2,.6,2.6,1.3s.8,1.8.7,3.1l-.7,5.8c0,.8-.3,1.4-.6,2s-.7,1-1.2,1.4-1,.6-1.6.8c-.6.1-1.2.2-1.9.1s-1.2-.3-1.8-.5-1-.7-1.4-1.1c-.4-.5-.7-1-.9-1.6s-.2-1.3-.2-2.1v-.9c.1,0,3.3.4,3.3.4v.8c-.2.5,0,1,.2,1.3s.6.5,1.1.6c.5,0,.9,0,1.2-.3s.5-.7.5-1.2l.6-5.3c0-.4,0-.8-.3-1.2s-.6-.5-1-.6h-.7c-.2,0-.4.2-.5.3s-.2.2-.3.4-.2.3-.2.3l-2.8-.3,1.4-12.1,9.2,1.1h0v-.2h-.1Z"/>
  <path class="st1" d="M248.8,7.1c.1-.8.4-1.4.7-1.9s.8-1,1.3-1.3,1.1-.6,1.7-.7,1.2,0,1.9,0,1.2.3,1.7.6c.5.3,1,.7,1.4,1.2.4.5.6,1.1.8,1.7.2.6.2,1.3,0,2.1l-2.3,13.1c-.1.8-.4,1.4-.7,1.9s-.8,1-1.3,1.3-1.1.6-1.7.7-1.2.1-1.9,0-1.2-.3-1.7-.6-1-.7-1.4-1.2-.6-1.1-.8-1.7-.2-1.3,0-2.1c0,0,2.3-13.1,2.3-13.1ZM249.7,20.7c0,.5,0,.9.2,1.2s.6.6,1,.7.9,0,1.2-.3c.3-.2.6-.6.6-1.1l2.3-13.1c0-.5,0-.9-.2-1.2s-.6-.6-1-.7-.9,0-1.2.3c-.3.2-.6.6-.6,1.1l-2.3,13.1h0Z"/>
  <path class="st1" d="M264.9,19c.1-.5.4-.9.9-1.2s1-.4,1.5-.2.9.4,1.2.9c.3.5.4,1,.2,1.5-.1.5-.4.9-.9,1.2-.5.3-1,.4-1.5.2s-.9-.4-1.2-.9c-.3-.5-.4-1-.2-1.5h0Z"/>
  <path class="st1" d="M270.7,20.5c.1-.5.5-.9,1-1.2.5-.3,1-.3,1.5-.2s.9.5,1.2,1,.3,1,.2,1.5-.5.9-1,1.2c-.5.3-1,.3-1.5.2s-.9-.5-1.2-1-.3-1-.2-1.5Z"/>
  <path class="st1" d="M276.5,22.2c.2-.5.5-.9,1-1.2.5-.3,1-.3,1.6-.1.5.2.9.5,1.2,1,.3.5.3,1,.1,1.6s-.5.9-1,1.2c-.5.3-1,.3-1.6.1-.5-.2-.9-.5-1.2-1-.3-.5-.3-1-.1-1.6Z"/>
  <path class="st1" d="M301,17.1l-7,7.4h.5c.2,0,.5.1.8.3.5.2,1,.5,1.3,1,.3.4.6.9.7,1.4v.8c0,.2,0,.6-.1.9,0,.4-.3.8-.5,1.4-.2.5-.5,1.2-.8,2.1-.3.7-.5,1.3-.7,1.7s-.4.8-.5,1.1c-.2.3-.4.5-.5.7s-.4.4-.6.5c-.7.5-1.4.8-2.2.9s-1.6,0-2.4-.4c-.8-.3-1.5-.8-2-1.4s-.8-1.3-1-2.1v-.8c0-.2,0-.5.1-.9,0-.3.2-.7.3-1.2.2-.4.4-1,.7-1.7.3-.6.5-1.2.7-1.6s.4-.8.5-1.1c.2-.3.3-.5.5-.7s.4-.4.6-.7l8.2-9,3.4,1.4h0ZM293.9,29.1c.2-.5.2-.9,0-1.3s-.5-.7-.9-.8-.8-.2-1.2,0-.7.5-.9.9l-1.6,3.9c-.2.5-.2.9,0,1.3s.5.7.9.8.8.2,1.2,0,.7-.5.9-.9l1.6-3.9Z"/>
  <path class="st1" d="M303,23.1c.3-.7.7-1.2,1.2-1.7.5-.4,1-.7,1.6-.9.6-.2,1.2-.3,1.8-.2.6,0,1.2.2,1.8.5.6.3,1.1.6,1.5,1.1.4.4.8,1,1,1.5s.3,1.2.3,1.8-.2,1.3-.5,2l-5.7,12c-.3.7-.7,1.2-1.2,1.7-.5.4-1,.7-1.6.9s-1.2.3-1.8.2c-.6,0-1.2-.2-1.8-.5-.6-.3-1.1-.6-1.5-1.1-.4-.4-.8-1-1-1.5s-.3-1.2-.3-1.8.2-1.3.5-2c0,0,5.7-12,5.7-12ZM300.2,36.5c-.2.4-.2.8,0,1.2.1.4.4.7.8.9s.8.2,1.2,0,.7-.4.9-.9l5.7-12c.2-.4.2-.8,0-1.2-.1-.4-.4-.7-.8-.9-.4-.2-.8-.2-1.2,0-.4.1-.7.4-.9.9l-5.7,12Z"/>
  <path class="st1" d="M314.3,28.6c.4-.7.8-1.2,1.3-1.6s1.1-.7,1.7-.8c.6-.2,1.2-.2,1.8,0s1.2.3,1.8.6,1,.7,1.4,1.2.7,1,.9,1.6.2,1.2.2,1.8-.3,1.3-.6,2l-6.4,11.6c-.4.7-.8,1.2-1.3,1.6s-1.1.7-1.7.8-1.2.2-1.8,0c-.6,0-1.2-.3-1.8-.6s-1-.7-1.4-1.2-.7-1-.9-1.6-.2-1.2-.2-1.8.3-1.3.6-2l6.4-11.6ZM310.8,41.8c-.2.4-.3.8-.2,1.2.1.4.4.7.8,1s.8.3,1.2,0,.7-.4,1-.8l6.4-11.6c.2-.4.3-.8.2-1.2s-.4-.7-.8-1c-.4-.2-.8-.3-1.2-.1-.4.1-.7.4-1,.8l-6.4,11.6h0Z"/>
  <path class="st1" d="M325.7,45c.3-.5.7-.8,1.3-.9.6,0,1.1,0,1.5.3.5.3.7.7.9,1.3.1.6,0,1.1-.3,1.5-.3.5-.7.8-1.3.9-.6,0-1.1,0-1.5-.3-.5-.3-.8-.7-.9-1.3s0-1.1.3-1.5Z"/>
  <path class="st1" d="M330.8,48.3c.3-.5.8-.7,1.3-.8s1.1,0,1.5.3.7.8.8,1.3c0,.6,0,1.1-.3,1.5s-.8.7-1.3.8-1.1,0-1.5-.3-.7-.8-.8-1.3c0-.6,0-1.1.3-1.5Z"/>
  <path class="st1" d="M335.7,51.8c.3-.4.8-.7,1.3-.8.6,0,1.1,0,1.5.4.4.3.7.8.8,1.3,0,.6,0,1.1-.4,1.5s-.8.7-1.3.8c-.6,0-1.1,0-1.5-.4-.4-.3-.7-.8-.8-1.3,0-.6,0-1.1.4-1.5Z"/>
  <path class="st1" d="M360.5,54.8l-9,4.8h0c.1,0,.3,0,.5.3.2,0,.4.3.7.5.4.4.7.8.9,1.4s.2,1,.2,1.5-.1.5-.2.8c0,.2-.2.5-.4.8-.2.3-.5.7-.9,1.2s-.8,1-1.4,1.7c-.5.6-.9,1-1.2,1.4s-.6.6-.9.8c-.3.2-.5.4-.7.5s-.5.2-.8.3c-.8.2-1.6.3-2.3,0-.8-.2-1.5-.6-2.2-1.1s-1.2-1.3-1.4-2c-.3-.8-.3-1.5-.2-2.3,0-.3,0-.6.2-.8s.2-.5.4-.8c.2-.3.4-.6.7-1,.3-.4.7-.8,1.2-1.4.5-.5.8-1,1.2-1.3.3-.3.6-.6.9-.8.2-.2.5-.4.7-.5s.5-.3.8-.4l10.7-5.8,2.7,2.4h0l-.2-.3h0ZM350,63.9c.3-.4.5-.8.4-1.2s-.2-.8-.6-1.1c-.3-.3-.7-.4-1.1-.4s-.8.2-1.1.6l-2.7,3.2c-.3.4-.5.8-.4,1.2,0,.4.2.8.6,1.1s.7.4,1.1.4.8-.2,1.1-.6c0,0,2.7-3.2,2.7-3.2Z"/>
  <path class="st1" d="M370.7,64.5l-2.1,2.2-4.6-4.5-4.3,4.4c.4,0,.9,0,1.3.3s.9.5,1.3.9c.8.8,1.2,1.6,1.2,2.6s-.4,1.9-1.4,2.9l-4.1,4.2c-.5.5-1.1.9-1.7,1.2-.6.2-1.2.4-1.8.4s-1.2,0-1.8-.4c-.6-.2-1.1-.6-1.5-1-.5-.4-.8-.9-1.1-1.5-.3-.6-.4-1.2-.4-1.8s0-1.2.3-1.8c.2-.6.6-1.2,1.1-1.7l.7-.7,2.3,2.3-.6.6c-.4.4-.6.8-.6,1.2s.2.8.5,1.2.7.5,1.1.5.8-.2,1.2-.6l3.7-3.8c.3-.3.5-.7.5-1.1s-.1-.8-.5-1.1c-.2-.2-.4-.3-.6-.4h-1.5l-2.1-2,8.5-8.8,6.7,6.5h0l.3-.3h0Z"/>
  <path class="st1" d="M369.5,69.9c.6-.5,1.2-.9,1.8-1.1s1.2-.3,1.9-.2,1.2.2,1.8.5c.6.3,1.1.7,1.5,1.1.4.5.8,1,1,1.6s.3,1.2.3,1.8-.1,1.2-.4,1.8-.7,1.2-1.2,1.7l-9.8,9c-.6.5-1.2.9-1.8,1.1s-1.2.3-1.9.2-1.2-.2-1.8-.5c-.6-.3-1.1-.7-1.5-1.1-.4-.5-.8-1-1-1.6s-.3-1.2-.3-1.8.1-1.2.4-1.8.7-1.2,1.2-1.7l9.8-9ZM361.9,81.3c-.3.3-.5.7-.6,1.1s.1.8.4,1.2c.3.3.7.5,1.1.5s.8,0,1.2-.5l9.8-9c.3-.3.5-.7.6-1.1s-.1-.8-.4-1.2c-.3-.3-.7-.5-1.1-.5s-.8,0-1.2.5l-9.8,9Z"/>
  <path class="st1" d="M375,89.2c.4-.3.9-.5,1.5-.4s1,.3,1.4.7c.3.4.5.9.4,1.5s-.3,1-.7,1.4c-.4.3-.9.5-1.5.4s-1-.3-1.4-.7c-.3-.4-.5-.9-.4-1.5s.3-1,.7-1.4Z"/>
  <path class="st1" d="M378.7,93.9c.4-.3.9-.4,1.5-.4s1,.3,1.3.8c.3.4.4.9.4,1.5s-.3,1-.8,1.3c-.4.3-.9.4-1.5.4s-1-.3-1.3-.8c-.3-.4-.4-.9-.4-1.5s.3-1,.8-1.3Z"/>
  <path class="st1" d="M382.3,98.8c.5-.3,1-.4,1.5-.3.6,0,1,.4,1.3.8.3.5.4,1,.3,1.5,0,.6-.4,1-.8,1.3s-1,.4-1.5.3-1-.4-1.3-.8c-.3-.5-.4-1-.3-1.5,0-.6.4-1,.8-1.3Z"/>
  <path class="st1" d="M381.4,114.4l19.8-5.1-1.8-3.1-2.2,1.3-1.5-2.5,4.9-2.9,4.9,8.3-2.8,1.7-19.5,5.1-1.8-3h0v.2Z"/>
  <path class="st1" d="M402.8,115.5c.7-.3,1.3-.5,2-.6.6,0,1.3,0,1.9.2s1.1.5,1.6.9.8.9,1.1,1.5c.3.6.5,1.2.5,1.8s0,1.2-.2,1.8c-.2.6-.5,1.1-.9,1.7s-1,.9-1.6,1.3l-11.8,6.1c-.7.3-1.3.5-2,.6s-1.3,0-1.9-.2-1.1-.5-1.6-.9-.8-.9-1.1-1.5c-.3-.6-.5-1.2-.5-1.8s0-1.2.2-1.8c.2-.6.5-1.1.9-1.7.4-.5,1-.9,1.6-1.3l11.8-6.1h0ZM392.5,124.5c-.4.2-.7.5-.8.9-.1.4,0,.8.1,1.2s.5.7.9.8.8,0,1.2,0l11.8-6.1c.4-.2.7-.5.8-.9s0-.8-.1-1.2-.5-.7-.9-.8-.8,0-1.2,0l-11.8,6.1Z"/>
  <path class="st1" d="M408.5,126.8c.7-.3,1.4-.5,2-.5s1.3,0,1.8.4,1.1.6,1.5,1,.8,1,1,1.5c.3.6.4,1.2.4,1.8s0,1.2-.3,1.8-.5,1.1-1,1.6c-.4.5-1,.9-1.7,1.2l-12.2,5.4c-.7.3-1.4.5-2,.5s-1.3-.1-1.8-.4-1.1-.6-1.5-1-.8-1-1-1.5c-.3-.6-.4-1.2-.4-1.8s0-1.2.3-1.8.5-1.1,1-1.6c.4-.5,1-.9,1.7-1.2,0,0,12.2-5.4,12.2-5.4ZM397.6,135.1c-.4.2-.7.5-.9.9-.2.4-.1.8,0,1.2.2.4.5.7.9.9.4.1.8.1,1.2,0l12.2-5.4c.4-.2.7-.5.9-.9.2-.4.1-.8,0-1.2-.2-.4-.5-.7-.9-.9s-.8-.1-1.2,0l-12.2,5.4Z"/>
  <path class="st1" d="M407.6,146.7c.5-.2,1-.1,1.6,0,.5.2.9.6,1,1.1.2.5.1,1,0,1.6-.2.5-.6.9-1.1,1-.5.2-1,.1-1.6,0-.5-.2-.9-.6-1-1.1s-.1-1,0-1.6c.2-.5.6-.9,1.1-1Z"/>
  <path class="st1" d="M409.5,152.4c.5-.2,1-.1,1.6.1s.8.7,1,1.2.1,1-.1,1.6-.7.8-1.2,1-1,.1-1.6-.1-.8-.7-1-1.2-.1-1,.1-1.6.7-.8,1.2-1Z"/>
  <path class="st1" d="M411.4,158.2c.5-.1,1,0,1.5.2s.8.7,1,1.2c.1.5,0,1-.2,1.5s-.7.8-1.2,1c-.5.1-1,0-1.5-.2s-.8-.7-1-1.2c-.1-.5,0-1,.2-1.5s.7-.8,1.2-1Z"/>
  <path class="st1" d="M405.4,172.7l20.4,1.6-.7-3.5-2.6.5-.6-2.8,5.6-1.2,2,9.5-3.2.7-20.1-1.4-.7-3.4h0Z"/>
  <path class="st1" d="M431.4,189.6l-3,.4-.9-6.4-6.1.9c.3.2.6.6.9,1s.4.9.5,1.5c.2,1.1,0,2-.6,2.8s-1.5,1.3-2.8,1.5l-5.8.9c-.8.1-1.5,0-2.1,0-.6-.2-1.2-.5-1.7-.8-.5-.4-.9-.8-1.2-1.4-.3-.5-.5-1.1-.6-1.8s0-1.3,0-1.9c.1-.6.4-1.2.7-1.7s.8-.9,1.4-1.3,1.2-.6,2-.7h.9c0-.1.5,3.1.5,3.1h-.8c-.5.2-.9.4-1.2.8s-.4.8-.3,1.2c0,.5.3.8.6,1.1.3.2.8.3,1.3.2l5.3-.8c.4,0,.8-.3,1.1-.6.3-.3.4-.7.3-1.2,0-.3-.1-.5-.2-.7s-.3-.3-.4-.4c-.1-.1-.3-.2-.4-.2-.2,0-.3-.1-.4-.1l-.4-2.8,12.1-1.8,1.4,9.2h0Z"/>
  <path class="st1" d="M427.1,193.1c.8,0,1.5,0,2.1.2s1.2.5,1.6.9.8.9,1.1,1.5c.3.6.4,1.2.5,1.8,0,.6,0,1.3-.2,1.8s-.4,1.1-.8,1.6-.9.9-1.4,1.2c-.6.3-1.2.5-2,.6l-13.3,1.2c-.8,0-1.5,0-2.1-.2s-1.2-.5-1.6-.9-.8-.9-1.1-1.5c-.3-.6-.4-1.2-.5-1.8,0-.6,0-1.3.2-1.8.2-.6.4-1.1.8-1.6s.9-.9,1.4-1.2c.6-.3,1.2-.5,2-.6l13.3-1.2h0ZM414.1,197.5c-.5,0-.8.2-1.1.5-.3.3-.4.7-.4,1.2s.2.8.6,1.1.7.4,1.2.3l13.3-1.2c.5,0,.8-.2,1.1-.5.3-.3.4-.7.4-1.2s-.2-.8-.6-1.1-.7-.4-1.2-.3l-13.3,1.2h0Z"/>
  <path class="st1" d="M419.8,211.7c.5,0,1,.2,1.4.6.4.4.6.9.6,1.4s-.2,1-.6,1.4-.9.6-1.4.6-1-.2-1.4-.6c-.4-.4-.6-.9-.6-1.4s.2-1,.6-1.4.9-.6,1.4-.6h0Z"/>
  <path class="st1" d="M419.9,217.7c.5,0,1,.2,1.4.6.4.4.6.9.6,1.4s-.2,1-.6,1.4-.9.6-1.4.6-1-.2-1.4-.6-.6-.9-.6-1.4.2-1,.6-1.4.9-.6,1.4-.6h0Z"/>
  <path class="st1" d="M419.7,223.8c.5,0,1,.2,1.4.7s.6.9.5,1.5c0,.5-.2,1-.7,1.4-.4.4-.9.6-1.5.5-.5,0-1-.2-1.4-.7s-.6-.9-.5-1.5c0-.5.2-1,.7-1.4s.9-.6,1.5-.5Z"/>
  <path class="st1" d="M426.2,236.9c.6,0,1.1.2,1.6.2s.8.2,1.1.4c.3.1.6.3.8.5.2.2.5.4.7.6.5.5.9,1.1,1.1,1.7.2.7.3,1.4.2,2.1,0,.7-.3,1.4-.7,2s-.9,1.1-1.5,1.4c-.3.2-.6.3-.9.4-.3.1-.6.2-.9.3s-.7,0-1.1,0-1,0-1.6-.1c-.7,0-1.2-.2-1.7-.2s-.9-.2-1.2-.3-.6-.3-.9-.6-.5-.6-.8-1c-.3.3-.7.6-1,.8s-.7.3-1.1.4h-1.5c-.6,0-1.3-.1-2.1-.2-.7,0-1.3-.2-1.7-.2s-.8-.2-1.2-.3-.6-.2-.8-.4c-.2-.1-.4-.3-.7-.5-.5-.4-.9-1-1.2-1.7s-.4-1.5-.3-2.5c.1-.9.4-1.7.9-2.3s1-1.1,1.6-1.4c.3-.1.5-.2.8-.3.2,0,.5-.1.9-.2h1.2c.5,0,1,0,1.7.2.8,0,1.6.2,2.1.3.6,0,1.1.2,1.4.4.4.1.7.4,1,.6s.5.6.8,1c.4-.3.7-.6,1-.8s.7-.3,1-.4h1.3c.5,0,1,0,1.7.2h0ZM417.8,242.4c.4,0,.8,0,1.2-.3s.5-.6.6-1.1c0-.4,0-.8-.3-1.2-.3-.3-.6-.6-1.1-.6l-4.4-.5c-.4,0-.8,0-1.2.3-.3.3-.5.6-.6,1.1,0,.4,0,.8.3,1.2.3.3.6.6,1.1.6l4.4.5h0ZM426.7,243.5c.4,0,.8,0,1.2-.3.3-.3.5-.6.6-1.1,0-.4,0-.8-.3-1.2-.3-.3-.6-.6-1.1-.6l-3.3-.4c-.4,0-.8,0-1.2.3-.3.3-.5.6-.6,1.1,0,.4,0,.8.3,1.2.3.3.6.6,1.1.6l3.3.4Z"/>
  <path class="st1" d="M425.8,249.6c.8.1,1.4.4,1.9.8s1,.8,1.3,1.3.6,1.1.7,1.7.1,1.2,0,1.9c-.1.6-.3,1.2-.7,1.7s-.7,1-1.2,1.3c-.5.4-1.1.6-1.7.8-.6.2-1.3.2-2.1,0l-13.1-2.4c-.8-.1-1.4-.4-1.9-.8-.5-.4-1-.8-1.3-1.3s-.6-1.1-.7-1.7c-.1-.6-.1-1.2,0-1.9.1-.6.3-1.2.7-1.7.3-.5.7-1,1.2-1.3.5-.4,1.1-.6,1.7-.8s1.3-.2,2.1,0l13.1,2.4h0ZM412.2,250.4c-.5,0-.9,0-1.2.2-.4.2-.6.6-.7,1,0,.5,0,.9.2,1.2s.6.6,1.1.6l13.1,2.4c.5,0,.9,0,1.2-.2.4-.2.6-.6.7-1,0-.5,0-.9-.2-1.2s-.6-.6-1.1-.6l-13.1-2.4h0Z"/>
  <path class="st1" d="M423.5,261.9c.7.2,1.4.5,1.9.9s.9.9,1.2,1.4c.3.5.5,1.1.6,1.7s0,1.2-.1,1.9c-.1.6-.4,1.2-.8,1.7s-.8.9-1.3,1.3c-.5.3-1.1.6-1.7.7s-1.3,0-2.1,0l-12.9-3.1c-.7-.2-1.4-.5-1.9-.9s-.9-.9-1.2-1.4c-.3-.5-.5-1.1-.6-1.7s0-1.2.1-1.9.4-1.2.8-1.7.8-.9,1.3-1.3,1.1-.6,1.7-.7,1.3,0,2.1,0l12.9,3.1h0ZM409.8,262c-.5-.1-.9,0-1.2.2s-.6.5-.7,1,0,.9.2,1.2c.2.4.6.6,1,.7l12.9,3.1c.5.1.9,0,1.2-.2s.6-.5.7-1,0-.9-.2-1.2c-.2-.4-.6-.6-1-.7l-12.9-3.1h0Z"/>
  <path class="st1" d="M410.6,277.2c.5.2.9.5,1.2,1,.3.5.3,1,.1,1.6s-.5.9-1,1.2c-.5.3-1,.3-1.6.1-.5-.2-.9-.5-1.2-1-.3-.5-.3-1-.1-1.6s.5-.9,1-1.2c.5-.3,1-.3,1.6-.1h0Z"/>
  <path class="st1" d="M408.7,282.9c.5.2.9.5,1.1,1.1.2.5.3,1,0,1.6s-.5.9-1.1,1.1c-.5.2-1,.3-1.6,0-.5-.2-.9-.5-1.1-1.1-.2-.5-.3-1,0-1.6s.5-.9,1.1-1.1c.5-.2,1-.3,1.6,0Z"/>
  <path class="st1" d="M406.7,288.6c.5.2.9.6,1.1,1.1s.2,1,0,1.6c-.2.5-.6.9-1.1,1.1s-1,.2-1.6,0-.9-.6-1.1-1.1-.2-1,0-1.6c.2-.5.6-.9,1.1-1.1s1-.2,1.6,0Z"/>
  <path class="st1" d="M408.5,303.1c.6.3,1,.5,1.4.7s.7.5.9.7c.2.2.4.5.6.7s.3.5.5.8c.3.6.5,1.3.5,2s-.2,1.4-.5,2.1-.8,1.2-1.3,1.7-1.2.7-1.9.9-.7.1-1,.1h-.9c-.3,0-.7-.1-1.1-.3-.4-.2-.9-.4-1.4-.6-.6-.3-1.1-.5-1.5-.8-.4-.2-.8-.5-1-.7s-.5-.5-.7-.9-.3-.7-.4-1.2c-.4.2-.8.4-1.2.4h-1.2c-.4,0-.9-.2-1.4-.5-.5-.2-1.2-.5-2-.9-.6-.3-1.1-.6-1.5-.8-.4-.2-.7-.4-1-.6s-.5-.4-.7-.6-.3-.4-.5-.7c-.3-.6-.5-1.2-.6-2s0-1.6.5-2.4c.4-.9.9-1.5,1.6-1.9.6-.4,1.3-.7,1.9-.8h.8c.2,0,.6,0,.9.1.3,0,.7.2,1.1.4.4.2,1,.4,1.6.7.8.4,1.4.7,1.9,1s.9.5,1.3.8.6.6.7.9c.2.3.3.7.4,1.2.5-.2.9-.3,1.2-.4h1.1c.4,0,.8.2,1.2.4.4.2,1,.4,1.6.7h0v-.2h.1ZM398.9,305.6c.4.2.8.2,1.2,0s.7-.4.9-.8c.2-.4.2-.8,0-1.2-.1-.4-.4-.7-.8-.9l-4-1.9c-.4-.2-.8-.2-1.2,0s-.7.4-.9.8c-.2.4-.2.8,0,1.2.1.4.4.7.8.9l4,1.9ZM406.9,309.5c.4.2.8.2,1.2,0s.7-.4.9-.8c.2-.4.2-.8,0-1.2-.1-.4-.4-.7-.8-.9l-3-1.4c-.4-.2-.8-.2-1.2,0s-.7.4-.9.8c-.2.4-.2.8,0,1.2.1.4.4.7.8.9l3,1.4Z"/>
  <path class="st1" d="M403.5,325.7l-2.7-1.5,3.1-5.6-5.3-3c.1.4.1.9,0,1.4s-.2,1-.5,1.5c-.5,1-1.3,1.6-2.2,1.9s-2,0-3.1-.6l-5.1-2.8c-.7-.4-1.2-.8-1.6-1.3s-.7-1.1-.8-1.7c-.2-.6-.2-1.2,0-1.8s.3-1.2.6-1.8.7-1,1.2-1.4,1-.7,1.6-.9,1.2-.2,1.9-.2,1.3.3,2,.6l.8.5-1.6,2.8-.7-.4c-.5-.3-.9-.3-1.4-.2-.4.1-.7.4-1,.8s-.3.8-.2,1.2.4.7.9,1l4.6,2.6c.4.2.8.3,1.2.2s.7-.3,1-.7c.1-.2.2-.5.2-.7v-.6c0-.2-.1-.3-.2-.4-.1-.2-.2-.3-.2-.3l1.4-2.5,10.7,5.9-4.5,8.1h0Z"/>
  <path class="st1" d="M397.9,326c.6.4,1.1.9,1.5,1.4s.6,1.1.7,1.7.1,1.2,0,1.8c-.1.6-.4,1.2-.7,1.7-.3.5-.8,1-1.3,1.4s-1.1.6-1.7.8-1.2.2-1.9,0-1.3-.3-1.9-.8l-11.2-7.1c-.6-.4-1.1-.9-1.5-1.4s-.6-1.1-.7-1.7-.1-1.2,0-1.8.4-1.2.7-1.7.8-1,1.3-1.4,1.1-.6,1.7-.8,1.2-.2,1.9,0,1.3.3,1.9.8l11.2,7.1ZM385,321.6c-.4-.2-.8-.3-1.2-.2s-.8.3-1,.7c-.2.4-.3.8-.2,1.2,0,.4.3.7.7,1l11.2,7.1c.4.2.8.3,1.2.2.4,0,.8-.3,1-.7.2-.4.3-.8.2-1.2s-.3-.7-.7-1l-11.2-7.1Z"/>
  <path class="st1" d="M380.8,336.3c.4.3.7.8.8,1.3,0,.6,0,1.1-.4,1.5-.3.4-.8.7-1.3.8-.6,0-1.1,0-1.5-.4-.4-.3-.7-.8-.8-1.3,0-.6,0-1.1.4-1.5.3-.4.8-.7,1.3-.8.6,0,1.1,0,1.5.4Z"/>
  <path class="st1" d="M377.2,341.1c.4.3.7.8.7,1.4s0,1.1-.4,1.5c-.3.4-.8.7-1.4.7s-1.1,0-1.5-.4c-.4-.3-.7-.8-.7-1.4s0-1.1.4-1.5c.3-.4.8-.7,1.4-.7s1.1,0,1.5.4Z"/>
  <path class="st1" d="M373.4,345.8c.4.4.7.8.7,1.4s0,1.1-.5,1.5-.8.7-1.4.7-1.1,0-1.5-.5c-.4-.4-.7-.8-.7-1.4s0-1.1.5-1.5.8-.7,1.4-.7,1.1,0,1.5.5Z"/>
  <path class="st1" d="M357.7,349.3l4.2,9.3h0c0-.1,0-.3.2-.5.1-.2.3-.4.6-.7s.9-.7,1.4-.8c.5-.2,1.1-.2,1.6,0,.3,0,.5.1.7.2s.5.3.8.5.7.5,1.1.9,1,.9,1.6,1.5l1.3,1.3c.3.3.6.7.8.9s.3.5.4.7.2.5.3.8c.2.8.2,1.6,0,2.4s-.6,1.5-1.3,2.1-1.3,1.1-2.1,1.3c-.8.2-1.5.3-2.3,0-.3,0-.5-.1-.8-.2-.2,0-.5-.2-.8-.4-.3-.2-.6-.5-.9-.8s-.8-.7-1.3-1.3l-1.2-1.2c-.3-.3-.6-.6-.8-.9-.2-.3-.4-.5-.5-.8-.1-.2-.3-.5-.4-.8l-5.2-11,2.5-2.6h0ZM366.1,360.4c-.3-.3-.7-.5-1.2-.5s-.8.2-1.1.5-.4.7-.5,1.1c0,.4.2.8.5,1.2l3,2.9c.3.3.7.5,1.2.5s.8-.2,1.1-.5c.3-.3.4-.7.5-1.1,0-.4-.2-.8-.5-1.2l-3-2.9Z"/>
  <path class="st1" d="M362.5,370c.5.6.9,1.2,1.1,1.8.2.6.3,1.2.2,1.8s-.2,1.2-.5,1.8-.7,1.1-1.1,1.5-1,.8-1.6,1-1.2.3-1.8.3-1.2-.1-1.8-.4c-.6-.3-1.2-.7-1.7-1.2l-9-9.8c-.5-.6-.9-1.2-1.1-1.8-.2-.6-.3-1.2-.2-1.8s.2-1.2.5-1.8.7-1.1,1.1-1.5,1-.8,1.6-1,1.2-.3,1.8-.3,1.2.1,1.8.4c.6.3,1.2.7,1.7,1.2l9,9.8h0ZM351.2,362.3c-.3-.3-.7-.5-1.1-.6-.4,0-.8.1-1.2.4-.3.3-.5.7-.5,1.1s.1.8.4,1.2l9,9.8c.3.3.7.5,1.1.6s.8-.1,1.2-.4c.3-.3.5-.7.5-1.1s-.1-.8-.5-1.2l-9-9.8h.1Z"/>
  <path class="st1" d="M353.2,378.4c.5.6.8,1.2,1,1.8s.2,1.2.1,1.9c0,.6-.3,1.2-.6,1.7-.3.5-.7,1-1.2,1.4s-1,.7-1.6.9c-.6.2-1.2.3-1.8.2s-1.2-.2-1.8-.5-1.1-.7-1.6-1.3l-8.4-10.3c-.5-.6-.8-1.2-1-1.8-.2-.6-.2-1.3-.1-1.9s.3-1.2.6-1.7c.3-.5.7-1,1.2-1.4s1-.7,1.6-.9c.6-.2,1.2-.3,1.8-.2s1.2.2,1.8.5,1.1.7,1.6,1.3l8.4,10.3h0ZM342.3,370.1c-.3-.4-.7-.6-1.1-.6s-.8,0-1.2.4c-.4.3-.6.7-.6,1.1s0,.8.4,1.2l8.4,10.3c.3.4.7.6,1.1.6s.8,0,1.2-.4.6-.7.6-1.1,0-.8-.4-1.2l-8.4-10.3h0Z"/>
  <path class="st1" d="M333.6,382.7c.3.5.4,1,.3,1.5s-.4,1-.8,1.3-1,.4-1.5.3-1-.4-1.3-.8-.4-1-.3-1.5.4-1,.8-1.3,1-.4,1.5-.3,1,.4,1.3.8Z"/>
  <path class="st1" d="M328.7,386.1c.3.5.4,1,.3,1.5-.1.6-.4,1-.9,1.3s-1,.4-1.5.3c-.6-.1-1-.4-1.3-.9s-.4-1-.3-1.5c.1-.6.4-1,.9-1.3s1-.4,1.5-.3c.6.1,1,.4,1.3.9Z"/>
  <path class="st1" d="M323.6,389.3c.3.5.4,1,.2,1.5-.1.6-.4,1-.9,1.3s-1,.4-1.5.2c-.6-.1-1-.4-1.3-.9s-.4-1-.2-1.5c.1-.6.4-1,.9-1.3s1-.4,1.5-.2c.6.1,1,.4,1.3.9Z"/>
  <path class="st1" d="M307.6,387.6l1,10.1h0s.2-.2.3-.4c.2-.1.4-.3.7-.5.5-.3,1-.4,1.6-.4s1.1.2,1.5.4c.2.1.4.3.6.4.2.2.4.4.6.7.2.3.5.7.8,1.2s.6,1.2,1,2c.3.7.6,1.2.8,1.6s.3.8.4,1.2c.1.3.2.6.2.8v.8c0,.8-.3,1.6-.8,2.2s-1.1,1.2-1.9,1.6-1.6.6-2.4.6-1.5-.2-2.2-.7c-.2-.2-.5-.3-.7-.5l-.6-.6c-.2-.3-.4-.6-.6-1s-.5-1-.9-1.6c-.3-.6-.6-1.1-.8-1.6s-.3-.8-.4-1.1c0-.3-.2-.6-.2-.9s0-.6-.1-.9l-1.4-12.1,3.2-1.7h0l.3.4ZM312,400.9c-.2-.4-.5-.7-1-.8-.4-.1-.8,0-1.2.1-.4.2-.6.5-.8.9s-.1.8.1,1.3l1.9,3.7c.2.4.5.7,1,.8s.8,0,1.2-.1c.4-.2.6-.5.8-.9s.1-.8-.1-1.3l-1.9-3.7Z"/>
  <path class="st1" d="M298.5,416.9l-1.2-2.8,5.9-2.6-2.4-5.6c-.1.4-.4.8-.7,1.1-.3.4-.8.7-1.3.9-1,.4-2,.5-2.9.2s-1.6-1.1-2.1-2.3l-2.3-5.4c-.3-.7-.5-1.4-.4-2,0-.6.1-1.3.4-1.8s.6-1.1,1-1.5,1-.8,1.5-1c.6-.3,1.2-.4,1.8-.4s1.2,0,1.8.3,1.1.5,1.6,1c.5.4.9,1,1.2,1.7l.4.9-3,1.3-.3-.8c-.2-.5-.5-.8-.9-1s-.8-.1-1.3,0c-.4.2-.7.5-.9.9-.1.4,0,.8.1,1.3l2.1,4.9c.2.4.5.7.9.9.4.2.8.2,1.2,0s.4-.2.6-.4c.1-.2.2-.3.3-.5v-.9l2.6-1.1,4.9,11.2-8.5,3.7h0v-.2h-.1Z"/>
  <path class="st1" d="M294,413.7c.3.7.4,1.4.3,2,0,.6-.2,1.3-.5,1.8s-.6,1-1.1,1.4-1,.7-1.6.9-1.2.3-1.8.3-1.2-.1-1.8-.4c-.6-.2-1.1-.6-1.5-1.1-.5-.5-.8-1.1-1.1-1.8l-4.6-12.5c-.3-.7-.4-1.4-.3-2,0-.6.2-1.3.5-1.8.3-.6.6-1,1.1-1.4s1-.7,1.6-.9c.6-.2,1.2-.3,1.8-.3s1.2.1,1.8.4c.6.2,1.1.6,1.5,1.1.5.5.8,1.1,1.1,1.8l4.6,12.5ZM286.3,402.4c-.2-.4-.4-.7-.8-.9-.4-.2-.8-.2-1.2,0s-.7.4-.9.8c-.2.4-.2.8,0,1.2l4.6,12.5c.2.4.4.7.8.9.4.2.8.2,1.2,0s.7-.4.9-.8.2-.8,0-1.2l-4.6-12.5Z"/>
  <path class="st1" d="M274.1,411.5c.1.5,0,1-.2,1.5s-.7.8-1.2,1c-.5.1-1,0-1.5-.2s-.8-.7-1-1.2c-.1-.5,0-1,.2-1.5s.7-.8,1.2-1c.5-.1,1,0,1.5.2s.8.7,1,1.2Z"/>
  <path class="st1" d="M268.2,413.2c.1.5,0,1-.2,1.5-.3.5-.7.8-1.2.9s-1,0-1.5-.2-.8-.7-.9-1.2,0-1,.2-1.5c.3-.5.7-.8,1.2-.9s1,0,1.5.2.8.7.9,1.2Z"/>
  <path class="st1" d="M262.4,414.6c.1.5,0,1-.3,1.5s-.7.8-1.3.9c-.5.1-1,0-1.5-.3s-.8-.7-.9-1.3c-.1-.5,0-1,.3-1.5s.7-.8,1.3-.9c.5-.1,1,0,1.5.3s.8.7.9,1.3Z"/>
  <path class="st1" d="M245.2,408.2l2.7,19,2.9-2.8.5,3.4-2.9,2.8-3.2.5-3.2-22.4,3.2-.5h0Z"/>
  <path class="st1" d="M239,427.2c0,.8,0,1.5-.2,2.1s-.5,1.2-.9,1.6-.9.8-1.5,1.1c-.6.3-1.2.4-1.8.5-.6,0-1.3,0-1.9-.2-.6-.2-1.1-.5-1.6-.8-.5-.4-.9-.9-1.2-1.4s-.5-1.2-.6-2l-1.1-13.3c0-.8,0-1.5.2-2.1s.5-1.2.9-1.6.9-.8,1.5-1.1c.6-.3,1.2-.4,1.8-.5s1.3,0,1.9.2c.6.2,1.1.5,1.6.8.5.4.9.9,1.2,1.4s.5,1.2.6,2l1.1,13.3h0ZM234.7,414.2c0-.5-.2-.8-.5-1.1s-.7-.4-1.2-.4-.8.2-1.1.6c-.3.3-.4.7-.3,1.2l1.1,13.3c0,.5.2.8.5,1.1.3.3.7.4,1.2.4s.8-.2,1.1-.6.4-.7.3-1.2l-1.1-13.3h0Z"/>
  <path class="st1" d="M226.5,428.1c0,.8,0,1.4-.3,2-.2.6-.6,1.1-1,1.6s-.9.8-1.5,1-1.2.4-1.8.4-1.3,0-1.8-.3c-.6-.2-1.1-.5-1.6-.9s-.8-.9-1.1-1.5-.4-1.3-.4-2l-.3-13.3c0-.8,0-1.4.3-2,.2-.6.6-1.1,1-1.6s.9-.8,1.5-1,1.2-.4,1.8-.4,1.3,0,1.8.3c.6.2,1.1.5,1.6.9s.8.9,1.1,1.5.4,1.3.4,2l.3,13.3ZM222.9,414.9c0-.5-.2-.9-.5-1.2s-.7-.4-1.2-.4-.8.2-1.1.5-.4.7-.4,1.2l.3,13.3c0,.5.2.8.5,1.2.3.3.7.4,1.2.4s.8-.2,1.1-.5.4-.7.4-1.2l-.3-13.3h0Z"/>
  <path class="st1" d="M213.9,428.4c0,.8-.2,1.4-.5,2s-.7,1.1-1.1,1.5-1,.7-1.6.9-1.2.3-1.8.3-1.2-.1-1.8-.4c-.6-.2-1.1-.6-1.5-1s-.8-1-1-1.6-.4-1.3-.3-2l.4-13.3c0-.8.2-1.4.5-2s.7-1.1,1.1-1.5,1-.7,1.6-.9,1.2-.3,1.8-.3,1.2.1,1.8.4c.6.2,1.1.6,1.5,1s.8,1,1,1.6.4,1.3.3,2l-.4,13.3ZM211.1,415c0-.5-.1-.9-.4-1.2s-.7-.5-1.1-.5-.9.1-1.2.4-.5.7-.5,1.1l-.4,13.3c0,.5.1.9.4,1.2s.7.5,1.1.5.9-.1,1.2-.4.5-.7.5-1.1l.4-13.3h0Z"/>
  <path class="st1" d="M196.3,418.9c0,.5-.3,1-.8,1.4s-.9.5-1.5.4-1-.3-1.4-.8-.5-.9-.4-1.5.3-1,.8-1.4.9-.5,1.5-.4,1,.3,1.4.8.5.9.4,1.5Z"/>
  <path class="st1" d="M190.3,418.2c0,.5-.3,1-.8,1.3s-1,.5-1.5.4c-.5,0-1-.3-1.3-.8s-.5-1-.4-1.5c0-.5.3-1,.8-1.3s1-.5,1.5-.4c.5,0,1,.3,1.3.8s.5,1,.4,1.5Z"/>
  <path class="st1" d="M184.3,417.3c0,.5-.4,1-.8,1.3-.5.3-1,.4-1.5.4s-1-.4-1.3-.8c-.3-.5-.4-1-.4-1.5s.4-1,.8-1.3c.5-.3,1-.4,1.5-.4s1,.4,1.3.8c.3.5.4,1,.4,1.5Z"/>
</svg>