<?xml version="1.0" encoding="UTF-8"?><svg xmlns="http://www.w3.org/2000/svg" viewBox="0 0 424.05 424.03"><g isolation="isolate"><g id="Layer_2"><g id="Layer_1-2"><g mix-blend-mode="darken"><circle cx="212.02" cy="212.01" r="194.99" fill="none"/><path d="M164.74,401.23l-2.9,11.48,2.3-.94-.52,2.05-2.3.94-1.94-.49,3.42-13.53,1.94.49Z" fill="#fff"/><path d="M156.87,410.02l-.94,3.32-1.51-.43.94-3.32,1.51.43Z" fill="#fff"/><path d="M153.23,398.01l-.59,1.79-5.57,5.31c-.28.26-.47.51-.58.75s-.22.53-.34.89c-.05.16-.11.33-.16.51-.05.18-.07.35-.06.51.02.16.07.3.16.44.09.13.26.24.49.32.29.09.54.09.76-.02.22-.11.38-.31.49-.62l.36-1.08,1.9.63-.35,1.04c-.13.4-.33.74-.59,1.04-.26.3-.57.53-.92.71-.33.18-.7.29-1.1.33-.4.04-.8,0-1.19-.14-.5-.17-.89-.4-1.18-.69-.29-.3-.51-.64-.64-1.03-.12-.38-.17-.79-.14-1.22.03-.43.11-.87.26-1.32.11-.32.2-.59.29-.8s.18-.41.28-.6c.1-.19.23-.36.38-.53.15-.17.35-.37.59-.61l4.58-4.45-3.42-1.14.63-1.9,5.65,1.88Z" fill="#fff"/><path d="M142.47,405.44l-1.18,3.24-1.47-.54,1.18-3.24,1.47.54Z" fill="#fff"/><path d="M134.43,399.73c-.55-.23-.97-.33-1.23-.28-.27.04-.5.31-.7.79l-.69,1.66c-.11.27-.12.52-.03.75.09.24.28.41.55.53.33.14.6.13.82-.02.22-.15.38-.32.46-.51l.44-1.05,1.84.77-.45,1.07c-.16.37-.38.7-.66.98-.29.28-.6.48-.96.62s-.73.21-1.13.21-.79-.07-1.18-.24c-.51-.21-.88-.49-1.13-.82-.25-.34-.41-.64-.5-.92-.06-.2-.11-.38-.14-.57-.03-.18-.03-.39,0-.62.06-.44.25-1.06.58-1.84.19-.45.35-.8.48-1.07.13-.27.27-.48.42-.63.17-.16.35-.27.56-.34.21-.07.47-.13.81-.17-.21-.3-.36-.56-.45-.78-.08-.22-.12-.45-.11-.68.02-.25.08-.52.19-.82.11-.3.26-.68.45-1.14.18-.42.33-.77.46-1.04.13-.27.26-.49.37-.65.12-.18.23-.32.35-.43s.25-.21.41-.32c.37-.24.78-.4,1.23-.48.45-.07.96,0,1.54.25.29.12.58.3.86.53.29.23.52.51.69.84.17.33.28.7.31,1.12s-.06.89-.27,1.39l-.44,1.05-1.85-.77.4-.96c.12-.29.14-.56.05-.82-.08-.26-.27-.44-.54-.56-.28-.12-.54-.11-.78,0s-.43.33-.56.65l-.77,1.84c-.21.51-.25.88-.13,1.12.07.14.19.26.37.37.18.1.42.22.72.34l-.68,1.63Z" fill="#fff"/><path d="M128.45,399.8l-1.42,3.15-1.43-.64,1.42-3.15,1.43.64Z" fill="#fff"/><path d="M123.52,385.81l-.94,1.85,3.55,1.8-.85,1.68-7.09,7.61-1.89-.96,7.19-7.56-1.77-.9-1.8,3.55-1.78-.9,1.8-3.55-.86-.43.85-1.68.86.43.94-1.85,1.78.9Z" fill="#fff"/><path d="M114.89,393.15l-1.64,3.03-1.38-.75,1.64-3.03,1.38.75Z" fill="#fff"/><path d="M101.69,389.51l.97-1.61,3.39,2.04,1.94-3.22c-.25.06-.53.07-.84.03s-.62-.15-.92-.34c-.58-.35-.95-.81-1.1-1.38-.15-.57-.01-1.21.41-1.92l1.86-3.09c.24-.4.53-.72.86-.95.33-.23.68-.38,1.05-.47s.74-.09,1.12-.02c.38.07.74.2,1.07.41.34.2.62.46.86.76s.41.64.51,1c.1.37.13.75.08,1.14-.05.4-.2.8-.44,1.2l-.3.5-1.71-1.03.26-.44c.18-.29.23-.57.17-.83-.06-.26-.23-.47-.48-.62s-.5-.2-.74-.12c-.23.07-.44.25-.6.53l-1.69,2.8c-.14.23-.19.48-.14.74.05.26.19.46.43.6.15.09.28.14.41.15.13,0,.25,0,.36-.02.11-.03.2-.07.28-.13.12-.07.19-.11.21-.12l1.51.91-3.89,6.44-4.9-2.96Z" fill="#fff"/><path d="M101.86,385.52l-1.86,2.9-1.32-.85,1.86-2.9,1.32.85Z" fill="#fff"/><path d="M89.54,381.33l5.24-3.47v-.05c-.09,0-.2-.02-.33-.07s-.29-.14-.47-.27c-.29-.2-.5-.46-.65-.77-.15-.31-.21-.62-.2-.94,0-.17.03-.33.07-.48s.11-.33.22-.54c.11-.21.27-.46.47-.76s.45-.68.77-1.12c.26-.37.49-.68.67-.91.18-.23.34-.42.47-.57.15-.15.29-.26.43-.35.13-.08.28-.16.44-.24.46-.2.94-.27,1.43-.21s.96.25,1.41.57c.45.32.78.7.99,1.15.21.45.3.92.28,1.41,0,.19-.03.36-.06.51s-.1.32-.2.51c-.08.18-.2.4-.36.64-.16.25-.37.56-.64.93-.25.35-.46.64-.63.86-.17.22-.33.41-.47.57-.13.14-.27.27-.41.37-.14.1-.28.21-.44.32l-6.2,4.21-1.82-1.29ZM95.48,375.14c-.17.25-.23.5-.18.76s.19.47.4.62c.21.15.45.21.72.17s.49-.18.66-.42l1.5-2.11c.17-.25.23-.5.18-.76s-.19-.47-.4-.62-.45-.21-.72-.17c-.27.04-.49.18-.66.42l-1.5,2.11Z" fill="#fff"/><path d="M89.43,376.95l-2.07,2.76-1.25-.94,2.07-2.76,1.25.94Z" fill="#fff"/><path d="M90.02,364.16l-10.39,7.08,1.69,1.4,1.02-1.24,1.36,1.12-2.22,2.69-4.6-3.79,1.27-1.54,10.22-7.07,1.63,1.35Z" fill="#fff"/><path d="M77.66,367.51l-2.27,2.6-1.18-1.03,2.27-2.6,1.18,1.03Z" fill="#fff"/><path d="M72.39,362.55c-.26.27-.49.5-.7.67-.2.18-.4.31-.58.41-.18.1-.36.17-.53.23s-.36.1-.57.13c-.42.07-.84.03-1.26-.1-.41-.13-.79-.36-1.12-.67s-.57-.68-.73-1.09c-.15-.41-.21-.82-.16-1.25.02-.21.06-.41.1-.58.04-.18.11-.36.2-.54.09-.19.22-.38.39-.59.17-.21.39-.45.65-.72.29-.3.54-.55.75-.75.21-.2.41-.36.61-.47.2-.12.41-.19.63-.22.22-.03.48-.04.79-.02-.04-.29-.05-.56-.02-.78.03-.23.1-.45.23-.68.12-.22.31-.47.54-.74.24-.27.54-.59.9-.97.3-.31.55-.56.76-.75.21-.19.4-.35.57-.47.17-.12.33-.21.49-.27.15-.05.32-.1.5-.14.4-.09.82-.09,1.28.02.46.1.9.36,1.33.77.43.41.7.84.83,1.29.13.45.15.88.08,1.28-.03.19-.07.35-.12.51-.05.15-.13.32-.25.5-.12.18-.26.38-.44.59-.18.22-.42.48-.72.79-.36.38-.67.69-.93.94-.26.25-.5.44-.71.58-.22.13-.44.22-.67.26-.23.04-.49.04-.78.01.03.3.04.57.02.79-.02.22-.09.44-.19.64-.11.21-.25.42-.44.63-.19.22-.43.48-.72.78ZM68.98,360.38c-.19.2-.28.43-.27.71s.11.5.3.68c.19.18.42.27.69.27.27,0,.5-.1.69-.3l1.41-1.47c.19-.2.28-.43.27-.71s-.11-.5-.3-.68-.42-.27-.69-.27-.5.1-.69.3l-1.41,1.47ZM72.77,356.41c-.19.2-.28.43-.27.71.01.27.11.5.3.68s.42.27.69.27.5-.1.69-.3l1.9-1.98c.19-.2.28-.43.27-.71-.01-.27-.11-.5-.3-.68-.19-.18-.42-.27-.69-.27-.27,0-.5.1-.69.3l-1.9,1.98Z" fill="#fff"/><path d="M66.61,357.22l-2.45,2.43-1.1-1.11,2.45-2.43,1.1,1.11Z" fill="#fff"/><path d="M68.88,344.44l-5.87,2.25v.06c.08.01.18.06.3.14.12.08.25.2.4.37.24.26.39.56.47.9s.07.66,0,.96c-.04.16-.09.3-.17.44-.08.14-.19.3-.35.48-.15.19-.35.41-.61.66-.26.25-.59.56-1,.93-.34.31-.62.55-.85.74-.23.19-.43.34-.61.45-.16.11-.32.19-.46.25s-.31.1-.49.14c-.49.1-.98.06-1.44-.11-.47-.17-.89-.45-1.25-.86-.37-.41-.61-.85-.72-1.33s-.1-.96.04-1.43c.06-.17.11-.33.18-.48.06-.15.15-.3.27-.46.14-.16.31-.34.52-.55s.48-.46.82-.77c.32-.29.59-.52.81-.7.22-.18.41-.32.57-.44.18-.11.35-.2.5-.28.15-.08.32-.15.5-.22l6.97-2.76,1.5,1.66ZM61.73,349.19c.22-.2.34-.44.34-.7,0-.27-.08-.5-.26-.69s-.4-.3-.66-.32c-.27-.02-.51.07-.73.27l-1.92,1.74c-.22.2-.34.44-.34.7s.08.5.26.69c.18.19.4.3.66.32s.51-.07.73-.27l1.92-1.74Z" fill="#fff"/><path d="M56.34,346.16l-2.62,2.24-1.02-1.19,2.62-2.24,1.02,1.19Z" fill="#fff"/><path d="M58.52,332.27l-9.34,7.28,2.39.67-1.67,1.3-2.39-.67-1.23-1.58,11.01-8.58,1.23,1.58Z" fill="#fff"/><path d="M46.6,334.95c-.38.28-.77.45-1.16.54-.39.08-.77.09-1.15.02s-.72-.21-1.04-.42-.6-.48-.83-.79-.39-.66-.49-1.03c-.1-.37-.12-.75-.07-1.12s.18-.74.38-1.08c.2-.35.49-.66.87-.93l6.64-4.8c.38-.28.77-.45,1.16-.54.39-.08.77-.09,1.15-.02s.72.21,1.04.42.6.48.83.79.39.66.49,1.03c.1.37.12.75.07,1.12s-.18.74-.38,1.08c-.2.35-.49.66-.87.93l-6.64,4.8ZM52.07,328.53c.23-.17.37-.38.42-.64s-.01-.51-.18-.74c-.17-.23-.38-.37-.64-.41-.26-.04-.51.03-.74.2l-6.64,4.8c-.23.17-.37.38-.42.64s.01.51.18.74c.17.23.38.37.64.41s.51-.03.74-.2l6.64-4.8Z" fill="#fff"/><path d="M42.5,328.2l-2.85,1.94-.88-1.3,2.85-1.94.88,1.3Z" fill="#fff"/><path d="M46.19,314.64l-10.08,6.21,2.3.93-1.8,1.11-2.3-.93-1.05-1.7,11.88-7.32,1.05,1.7Z" fill="#fff"/><path d="M42.53,308.5l-10.3,5.83,2.26,1.02-1.84,1.04-2.26-1.02-.99-1.74,12.14-6.88.99,1.74Z" fill="#fff"/><path d="M30.74,308.88l-3.05,1.62-.73-1.38,3.05-1.62.73,1.38Z" fill="#fff"/><path d="M35.9,295.8l-10.7,5.06,2.18,1.18-1.91.9-2.18-1.18-.85-1.81,12.62-5.96.85,1.81Z" fill="#fff"/><path d="M33.87,291.45l-1.73.74-7.67-.64c-.38-.03-.7-.01-.94.06-.24.08-.54.19-.89.34-.16.07-.32.14-.49.22-.17.08-.31.18-.42.3s-.18.25-.22.41c-.04.16,0,.35.09.58.12.28.29.46.52.56.23.1.49.08.79-.05l1.04-.45.79,1.84-1.01.43c-.38.16-.78.25-1.17.25s-.78-.07-1.14-.22c-.35-.13-.68-.33-.97-.61-.29-.27-.52-.6-.69-.98-.21-.48-.29-.93-.27-1.35.03-.42.14-.8.35-1.16.21-.34.48-.65.82-.92.34-.27.73-.49,1.16-.68.31-.13.58-.24.79-.32.22-.08.43-.14.63-.19.21-.05.43-.07.65-.07.23,0,.51.02.85.04l6.36.47-1.42-3.31,1.84-.79,2.35,5.48Z" fill="#fff"/><path d="M21.17,288.35l-3.21,1.27-.58-1.46,3.21-1.27.58,1.46Z" fill="#fff"/><path d="M27.74,275.92l-11.2,3.84,2.04,1.41-2,.69-2.04-1.41-.65-1.89,13.2-4.53.65,1.89Z" fill="#fff"/><path d="M17.79,271.45c-.17-.58-.36-.95-.57-1.13-.2-.18-.56-.19-1.06-.04l-1.73.52c-.27.08-.47.24-.6.46s-.14.48-.06.76c.1.34.28.55.54.63.26.08.48.09.68.03l1.09-.33.58,1.91-1.11.33c-.39.12-.78.15-1.17.11-.4-.04-.76-.16-1.09-.35s-.62-.43-.88-.74c-.26-.3-.44-.66-.57-1.06-.16-.53-.19-.99-.08-1.4.1-.41.23-.73.39-.97.11-.17.23-.33.35-.46s.28-.27.47-.4c.38-.24.97-.48,1.79-.72.46-.14.84-.24,1.13-.31.29-.07.54-.09.76-.07.23.03.43.1.62.21s.4.29.65.51c.1-.36.2-.64.32-.84s.27-.38.46-.52c.2-.14.46-.27.76-.37s.69-.23,1.17-.37c.44-.13.8-.23,1.1-.3s.54-.11.74-.13c.21-.02.4-.02.55,0,.16.02.33.06.51.11.42.13.8.35,1.15.65.34.3.61.75.79,1.35.09.3.14.63.14,1,0,.37-.07.72-.21,1.07-.14.34-.37.66-.67.95-.31.29-.72.52-1.25.67l-1.09.33-.58-1.91.99-.3c.3-.09.52-.25.66-.48.14-.23.17-.48.08-.77s-.25-.49-.5-.6c-.24-.11-.53-.12-.85-.02l-1.91.58c-.53.16-.84.36-.94.61-.07.14-.08.31-.05.52s.1.46.19.77l-1.69.51Z" fill="#fff"/><path d="M13.93,266.88l-3.33.91-.41-1.51,3.33-.91.41,1.51Z" fill="#fff"/><path d="M21.84,255.28l-11.55,2.58,1.87,1.63-2.07.46-1.87-1.63-.44-1.95,13.62-3.04.44,1.95Z" fill="#fff"/><path d="M20.19,247.15l-2.04.38.72,3.91-1.85.34-10.35-1.02-.38-2.08,10.37,1.13-.36-1.95-3.91.72-.36-1.97,3.91-.72-.17-.94,1.85-.34.17.94,2.04-.38.36,1.97Z" fill="#fff"/><path d="M9.12,244.75l-3.41.53-.24-1.55,3.41-.53.24,1.55Z" fill="#fff"/><path d="M18.26,234.09l-11.77,1.29,1.68,1.83-2.1.23-1.68-1.83-.22-1.99,13.87-1.52.22,1.99Z" fill="#fff"/><path d="M3.41,224.38l1.88-.14.29,3.95,3.75-.27c-.2-.17-.37-.39-.51-.67-.14-.28-.23-.59-.26-.94-.05-.68.12-1.24.5-1.7.38-.45.98-.71,1.8-.77l3.6-.26c.47-.03.89.02,1.27.15.38.14.71.33.99.59.28.25.5.56.67.9.16.35.26.72.29,1.11.03.39-.01.77-.12,1.14-.11.37-.29.7-.53.99-.24.29-.54.53-.89.72s-.76.3-1.23.33l-.59.04-.15-1.99.51-.04c.34-.02.6-.14.77-.34s.25-.45.23-.75c-.02-.3-.13-.52-.32-.67-.19-.15-.45-.21-.78-.19l-3.26.24c-.27.02-.5.12-.68.31-.18.19-.26.42-.24.7.01.17.05.31.12.42.07.11.14.21.23.28.08.07.17.12.27.16.12.06.2.09.22.1l.13,1.76-7.51.54-.41-5.71Z" fill="#fff"/><path d="M6.77,222.21l-3.45.16-.07-1.57,3.45-.16.07,1.57Z" fill="#fff"/><path d="M17.04,212.66l-11.84.19,1.5,1.98-2.12.03-1.5-1.98-.03-2,13.95-.23.03,2Z" fill="#fff"/><path d="M3.29,202.09l5.77,2.48.04-.04c-.05-.07-.09-.17-.12-.31s-.04-.32-.03-.54c.01-.35.11-.68.29-.97.18-.29.4-.52.67-.68.15-.09.29-.15.44-.2.15-.05.34-.09.57-.12.24-.02.53-.03.89-.03.36,0,.81,0,1.36.03.46.02.83.04,1.13.06.29.02.54.05.73.09.21.05.38.1.52.17.14.06.29.14.44.24.42.28.74.64.96,1.08s.32.94.3,1.49c-.02.55-.16,1.03-.42,1.46-.26.42-.6.76-1.03,1-.16.1-.31.17-.46.23-.15.05-.32.09-.53.11-.2.03-.44.05-.74.05-.29,0-.67,0-1.13-.02-.43-.02-.79-.04-1.07-.06-.28-.02-.52-.05-.73-.09-.2-.03-.37-.08-.53-.14-.16-.06-.33-.12-.51-.19l-6.92-2.88.08-2.23ZM11.73,203.67c-.3-.01-.55.08-.74.27-.19.19-.29.41-.3.68,0,.26.07.49.25.7.18.2.41.31.71.32l2.59.09c.3.01.55-.08.74-.27.19-.19.29-.41.3-.68,0-.26-.07-.49-.25-.7-.18-.2-.41-.31-.71-.32l-2.59-.09Z" fill="#fff"/><path d="M6.89,199.61l-3.44-.22.1-1.56,3.44.22-.1,1.56Z" fill="#fff"/><path d="M18.13,191.15l-11.77-1.29,1.24,2.15-2.1-.23-1.24-2.15.22-1.99,13.87,1.52-.22,1.99Z" fill="#fff"/><path d="M18.74,185.95l-11.44-5.22-.32,2.17,1.59.23-.26,1.75-3.45-.51.87-5.9,1.98.29,11.34,5.09-.31,2.09Z" fill="#fff"/><path d="M9.48,177.09l-3.4-.6.27-1.54,3.4.6-.27,1.54Z" fill="#fff"/><path d="M21.58,169.93l-11.55-2.58,1,2.27-2.07-.46-1-2.27.44-1.95,13.62,3.04-.44,1.95Z" fill="#fff"/><path d="M12.67,162.67c-.37-.1-.68-.19-.93-.28-.25-.09-.47-.2-.64-.31-.17-.11-.32-.23-.45-.35-.13-.12-.26-.27-.39-.44-.26-.34-.44-.72-.52-1.15-.08-.43-.07-.86.05-1.3.12-.44.32-.83.6-1.16s.62-.58,1.02-.75c.2-.08.38-.15.56-.2s.37-.08.57-.09.44,0,.71.05c.26.05.58.12.95.22.4.11.74.2,1.02.29.27.09.51.19.71.31.2.12.37.27.5.45s.27.4.4.68c.24-.18.46-.31.67-.4.21-.09.45-.13.7-.13s.56.04.91.12c.35.08.78.18,1.28.32.42.11.76.21,1.03.3.27.09.5.18.69.27.19.09.35.19.47.3.12.11.24.23.37.37.27.3.47.68.6,1.13.13.45.12.96-.03,1.53-.15.57-.39,1.02-.73,1.35s-.7.56-1.08.69c-.18.06-.35.11-.5.14-.16.03-.34.04-.55.03-.21-.02-.46-.05-.73-.1s-.62-.13-1.04-.24c-.51-.13-.93-.25-1.27-.35-.34-.1-.63-.22-.85-.34-.22-.13-.41-.28-.55-.46-.14-.18-.27-.41-.39-.68-.25.18-.48.31-.68.4-.21.09-.42.14-.66.14-.23,0-.49-.02-.77-.08-.28-.06-.62-.14-1.03-.25ZM12.91,158.64c-.27-.07-.51-.03-.75.11s-.38.34-.45.59c-.07.25-.03.5.1.74.13.24.33.39.6.46l1.97.52c.27.07.51.03.75-.11s.38-.34.45-.59c.07-.25.03-.5-.1-.74s-.33-.39-.6-.46l-1.97-.52ZM18.22,160.04c-.27-.07-.51-.03-.75.11-.23.14-.38.34-.45.59-.07.25-.03.5.1.74s.33.39.6.46l2.65.7c.27.07.51.03.75-.11.23-.14.38-.34.45-.59.07-.25.03-.5-.1-.74-.13-.24-.33-.39-.6-.46l-2.65-.7Z" fill="#fff"/><path d="M14.53,155.03l-3.31-.97.44-1.51,3.31.97-.44,1.5Z" fill="#fff"/><path d="M27.35,149.25l-11.2-3.84.74,2.37-2-.69-.74-2.37.65-1.89,13.2,4.53-.65,1.89Z" fill="#fff"/><path d="M29.19,144.04l-4.65-4.23-.05.02c.03.08.03.19,0,.33-.02.14-.07.31-.15.52-.13.33-.32.6-.59.82s-.55.36-.86.43c-.15.04-.31.06-.47.05-.16,0-.35-.04-.58-.1-.23-.05-.52-.13-.86-.25-.34-.12-.77-.27-1.28-.47-.43-.16-.77-.31-1.04-.42-.27-.12-.5-.23-.68-.34-.17-.09-.32-.2-.43-.3-.11-.11-.23-.23-.34-.37-.31-.4-.49-.84-.56-1.34-.06-.49,0-1,.2-1.51s.49-.93.87-1.24c.38-.32.81-.52,1.3-.61.18-.03.35-.05.51-.06s.33,0,.53.04c.2.05.45.12.73.22.28.09.63.22,1.06.39.4.15.73.29.99.4.26.11.47.22.65.31.18.11.34.22.48.32.14.1.28.22.42.34l5.6,4.97-.8,2.09ZM21.73,139.8c.28.11.54.1.78-.01.24-.12.41-.3.5-.54.09-.24.09-.49,0-.74-.1-.25-.29-.43-.57-.54l-2.41-.93c-.28-.11-.54-.1-.78.01s-.41.3-.5.54c-.09.24-.09.49,0,.74s.29.43.57.54l2.41.93Z" fill="#fff"/><path d="M22,133.65l-3.18-1.33.6-1.45,3.18,1.33-.6,1.45Z" fill="#fff"/><path d="M34.36,131.47l-1.7-.8-4.61-6.17c-.23-.31-.45-.53-.67-.66-.22-.13-.5-.28-.84-.44-.15-.07-.32-.15-.49-.22-.17-.07-.34-.11-.5-.12-.16,0-.31.03-.45.11-.14.08-.27.23-.38.45-.13.27-.15.52-.08.76s.27.42.56.56l1.03.49-.85,1.81-.99-.47c-.38-.18-.7-.42-.96-.72-.26-.3-.46-.63-.59-1-.14-.35-.2-.73-.19-1.13,0-.4.1-.79.28-1.17.22-.47.5-.84.83-1.09.33-.26.7-.43,1.1-.51.4-.07.81-.07,1.23,0,.43.08.85.22,1.28.42.31.15.56.27.76.38s.39.23.56.35c.17.12.33.27.48.44.15.17.33.39.53.66l3.86,5.08,1.54-3.26,1.81.85-2.55,5.39Z" fill="#fff"/><path d="M27.62,119.9c-.42-.22-.75-.48-1-.79-.25-.31-.43-.65-.53-1.02-.11-.36-.14-.74-.09-1.12.04-.38.16-.75.34-1.1.18-.35.41-.65.7-.91.29-.26.61-.45.97-.57.36-.12.74-.17,1.14-.15.4.02.81.14,1.23.36l7.27,3.77c.42.22.75.48,1,.8.25.31.43.65.53,1.02.11.36.14.74.09,1.12-.04.38-.16.75-.34,1.1-.18.35-.41.65-.7.91-.29.26-.61.45-.97.57-.36.12-.74.17-1.14.15-.4-.02-.81-.14-1.23-.36l-7.27-3.77ZM35.81,121.9c.25.13.51.16.76.09s.44-.24.58-.5c.13-.25.16-.51.07-.76-.08-.25-.25-.44-.51-.57l-7.27-3.77c-.25-.13-.51-.16-.76-.09s-.44.24-.58.5c-.13.26-.16.51-.07.76.08.25.25.44.51.57l7.27,3.77Z" fill="#fff"/><path d="M31.79,113.21l-3.02-1.67.76-1.37,3.02,1.67-.76,1.37Z" fill="#fff"/><path d="M44.31,112.44l-1.6-.99-3.9-6.64c-.19-.33-.39-.58-.59-.73-.2-.16-.47-.33-.79-.53-.14-.09-.3-.18-.46-.27-.17-.09-.33-.15-.48-.17-.16-.02-.31,0-.46.06-.15.06-.29.2-.42.41-.16.26-.21.5-.16.74.05.24.22.44.5.62l.97.6-1.05,1.7-.93-.58c-.36-.22-.65-.49-.88-.82-.23-.33-.39-.68-.48-1.05-.1-.37-.12-.75-.07-1.15.05-.4.19-.77.41-1.13.27-.45.59-.78.95-.99s.74-.35,1.15-.39c.4-.03.81.02,1.22.14.41.12.82.31,1.22.56.29.18.53.33.72.46.19.13.36.27.52.41.16.14.3.31.43.5.13.19.28.43.46.72l3.28,5.47,1.89-3.07,1.7,1.05-3.12,5.07Z" fill="#fff"/><path d="M49.41,104.36l-9.84-6.57.11,2.48-1.76-1.18-.11-2.48,1.11-1.66,11.6,7.75-1.11,1.66Z" fill="#fff"/><path d="M43.77,94l-2.81-1.99.91-1.28,2.82,1.99-.91,1.28Z" fill="#fff"/><path d="M56.31,94.58l-1.48-1.16-3.15-7.03c-.16-.35-.33-.62-.51-.8-.19-.18-.43-.38-.73-.62-.13-.1-.28-.21-.43-.32-.15-.11-.31-.19-.46-.22-.15-.04-.31-.03-.47,0-.16.04-.31.16-.47.36-.19.24-.26.48-.24.72.03.24.17.47.42.67l.9.7-1.23,1.58-.87-.67c-.33-.26-.59-.56-.78-.91-.19-.35-.31-.72-.36-1.1-.06-.37-.04-.76.06-1.15.1-.39.27-.75.53-1.08.32-.41.67-.71,1.05-.88s.77-.26,1.18-.26c.4.02.8.11,1.2.28s.78.4,1.15.69c.27.21.49.39.66.54s.33.31.47.47c.14.16.27.34.37.54.11.2.23.46.37.76l2.66,5.8,2.22-2.84,1.58,1.23-3.66,4.7Z" fill="#fff"/><path d="M60.73,88.95l-1.44-1.21-2.89-7.14c-.14-.36-.3-.63-.48-.81s-.41-.4-.7-.64c-.13-.11-.27-.22-.42-.34-.15-.12-.3-.2-.45-.24-.15-.04-.31-.04-.47,0-.16.04-.32.15-.48.34-.19.23-.28.47-.26.71s.15.47.4.68l.87.73-1.29,1.53-.84-.71c-.32-.27-.57-.58-.75-.94s-.29-.73-.32-1.11c-.04-.38,0-.76.1-1.14.11-.38.3-.74.57-1.06.34-.4.7-.68,1.08-.85.38-.16.78-.23,1.19-.21.4.03.8.14,1.19.32.39.18.77.43,1.13.73.26.22.47.41.64.56.17.16.32.32.45.48s.25.35.35.55c.1.2.22.46.35.78l2.45,5.89,2.32-2.76,1.53,1.29-3.83,4.56Z" fill="#fff"/><path d="M57.78,76.21l-2.58-2.29,1.04-1.17,2.58,2.29-1.04,1.17Z" fill="#fff"/><path d="M70.19,78.17l-1.35-1.31-2.36-7.33c-.12-.37-.26-.65-.42-.85-.16-.2-.38-.43-.65-.69-.12-.12-.25-.24-.39-.37-.14-.13-.28-.22-.43-.27-.15-.05-.3-.07-.46-.04s-.33.13-.5.3c-.21.22-.31.45-.32.69,0,.25.12.48.35.71l.81.79-1.39,1.43-.79-.77c-.3-.29-.53-.62-.68-.99s-.23-.75-.24-1.13c-.01-.38.05-.76.19-1.13.14-.38.35-.71.64-1.01.36-.37.74-.63,1.14-.76.4-.13.8-.18,1.2-.13.4.06.79.19,1.16.41.38.21.73.48,1.07.81.24.24.44.44.6.61.15.17.29.34.42.51s.23.37.31.58c.09.21.18.48.29.8l2.01,6.06,2.52-2.58,1.43,1.39-4.16,4.27Z" fill="#fff"/><path d="M71.34,65.57c.43-.42.69-.75.75-1.02s-.08-.58-.44-.96l-1.25-1.3c-.2-.21-.42-.32-.68-.33-.25-.01-.49.09-.71.3-.26.24-.36.5-.32.76.04.26.14.47.28.62l.79.82-1.45,1.38-.8-.84c-.28-.29-.49-.63-.63-1-.14-.37-.2-.75-.18-1.13s.1-.75.26-1.12c.16-.37.39-.69.69-.98.4-.38.8-.61,1.21-.71.41-.09.76-.12,1.04-.09.2.02.39.06.57.1.18.05.37.13.57.24.38.23.87.65,1.45,1.27.33.35.6.64.79.87s.33.44.41.64c.08.21.11.43.09.65-.02.22-.07.49-.16.81.36-.08.66-.11.9-.1.24.01.46.07.67.17.22.12.44.29.67.51s.52.51.86.87c.32.33.57.61.76.84.19.23.34.43.45.6.12.18.2.34.25.49.05.15.09.32.13.5.07.44.05.87-.06,1.32-.11.44-.39.88-.85,1.31-.23.22-.5.41-.83.58-.33.17-.68.27-1.05.29-.37.03-.75-.03-1.15-.17-.4-.14-.79-.41-1.17-.81l-.79-.82,1.45-1.38.72.75c.22.23.46.35.73.38.27.02.51-.07.73-.27.22-.21.32-.45.31-.71-.01-.27-.14-.52-.37-.77l-1.38-1.45c-.38-.4-.7-.58-.97-.56-.16,0-.32.07-.48.19-.16.12-.36.29-.6.52l-1.22-1.28Z" fill="#fff"/><path d="M73.67,60.07l-2.31-2.56,1.16-1.05,2.31,2.56-1.16,1.05Z" fill="#fff"/><path d="M85.77,63.37l-1.2-1.45-1.54-7.54c-.07-.38-.18-.67-.33-.89-.14-.21-.33-.47-.57-.76-.11-.13-.23-.27-.35-.41-.13-.14-.26-.25-.4-.32-.14-.07-.29-.1-.46-.09-.16,0-.34.09-.53.25-.23.19-.36.41-.39.65-.03.24.06.49.27.74l.72.88-1.54,1.27-.7-.85c-.27-.32-.45-.67-.57-1.06-.11-.38-.15-.77-.11-1.15.03-.38.13-.75.31-1.11.18-.36.43-.67.75-.94.4-.33.81-.54,1.22-.63.41-.09.81-.09,1.21,0,.39.1.76.28,1.11.53.35.25.68.56.98.92.22.26.39.49.53.67.14.19.25.37.36.56.1.19.19.39.25.61.06.22.13.5.2.83l1.33,6.24,2.78-2.29,1.27,1.54-4.6,3.79Z" fill="#fff"/><path d="M94.08,56.72l-1.26-1.65-3.16,2.42-1.14-1.49-3.78-9.69,1.68-1.29,3.69,9.76,1.57-1.2-2.42-3.16,1.59-1.21,2.42,3.16.76-.58,1.14,1.49-.76.58,1.26,1.65-1.59,1.21Z" fill="#fff"/><path d="M91.19,45.77l-2.02-2.8,1.27-.92,2.02,2.8-1.27.92Z" fill="#fff"/><path d="M102.89,50.37l-1.03-1.57-.71-7.67c-.03-.38-.11-.69-.23-.92s-.28-.5-.49-.82c-.09-.14-.19-.29-.3-.45-.11-.15-.23-.27-.36-.36s-.28-.13-.44-.14c-.16-.01-.35.05-.56.19-.25.16-.4.37-.46.6-.05.24,0,.49.19.77l.62.95-1.67,1.09-.6-.92c-.23-.35-.38-.72-.45-1.11-.07-.39-.06-.78.02-1.16.07-.37.21-.73.43-1.06.22-.34.5-.62.85-.85.44-.29.86-.45,1.28-.5.42-.05.82,0,1.2.14.38.14.72.36,1.05.65s.61.63.87,1.02c.19.28.34.53.45.72.11.2.21.4.29.59s.14.41.18.63c.04.23.07.51.11.84l.64,6.35,3.02-1.98,1.09,1.67-4.99,3.26Z" fill="#fff"/><path d="M106.79,31.44l.97,1.61-3.39,2.04,1.94,3.22c.06-.25.18-.5.37-.76.18-.25.42-.47.73-.66.58-.35,1.16-.46,1.74-.33s1.08.55,1.5,1.26l1.86,3.09c.24.4.39.8.44,1.2.05.4.02.78-.08,1.15s-.27.7-.51,1-.52.56-.86.76c-.34.2-.69.34-1.07.41-.38.07-.75.06-1.12-.02-.37-.08-.72-.24-1.05-.47-.33-.23-.61-.54-.86-.95l-.3-.5,1.71-1.03.26.44c.18.29.39.47.65.53.26.06.52.02.78-.14.26-.15.41-.35.45-.59.05-.24-.02-.5-.19-.78l-1.69-2.8c-.14-.23-.34-.39-.59-.47-.25-.08-.5-.04-.73.1-.15.09-.25.19-.32.3-.07.11-.12.22-.15.33-.03.11-.03.21-.02.31,0,.13,0,.22.01.25l-1.51.91-3.89-6.44,4.9-2.96Z" fill="#fff"/><path d="M110.22,33.46l-1.7-3,1.36-.77,1.7,3-1.36.77Z" fill="#fff"/><path d="M121.32,39.33l-.85-1.68.14-7.7c0-.39-.03-.7-.12-.94-.09-.24-.22-.53-.4-.87-.08-.15-.16-.31-.25-.48-.09-.17-.2-.3-.32-.4-.12-.1-.27-.16-.43-.19-.16-.03-.35.01-.57.13-.27.14-.44.32-.52.55-.08.23-.05.49.1.78l.51,1.01-1.78.9-.5-.98c-.19-.37-.3-.76-.32-1.16-.03-.4.02-.78.14-1.15.11-.36.29-.7.54-1.01s.56-.56.94-.75c.47-.24.91-.35,1.33-.35.42,0,.81.09,1.18.27.36.19.68.44.97.76.29.32.54.69.75,1.11.15.3.28.56.37.77.09.21.17.42.23.62s.1.42.11.65c.01.23.02.51.01.85l-.06,6.38,3.22-1.63.9,1.78-5.31,2.69Z" fill="#fff"/><path d="M126.63,21.25l.39,6.27.05.02c.04-.07.11-.16.22-.24.11-.09.27-.18.47-.27.32-.15.65-.21,1-.18.34.03.65.13.91.29.14.09.27.19.38.3.11.11.23.26.36.46.12.2.26.46.43.79.16.32.36.73.59,1.23.19.42.34.76.45,1.03.11.27.2.5.25.69.05.21.08.39.09.54,0,.16,0,.32-.02.5-.06.5-.23.95-.53,1.35-.3.4-.7.71-1.2.94-.5.23-.99.33-1.49.29-.49-.04-.95-.19-1.36-.46-.16-.1-.3-.2-.41-.31-.11-.11-.23-.25-.34-.43-.12-.16-.24-.37-.38-.63-.14-.26-.3-.6-.49-1.02-.18-.39-.32-.72-.43-.98-.11-.26-.19-.49-.25-.69-.06-.19-.1-.37-.12-.54-.02-.17-.04-.35-.06-.55l-.55-7.47,2.03-.94ZM129.03,29.48c-.13-.27-.32-.45-.57-.54-.25-.08-.5-.07-.74.04-.24.11-.41.29-.51.54-.1.25-.09.51.04.78l1.08,2.35c.13.27.32.45.57.54.25.08.5.07.74-.04.24-.11.41-.29.51-.54.1-.25.09-.51-.04-.78l-1.08-2.35Z" fill="#fff"/><path d="M130.48,23.33l-1.36-3.17,1.44-.62,1.36,3.17-1.44.62Z" fill="#fff"/><path d="M140.86,30.39l-.66-1.76.99-7.63c.05-.38.05-.7-.02-.94-.06-.25-.16-.55-.3-.9-.06-.16-.13-.33-.2-.5-.07-.17-.16-.32-.28-.43-.11-.11-.25-.19-.4-.24s-.35-.03-.58.06c-.28.11-.48.27-.58.49-.11.22-.1.48.01.79l.4,1.06-1.87.7-.38-1.03c-.15-.39-.21-.79-.19-1.18s.11-.77.27-1.13c.15-.35.37-.66.65-.94.29-.28.62-.5,1.02-.64.49-.18.94-.25,1.36-.2.42.05.8.18,1.14.4.33.22.63.51.88.86.25.35.46.75.62,1.19.12.32.21.59.28.81.07.22.12.43.16.64s.05.43.04.66c-.01.23-.04.51-.08.85l-.77,6.34,3.38-1.26.7,1.87-5.58,2.09Z" fill="#fff"/><path d="M148,27.75l-.48-12.56-2.08.69.51,1.52-1.67.56-1.1-3.31,5.65-1.88.63,1.9.56,12.41-2.01.67Z" fill="#fff"/><path d="M151.71,15.51l-1-3.3,1.5-.45,1,3.3-1.5.45Z" fill="#fff"/><path d="M161.26,23.67l-.46-1.82,1.83-7.48c.09-.37.12-.69.09-.94s-.1-.56-.19-.93c-.04-.16-.09-.34-.14-.52-.05-.18-.13-.33-.23-.46s-.22-.22-.37-.28c-.15-.06-.35-.06-.59,0-.29.07-.5.21-.63.42-.13.21-.15.47-.07.79l.28,1.1-1.94.49-.27-1.06c-.1-.41-.12-.8-.06-1.2s.19-.76.39-1.09c.19-.33.44-.62.75-.87.31-.25.67-.42,1.08-.53.51-.13.96-.15,1.37-.05s.77.27,1.09.52c.31.26.57.58.78.96s.37.79.49,1.25c.08.33.15.61.19.83.04.23.07.44.08.66s0,.43-.04.66c-.04.23-.1.5-.17.83l-1.46,6.21,3.5-.88.49,1.94-5.78,1.46Z" fill="#fff"/><path d="M166.06,11.85c-.08-.37-.13-.69-.16-.96-.03-.27-.03-.5-.01-.71.02-.21.06-.39.11-.56.05-.17.12-.35.21-.55.18-.39.45-.71.79-.98.34-.27.74-.45,1.19-.54.45-.1.88-.09,1.31.01s.8.29,1.12.57c.16.14.31.28.43.41.12.13.24.29.34.47.1.18.19.4.27.65.07.26.15.57.23.94.09.41.15.76.2,1.04.05.28.06.54.04.77s-.07.45-.17.65c-.1.2-.24.42-.43.66.27.13.49.27.66.42s.32.34.43.57c.12.23.22.52.31.87.09.35.19.78.3,1.29.09.42.15.77.19,1.05.04.28.06.52.07.74,0,.21-.01.4-.05.55-.04.16-.1.32-.16.5-.15.38-.39.73-.74,1.05-.35.32-.81.54-1.38.67-.58.12-1.09.11-1.53-.04-.45-.15-.81-.37-1.1-.66-.13-.13-.25-.26-.35-.39-.1-.13-.19-.29-.27-.48-.08-.2-.16-.43-.24-.7-.08-.27-.16-.62-.25-1.04-.11-.51-.19-.94-.26-1.3-.06-.35-.09-.66-.08-.92.01-.26.07-.49.16-.7.1-.21.24-.43.43-.65-.27-.14-.49-.29-.66-.43-.17-.14-.31-.32-.42-.52-.11-.2-.2-.44-.27-.72-.07-.28-.15-.62-.24-1.03ZM169.77,10.26c-.06-.27-.2-.47-.43-.62-.23-.14-.48-.19-.73-.13-.26.05-.46.19-.61.42-.15.23-.2.47-.14.74l.43,1.99c.06.27.2.48.43.62.23.14.47.19.73.13.26-.05.46-.19.61-.42.15-.23.2-.47.14-.74l-.43-1.99ZM170.92,15.63c-.06-.27-.2-.47-.43-.62-.23-.14-.47-.19-.73-.13-.26.05-.46.2-.61.42-.15.23-.2.47-.14.74l.57,2.68c.06.27.2.48.43.62.23.14.47.19.73.13.26-.05.46-.19.61-.42s.2-.47.14-.74l-.57-2.68Z" fill="#fff"/><path d="M173.72,10.08l-.63-3.39,1.54-.28.63,3.39-1.54.28Z" fill="#fff"/><path d="M182.29,19.25l-.26-1.86,2.65-7.23c.13-.36.2-.67.19-.93,0-.26-.04-.57-.09-.95-.02-.17-.05-.35-.08-.53-.03-.19-.09-.35-.17-.48-.08-.13-.2-.24-.34-.32-.14-.08-.34-.1-.58-.07-.3.04-.52.16-.67.35s-.21.45-.16.77l.16,1.13-1.98.27-.15-1.09c-.06-.41-.03-.81.07-1.2s.28-.73.51-1.04c.22-.31.5-.57.84-.78.34-.21.72-.35,1.13-.4.52-.07.97-.04,1.37.1.39.14.74.35,1.03.64.28.29.5.64.67,1.04.17.4.28.83.35,1.3.05.34.08.62.1.85.02.23.02.45.01.66,0,.21-.05.43-.11.65-.06.22-.15.49-.26.81l-2.14,6.01,3.57-.49.27,1.98-5.9.81Z" fill="#fff"/><path d="M190.11,18.22l1.68-6.06-.04-.04c-.06.06-.16.11-.29.16-.13.05-.31.08-.53.1-.35.04-.68-.02-1-.16-.32-.14-.57-.33-.77-.57-.1-.12-.19-.25-.26-.4-.07-.14-.12-.33-.17-.56-.06-.23-.12-.52-.17-.88s-.1-.81-.16-1.35c-.05-.46-.08-.83-.09-1.12s-.02-.55,0-.76c0-.2.03-.37.08-.52s.1-.31.18-.47c.22-.46.53-.82.94-1.1.41-.28.89-.44,1.44-.5.55-.05,1.04.02,1.5.21.45.2.83.49,1.13.88.11.15.2.29.28.43.08.14.15.3.21.49.05.21.09.45.13.75s.09.66.13,1.12c.04.43.07.78.09,1.06.01.28.02.52.01.72-.02.21-.04.4-.07.57s-.07.34-.11.53l-1.91,7.24-2.22.22ZM190.53,9.65c.03.3.15.53.37.69.21.16.45.23.71.2.26-.03.48-.14.66-.34.18-.2.25-.45.22-.75l-.26-2.57c-.03-.3-.15-.53-.36-.69-.21-.16-.45-.23-.71-.2-.26.03-.48.14-.66.34-.18.2-.25.45-.22.75l.26,2.57Z" fill="#fff"/><path d="M196.17,7.12l-.25-3.44,1.56-.11.25,3.44-1.56.11Z" fill="#fff"/><path d="M205.83,9.04c.6-.02,1.01-.1,1.24-.25s.33-.49.32-1.01l-.05-1.8c0-.29-.1-.52-.28-.7-.18-.18-.42-.26-.72-.25-.35,0-.6.13-.75.35s-.21.44-.21.65l.03,1.14-2,.05-.03-1.16c-.01-.4.06-.79.2-1.16.15-.37.35-.69.62-.96.27-.27.58-.49.94-.65s.75-.26,1.17-.27c.55-.02,1.01.08,1.37.29.37.21.64.42.83.63.13.15.25.31.36.46.1.15.19.34.26.56.13.43.21,1.07.23,1.92.01.48.01.88,0,1.18-.01.3-.05.55-.13.75-.09.21-.21.39-.37.54-.16.15-.38.31-.66.49.32.19.56.36.73.53.17.17.29.36.38.58.09.23.14.51.16.83s.04.73.05,1.22c.01.46.01.84,0,1.14-.01.3-.04.55-.07.75-.03.21-.08.39-.14.53-.06.15-.14.3-.24.46-.24.37-.55.69-.93.94-.38.25-.88.39-1.51.4-.31,0-.65-.03-1-.13-.36-.09-.68-.26-.97-.48-.29-.23-.54-.53-.74-.9-.2-.37-.31-.83-.32-1.38l-.03-1.14,2-.05.03,1.04c0,.31.1.57.29.77s.42.29.72.28c.3,0,.54-.12.71-.32.17-.21.25-.48.24-.82l-.05-2c-.02-.55-.13-.9-.34-1.07-.12-.1-.28-.16-.49-.18s-.47-.03-.79-.02l-.05-1.76Z" fill="#fff"/><path d="M211,5.91c0-.47.1-.89.27-1.25.17-.36.39-.67.67-.93.28-.26.6-.45.96-.58s.74-.19,1.13-.19c.39,0,.77.08,1.12.22.36.14.67.35.94.61.27.27.48.58.64.95.16.37.23.79.22,1.26l-.13,8.19c0,.47-.1.89-.27,1.25s-.39.67-.67.93c-.28.26-.6.45-.96.58s-.74.19-1.13.19c-.39,0-.77-.08-1.12-.22s-.67-.35-.94-.61c-.27-.27-.48-.58-.64-.95-.16-.37-.23-.79-.22-1.26l.13-8.19ZM212.86,14.13c0,.29.08.53.26.72s.41.29.7.3c.29,0,.52-.09.71-.27.19-.19.28-.42.29-.71l.13-8.19c0-.29-.08-.53-.26-.72-.18-.19-.41-.29-.7-.3-.29,0-.52.09-.71.27-.19.19-.28.42-.29.71l-.13,8.19Z" fill="#fff"/><path d="M218.81,6.62l.12-3.45,1.57.06-.12,3.45-1.57-.06Z" fill="#fff"/><path d="M228.2,9.58c.6.05,1.02.01,1.26-.11.24-.12.38-.45.42-.97l.15-1.8c.02-.29-.05-.53-.21-.73-.16-.2-.39-.31-.69-.33-.35-.03-.61.06-.78.27-.17.21-.26.42-.28.63l-.09,1.13-1.99-.16.09-1.15c.03-.4.14-.78.33-1.13.19-.35.43-.65.72-.88.29-.24.63-.42,1.01-.55.38-.13.77-.17,1.19-.14.55.04.99.19,1.33.43.34.24.59.48.76.72.12.17.22.33.3.5.08.16.15.36.2.59.08.44.09,1.08.02,1.93-.04.48-.08.87-.13,1.17-.04.3-.11.54-.21.73-.11.2-.25.37-.42.5s-.41.27-.71.41c.3.22.52.42.67.61.15.18.25.39.31.62.06.24.08.52.07.84s-.04.73-.08,1.22c-.04.46-.08.83-.12,1.13-.04.3-.09.54-.15.73-.06.21-.12.38-.2.51-.08.14-.17.28-.29.43-.28.34-.62.62-1.02.83-.4.21-.92.29-1.54.24-.31-.03-.64-.1-.98-.24-.34-.13-.65-.33-.92-.59s-.48-.58-.64-.98c-.16-.39-.21-.86-.17-1.41l.09-1.13,1.99.16-.08,1.04c-.03.31.04.58.2.79s.39.34.69.36c.3.02.54-.06.74-.24s.3-.45.33-.79l.16-1.99c.04-.55-.03-.91-.22-1.1-.11-.11-.26-.19-.46-.23-.2-.04-.46-.08-.79-.1l.14-1.76Z" fill="#fff"/><path d="M234.67,18.32l1.4-11.76-2.16,1.22.25-2.1,2.16-1.22,1.99.24-1.65,13.86-1.99-.24Z" fill="#fff"/><path d="M241.35,8.59l.5-3.41,1.55.23-.5,3.41-1.55-.23Z" fill="#fff"/><path d="M250.36,12.56c.59.11,1.01.12,1.26.03.25-.1.43-.4.53-.92l.34-1.77c.05-.28.01-.53-.12-.74-.14-.21-.36-.35-.65-.41-.35-.07-.61,0-.8.18-.19.19-.3.39-.34.59l-.22,1.12-1.96-.38.22-1.14c.08-.4.23-.76.45-1.09.22-.33.5-.6.81-.8.32-.2.67-.35,1.06-.43.39-.08.79-.09,1.2,0,.54.1.96.3,1.28.58s.54.55.67.8c.1.18.18.35.25.53.07.17.11.37.13.6.03.45-.03,1.09-.19,1.92-.09.47-.18.86-.25,1.15-.08.29-.17.53-.29.7-.13.19-.29.34-.48.45-.19.11-.44.22-.75.33.27.25.47.48.6.68s.21.41.24.65c.03.25.02.53-.02.84-.05.32-.12.72-.21,1.21-.09.45-.17.82-.25,1.11-.08.29-.15.53-.23.71-.08.2-.16.36-.25.49s-.2.26-.34.39c-.31.31-.68.55-1.11.71-.42.16-.95.19-1.56.07-.31-.06-.62-.17-.95-.34-.33-.17-.61-.4-.85-.68s-.41-.63-.53-1.04c-.11-.41-.12-.88-.01-1.42l.22-1.12,1.96.38-.2,1.02c-.06.31-.02.58.11.81s.35.38.64.43c.29.06.55,0,.76-.16.21-.17.35-.41.42-.75l.38-1.96c.1-.54.07-.91-.1-1.12-.1-.12-.24-.22-.43-.28-.19-.06-.45-.13-.77-.19l.34-1.73Z" fill="#fff"/><path d="M253.53,21.42l.43-1.83,5.05-5.81c.25-.29.42-.56.51-.8s.17-.55.25-.92c.04-.17.08-.34.11-.53.04-.19.04-.36,0-.51-.03-.15-.1-.29-.2-.42-.11-.13-.28-.22-.52-.27-.29-.07-.54-.04-.75.09-.21.13-.35.35-.43.67l-.26,1.11-1.95-.45.25-1.07c.09-.41.26-.77.5-1.09.24-.32.52-.58.85-.79.32-.21.67-.35,1.06-.43s.79-.07,1.2.03c.51.12.92.31,1.24.58.32.27.56.59.73.97.15.37.24.77.25,1.21s-.03.88-.14,1.34c-.08.33-.15.61-.21.83s-.14.43-.22.62c-.09.19-.2.38-.33.57-.14.18-.31.4-.54.66l-4.15,4.85,3.51.82-.45,1.95-5.8-1.35Z" fill="#fff"/><path d="M263.55,13.03l.88-3.34,1.52.4-.88,3.34-1.52-.4Z" fill="#fff"/><path d="M272.09,17.98c.57.18.99.23,1.25.17.26-.07.47-.35.63-.85l.54-1.72c.08-.27.07-.52-.04-.75-.11-.23-.31-.39-.6-.48-.34-.1-.61-.07-.82.09-.21.17-.35.35-.41.55l-.34,1.08-1.91-.6.34-1.1c.12-.39.31-.73.57-1.03s.56-.54.9-.71.71-.27,1.1-.31c.4-.04.79,0,1.19.13.52.16.92.4,1.2.71.28.31.47.6.58.87.08.19.14.37.19.55.05.18.07.38.06.62-.02.45-.15,1.08-.4,1.89-.14.46-.27.83-.38,1.11-.11.28-.23.5-.36.67-.15.17-.32.3-.52.39-.2.09-.46.17-.79.25.24.28.41.53.52.74.1.21.16.43.17.67,0,.25-.04.53-.12.84-.08.31-.2.7-.35,1.18-.14.44-.26.8-.37,1.08-.11.28-.21.51-.31.68-.1.19-.2.34-.31.46-.11.12-.23.24-.38.35-.35.28-.74.47-1.18.59-.44.12-.96.08-1.56-.11-.3-.09-.6-.24-.91-.45s-.56-.46-.76-.77-.34-.67-.41-1.09c-.07-.42-.02-.89.14-1.41l.34-1.08,1.91.6-.31.99c-.09.3-.09.57.02.82.11.25.31.41.59.5s.54.06.77-.08c.23-.14.39-.37.5-.7l.6-1.91c.16-.52.17-.9.02-1.12-.08-.13-.21-.24-.4-.33s-.43-.18-.75-.27l.53-1.68Z" fill="#fff"/><path d="M279.19,20.32c.57.2.98.27,1.25.21.26-.06.48-.34.66-.83l.6-1.7c.1-.27.09-.52-.01-.75-.1-.23-.3-.4-.58-.5-.33-.12-.61-.1-.82.06s-.36.34-.43.53l-.38,1.07-1.88-.67.38-1.09c.14-.38.34-.72.61-1.01.27-.29.58-.52.92-.67s.72-.25,1.11-.27c.4-.03.79.03,1.19.17.52.18.91.44,1.18.76.27.32.45.62.55.89.07.19.13.38.17.56s.05.39.04.62c-.03.45-.19,1.07-.47,1.87-.16.46-.3.82-.42,1.1-.12.28-.25.49-.39.65-.16.17-.33.29-.54.37s-.47.15-.79.22c.23.29.39.54.49.76.1.21.15.44.15.68,0,.25-.05.52-.15.83-.09.31-.22.69-.39,1.16-.15.43-.29.79-.41,1.06-.12.28-.23.5-.33.67-.11.18-.21.33-.32.45s-.24.23-.39.34c-.36.26-.76.44-1.2.54-.44.1-.96.04-1.55-.16-.29-.1-.59-.27-.89-.48-.3-.22-.54-.48-.74-.8-.19-.32-.32-.69-.37-1.11-.05-.42.01-.89.2-1.41l.38-1.07,1.88.67-.35.98c-.1.3-.11.57,0,.82.1.25.29.42.57.52s.54.08.78-.05c.23-.13.41-.36.52-.68l.67-1.88c.18-.52.2-.89.06-1.12-.08-.14-.21-.25-.39-.35-.18-.09-.43-.19-.74-.3l.59-1.66Z" fill="#fff"/><path d="M285.15,19.91l1.24-3.22,1.46.56-1.24,3.22-1.46-.56Z" fill="#fff"/><path d="M293.06,25.76c.55.24.96.34,1.23.3.27-.04.51-.3.72-.78l.73-1.65c.12-.26.13-.51.04-.75-.09-.24-.27-.42-.54-.54-.32-.14-.6-.14-.82,0-.23.14-.38.31-.47.5l-.46,1.04-1.83-.8.47-1.06c.16-.37.39-.69.68-.96.29-.27.61-.47.97-.6.36-.13.73-.19,1.13-.19.4,0,.79.09,1.17.26.5.22.88.5,1.12.84s.4.65.48.93c.06.2.1.39.12.57.03.18.03.39,0,.62-.07.44-.27,1.05-.61,1.83-.19.44-.36.8-.5,1.06-.14.27-.28.48-.43.62-.17.15-.36.26-.56.33-.21.07-.48.12-.81.16.21.31.35.57.43.79.08.22.11.45.09.68-.02.25-.09.52-.21.82-.12.3-.28.67-.47,1.13-.18.42-.35.76-.48,1.03-.14.27-.27.48-.38.65-.12.18-.24.32-.36.42-.12.11-.26.21-.42.31-.38.23-.79.39-1.24.45s-.96-.03-1.54-.28c-.29-.13-.57-.31-.85-.55-.28-.24-.51-.52-.67-.85-.17-.33-.26-.71-.28-1.13-.02-.42.08-.89.3-1.39l.46-1.04,1.83.8-.42.95c-.13.29-.15.56-.07.82s.26.44.53.57c.27.12.53.12.78,0,.24-.11.43-.33.57-.64l.8-1.83c.22-.5.27-.87.15-1.11-.07-.14-.19-.27-.36-.37-.18-.11-.41-.22-.71-.35l.71-1.62Z" fill="#fff"/><path d="M297.35,36.63l.91-1.87-3.58-1.73.82-1.69,6.95-7.74,1.91.92-7.06,7.69,1.78.86,1.73-3.58,1.8.87-1.73,3.58.86.42-.82,1.69-.86-.42-.91,1.87-1.8-.87Z" fill="#fff"/><path d="M305.82,29.12l1.59-3.06,1.39.72-1.59,3.06-1.39-.72Z" fill="#fff"/><path d="M313.06,35.83c.52.3.92.45,1.19.44.27-.01.54-.24.8-.69l.9-1.56c.14-.25.19-.5.12-.74-.06-.25-.22-.45-.48-.6-.3-.18-.58-.21-.82-.09-.24.12-.42.27-.52.45l-.57.98-1.73-1,.58-1c.2-.35.46-.64.78-.88.32-.24.66-.4,1.03-.49.37-.09.75-.11,1.15-.06.39.05.77.18,1.13.39.48.27.81.6,1.02.96.2.37.33.69.38.98.03.2.05.39.06.58,0,.18-.02.39-.07.61-.11.43-.38,1.02-.81,1.75-.24.42-.45.75-.62,1-.17.25-.33.44-.5.57-.18.14-.38.22-.6.27-.21.04-.49.07-.82.07.17.33.29.6.34.83.06.23.06.46.02.69-.05.24-.15.51-.3.79s-.35.64-.6,1.07c-.23.4-.43.72-.59.97-.17.25-.32.45-.45.6-.14.16-.27.29-.4.38-.13.09-.28.18-.45.26-.4.19-.83.3-1.28.31-.46.02-.95-.13-1.5-.45-.27-.16-.53-.37-.79-.64s-.45-.57-.58-.92-.18-.73-.16-1.16c.03-.42.18-.87.45-1.35l.57-.98,1.73,1-.52.9c-.16.27-.21.54-.16.8.05.26.21.47.47.62s.52.18.77.1c.25-.09.47-.28.64-.57l1-1.73c.28-.48.36-.84.27-1.09-.05-.15-.16-.29-.32-.41s-.38-.27-.67-.43l.88-1.53Z" fill="#fff"/><path d="M325.63,36.6l-1,1.59-3.35-2.11-2,3.19c.25-.06.53-.06.84-.01s.61.17.91.35c.58.36.93.83,1.07,1.4.14.57,0,1.21-.45,1.91l-1.92,3.05c-.25.4-.54.71-.88.93s-.69.37-1.06.45-.75.08-1.12,0-.73-.22-1.06-.43c-.33-.21-.61-.47-.84-.77-.23-.31-.39-.64-.49-1.01-.09-.37-.11-.75-.05-1.15.06-.4.21-.79.46-1.19l.31-.5,1.69,1.06-.27.43c-.18.29-.24.56-.18.82.06.26.22.47.47.63.25.16.5.21.74.14.24-.07.44-.24.61-.52l1.74-2.77c.15-.23.2-.48.15-.74s-.18-.46-.42-.61c-.14-.09-.28-.14-.41-.15s-.25,0-.36.02c-.11.02-.2.07-.28.12-.12.06-.19.1-.21.12l-1.49-.94,4.01-6.37,4.84,3.05Z" fill="#fff"/><path d="M325.38,40.58l1.92-2.87,1.3.87-1.92,2.87-1.3-.87Z" fill="#fff"/><path d="M331.81,48.02c.48.36.86.54,1.13.56.27.02.56-.18.87-.6l1.07-1.45c.17-.23.24-.47.21-.73-.03-.25-.17-.47-.41-.65-.28-.21-.55-.27-.8-.18-.25.09-.44.22-.57.39l-.67.92-1.61-1.19.69-.93c.24-.33.53-.59.88-.79.34-.2.7-.33,1.08-.37.38-.05.76-.03,1.15.06.39.09.75.26,1.09.51.44.33.74.68.91,1.07.16.39.25.72.27,1.01.01.2.01.4,0,.58-.01.18-.06.39-.14.6-.16.42-.49.97-1,1.65-.29.39-.53.7-.72.93-.19.23-.38.4-.56.51-.2.11-.4.18-.62.2-.22.02-.49.01-.82-.02.14.34.22.63.25.87.03.23.01.46-.06.69-.08.24-.2.49-.38.75-.18.27-.42.6-.71,1-.27.37-.5.67-.7.9-.19.23-.37.41-.51.55-.16.15-.3.26-.44.33-.14.08-.29.15-.47.21-.42.15-.85.2-1.31.17-.45-.03-.93-.24-1.44-.61-.25-.19-.49-.43-.71-.72-.22-.29-.38-.62-.47-.98s-.1-.75-.03-1.17.27-.85.6-1.29l.67-.92,1.61,1.19-.62.84c-.19.25-.27.51-.25.78s.15.49.4.67c.24.18.49.24.76.18.26-.06.49-.22.7-.5l1.19-1.61c.33-.44.45-.79.39-1.05-.03-.15-.12-.3-.27-.44-.15-.14-.35-.31-.62-.5l1.05-1.42Z" fill="#fff"/><path d="M343.66,49.72l-5.43,3.17v.06c.09,0,.2.03.32.09.13.06.28.16.45.3.28.22.48.49.61.81.13.32.18.63.15.95-.02.17-.05.33-.1.47s-.13.32-.25.53c-.13.2-.29.45-.51.73-.21.29-.49.65-.83,1.08-.28.36-.52.65-.72.87-.19.22-.36.4-.5.54-.16.14-.31.25-.44.32-.14.08-.29.15-.46.21-.47.17-.95.22-1.44.13-.49-.09-.95-.3-1.38-.64-.43-.34-.74-.74-.93-1.2-.19-.46-.25-.93-.2-1.42.02-.19.04-.36.09-.51.04-.15.12-.31.23-.49.09-.18.22-.39.4-.62.17-.24.4-.54.69-.9.27-.34.49-.61.68-.82.18-.21.35-.39.5-.54.14-.14.29-.25.43-.35s.3-.19.46-.3l6.42-3.86,1.75,1.39ZM337.38,55.57c.19-.24.26-.49.22-.75s-.16-.48-.37-.64c-.21-.16-.44-.23-.71-.21s-.49.15-.68.38l-1.61,2.03c-.19.24-.26.49-.22.75.04.27.16.48.37.64.2.16.44.23.71.21.27-.02.49-.15.68-.38l1.61-2.03Z" fill="#fff"/><path d="M343.53,54.1l2.22-2.64,1.2,1.01-2.22,2.64-1.2-1.01Z" fill="#fff"/><path d="M349.13,62.21c.44.41.79.64,1.06.68.26.05.58-.12.93-.5l1.22-1.33c.2-.21.29-.44.28-.7,0-.25-.12-.48-.34-.69-.26-.24-.52-.33-.78-.27-.26.06-.46.17-.6.32l-.77.84-1.47-1.35.78-.85c.27-.3.59-.53.96-.69.36-.16.73-.25,1.11-.25s.76.06,1.13.19c.38.13.72.34,1.02.62.4.37.66.76.78,1.16.12.4.17.75.15,1.03,0,.2-.03.4-.07.58s-.1.38-.2.58c-.21.4-.6.91-1.17,1.53-.33.36-.6.64-.82.85-.22.21-.42.36-.61.45-.21.09-.42.13-.64.13s-.49-.04-.82-.11c.1.36.15.65.15.89,0,.24-.04.46-.13.68-.1.23-.26.46-.46.71s-.48.55-.82.91c-.31.34-.57.61-.79.82s-.41.37-.57.49c-.17.13-.33.22-.47.28s-.31.11-.49.16c-.43.1-.87.11-1.32.03-.45-.08-.9-.34-1.36-.76-.23-.21-.44-.48-.63-.79-.19-.32-.31-.66-.36-1.03-.05-.37-.02-.75.1-1.16.12-.41.36-.81.73-1.22l.77-.84,1.47,1.35-.7.76c-.21.23-.32.48-.33.75s.1.5.32.71.46.29.73.26c.27-.03.51-.17.75-.42l1.35-1.47c.37-.4.54-.74.5-1.01-.02-.16-.09-.31-.22-.47-.13-.16-.32-.35-.56-.57l1.2-1.3Z" fill="#fff"/><path d="M347.49,71.73l10.99-6.11-1.56-1.55-1.13,1.14-1.25-1.24,2.46-2.48,4.23,4.19-1.41,1.42-10.83,6.1-1.5-1.49Z" fill="#fff"/><path d="M360.1,69.52l2.49-2.38,1.08,1.13-2.49,2.38-1.08-1.13Z" fill="#fff"/><path d="M364.77,78.2c.39.45.72.72.98.8.26.08.58-.05.98-.4l1.36-1.18c.22-.19.34-.41.36-.66.02-.25-.07-.49-.26-.72-.23-.27-.48-.38-.75-.35-.27.03-.48.12-.64.25l-.86.75-1.31-1.51.87-.76c.3-.27.65-.46,1.03-.58.38-.12.76-.17,1.13-.13.38.04.75.14,1.1.31.36.17.68.42.95.73.36.41.58.83.65,1.24.07.41.09.76.04,1.04-.03.2-.08.39-.13.57s-.14.36-.27.56c-.25.37-.69.84-1.33,1.4-.37.32-.67.57-.91.75s-.46.31-.66.38c-.22.07-.43.09-.65.06s-.48-.1-.8-.2c.06.37.08.67.06.9s-.09.45-.21.66c-.13.21-.31.43-.54.65s-.54.49-.91.82c-.34.3-.64.54-.88.72-.24.18-.45.32-.62.42-.18.11-.35.18-.5.23-.15.05-.32.08-.51.1-.44.05-.88.01-1.31-.12-.44-.13-.86-.43-1.27-.91-.21-.24-.39-.52-.54-.86-.15-.33-.24-.69-.25-1.06-.01-.37.06-.75.22-1.14.16-.39.45-.77.86-1.13l.86-.75,1.31,1.51-.78.68c-.24.21-.37.44-.41.71-.04.27.04.51.24.74s.43.34.7.34.53-.11.79-.33l1.51-1.31c.41-.36.62-.68.61-.94,0-.16-.05-.32-.17-.49s-.28-.38-.49-.62l1.33-1.16Z" fill="#fff"/><path d="M369.83,80.65c.29-.24.55-.43.78-.58s.43-.26.63-.33.38-.12.55-.16c.17-.03.37-.05.58-.06.43-.01.84.08,1.23.26s.73.46,1.02.81.48.75.58,1.17c.1.42.1.84,0,1.26-.05.21-.11.4-.17.57-.06.17-.15.34-.26.52s-.26.35-.46.54c-.2.18-.44.4-.74.63-.33.26-.6.48-.83.65-.23.17-.46.3-.67.39-.21.09-.43.14-.66.14s-.49-.02-.79-.08c0,.3-.02.56-.08.78-.06.22-.16.44-.31.64-.15.21-.36.43-.63.67-.27.24-.61.52-1.02.85-.33.27-.62.49-.85.65-.23.16-.44.29-.63.39-.19.1-.36.17-.52.2s-.33.06-.52.08c-.4.04-.83-.02-1.27-.18-.44-.16-.85-.47-1.22-.93-.37-.46-.59-.92-.65-1.39-.07-.47-.04-.89.09-1.28.06-.18.12-.34.18-.49.07-.15.17-.3.31-.46.14-.16.31-.34.52-.53.21-.19.48-.42.81-.69.41-.33.75-.6,1.04-.82.29-.22.55-.38.78-.48.23-.11.47-.16.69-.17.23,0,.49.02.78.09,0-.31.03-.57.08-.79.05-.22.14-.42.27-.61.13-.19.3-.38.52-.57.22-.19.49-.42.81-.68ZM368.67,86.69c.21-.17.33-.4.36-.67.02-.27-.05-.51-.21-.71-.17-.2-.38-.32-.65-.35-.27-.03-.51.04-.73.21l-2.13,1.73c-.21.17-.33.39-.36.67-.02.27.05.51.21.71s.38.32.65.35.51-.04.73-.21l2.13-1.73ZM372.93,83.24c.21-.17.33-.39.36-.67s-.05-.51-.21-.71c-.17-.2-.38-.32-.65-.35s-.51.04-.73.21l-1.58,1.28c-.21.17-.33.4-.36.67-.02.27.05.51.21.71.16.2.38.32.65.35.27.03.51-.04.73-.21l1.58-1.28Z" fill="#fff"/><path d="M374.89,86.68l2.74-2.1.95,1.25-2.74,2.1-.95-1.25Z" fill="#fff"/><path d="M378.57,95.8c.34.49.64.79.89.9.25.11.59,0,1.02-.29l1.48-1.03c.24-.16.38-.37.43-.62.05-.25-.01-.5-.18-.74-.2-.29-.44-.43-.7-.43-.27,0-.49.06-.66.18l-.93.65-1.14-1.64.95-.66c.33-.23.69-.39,1.08-.47.39-.08.77-.08,1.14,0,.37.08.73.22,1.06.43.34.21.63.49.86.83.31.45.48.88.51,1.3.03.42,0,.77-.08,1.04-.05.2-.12.38-.19.55-.07.17-.18.34-.33.53-.29.34-.78.76-1.48,1.24-.4.28-.72.49-.98.65-.26.16-.49.26-.7.3-.22.04-.44.04-.65-.01-.21-.05-.47-.15-.77-.29.02.37,0,.67-.04.9-.05.23-.14.44-.28.63-.15.2-.35.39-.61.59-.26.19-.59.43-1,.71-.38.26-.69.47-.95.62-.26.16-.48.27-.66.35-.19.09-.37.15-.52.17s-.33.04-.52.05c-.44,0-.87-.08-1.29-.26-.42-.18-.81-.53-1.17-1.04-.18-.26-.33-.56-.44-.91-.12-.35-.16-.71-.13-1.08s.14-.74.35-1.11c.2-.37.53-.71.98-1.03l.93-.65,1.14,1.64-.85.59c-.26.18-.42.4-.48.66-.07.26-.01.51.16.76.17.25.39.38.66.41.27.03.54-.05.82-.25l1.64-1.14c.45-.31.69-.6.71-.87.02-.16-.02-.32-.11-.51-.09-.18-.23-.41-.42-.67l1.45-1.01Z" fill="#fff"/><path d="M375.06,104.99l6.16-1.25v-.05c-.07-.03-.16-.09-.26-.19-.1-.1-.21-.24-.33-.43-.19-.3-.3-.62-.31-.96-.02-.34.03-.66.16-.94.06-.15.14-.28.24-.41.1-.12.24-.26.42-.41.18-.16.41-.34.71-.55.29-.21.67-.46,1.14-.75.38-.25.71-.44.96-.59.25-.15.48-.26.68-.34.18-.08.34-.14.5-.17.15-.03.32-.05.5-.05.5-.01.97.1,1.41.34.43.24.8.59,1.1,1.06.3.46.46.94.49,1.43.03.49-.06.96-.27,1.41-.08.16-.17.31-.25.44s-.2.27-.34.41c-.16.13-.36.29-.6.46-.24.17-.55.38-.94.62-.36.23-.67.42-.91.56-.24.14-.45.25-.63.34-.2.08-.38.14-.54.19s-.34.1-.53.14l-7.32,1.58-1.21-1.88ZM382.89,101.48c-.25.16-.4.38-.45.64-.05.26,0,.51.14.73.14.22.34.36.6.43.26.07.52.02.77-.14l2.18-1.4c.25-.16.4-.38.45-.64.05-.26,0-.51-.14-.73-.14-.22-.34-.36-.6-.43-.26-.07-.52-.02-.77.14l-2.18,1.4Z" fill="#fff"/><path d="M387.7,105.34l2.95-1.78.81,1.34-2.95,1.78-.81-1.34Z" fill="#fff"/><path d="M383.79,119.65l1.83-.99-1.9-3.5,1.65-.9,10.16-2.23,1.01,1.86-10.22,2.13.94,1.74,3.5-1.9.95,1.76-3.5,1.9.46.84-1.65.9-.46-.84-1.83.99-.95-1.76Z" fill="#fff"/><path d="M395.46,118c.42-.21.83-.32,1.23-.34.4-.02.78.04,1.13.17.36.13.67.33.96.59.28.26.51.57.68.92.17.35.28.72.32,1.1.04.38,0,.76-.11,1.12-.11.36-.3.7-.55,1.01-.25.31-.59.57-1.01.78l-7.34,3.64c-.42.21-.83.32-1.23.34-.4.02-.78-.04-1.13-.17-.36-.13-.68-.33-.96-.59-.28-.26-.51-.57-.68-.92-.17-.35-.28-.72-.32-1.1-.04-.38,0-.76.11-1.12s.3-.7.55-1.01c.25-.31.59-.57,1.02-.78l7.34-3.64ZM389.01,123.43c-.26.13-.43.32-.52.56-.09.25-.07.5.06.76.13.26.32.43.57.51.25.08.5.06.76-.07l7.34-3.64c.26-.13.43-.32.52-.56.09-.25.07-.5-.06-.76-.13-.26-.32-.43-.57-.51-.25-.08-.5-.06-.76.07l-7.34,3.64Z" fill="#fff"/><path d="M398.39,125.31l3.13-1.45.66,1.42-3.13,1.45-.66-1.42Z" fill="#fff"/><path d="M392.93,139.11l1.92-.78-1.5-3.69,1.74-.71,10.34-1.09.8,1.96-10.39.99.75,1.83,3.69-1.5.75,1.85-3.69,1.5.36.89-1.74.71-.36-.89-1.92.78-.75-1.85Z" fill="#fff"/><path d="M395.1,144.75l11.12-4.05-2.06-1.38,1.99-.72,2.06,1.38.68,1.88-13.11,4.77-.68-1.88Z" fill="#fff"/><path d="M406.8,146.33l3.27-1.09.5,1.49-3.27,1.09-.5-1.49Z" fill="#fff"/><path d="M399.85,159.45l2-.56-1.08-3.83,1.81-.51,10.4.06.58,2.04-10.43-.17.54,1.9,3.83-1.08.54,1.92-3.83,1.08.26.92-1.81.51-.26-.92-2,.56-.54-1.92Z" fill="#fff"/><path d="M400.82,162.98l1.83-.44,7.46,1.9c.37.1.69.13.94.09.25-.04.56-.1.93-.19.17-.04.34-.09.52-.14.18-.05.34-.13.46-.22.12-.1.22-.22.28-.37.06-.15.07-.35,0-.59-.07-.29-.21-.5-.42-.64-.21-.13-.47-.16-.79-.08l-1.11.27-.47-1.94,1.07-.26c.41-.1.81-.11,1.2-.05s.75.2,1.09.4c.33.19.61.44.86.76s.42.68.52,1.08c.12.51.14.97.04,1.37-.1.41-.27.77-.53,1.09-.26.31-.58.56-.96.77-.38.21-.8.37-1.26.48-.33.08-.61.14-.83.18s-.44.07-.66.08c-.21.01-.43,0-.66-.04s-.5-.1-.83-.18l-6.2-1.52.85,3.5-1.94.47-1.4-5.79Z" fill="#fff"/><path d="M412.83,168.16l3.37-.72.33,1.53-3.37.72-.33-1.53Z" fill="#fff"/><path d="M404.47,180.44l2.05-.34-.65-3.93,1.86-.31,10.33,1.21.34,2.09-10.35-1.33.32,1.95,3.93-.65.33,1.97-3.92.65.16.95-1.86.31-.16-.95-2.05.34-.33-1.97Z" fill="#fff"/><path d="M413.36,185.4c.08.6.2,1,.37,1.21.17.21.52.28,1.04.21l1.79-.23c.29-.04.51-.15.67-.35s.22-.45.18-.74c-.04-.35-.19-.59-.43-.71-.24-.12-.46-.17-.67-.14l-1.13.14-.25-1.98,1.15-.15c.4-.05.79-.02,1.18.09.38.11.72.28,1.01.52.29.24.54.53.74.87.2.34.33.72.38,1.14.07.54.02,1.01-.15,1.39-.17.38-.35.68-.55.89-.14.15-.28.28-.42.4-.14.12-.32.22-.53.31-.41.17-1.04.31-1.88.42-.48.06-.87.1-1.17.12-.3.02-.55,0-.76-.05-.22-.06-.41-.17-.57-.31-.16-.14-.35-.35-.55-.61-.16.34-.31.6-.45.78s-.33.33-.54.43c-.22.11-.49.19-.81.24-.32.05-.72.11-1.21.17-.45.06-.83.1-1.13.11-.3.02-.55.02-.75,0-.21-.01-.39-.04-.54-.09-.15-.05-.31-.11-.48-.2-.39-.2-.74-.48-1.03-.83-.29-.35-.47-.84-.55-1.46-.04-.31-.03-.65.03-1.01s.19-.7.38-1.02c.2-.32.47-.59.82-.83.35-.24.8-.39,1.34-.46l1.13-.14.25,1.98-1.03.13c-.31.04-.56.16-.73.36-.18.2-.25.45-.21.75.04.3.17.52.39.67.22.15.5.2.84.16l1.98-.25c.54-.07.89-.22,1.03-.45.09-.13.13-.3.13-.5,0-.2-.02-.47-.06-.79l1.75-.22Z" fill="#fff"/><path d="M416.41,190.52l3.43-.34.16,1.56-3.43.34-.16-1.56Z" fill="#fff"/><path d="M406.75,201.79l2.07-.11-.22-3.97,1.88-.1,10.14,2.34.11,2.11-10.14-2.45.11,1.98,3.97-.22.11,2-3.97.22.05.96-1.88.1-.05-.96-2.08.11-.11-2Z" fill="#fff"/><path d="M406.99,208.96l2.08-.04-.07-3.98,1.88-.03,10.05,2.7.04,2.12-10.05-2.82.04,1.98,3.98-.07.04,2-3.98.07.02.96-1.88.03-.02-.96-2.08.04-.04-2Z" fill="#fff"/><path d="M417.52,213.17l3.45.06-.03,1.57-3.45-.06.03-1.57Z" fill="#fff"/><path d="M406.69,223.3l2.07.11.22-3.97,1.88.1,9.83,3.42-.12,2.11-9.82-3.54-.11,1.98,3.97.22-.11,2-3.97-.22-.05.96-1.88-.1.05-.96-2.08-.11.11-2Z" fill="#fff"/><path d="M419.83,234.16l-1.87-.17.36-3.94-3.75-.34c.17.2.3.45.39.74s.13.62.1.97c-.06.68-.32,1.21-.77,1.59-.45.39-1.08.54-1.9.47l-3.59-.33c-.47-.04-.88-.16-1.23-.36s-.64-.44-.88-.74-.41-.63-.51-1c-.1-.37-.14-.75-.1-1.14.04-.39.14-.76.31-1.1.17-.35.4-.64.68-.89.29-.25.62-.44,1-.57s.8-.17,1.27-.13l.59.05-.18,1.99-.51-.05c-.34-.03-.61.04-.82.21-.21.17-.32.41-.35.71-.03.3.04.54.21.72.17.18.41.28.74.31l3.26.3c.27.02.52-.04.73-.2.21-.16.33-.37.35-.65.02-.17,0-.31-.05-.44s-.11-.23-.18-.31c-.07-.08-.15-.15-.24-.2-.11-.08-.18-.12-.2-.14l.16-1.76,7.5.68-.52,5.7Z" fill="#fff"/><path d="M416.16,235.74l3.43.41-.19,1.56-3.43-.41.19-1.56Z" fill="#fff"/><path d="M404.3,244.65l2.05.34.65-3.93,1.86.31,9.39,4.48-.35,2.09-9.37-4.59-.32,1.95,3.92.65-.33,1.97-3.92-.65-.16.95-1.86-.31.16-.95-2.05-.34.33-1.97Z" fill="#fff"/><path d="M416.3,256.2l-5.29-3.4-.05.03c.04.07.06.18.06.32,0,.14-.02.32-.06.54-.07.35-.22.65-.45.91s-.48.45-.77.56c-.16.06-.31.1-.47.13-.15.02-.35.03-.58.02-.24-.02-.53-.06-.89-.12s-.8-.14-1.34-.25c-.45-.09-.81-.17-1.1-.24-.29-.07-.52-.14-.71-.2-.2-.08-.36-.16-.49-.25-.13-.09-.26-.19-.4-.31-.37-.34-.63-.75-.77-1.23s-.16-.98-.05-1.52c.11-.54.33-.99.65-1.37s.72-.65,1.18-.82c.17-.07.34-.12.49-.15.15-.03.33-.04.54-.02.2,0,.45.02.74.07.29.05.66.11,1.11.21.42.09.77.16,1.04.23.27.07.51.14.71.2.19.06.35.14.5.22.15.08.31.18.47.28l6.35,3.98-.45,2.19ZM408.24,253.25c.29.06.55.01.77-.14.22-.16.35-.36.41-.62.05-.26,0-.5-.13-.73-.14-.23-.36-.37-.65-.43l-2.54-.52c-.29-.06-.55-.01-.77.14-.22.16-.35.36-.41.62-.05.26,0,.5.13.73.14.23.36.37.65.43l2.54.52Z" fill="#fff"/><path d="M412.34,258.06l3.36.78-.36,1.53-3.36-.78.36-1.53Z" fill="#fff"/><path d="M399.56,265.6l2,.56,1.08-3.83,1.81.51,8.84,5.49-.58,2.04-8.81-5.6-.54,1.91,3.83,1.08-.54,1.92-3.83-1.08-.26.92-1.81-.51.26-.92-2-.56.54-1.92Z" fill="#fff"/><path d="M398.4,269.55l10.41,7.05.67-2.09-1.53-.49.54-1.68,3.32,1.07-1.83,5.67-1.9-.61-10.34-6.9.65-2.01Z" fill="#fff"/><path d="M406.07,279.82l3.25,1.15-.52,1.48-3.25-1.15.52-1.48Z" fill="#fff"/><path d="M392.52,285.92l1.92.78,1.5-3.69,1.74.71,8.17,6.44-.8,1.96-8.13-6.54-.75,1.83,3.69,1.5-.75,1.85-3.69-1.5-.36.89-1.74-.71.36-.89-1.92-.78.75-1.85Z" fill="#fff"/><path d="M400.52,293.54c.35.16.63.3.87.43s.43.27.58.41c.15.14.28.28.39.42.11.14.21.31.31.5.2.38.31.78.32,1.22.01.44-.08.86-.26,1.28-.19.42-.45.77-.78,1.04-.33.28-.71.47-1.13.57-.21.05-.4.08-.58.1-.18.02-.37.02-.58,0-.21-.02-.43-.08-.69-.17s-.55-.22-.9-.37c-.38-.17-.7-.32-.96-.45-.26-.13-.47-.27-.65-.42s-.32-.32-.42-.52c-.1-.2-.2-.44-.28-.74-.26.14-.51.23-.73.28-.22.05-.46.05-.71.01-.25-.04-.55-.13-.88-.27-.33-.14-.74-.31-1.21-.53-.39-.18-.71-.33-.96-.47s-.46-.26-.63-.38-.31-.25-.41-.37c-.1-.12-.2-.27-.3-.43-.22-.34-.35-.75-.41-1.22-.05-.47.04-.97.28-1.51s.56-.94.94-1.21c.39-.27.78-.44,1.18-.5.19-.03.36-.05.52-.06.16,0,.34.02.55.07s.44.12.71.22c.26.1.59.23.99.41.48.21.88.4,1.2.56.32.16.58.32.78.48.2.16.35.34.46.54.11.2.2.44.27.73.28-.13.52-.23.74-.28.22-.05.44-.06.67-.03.23.03.48.1.75.21.27.11.59.25.97.42ZM394.6,295.22c.25.11.5.12.75.02s.43-.27.54-.51.12-.49.02-.74c-.09-.26-.26-.44-.51-.55l-2.5-1.13c-.25-.11-.5-.12-.76-.02s-.43.27-.54.51-.11.49-.02.74.26.44.51.55l2.5,1.13ZM399.61,297.47c.25.11.5.12.75.02.25-.1.43-.27.54-.51.11-.24.11-.49.02-.74-.09-.26-.26-.44-.51-.55l-1.86-.84c-.25-.11-.5-.12-.75-.02-.25.1-.43.27-.54.51s-.12.49-.02.74c.09.26.26.44.51.55l1.86.84Z" fill="#fff"/><path d="M397.42,300.76l3.1,1.5-.68,1.41-3.1-1.5.68-1.41Z" fill="#fff"/><path d="M383.29,305.31l1.83.99,1.9-3.5,1.65.9,7.41,7.3-1.01,1.86-7.36-7.4-.94,1.74,3.5,1.9-.95,1.76-3.5-1.9-.46.84-1.65-.9.46-.84-1.83-.99.95-1.76Z" fill="#fff"/><path d="M381.15,309.15l3.89,4.94h.05c-.01-.1,0-.21.04-.34s.12-.3.23-.49c.18-.3.42-.54.72-.71.3-.17.6-.27.92-.28.16-.01.32,0,.47.03.16.03.34.1.56.19.22.09.49.21.81.39.32.17.71.4,1.18.68.39.23.71.43.96.59.25.16.45.31.61.45.16.12.28.25.37.37.09.12.19.27.27.42.24.44.35.91.33,1.41s-.17.98-.45,1.45c-.28.47-.63.83-1.06,1.08-.43.25-.89.38-1.38.39-.18,0-.35-.01-.51-.03-.16-.02-.33-.06-.52-.12-.19-.08-.42-.2-.68-.33-.26-.14-.59-.32-.98-.56-.37-.22-.67-.41-.91-.56s-.43-.29-.59-.41c-.16-.14-.3-.27-.42-.39-.12-.12-.24-.26-.36-.41l-4.7-5.83,1.14-1.92ZM387.81,314.56c-.26-.15-.52-.19-.77-.12-.26.08-.45.23-.58.45-.13.22-.17.47-.11.73s.22.47.47.62l2.23,1.32c.26.15.52.19.77.12.26-.08.45-.23.59-.45.13-.23.17-.47.11-.73s-.22-.47-.47-.62l-2.23-1.32Z" fill="#fff"/><path d="M386.51,320.62l2.92,1.84-.83,1.33-2.92-1.84.83-1.33Z" fill="#fff"/><path d="M382.02,333.56l-1.54-1.07,2.26-3.25-3.09-2.15c.05.25.04.54-.02.84-.06.31-.19.61-.4.9-.39.56-.87.89-1.45,1.01-.58.11-1.21-.06-1.88-.53l-2.96-2.06c-.39-.27-.68-.57-.89-.92-.21-.34-.34-.7-.4-1.08-.06-.37-.04-.75.05-1.12.09-.37.25-.72.47-1.04s.49-.59.81-.81c.32-.22.66-.36,1.03-.44.37-.08.75-.08,1.15,0,.39.07.78.25,1.17.51l.48.34-1.14,1.64-.42-.29c-.28-.19-.55-.27-.81-.22-.26.05-.48.19-.65.44-.17.25-.23.49-.17.73.06.24.22.45.49.64l2.69,1.87c.23.16.47.22.73.19.26-.03.47-.16.63-.39.1-.14.15-.27.17-.4.02-.13.02-.25,0-.36-.02-.11-.06-.21-.11-.29-.06-.12-.1-.19-.11-.22l1.01-1.45,6.18,4.29-3.27,4.7Z" fill="#fff"/><path d="M378.72,333.21c.38.28.66.6.86.95.19.35.31.71.36,1.09.04.38.01.75-.09,1.12-.11.37-.28.71-.51,1.02s-.52.57-.84.78-.68.34-1.05.4c-.37.06-.76.05-1.15-.04-.39-.09-.77-.27-1.15-.56l-6.55-4.92c-.38-.28-.66-.6-.86-.95-.19-.35-.31-.71-.36-1.09s-.01-.75.09-1.12c.11-.37.28-.71.51-1.02s.52-.57.84-.78c.33-.21.67-.34,1.05-.4.37-.06.76-.05,1.15.04.39.09.77.27,1.15.56l6.55,4.92ZM370.97,329.89c-.23-.17-.48-.24-.74-.21-.26.03-.48.16-.65.39-.17.23-.24.47-.2.73.04.26.18.48.41.65l6.55,4.92c.23.17.48.24.74.21.26-.03.48-.16.65-.39.17-.23.24-.48.2-.74-.04-.26-.18-.48-.41-.65l-6.55-4.92Z" fill="#fff"/><path d="M373.5,339.12l2.7,2.15-.98,1.23-2.7-2.15.98-1.23Z" fill="#fff"/><path d="M367.62,351.51l-1.42-1.24,2.6-2.98-2.84-2.47c.02.26-.02.54-.12.83-.09.3-.26.58-.49.85-.45.51-.96.79-1.55.84-.59.05-1.19-.2-1.81-.74l-2.72-2.37c-.35-.31-.62-.65-.78-1.01-.17-.36-.26-.73-.28-1.11s.04-.75.17-1.11.33-.69.58-.98c.26-.3.56-.53.9-.71.34-.18.7-.29,1.08-.32.38-.04.76,0,1.14.12.38.12.75.33,1.11.64l.44.39-1.31,1.51-.38-.33c-.26-.22-.52-.33-.79-.31-.27.02-.5.14-.7.37-.2.23-.28.46-.25.7.03.24.17.47.42.69l2.47,2.15c.21.18.44.27.71.26.26,0,.49-.11.67-.32.11-.13.18-.26.22-.38.03-.13.04-.25.04-.36,0-.11-.03-.21-.08-.3-.05-.13-.07-.2-.09-.23l1.16-1.33,5.67,4.95-3.76,4.31Z" fill="#fff"/><path d="M354.67,344.96l8.63,8.1.3-2.46,1.54,1.45-.3,2.46-1.37,1.46-10.18-9.55,1.37-1.46Z" fill="#fff"/><path d="M358.53,356.11l2.45,2.43-1.1,1.11-2.45-2.43,1.1-1.11Z" fill="#fff"/><path d="M351.34,367.77l-1.27-1.38,2.91-2.68-2.55-2.77c-.01.26-.08.53-.21.82-.13.29-.32.55-.58.79-.5.46-1.04.68-1.64.67-.59-.02-1.17-.33-1.72-.93l-2.44-2.65c-.32-.35-.54-.71-.67-1.09-.13-.38-.18-.76-.15-1.14.02-.38.12-.74.29-1.08.17-.34.4-.65.69-.92.29-.27.61-.47.97-.61s.73-.21,1.1-.2c.38,0,.75.09,1.12.25.37.16.71.41,1.03.76l.4.43-1.47,1.35-.35-.38c-.23-.25-.48-.38-.75-.39-.27-.01-.51.08-.73.29-.22.2-.33.43-.33.67s.12.49.34.73l2.22,2.41c.19.2.41.31.67.34s.49-.06.7-.24c.12-.12.21-.23.26-.36.05-.12.07-.24.08-.35,0-.11,0-.21-.04-.31-.03-.13-.05-.21-.06-.24l1.3-1.19,5.1,5.54-4.21,3.88Z" fill="#fff"/><path d="M340.98,358.31l1.22,1.43,1.68,7.51c.08.38.2.67.34.88s.34.46.59.75c.11.13.23.26.36.4.13.14.26.24.41.31.14.07.3.09.46.08.16-.01.34-.1.53-.26.23-.2.35-.42.38-.66.02-.24-.07-.49-.28-.74l-.74-.86,1.52-1.3.71.83c.27.32.47.67.59,1.05.12.38.16.76.13,1.15-.02.38-.12.75-.29,1.11-.17.36-.42.68-.73.95-.4.34-.8.56-1.21.66s-.81.1-1.21.02c-.39-.1-.76-.27-1.12-.51-.36-.25-.69-.55-.99-.9-.22-.26-.4-.48-.54-.66s-.26-.37-.37-.55c-.11-.18-.19-.39-.26-.6s-.14-.49-.21-.82l-1.45-6.22-2.74,2.34-1.3-1.52,4.53-3.87Z" fill="#fff"/><path d="M341.8,371.36l2.17,2.68-1.22.99-2.17-2.68,1.22-.99Z" fill="#fff"/><path d="M333.35,382.17l-1.12-1.51,3.19-2.35-2.23-3.03c-.04.26-.14.52-.3.79-.16.27-.38.51-.66.72-.55.4-1.11.56-1.7.48-.59-.08-1.12-.45-1.61-1.11l-2.14-2.91c-.28-.38-.46-.76-.55-1.15-.08-.39-.09-.77-.03-1.15.07-.37.2-.72.41-1.04.21-.32.47-.6.79-.83.32-.23.66-.4,1.03-.5.37-.1.74-.13,1.12-.08s.74.17,1.09.37c.35.2.66.49.94.86l.35.47-1.61,1.19-.3-.41c-.2-.27-.43-.43-.7-.47-.26-.04-.52.03-.76.21-.24.18-.37.39-.4.63-.02.24.06.5.26.76l1.94,2.64c.16.22.37.36.63.41.26.05.5,0,.72-.16.14-.1.24-.21.29-.33s.1-.23.12-.34c.02-.11.01-.21,0-.31-.02-.13-.03-.21-.03-.24l1.42-1.05,4.46,6.06-4.61,3.39Z" fill="#fff"/><path d="M326.68,379.64c-.5.34-.8.63-.91.88-.11.25-.02.59.28,1.02l1.02,1.49c.16.24.37.38.62.43s.5,0,.75-.18c.29-.2.44-.43.44-.7s-.06-.49-.18-.66l-.64-.94,1.65-1.13.65.96c.23.33.38.7.46,1.09s.08.77,0,1.14c-.08.37-.23.72-.44,1.06-.21.33-.49.62-.84.86-.45.31-.89.47-1.31.5-.42.02-.77,0-1.04-.08-.2-.06-.38-.12-.55-.2-.17-.08-.34-.19-.52-.33-.34-.29-.75-.79-1.23-1.49-.27-.4-.48-.73-.64-.99-.15-.26-.25-.49-.3-.7-.04-.22-.04-.44.02-.65.05-.21.15-.47.29-.77-.37.01-.67,0-.9-.05-.23-.05-.44-.14-.63-.28-.2-.15-.39-.35-.58-.61-.19-.26-.43-.59-.71-1-.26-.38-.46-.7-.62-.96-.15-.26-.27-.48-.35-.67-.09-.19-.14-.37-.17-.53-.03-.16-.04-.33-.04-.52,0-.44.09-.87.27-1.29.18-.42.53-.8,1.05-1.15.26-.18.56-.32.92-.43.35-.11.71-.15,1.08-.12.37.03.74.15,1.11.36.37.21.71.54,1.02.99l.64.94-1.65,1.12-.58-.86c-.18-.26-.4-.42-.66-.49s-.51-.02-.76.15c-.25.17-.39.39-.42.65-.03.27.05.54.24.82l1.12,1.65c.31.45.6.69.87.71.16.02.33-.02.51-.11.18-.09.41-.23.68-.41l.99,1.46Z" fill="#fff"/><path d="M323.48,384.69l1.86,2.9-1.32.85-1.86-2.9,1.32-.85Z" fill="#fff"/><path d="M313.9,394.5l-.94-1.63,3.43-1.98-1.88-3.26c-.07.25-.19.5-.38.75-.19.25-.43.46-.74.64-.59.34-1.17.44-1.74.29-.57-.14-1.07-.57-1.48-1.28l-1.81-3.12c-.24-.41-.37-.81-.42-1.21-.04-.4,0-.78.1-1.14.11-.36.28-.7.52-.99.24-.3.53-.55.87-.74.34-.2.7-.32,1.08-.39s.75-.05,1.12.04c.37.09.71.25,1.04.49.32.23.6.56.84.96l.29.51-1.73,1-.25-.44c-.17-.29-.38-.48-.64-.54-.26-.07-.52-.03-.78.12-.26.15-.42.34-.46.59-.05.24,0,.5.17.78l1.64,2.83c.14.24.33.4.58.48s.5.05.73-.08c.15-.08.26-.18.33-.29.07-.11.12-.22.15-.33.03-.11.04-.21.03-.31,0-.13,0-.22,0-.25l1.53-.88,3.77,6.52-4.96,2.87Z" fill="#fff"/><path d="M302.8,384.63l.97,1.84,3.51-1.86.88,1.66,2.14,10.18-1.87.99-2.03-10.24-1.75.93,1.86,3.51-1.77.94-1.86-3.52-.85.45-.88-1.66.85-.45-.97-1.84,1.77-.94Z" fill="#fff"/><path d="M303.82,395.92l1.53,3.09-1.41.7-1.53-3.09,1.41-.7Z" fill="#fff"/><path d="M293.22,404.61l-.76-1.72,3.62-1.59-1.51-3.45c-.09.24-.25.48-.46.71-.21.23-.48.41-.8.56-.62.27-1.21.31-1.76.1-.55-.21-1-.69-1.33-1.44l-1.45-3.3c-.19-.43-.28-.85-.28-1.25,0-.4.08-.78.22-1.13.15-.35.36-.66.63-.93.27-.27.59-.48.95-.64.36-.16.73-.25,1.12-.26.38-.02.75.04,1.11.17.36.13.68.33.98.6.3.27.54.62.73,1.05l.24.54-1.83.8-.21-.47c-.14-.31-.33-.52-.58-.61-.25-.1-.51-.09-.79.04s-.45.3-.53.53c-.08.23-.05.5.08.8l1.32,3c.11.25.29.43.53.54s.49.11.74,0c.16-.07.28-.15.36-.25.08-.1.15-.2.19-.31.04-.1.06-.21.06-.3.01-.13.02-.22.02-.25l1.62-.71,3.03,6.89-5.24,2.3Z" fill="#fff"/><path d="M286.09,407.47l-.69-1.75,3.68-1.46-1.38-3.5c-.1.24-.27.47-.49.69s-.5.4-.82.53c-.63.25-1.22.26-1.77.04-.55-.23-.97-.72-1.27-1.49l-1.33-3.35c-.17-.44-.25-.86-.23-1.26.02-.4.11-.77.26-1.12s.38-.65.66-.91.61-.46.97-.61c.37-.14.74-.22,1.12-.22s.75.06,1.1.21c.35.14.67.35.96.63.29.28.52.64.69,1.08l.22.55-1.86.74-.19-.47c-.12-.32-.31-.53-.56-.63-.25-.11-.51-.1-.79,0-.28.11-.46.28-.55.51-.08.23-.07.5.05.8l1.2,3.04c.1.25.27.44.51.56s.48.13.74.02c.16-.06.28-.14.37-.24s.15-.2.2-.3.07-.2.07-.3c.02-.13.03-.21.03-.24l1.64-.65,2.77,7-5.32,2.11Z" fill="#fff"/><path d="M283.03,404.91l1.18,3.24-1.47.54-1.18-3.24,1.47-.54Z" fill="#fff"/><path d="M271.54,412.38l-.56-1.8,3.78-1.18-1.12-3.59c-.12.23-.3.45-.54.65s-.52.36-.86.46c-.65.2-1.24.17-1.76-.09-.53-.27-.92-.79-1.16-1.58l-1.08-3.44c-.14-.45-.19-.87-.14-1.27.05-.4.16-.76.35-1.09.18-.33.43-.62.73-.85.3-.24.64-.42,1.01-.53s.75-.16,1.14-.14.75.12,1.09.29.64.4.91.7c.26.3.47.68.61,1.12l.18.56-1.91.6-.15-.49c-.1-.33-.27-.55-.51-.67-.24-.12-.5-.14-.79-.05s-.48.25-.58.47c-.1.22-.1.49,0,.8l.98,3.12c.08.26.24.46.46.59.23.13.47.16.73.08.16-.05.29-.12.39-.21s.17-.19.22-.28c.05-.1.08-.2.09-.3.03-.13.04-.21.05-.24l1.68-.53,2.24,7.18-5.46,1.71Z" fill="#fff"/><path d="M264.83,414.24l.66-6.25-.05-.03c-.05.07-.14.13-.26.2s-.29.13-.51.19c-.34.09-.68.1-1.01.01s-.62-.23-.85-.44c-.13-.12-.23-.23-.32-.36s-.18-.3-.28-.51c-.09-.22-.18-.5-.29-.84-.11-.34-.23-.78-.38-1.31-.12-.44-.21-.81-.28-1.09s-.11-.53-.14-.72c-.02-.21-.02-.39,0-.55s.05-.32.1-.49c.14-.48.39-.9.75-1.24s.81-.58,1.33-.73c.53-.14,1.03-.16,1.51-.04s.9.35,1.26.68c.14.12.26.25.35.37s.18.28.26.48c.09.18.18.41.27.69s.2.64.32,1.08c.11.42.2.76.26,1.04.06.27.11.52.14.72.03.2.04.38.03.55,0,.17-.02.35-.03.55l-.69,7.46-2.16.59ZM263.83,405.71c.08.29.24.5.47.62s.48.15.73.08.45-.22.59-.45c.14-.23.17-.49.09-.78l-.68-2.5c-.08-.29-.24-.5-.47-.62s-.48-.15-.73-.08-.45.22-.59.45c-.14.23-.17.49-.09.78l.68,2.5Z" fill="#fff"/><path d="M261.37,411.54l.81,3.35-1.52.37-.81-3.35,1.52-.37Z" fill="#fff"/><path d="M249.12,417.7l-.36-1.85,3.89-.75-.72-3.69c-.14.21-.35.41-.6.59-.26.18-.56.3-.91.37-.67.13-1.25.03-1.74-.29-.49-.32-.82-.89-.98-1.7l-.69-3.54c-.09-.46-.09-.89,0-1.28.09-.39.25-.74.47-1.05.22-.31.49-.56.82-.77.33-.2.68-.34,1.07-.42.38-.08.77-.08,1.15-.01.38.07.73.2,1.05.41.32.21.59.47.82.8.23.33.39.72.48,1.18l.11.58-1.96.38-.1-.5c-.07-.33-.21-.58-.43-.72-.22-.15-.48-.2-.78-.14-.29.06-.5.19-.63.4-.12.21-.16.48-.09.8l.62,3.21c.05.27.18.48.39.64.21.16.45.21.72.16.17-.03.3-.09.41-.17s.19-.17.25-.26c.06-.09.1-.19.12-.28.04-.13.07-.21.07-.23l1.73-.34,1.43,7.39-5.62,1.09Z" fill="#fff"/><path d="M244.82,404.27l-1.61,12.47,2.17-.34-.25-1.59,1.74-.27.54,3.45-5.89.92-.31-1.98,1.51-12.34,2.09-.33Z" fill="#fff"/><path d="M239.12,415.74l.44,3.42-1.55.2-.44-3.42,1.56-.2Z" fill="#fff"/><path d="M226.27,420.5l-.15-1.88,3.95-.32-.31-3.75c-.17.2-.39.37-.67.52-.28.15-.59.23-.94.26-.68.05-1.24-.11-1.7-.48-.46-.38-.72-.97-.79-1.79l-.29-3.59c-.04-.47,0-.89.14-1.27.13-.38.33-.71.58-.99s.55-.51.9-.67c.35-.17.72-.27,1.11-.3.39-.03.77,0,1.14.11s.7.28,1,.52.54.53.73.88c.19.35.31.76.35,1.23l.05.59-1.99.16-.04-.51c-.03-.34-.14-.59-.35-.77-.2-.17-.46-.25-.76-.22s-.52.13-.67.33c-.15.2-.21.46-.18.78l.27,3.26c.02.27.13.5.32.68.19.18.42.26.7.24.17-.01.31-.05.42-.12.11-.07.21-.14.28-.23.07-.08.12-.17.16-.27.06-.12.09-.2.1-.22l1.76-.14.61,7.5-5.7.47Z" fill="#fff"/><path d="M224.39,416.97c.02.38.02.7,0,.97-.01.27-.05.5-.11.7-.06.2-.12.38-.2.54-.08.16-.18.33-.3.5-.25.35-.56.63-.94.84-.38.21-.8.32-1.26.34s-.88-.06-1.29-.23c-.4-.17-.74-.42-1.01-.75-.14-.16-.26-.32-.36-.47-.1-.15-.18-.33-.26-.52-.07-.19-.13-.42-.16-.69s-.06-.59-.07-.97c-.02-.42-.03-.77-.03-1.06,0-.29.03-.54.08-.77.05-.23.15-.43.28-.61s.31-.38.53-.58c-.24-.17-.44-.35-.58-.52-.15-.18-.26-.39-.33-.63-.08-.25-.13-.55-.16-.91s-.06-.8-.08-1.32c-.02-.43-.03-.79-.02-1.07s.03-.53.05-.74.08-.39.14-.54.15-.3.24-.46c.21-.35.51-.65.9-.91s.88-.4,1.47-.43c.59-.03,1.09.07,1.5.29.42.22.74.5.98.83.11.15.21.3.29.44.08.14.14.31.19.52.05.21.09.45.12.73.03.28.06.64.08,1.07.02.52.04.96.04,1.32s-.02.67-.08.92c-.05.25-.15.47-.27.66-.13.19-.31.38-.53.57.24.19.44.36.58.53.14.17.25.36.33.58.08.22.13.47.15.76.03.29.05.64.07,1.06ZM220.22,412.45c.01.27.12.5.33.68.21.18.44.26.7.25.26-.01.49-.12.67-.32.19-.2.27-.43.26-.71l-.12-2.74c-.01-.27-.12-.5-.33-.68-.2-.18-.44-.26-.7-.25-.26.01-.48.12-.67.31s-.28.43-.26.71l.12,2.74ZM220.47,417.93c.01.27.12.5.33.68.2.18.44.26.7.25.26-.01.49-.12.67-.32.19-.2.27-.43.26-.71l-.09-2.04c-.01-.27-.12-.5-.32-.68-.21-.18-.44-.26-.7-.25s-.49.12-.67.31-.27.43-.26.71l.09,2.04Z" fill="#fff"/><path d="M216.53,417.46l.06,3.45-1.57.03-.06-3.45,1.57-.03Z" fill="#fff"/><path d="M203.26,420.8l.05-1.88,3.96.11.1-3.76c-.19.18-.43.33-.72.44s-.61.17-.96.16c-.68-.02-1.23-.24-1.64-.66-.41-.42-.61-1.05-.59-1.87l.1-3.6c.01-.47.11-.89.28-1.25.17-.36.4-.67.68-.92.28-.25.6-.44.97-.57.36-.13.74-.19,1.13-.17.39.01.77.09,1.12.24.36.15.67.35.93.62.27.27.48.59.63.96s.22.79.21,1.26l-.02.59-2-.05v-.51c.02-.34-.06-.61-.25-.8-.18-.2-.43-.3-.73-.3-.3,0-.54.08-.7.26s-.26.43-.27.76l-.09,3.27c0,.27.07.51.25.71.17.2.39.3.67.31.17,0,.31-.02.43-.08s.22-.12.3-.2c.08-.08.14-.16.18-.25.07-.12.11-.19.12-.21l1.76.05-.21,7.52-5.72-.16Z" fill="#fff"/><path d="M201.71,406.75l-2.64,5.7.04.04c.07-.05.17-.08.31-.11.14-.02.32-.03.54-.01.35.02.67.13.96.32s.51.42.66.69c.08.14.15.28.19.43.04.15.07.35.08.58.02.24.03.54.02.89s-.03.81-.07,1.36c-.03.46-.06.83-.09,1.12-.03.29-.07.54-.13.75-.04.19-.09.36-.16.5-.07.14-.15.29-.25.44-.29.41-.66.72-1.11.93-.45.21-.95.29-1.5.26-.55-.04-1.03-.19-1.44-.46-.42-.27-.74-.62-.97-1.05-.08-.16-.15-.32-.21-.46-.06-.15-.1-.32-.12-.52-.01-.21-.02-.46-.01-.76,0-.29.02-.67.05-1.13.03-.43.06-.79.09-1.07.03-.28.07-.52.1-.71.05-.21.11-.39.16-.55s.12-.33.2-.51l3.07-6.84,2.23.14ZM199.9,415.14c.02-.3-.06-.55-.25-.74-.18-.2-.41-.3-.67-.32s-.5.06-.7.23c-.21.17-.32.41-.34.71l-.16,2.58c-.02.3.06.55.25.74.18.19.41.3.67.32s.5-.06.7-.23c.21-.17.32-.41.34-.71l.16-2.58Z" fill="#fff"/><path d="M193.91,416.72l-.31,3.43-1.56-.14.31-3.44,1.56.14Z" fill="#fff"/><path d="M180.93,418.89l3.1-5.58-.03-.04c-.07.04-.18.07-.32.09s-.33,0-.55-.03c-.35-.05-.67-.18-.95-.39-.28-.21-.49-.46-.62-.75-.07-.16-.12-.31-.16-.46-.03-.15-.05-.35-.06-.59,0-.24.03-.54.06-.91s.09-.82.17-1.37c.06-.46.12-.84.18-1.13.05-.29.11-.54.16-.73.07-.21.14-.38.22-.51s.18-.28.29-.42c.32-.4.72-.68,1.19-.86.47-.18.99-.23,1.54-.15s1.03.27,1.43.57.7.68.91,1.14c.08.17.14.33.18.49.04.15.06.34.05.55.01.2,0,.45-.02.75-.03.3-.07.68-.14,1.14-.06.43-.12.79-.17,1.07-.05.28-.11.52-.16.73-.05.19-.12.37-.19.53-.08.16-.16.32-.25.5l-3.62,6.69-2.25-.31ZM183.39,410.53c-.04.3.02.56.2.77.17.21.39.33.65.37s.5-.02.73-.18c.22-.16.35-.39.4-.69l.36-2.6c.04-.3-.02-.56-.2-.77s-.39-.33-.65-.37c-.26-.04-.5.02-.73.18s-.35.39-.4.69l-.36,2.6Z" fill="#fff"/><path d="M178.98,415.64c-.08.47-.24.87-.47,1.21-.23.34-.5.61-.82.82-.32.21-.67.36-1.06.43-.38.07-.77.08-1.16,0-.39-.07-.76-.2-1.09-.4-.33-.2-.62-.46-.85-.76-.23-.31-.39-.66-.49-1.06-.1-.39-.11-.83-.02-1.3l1.44-8.19c.08-.47.24-.87.47-1.21.23-.34.5-.61.82-.83.32-.21.67-.36,1.06-.43.38-.07.77-.08,1.16,0,.39.07.75.2,1.09.4.33.2.62.46.84.77.23.31.39.66.49,1.06.1.39.11.83.02,1.3l-1.44,8.19ZM178.43,407.09c.05-.29,0-.54-.15-.76-.15-.22-.37-.36-.66-.41-.29-.05-.54,0-.76.16-.22.16-.35.38-.4.67l-1.44,8.19c-.05.29,0,.54.15.76s.37.36.66.41c.29.05.54,0,.76-.16s.35-.38.4-.67l1.44-8.19Z" fill="#fff"/><path d="M171.23,413.62l-.7,3.43-1.56-.32.7-3.43,1.56.32Z" fill="#fff"/></g></g></g></g></svg>