<?xml version="1.0" encoding="UTF-8"?><svg id="Layer_2" xmlns="http://www.w3.org/2000/svg" viewBox="0 0 412.21 412.2"><g id="Layer_2-2"><g id="Layer_1-2"><g isolation="isolate"><g isolation="isolate"><path d="M159.98,395.63c.23.06.4.15.48.27s.11.29.06.48c-.07.29-.64.72-1.68,1.29l-.24.14c-.16.09-.39.22-.69.39-1.9,1.05-2.93,1.9-3.1,2.56-.12.47-.08.89.11,1.25.19.36.51.6.93.71.28.07.56.08.84.03.28-.05.53-.15.73-.31.04-.03.09-.08.17-.15.24-.25.46-.36.66-.3.16.04.26.12.3.23.04.11.03.31-.04.58-.04.16-.09.27-.14.34-.05.07-.13.13-.23.19-.35.2-.76.33-1.22.38-.46.06-.91.03-1.34-.09-.73-.19-1.29-.58-1.66-1.18-.37-.6-.47-1.24-.29-1.93.22-.87,1.27-1.83,3.13-2.88.48-.26.84-.46,1.1-.62l1.01-.58-3.03-.77c-.07.19-.16.32-.27.4-.11.08-.24.1-.39.06s-.25-.11-.31-.23-.07-.26-.02-.43c0-.01.01-.04.02-.07.01-.03.02-.05.02-.07l.18-.5c.05-.13.12-.23.2-.29.09-.06.18-.08.29-.05l4.38,1.12Z" fill="#fff"/></g></g><g isolation="isolate"><g isolation="isolate"><path d="M149.76,392.6c.82.25,1.35.83,1.6,1.75.25.92.17,2.05-.24,3.4-.41,1.34-.97,2.33-1.68,2.96-.72.63-1.48.82-2.3.57-.82-.25-1.36-.83-1.61-1.76s-.17-2.05.23-3.39c.4-1.34.97-2.32,1.69-2.96.72-.63,1.49-.83,2.31-.58ZM147.42,400.35c.5.15.98-.03,1.44-.54.46-.51.85-1.31,1.18-2.39.33-1.09.44-1.97.34-2.65-.1-.68-.4-1.1-.9-1.25-.51-.15-.99.03-1.45.54-.46.51-.85,1.31-1.18,2.4-.33,1.08-.44,1.96-.34,2.64.1.68.4,1.09.91,1.25Z" fill="#fff"/></g></g><g isolation="isolate"><g isolation="isolate"><path d="M144.05,391.03c.23.08.38.18.46.32.08.13.08.29.01.49-.1.28-.69.66-1.79,1.14l-.25.12c-.17.08-.41.19-.72.33-1.98.88-3.08,1.65-3.3,2.29-.16.46-.16.88,0,1.26.16.38.45.64.87.78.27.09.55.13.84.1.29-.02.54-.11.75-.24.04-.03.1-.07.18-.13.26-.23.49-.31.69-.25.16.05.25.14.28.26.03.12,0,.31-.09.58-.05.15-.11.26-.16.32s-.14.12-.25.17c-.37.17-.78.26-1.24.28-.46.02-.91-.05-1.33-.2-.71-.25-1.23-.69-1.55-1.32-.32-.63-.36-1.28-.13-1.95.29-.84,1.42-1.71,3.37-2.6.5-.22.88-.39,1.14-.52l1.06-.49-2.95-1.03c-.08.18-.18.3-.3.37s-.25.08-.39.03c-.14-.05-.24-.14-.29-.26-.05-.12-.04-.27.01-.43,0-.01.01-.03.03-.07.02-.03.03-.05.03-.07l.23-.48c.06-.13.13-.22.23-.27s.19-.06.29-.03l4.27,1.49Z" fill="#fff"/></g></g><g isolation="isolate"><g isolation="isolate"><path d="M133.45,392.87c-.32,0-.61-.04-.86-.08s-.49-.11-.71-.2c-.74-.29-1.26-.8-1.54-1.51-.29-.71-.28-1.45.02-2.21.32-.81.86-1.37,1.62-1.67.75-.31,1.56-.29,2.41.05.71.28,1.27.62,1.67,1,.4.38.55.71.44.99-.04.11-.13.19-.25.24-.12.05-.25.05-.36,0-.05-.02-.26-.2-.65-.54-.39-.34-.77-.59-1.16-.74-.57-.23-1.1-.24-1.58-.04-.49.2-.84.57-1.06,1.11-.21.52-.22,1.03-.02,1.51.2.48.55.83,1.06,1.03.38.15.79.21,1.23.16.44-.04.7-.05.78-.02.13.05.2.13.21.25.02.11-.02.29-.12.54l-1.26,3.17c-.06.14-.14.22-.25.25s-.28,0-.49-.09l-3.21-1.28c-.2-.08-.34-.18-.41-.31-.07-.12-.07-.27,0-.43.06-.16.16-.26.31-.31.14-.04.31-.03.5.05l2.88,1.15.82-2.06Z" fill="#fff"/></g></g><g isolation="isolate"><g isolation="isolate"><path d="M113.46,385.65c-.07-.2-.05-.39.05-.58.1-.19.25-.32.44-.39.2-.06.4-.05.59.04s.32.24.38.44c.07.2.05.39-.04.58-.1.19-.25.31-.45.37-.2.07-.39.06-.59-.04-.19-.09-.32-.24-.38-.43ZM116.66,383.85l1.11-2.21c.03-.07.08-.13.14-.18.06-.05.11-.09.17-.11.13-.04.25-.03.38.03.12.06.21.16.25.29.02.06.03.13.02.21,0,.08-.03.15-.06.22l-1.11,2.21,2.28,1.16c.08.04.14.08.19.13.05.05.08.11.1.17.05.13.04.26-.02.38-.06.12-.16.21-.28.25-.07.02-.15.03-.22.03s-.15-.03-.22-.07l-2.29-1.14-1.11,2.2c-.03.07-.08.13-.14.19-.06.05-.11.09-.18.11-.13.04-.26.03-.37-.02-.11-.06-.19-.15-.24-.28-.02-.07-.03-.14-.02-.22,0-.08.03-.15.06-.22l1.09-2.21-2.29-1.16c-.07-.04-.14-.08-.19-.14s-.09-.12-.11-.18c-.04-.12-.03-.25.04-.37.07-.13.16-.21.28-.25.06-.02.13-.03.21-.02.08,0,.15.03.22.07l2.3,1.15ZM115.75,381.11c.2-.06.39-.05.58.05.19.1.32.25.39.44.06.2.05.39-.04.59-.09.19-.24.32-.44.38-.2.07-.39.05-.58-.04-.19-.1-.31-.25-.38-.45-.07-.2-.06-.39.04-.59.09-.19.24-.32.43-.38ZM117.54,386.49c.19-.07.38-.05.58.05.19.1.32.25.39.44.07.2.05.39-.04.57-.09.19-.24.31-.45.38-.2.06-.39.05-.57-.04s-.31-.24-.38-.43c-.06-.21-.05-.4.04-.59.09-.19.24-.32.43-.38ZM118.83,383.85c-.07-.19-.05-.38.05-.58.1-.19.25-.32.44-.39.2-.06.39-.05.57.04.19.09.31.24.38.45.07.2.05.39-.04.57-.09.19-.24.31-.43.38-.21.06-.4.05-.59-.04-.19-.09-.31-.24-.38-.43Z" fill="#fff"/></g></g><g isolation="isolate"><g isolation="isolate"><path d="M106.37,373.72c.21.13.33.26.38.41.05.14.02.3-.09.48-.15.25-.82.5-1.99.74l-.27.06c-.18.04-.44.09-.77.17-2.12.44-3.36.95-3.71,1.53-.25.42-.34.83-.26,1.23.08.4.31.72.68.95.24.15.51.24.79.28.29.04.55,0,.79-.08.04-.02.11-.05.21-.09.3-.17.54-.2.72-.09.14.09.21.19.22.31,0,.12-.06.3-.21.54-.09.14-.16.23-.23.28-.07.05-.16.09-.28.11-.4.09-.82.09-1.27,0-.45-.08-.87-.24-1.26-.48-.65-.4-1.06-.93-1.23-1.62-.18-.68-.08-1.33.29-1.93.47-.76,1.75-1.37,3.84-1.82.53-.11.94-.2,1.23-.27l1.14-.25-2.66-1.63c-.12.16-.24.26-.37.3-.13.04-.26.02-.39-.06-.13-.08-.2-.18-.22-.31-.02-.13.01-.27.1-.42,0-.01.02-.03.04-.06.02-.03.04-.04.04-.06l.32-.42c.09-.11.18-.19.28-.22.1-.03.2-.02.29.04l3.86,2.37Z" fill="#fff"/></g></g><g isolation="isolate"><g isolation="isolate"><path d="M97.47,367.78c.71.48,1.05,1.19,1.02,2.15-.03.95-.44,2.01-1.23,3.18-.78,1.16-1.61,1.94-2.48,2.33s-1.66.34-2.37-.13c-.71-.48-1.05-1.2-1.02-2.15.03-.96.44-2.01,1.22-3.17.78-1.16,1.61-1.94,2.48-2.33.87-.39,1.67-.35,2.38.13ZM92.95,374.49c.43.29.95.26,1.54-.09.59-.35,1.2-1,1.83-1.94.63-.94,1-1.75,1.11-2.43.11-.68-.06-1.17-.49-1.46-.44-.29-.95-.27-1.54.09-.59.35-1.2,1-1.84,1.94-.63.94-1,1.75-1.1,2.42-.1.68.06,1.16.5,1.46Z" fill="#fff"/></g></g><g isolation="isolate"><g isolation="isolate"><path d="M92.49,364.61c.19.14.31.29.35.44.04.15,0,.3-.13.47-.18.24-.86.43-2.05.56l-.27.04c-.18.02-.44.06-.79.1-2.15.26-3.43.66-3.83,1.21-.29.39-.41.79-.37,1.2.04.41.25.74.6,1.01.23.17.49.29.77.35s.55.06.79,0c.04-.01.11-.04.21-.07.32-.15.56-.16.73-.03.13.1.2.21.19.33,0,.12-.09.3-.26.52-.1.13-.18.22-.25.26-.07.04-.17.07-.29.09-.4.05-.83.02-1.27-.1-.45-.12-.85-.32-1.21-.58-.61-.45-.97-1.02-1.09-1.72-.12-.69.03-1.33.45-1.9.53-.72,1.86-1.22,3.99-1.49.54-.06.95-.12,1.25-.16l1.16-.15-2.52-1.85c-.13.15-.26.24-.4.27-.13.03-.26,0-.38-.09-.12-.09-.19-.2-.2-.33-.01-.13.04-.27.14-.41,0-.01.02-.03.05-.05.02-.02.04-.04.05-.05l.36-.39c.1-.11.19-.17.3-.19.1-.02.2,0,.29.06l3.64,2.68Z" fill="#fff"/></g></g><g isolation="isolate"><g isolation="isolate"><path d="M82.44,362.64c-.39.09-.76.11-1.09.04-.33-.07-.64-.21-.92-.43-.56-.45-.87-1.05-.92-1.78-.05-.74.17-1.42.67-2.03.52-.65,1.14-1.02,1.85-1.13.71-.11,1.37.07,1.96.55.7.56,1.04,1.29,1.01,2.18-.03.9-.41,1.81-1.16,2.73-.97,1.21-2.06,1.93-3.27,2.16-1.21.23-2.33-.06-3.35-.88-.34-.28-.55-.49-.62-.62-.07-.14-.05-.28.06-.42.18-.23.49-.18.91.15.28.22.52.38.71.48.65.35,1.33.43,2.04.26.72-.18,1.42-.6,2.11-1.26ZM83.46,361.12c.35-.44.52-.88.51-1.35,0-.46-.19-.84-.56-1.13-.34-.27-.72-.37-1.15-.29-.43.08-.81.34-1.15.75-.35.43-.52.88-.51,1.33s.19.82.54,1.11c.34.28.73.38,1.17.3.43-.08.81-.32,1.14-.72Z" fill="#fff"/></g></g><g isolation="isolate"><g isolation="isolate"><path d="M64.81,350.46c0-.21.07-.39.22-.54.15-.16.33-.24.54-.24.21,0,.39.07.55.21.16.14.23.32.24.53,0,.21-.06.39-.21.54-.15.15-.33.23-.54.23-.21,0-.39-.06-.55-.21s-.24-.32-.24-.52ZM68.4,349.68l1.71-1.79c.05-.06.11-.1.18-.13.07-.03.13-.05.19-.05.14,0,.25.04.35.14.1.1.15.21.16.35,0,.07-.01.13-.04.2-.03.07-.07.13-.12.19l-1.71,1.79,1.84,1.78c.06.06.11.12.14.19.03.06.05.12.05.19,0,.14-.04.26-.13.36s-.21.15-.34.16c-.08,0-.15,0-.22-.04s-.13-.07-.19-.13l-1.85-1.76-1.7,1.77c-.05.06-.12.1-.19.14-.07.04-.14.06-.2.06-.14,0-.25-.04-.35-.13-.09-.09-.14-.2-.14-.34,0-.07.01-.14.04-.22.03-.07.07-.14.12-.19l1.69-1.79-1.84-1.78c-.06-.06-.11-.12-.14-.19-.04-.07-.05-.14-.05-.21,0-.13.05-.25.15-.35.1-.1.22-.16.34-.16.06,0,.13.01.21.04.07.03.14.08.19.13l1.86,1.78ZM68.33,346.79c.21,0,.39.07.54.22.15.15.23.33.24.54,0,.21-.07.39-.21.55-.14.16-.32.24-.53.24-.21,0-.39-.06-.54-.21-.15-.15-.23-.33-.23-.54,0-.21.06-.39.21-.55s.32-.24.52-.24ZM68.47,352.46c.2,0,.38.06.54.22.16.15.23.33.24.54s-.06.38-.21.54c-.14.15-.32.23-.54.23-.21,0-.38-.06-.53-.21-.15-.14-.23-.32-.23-.53,0-.21.07-.4.21-.55.14-.15.32-.23.52-.24ZM70.48,350.32c0-.2.06-.38.21-.54.15-.16.33-.24.54-.24.21,0,.38.06.54.21.15.14.23.32.24.54,0,.21-.06.38-.21.53-.14.15-.32.23-.52.23-.22,0-.4-.07-.55-.21-.15-.14-.23-.32-.24-.52Z" fill="#fff"/></g></g><g isolation="isolate"><g isolation="isolate"><path d="M61.55,336.99c.16.18.24.35.25.5,0,.15-.07.3-.23.43-.22.2-.93.24-2.12.12l-.27-.02c-.18-.01-.45-.04-.79-.07-2.16-.2-3.49-.07-4,.38-.36.32-.57.69-.61,1.1-.04.41.08.78.38,1.11.19.21.42.38.68.5s.52.17.78.16c.05,0,.12-.01.22-.03.34-.08.58-.04.72.12.11.12.15.24.12.36-.03.12-.15.27-.36.46-.12.11-.22.18-.3.2-.08.03-.18.04-.3.03-.4-.03-.81-.15-1.22-.37-.41-.21-.76-.49-1.06-.83-.5-.57-.74-1.2-.71-1.91.03-.7.31-1.29.84-1.76.67-.59,2.07-.8,4.21-.62.54.05.96.09,1.25.11l1.16.09-2.07-2.34c-.16.12-.31.18-.45.18-.14,0-.25-.05-.35-.17-.1-.11-.14-.23-.12-.37.02-.13.09-.25.22-.37.01,0,.03-.02.06-.04.03-.02.05-.03.06-.04l.43-.31c.12-.08.23-.13.33-.13.1,0,.19.04.27.12l3,3.39Z" fill="#fff"/></g></g><g isolation="isolate"><g isolation="isolate"><path d="M54.78,328.73c.54.67.65,1.45.34,2.35-.31.9-1.01,1.79-2.11,2.68-1.09.88-2.11,1.38-3.05,1.5s-1.69-.15-2.23-.82c-.54-.67-.65-1.45-.34-2.35s1.01-1.8,2.1-2.68,2.1-1.38,3.06-1.5c.95-.12,1.7.15,2.23.82ZM48.5,333.83c.33.41.83.53,1.49.36.67-.16,1.44-.6,2.32-1.32.88-.72,1.47-1.38,1.77-2,.3-.62.28-1.13-.05-1.54-.33-.41-.83-.53-1.5-.37-.67.17-1.44.61-2.32,1.32-.88.71-1.47,1.38-1.76,1.99-.3.62-.28,1.13.05,1.54Z" fill="#fff"/></g></g><g isolation="isolate"><g isolation="isolate"><path d="M50.93,324.22c.14.19.21.37.2.52,0,.15-.1.29-.26.41-.24.18-.95.16-2.12-.06l-.27-.04c-.18-.03-.44-.08-.78-.13-2.13-.38-3.47-.37-4.02.04-.39.29-.63.64-.7,1.04-.08.4.02.78.28,1.14.17.23.38.42.63.55.25.14.51.21.76.22.05,0,.12,0,.23,0,.35-.05.58.01.71.18.1.13.13.25.09.37-.04.12-.17.26-.4.43-.13.1-.24.16-.32.17-.08.02-.18.02-.3,0-.4-.07-.8-.22-1.19-.47-.39-.25-.72-.55-.99-.91-.45-.61-.63-1.26-.54-1.96.09-.7.42-1.26.99-1.69.72-.53,2.13-.62,4.25-.26.53.1.95.17,1.24.21l1.15.19-1.86-2.51c-.17.1-.32.15-.46.14-.14,0-.25-.07-.34-.2s-.12-.25-.09-.38c.03-.13.11-.25.25-.35.01,0,.03-.02.06-.04.03-.02.05-.03.06-.04l.46-.27c.12-.07.23-.11.34-.1.1,0,.19.05.25.14l2.7,3.63Z" fill="#fff"/></g></g><g isolation="isolate"><g isolation="isolate"><path d="M44.52,315.52c.11-.03.19-.04.23-.03s.09.05.14.12l.07.1.27.4c.05.07.08.14.08.21s-.03.11-.08.15c-.03.02-.06.04-.09.05-.03.01-.07.03-.12.04l-7.54,1.88,1.95,2.87c.18-.11.34-.16.47-.15.13,0,.24.08.33.21.09.13.12.25.1.35-.02.11-.1.2-.24.3-.04.03-.07.04-.09.05-.02,0-.04.02-.06.03l-.55.29c-.11.06-.22.08-.32.05-.1-.03-.19-.1-.27-.21l-2.54-3.74c-.07-.11-.11-.21-.09-.29.01-.08.07-.16.17-.23l.19-.13s.11-.06.2-.09c.09-.03.21-.07.36-.11l7.42-2.12Z" fill="#fff"/></g></g><g isolation="isolate"><g isolation="isolate"><path d="M28.62,302.61c.06-.2.18-.35.37-.45.19-.1.38-.13.58-.07.2.06.35.18.46.36.11.18.13.38.07.58-.05.2-.17.35-.36.45-.19.1-.38.12-.58.06-.2-.05-.36-.17-.46-.36-.11-.19-.13-.38-.08-.57ZM32.28,302.92l2.16-1.21c.07-.04.14-.06.21-.07.08-.01.14,0,.2,0,.13.04.23.12.3.24s.08.25.05.38c-.02.06-.05.12-.1.18-.05.06-.11.11-.17.14l-2.16,1.21,1.24,2.24c.04.08.07.15.08.22s.01.13,0,.19c-.03.13-.11.23-.23.3-.12.07-.25.09-.37.05-.07-.02-.14-.05-.2-.1-.06-.05-.11-.1-.14-.18l-1.26-2.23-2.15,1.2c-.07.04-.14.06-.22.08-.08.01-.15.01-.21,0-.13-.04-.23-.12-.29-.23s-.08-.23-.04-.36c.02-.07.05-.13.11-.2.05-.06.11-.11.17-.15l2.14-1.22-1.24-2.24c-.04-.07-.07-.15-.08-.23-.01-.08,0-.15.01-.21.03-.12.12-.22.24-.29.13-.07.25-.08.38-.05.06.02.12.05.18.1.06.05.11.11.15.18l1.26,2.24ZM31.53,305.6c.2.05.35.17.45.36.1.19.13.38.07.58s-.17.35-.35.45c-.18.1-.37.12-.59.07-.2-.06-.35-.17-.45-.35s-.12-.37-.07-.57c.06-.21.18-.36.36-.47s.37-.13.57-.07ZM33.06,300.14c.2.06.35.18.45.37s.13.38.07.58c-.06.2-.18.36-.36.46-.18.11-.37.13-.57.07-.2-.05-.35-.17-.45-.36-.1-.19-.12-.38-.06-.58.05-.2.17-.36.36-.46s.37-.13.57-.08ZM34.08,304.14c.05-.2.17-.35.36-.45.19-.1.39-.13.58-.07.2.06.35.17.45.35.1.18.13.38.07.59-.06.2-.17.35-.35.45-.18.1-.37.12-.57.07-.21-.06-.36-.18-.47-.36-.1-.18-.13-.37-.07-.57Z" fill="#fff"/></g></g><g isolation="isolate"><g isolation="isolate"><path d="M29.44,288.77c.1.22.13.4.09.55-.04.15-.16.26-.34.35-.27.12-.96-.05-2.06-.5l-.26-.1c-.17-.07-.42-.17-.73-.3-2-.82-3.32-1.09-3.93-.81-.44.2-.75.49-.91.87-.16.38-.15.77.03,1.17.12.26.29.49.5.68.22.19.45.32.7.38.04,0,.12.02.22.04.35.03.57.14.65.33.07.15.07.28,0,.38s-.22.21-.48.33c-.15.07-.27.1-.35.1-.08,0-.18-.02-.29-.06-.38-.15-.73-.38-1.06-.71-.33-.32-.59-.69-.77-1.1-.31-.69-.35-1.37-.12-2.03.23-.67.68-1.14,1.32-1.44.81-.37,2.22-.16,4.21.64.5.21.89.36,1.17.47l1.08.43-1.29-2.84c-.19.07-.35.08-.48.04-.13-.04-.23-.13-.29-.26-.06-.14-.07-.27-.01-.39.06-.12.16-.22.32-.29.01,0,.04-.01.07-.02.03,0,.06-.02.07-.02l.5-.17c.13-.05.25-.05.35-.03.1.03.17.09.22.19l1.87,4.12Z" fill="#fff"/></g></g><g isolation="isolate"><g isolation="isolate"><path d="M25.39,278.87c.32.79.2,1.58-.36,2.35-.56.77-1.5,1.42-2.8,1.94-1.3.52-2.42.7-3.36.54-.94-.16-1.57-.64-1.89-1.44s-.2-1.58.36-2.35c.56-.77,1.49-1.42,2.79-1.94,1.3-.52,2.42-.7,3.36-.54.94.17,1.58.64,1.9,1.44ZM17.89,281.9c.2.49.64.75,1.32.79.68.04,1.55-.15,2.6-.58,1.05-.42,1.81-.89,2.28-1.39.47-.5.6-1,.41-1.48-.2-.49-.64-.75-1.33-.79-.69-.04-1.56.16-2.61.58-1.05.42-1.81.89-2.27,1.39-.47.5-.6,1-.4,1.49Z" fill="#fff"/></g></g><g isolation="isolate"><g isolation="isolate"><path d="M23.05,273.44c.08.23.09.41.04.55-.05.14-.18.25-.37.32-.28.1-.95-.13-2.01-.68l-.25-.12c-.17-.08-.4-.2-.71-.36-1.93-.99-3.21-1.37-3.85-1.15-.46.16-.79.43-.98.79-.19.36-.21.75-.07,1.17.1.27.24.51.44.72s.42.35.66.44c.04.01.12.03.22.06.34.06.55.18.62.38.05.16.05.28-.03.38-.07.1-.24.19-.51.29-.15.05-.27.08-.35.08-.08,0-.18-.03-.29-.09-.36-.18-.7-.45-1-.8s-.53-.74-.68-1.16c-.25-.71-.23-1.39.06-2.03.29-.64.77-1.08,1.44-1.32.84-.3,2.22.04,4.14,1,.48.25.85.44,1.12.57l1.04.52-1.04-2.94c-.19.05-.35.05-.48,0-.13-.05-.22-.14-.27-.29-.05-.14-.04-.27.02-.39.07-.12.18-.2.34-.26.01,0,.04,0,.07-.02.03,0,.06-.01.07-.02l.51-.12c.14-.03.26-.03.35,0,.1.04.16.11.2.21l1.51,4.27Z" fill="#fff"/></g></g><g isolation="isolate"><g isolation="isolate"><path d="M15.82,265.9c-.08.49-.25.89-.5,1.2-.25.31-.59.53-1.02.66-.68.21-1.31.13-1.89-.22s-.99-.9-1.22-1.66c-.23-.74-.2-1.42.09-2.05.29-.63.74-1.04,1.37-1.23.47-.14.89-.16,1.28-.05.39.11.75.35,1.1.73.04-.5.2-.91.48-1.25.27-.34.64-.58,1.11-.73.72-.22,1.38-.15,1.98.2.6.36,1.03.93,1.27,1.72.24.79.21,1.5-.1,2.13-.31.63-.82,1.06-1.55,1.28-.44.14-.88.14-1.29,0-.42-.13-.78-.38-1.1-.76ZM13.97,266.7c.43-.13.74-.38.93-.75.19-.37.21-.78.08-1.22-.14-.45-.39-.77-.75-.97-.36-.2-.77-.23-1.2-.1-.42.13-.72.38-.91.75-.18.37-.21.78-.07,1.23.14.45.39.77.75.97.36.2.75.23,1.18.1ZM17.88,265.58c.46-.14.79-.4.99-.78.2-.38.22-.81.08-1.29-.15-.48-.41-.83-.77-1.03s-.78-.24-1.24-.09c-.45.14-.77.4-.97.78-.19.38-.21.81-.07,1.28.14.47.4.81.77,1.02.37.21.77.25,1.22.11Z" fill="#fff"/></g></g><g isolation="isolate"><g isolation="isolate"><path d="M11.51,247.59l2.42-.52c.08-.02.15-.02.22,0,.08.01.14.03.19.06.11.07.18.18.21.31.03.14,0,.26-.07.37-.04.05-.08.1-.15.14-.06.04-.13.07-.21.09l-2.42.52.52,2.5c.02.08.02.16.02.23,0,.07-.03.13-.07.18-.07.12-.18.19-.31.22-.13.03-.26,0-.37-.06-.06-.04-.12-.09-.16-.15-.04-.06-.07-.13-.08-.21l-.54-2.5-2.41.51c-.08.02-.15.02-.23.01-.08,0-.14-.03-.2-.07-.12-.08-.19-.18-.21-.3-.03-.12,0-.24.07-.36.04-.06.09-.11.16-.16.07-.04.14-.07.21-.09l2.4-.53-.52-2.51c-.02-.08-.02-.16,0-.24s.04-.15.08-.2c.07-.11.18-.18.32-.2.14-.03.27,0,.37.06.05.04.1.09.15.15.04.07.07.14.09.21l.54,2.51ZM8.11,246.22c.11-.17.27-.28.49-.32.21-.04.41,0,.58.1.17.12.29.28.33.48.05.21.02.4-.1.57-.11.18-.27.29-.48.33-.21.04-.4,0-.57-.11-.18-.11-.29-.27-.34-.48-.05-.21-.02-.4.09-.57ZM10.01,249.93c.17.11.28.27.32.48s0,.4-.1.58c-.11.17-.27.28-.47.33-.2.05-.39,0-.58-.11-.17-.11-.28-.27-.33-.47-.04-.2,0-.39.1-.56.12-.18.28-.29.49-.34.21-.05.39-.01.57.1ZM13.08,245.16c.17.11.28.27.32.49.04.21,0,.4-.1.58-.12.17-.28.29-.49.33-.21.05-.4.02-.57-.1-.18-.11-.29-.27-.33-.48-.04-.21,0-.4.12-.57.11-.18.27-.29.48-.34.21-.05.4-.02.56.09ZM12.87,249.29c.11-.17.27-.28.48-.32s.41,0,.58.1.28.27.33.47c.05.2.01.39-.11.58-.11.17-.27.28-.47.33-.2.04-.39,0-.56-.1-.18-.12-.29-.28-.34-.49-.05-.2-.01-.39.1-.57Z" fill="#fff"/></g></g><g isolation="isolate"><g isolation="isolate"><path d="M12.97,233.2c.03.24,0,.42-.08.55-.08.13-.23.2-.43.23-.29.04-.9-.33-1.82-1.09l-.21-.17c-.14-.12-.35-.28-.62-.5-1.67-1.38-2.84-2.02-3.52-1.94-.48.06-.86.25-1.12.56-.27.31-.37.69-.31,1.13.04.28.13.55.28.79.15.25.34.43.55.57.04.02.11.06.2.1.32.13.5.3.53.51.02.16-.01.29-.11.37-.09.08-.28.14-.56.17-.16.02-.28.02-.36,0-.08-.02-.17-.07-.26-.15-.32-.25-.58-.58-.8-.99-.22-.41-.36-.83-.41-1.28-.09-.75.07-1.41.49-1.97.42-.57.98-.89,1.69-.98.89-.11,2.16.51,3.83,1.86.42.35.74.61.98.79l.91.73-.39-3.1c-.2,0-.35-.03-.47-.1-.11-.08-.18-.19-.2-.34-.02-.15.02-.27.1-.37.09-.1.22-.16.39-.18.01,0,.04,0,.07,0s.06,0,.07,0h.53c.14-.02.26.01.35.07.09.06.14.14.15.25l.57,4.49Z" fill="#fff"/></g></g><g isolation="isolate"><g isolation="isolate"><path d="M12.04,222.57c.07.85-.27,1.57-1.04,2.13-.76.57-1.85.91-3.25,1.03-1.4.12-2.52-.04-3.37-.48-.85-.43-1.31-1.08-1.38-1.93-.07-.85.28-1.57,1.04-2.14.77-.57,1.85-.92,3.24-1.03,1.39-.12,2.52.04,3.37.48.85.44,1.31,1.08,1.39,1.93ZM3.97,223.24c.04.52.39.9,1.03,1.14.64.24,1.53.31,2.65.22,1.13-.09,2-.31,2.59-.66.6-.34.87-.78.83-1.3-.04-.53-.39-.91-1.03-1.15-.65-.24-1.53-.31-2.67-.22-1.13.09-1.99.31-2.58.66-.59.34-.87.78-.82,1.3Z" fill="#fff"/></g></g><g isolation="isolate"><g isolation="isolate"><path d="M11.39,216.66c.01.24-.03.42-.12.54-.09.12-.24.19-.45.19-.3.01-.87-.4-1.72-1.24l-.2-.19c-.13-.13-.32-.31-.57-.55-1.55-1.51-2.66-2.26-3.34-2.23-.49.02-.88.18-1.17.47-.29.29-.43.66-.41,1.1.01.29.08.56.21.82.13.26.3.46.5.61.04.03.1.07.19.12.31.16.47.34.48.55,0,.16-.04.28-.14.36s-.29.11-.57.12c-.16,0-.28,0-.36-.03-.08-.03-.16-.08-.25-.17-.29-.28-.53-.63-.72-1.05-.18-.42-.29-.86-.3-1.31-.03-.76.19-1.4.65-1.93.47-.53,1.06-.81,1.77-.84.89-.04,2.11.69,3.66,2.18.39.38.69.67.91.87l.84.81-.13-3.12c-.2,0-.35-.06-.46-.14-.11-.08-.16-.2-.17-.35s.04-.27.13-.36c.1-.09.23-.14.4-.15.01,0,.04,0,.07,0,.03,0,.06,0,.07,0l.53.03c.14,0,.25.04.34.11.08.06.13.15.13.26l.19,4.52Z" fill="#fff"/></g></g><g isolation="isolate"><g isolation="isolate"><path d="M7.02,204.37c.31.25.54.53.69.82s.22.63.22.98c-.01.72-.29,1.33-.84,1.82s-1.22.74-2,.72c-.83-.01-1.51-.27-2.04-.76-.53-.49-.79-1.12-.77-1.88.01-.89.39-1.61,1.11-2.14.73-.54,1.68-.79,2.87-.77,1.56.03,2.8.45,3.72,1.26.92.81,1.37,1.89,1.34,3.23,0,.42-.04.7-.11.84-.07.14-.19.21-.36.2-.29,0-.44-.28-.45-.82,0-.36-.02-.65-.06-.86-.12-.72-.47-1.31-1.04-1.77-.58-.46-1.34-.75-2.28-.89ZM5.18,204.48c-.57,0-1.03.13-1.38.43-.36.29-.54.67-.55,1.14,0,.44.15.8.48,1.08.33.28.76.42,1.3.43.56,0,1.01-.13,1.36-.41.35-.28.53-.65.54-1.1,0-.44-.16-.81-.48-1.11-.33-.3-.75-.45-1.27-.46Z" fill="#fff"/></g></g><g isolation="isolate"><g isolation="isolate"><path d="M7.94,188.56l2.46.21c.08,0,.15.03.22.06s.12.07.17.12c.09.1.12.22.11.36s-.07.25-.17.34c-.05.04-.11.07-.18.09-.07.02-.15.03-.23.02l-2.46-.21-.23,2.55c0,.09-.03.16-.05.23-.03.07-.07.12-.12.15-.1.09-.22.13-.36.12-.14-.01-.25-.07-.34-.17-.05-.06-.09-.12-.11-.19-.02-.07-.03-.15-.02-.23l.21-2.55-2.45-.22c-.08,0-.15-.03-.23-.06-.07-.03-.13-.07-.17-.12-.09-.11-.12-.23-.11-.35s.07-.23.17-.32c.05-.05.12-.08.2-.1.08-.02.15-.03.22-.03l2.45.19.23-2.55c0-.08.03-.16.06-.23.03-.07.08-.13.13-.17.1-.08.22-.12.36-.1.14.01.26.07.34.17.04.05.07.11.09.19.02.08.03.15.02.23l-.22,2.56ZM5.82,190.36c.13.15.19.34.17.55-.02.22-.11.39-.27.52-.16.13-.34.19-.55.18-.21-.02-.38-.11-.52-.27-.13-.16-.19-.34-.17-.55.02-.21.1-.38.26-.51.17-.14.35-.2.56-.18.21.02.38.1.51.26ZM5.08,186.25c.16-.13.34-.19.56-.17.22.02.39.11.52.27.13.16.19.35.18.56-.01.21-.1.38-.26.52-.16.14-.34.19-.55.17-.21-.02-.38-.11-.51-.28-.14-.16-.2-.34-.18-.56.02-.21.1-.38.25-.51ZM8.74,190.58c.15-.13.34-.19.55-.17.22.02.39.11.52.27.13.16.19.34.18.55-.01.21-.11.38-.27.52-.16.13-.34.19-.55.17-.21-.02-.38-.11-.51-.26-.14-.17-.2-.36-.18-.56.02-.21.1-.38.26-.51ZM10.15,186.7c.13.16.19.34.17.56-.02.22-.11.39-.27.52-.16.13-.35.19-.56.18-.21-.01-.38-.1-.52-.26-.14-.16-.2-.34-.17-.55.02-.21.12-.38.28-.52.16-.14.34-.2.56-.18s.38.1.51.25Z" fill="#fff"/></g></g><g isolation="isolate"><g isolation="isolate"><path d="M13.54,175.26c-.04.24-.12.41-.24.5-.12.1-.28.13-.48.1-.29-.05-.77-.58-1.42-1.58l-.16-.23c-.1-.15-.25-.37-.44-.66-1.2-1.8-2.13-2.77-2.8-2.88-.48-.08-.89-.01-1.24.21-.34.22-.56.55-.63.99-.05.28-.04.56.04.84.07.28.2.51.37.7.03.03.08.09.16.16.27.22.39.43.36.64-.03.16-.1.27-.21.32-.11.05-.31.05-.58,0-.16-.03-.28-.06-.34-.11-.07-.04-.14-.12-.21-.22-.23-.33-.39-.73-.48-1.18-.09-.45-.1-.9-.02-1.35.13-.75.47-1.33,1.04-1.75.57-.42,1.2-.57,1.9-.45.88.15,1.92,1.12,3.12,2.89.3.45.53.8.7,1.04l.65.96.53-3.08c-.19-.05-.33-.13-.42-.23-.09-.11-.12-.23-.09-.38.03-.15.1-.26.21-.32.11-.07.26-.09.43-.06.01,0,.04,0,.07.02.03,0,.06.02.07.02l.51.14c.14.04.24.1.31.18.07.08.09.17.07.28l-.76,4.46Z" fill="#fff"/></g></g><g isolation="isolate"><g isolation="isolate"><path d="M15.74,164.81c-.18.84-.72,1.42-1.62,1.74s-2.03.33-3.41.04c-1.37-.3-2.4-.78-3.08-1.44-.68-.66-.94-1.41-.75-2.25.18-.84.72-1.42,1.62-1.74.9-.32,2.03-.34,3.4-.04,1.37.3,2.4.78,3.08,1.44.69.67.94,1.42.76,2.26ZM7.83,163.1c-.11.51.11.98.65,1.39.54.42,1.37.74,2.47.98,1.11.24,2,.28,2.67.13.67-.15,1.06-.49,1.17-1,.11-.52-.11-.98-.65-1.4-.55-.42-1.38-.74-2.49-.98-1.11-.24-1.99-.28-2.66-.13-.67.15-1.06.49-1.17,1.01Z" fill="#fff"/></g></g><g isolation="isolate"><g isolation="isolate"><path d="M13.16,154.47c.28-.48.64-.81,1.08-1,.45-.19.94-.21,1.48-.07.77.2,1.33.64,1.68,1.32.35.68.41,1.45.18,2.32-.18.67-.46,1.23-.85,1.69-.4.46-.75.64-1.06.56-.13-.03-.23-.11-.29-.23-.06-.12-.08-.24-.04-.38.02-.08.2-.32.55-.73.35-.41.58-.82.68-1.23.14-.52.1-.99-.12-1.4-.21-.41-.56-.67-1.04-.8-.39-.1-.75-.08-1.08.08-.33.16-.58.42-.76.8-.05.11-.11.27-.18.46-.12.36-.32.51-.61.44-.26-.07-.36-.29-.31-.66.02-.14.04-.27.04-.36.04-.36-.03-.67-.21-.94-.17-.27-.42-.45-.75-.54-.42-.11-.79-.07-1.13.12-.33.19-.55.49-.66.89-.1.37-.08.78.05,1.23.13.45.18.72.15.82-.03.12-.1.22-.2.28-.1.06-.21.08-.33.04-.27-.07-.47-.39-.61-.95-.14-.56-.13-1.14.03-1.74.18-.69.54-1.21,1.07-1.55.54-.35,1.11-.44,1.72-.28.46.12.82.33,1.06.63.24.3.39.7.44,1.2Z" fill="#fff"/></g></g><g isolation="isolate"><g isolation="isolate"><path d="M19.93,148.76c-.25.82-.84,1.35-1.76,1.59-.92.24-2.05.16-3.4-.26-1.34-.41-2.33-.98-2.95-1.7-.62-.72-.81-1.49-.56-2.31s.84-1.35,1.76-1.6c.92-.24,2.05-.16,3.39.25s2.32.98,2.95,1.7c.63.72.82,1.49.56,2.31ZM12.2,146.38c-.15.5.02.98.53,1.44.51.46,1.3.86,2.38,1.19,1.09.33,1.97.45,2.65.36.68-.1,1.1-.39,1.25-.89.16-.51-.02-.99-.53-1.45-.51-.46-1.31-.86-2.39-1.19-1.08-.33-1.96-.45-2.64-.35-.68.1-1.1.4-1.25.9Z" fill="#fff"/></g></g><g isolation="isolate"><g isolation="isolate"><path d="M19.25,132.19c.08.19.08.38,0,.58-.08.2-.22.34-.41.42-.19.08-.38.08-.58,0-.19-.08-.33-.21-.42-.42-.08-.19-.08-.38,0-.57.08-.19.21-.33.4-.41.2-.08.4-.08.59,0,.2.08.33.21.41.4ZM21.81,131.1l2.29.93c.07.03.13.07.19.12.06.05.1.11.12.16.05.12.05.25,0,.38-.05.13-.14.22-.27.27-.06.02-.13.04-.2.04-.07,0-.15-.02-.22-.04l-2.29-.93-.97,2.36c-.03.08-.07.15-.12.2-.05.05-.1.09-.16.11-.13.06-.25.06-.38,0-.13-.05-.22-.14-.27-.26-.03-.07-.05-.14-.05-.22,0-.07.02-.15.05-.22l.95-2.37-2.28-.93c-.07-.03-.14-.07-.2-.12s-.1-.11-.13-.17c-.05-.13-.05-.25,0-.37s.13-.2.26-.26c.07-.03.14-.04.22-.04.08,0,.15.01.22.04l2.29.91.97-2.37c.03-.08.07-.14.13-.2.05-.06.11-.1.17-.12.12-.05.25-.05.38,0,.13.06.22.14.27.26.03.06.04.13.03.21s-.02.16-.05.23l-.96,2.38ZM19.76,128.05c.19-.08.38-.08.58,0,.2.08.34.22.42.41.08.19.08.39,0,.59-.08.2-.21.34-.4.42-.19.08-.38.09-.58,0-.19-.08-.33-.22-.41-.42-.08-.19-.09-.39,0-.59s.21-.34.39-.42ZM21.98,133.27c.19-.08.38-.08.58,0,.2.08.34.22.42.41.08.19.08.38,0,.57s-.21.33-.42.42c-.19.08-.38.08-.57,0-.19-.08-.33-.21-.41-.4-.08-.2-.08-.4,0-.59.08-.19.21-.33.4-.41ZM24.47,129.97c.08.19.08.39,0,.58-.08.2-.22.34-.41.42-.19.08-.39.08-.59,0-.2-.08-.34-.21-.42-.4-.08-.19-.08-.38,0-.58.08-.2.22-.33.42-.41.19-.08.39-.09.59,0s.34.21.42.39Z" fill="#fff"/></g></g><g isolation="isolate"><g isolation="isolate"><path d="M31.09,120.04c-.11.22-.23.35-.37.41-.14.06-.3.04-.48-.05-.26-.13-.56-.78-.89-1.93l-.08-.26c-.05-.18-.13-.43-.23-.76-.61-2.08-1.22-3.27-1.82-3.58-.43-.22-.85-.28-1.25-.17-.4.11-.69.36-.89.76-.13.26-.2.53-.21.81-.01.29.03.55.14.78.02.04.05.11.11.2.2.29.25.53.15.71-.07.15-.17.23-.29.24-.12.02-.31-.04-.56-.17-.15-.07-.25-.14-.3-.2-.05-.06-.1-.15-.14-.27-.12-.39-.16-.81-.11-1.27.05-.46.17-.89.38-1.29.34-.67.85-1.13,1.51-1.36.67-.23,1.32-.19,1.95.14.8.41,1.51,1.63,2.13,3.69.15.52.27.92.36,1.2l.34,1.12,1.42-2.79c-.17-.11-.28-.22-.33-.35-.05-.13-.04-.26.02-.39.07-.13.17-.22.29-.25.13-.03.27,0,.42.07.01,0,.03.02.06.04.03.02.05.03.06.04l.44.29c.12.08.2.16.24.26.04.1.04.19-.01.29l-2.05,4.03Z" fill="#fff"/></g></g><g isolation="isolate"><g isolation="isolate"><path d="M36.28,110.7c-.42.75-1.11,1.14-2.06,1.18-.95.04-2.04-.28-3.27-.97-1.22-.69-2.06-1.45-2.52-2.29-.46-.83-.48-1.63-.06-2.37.42-.75,1.11-1.14,2.06-1.18.96-.04,2.04.28,3.26.97s2.06,1.45,2.52,2.29c.46.84.48,1.63.06,2.38ZM29.23,106.73c-.26.46-.19.96.21,1.52.4.56,1.09,1.12,2.07,1.67.99.56,1.83.86,2.51.91.68.05,1.16-.15,1.41-.61.26-.46.19-.97-.21-1.53-.4-.56-1.09-1.12-2.08-1.68-.99-.55-1.82-.86-2.5-.91-.68-.05-1.16.15-1.42.62Z" fill="#fff"/></g></g><g isolation="isolate"><g isolation="isolate"><path d="M36.88,100.06c.4-.38.85-.59,1.33-.63.48-.05.96.08,1.43.37.68.42,1.08,1,1.22,1.75.13.75-.04,1.5-.51,2.27-.37.59-.8,1.04-1.31,1.36-.51.32-.9.39-1.17.23-.12-.07-.19-.17-.21-.3-.03-.13,0-.26.08-.38.04-.07.29-.24.74-.53.45-.29.79-.61,1.01-.97.29-.46.39-.92.3-1.37s-.34-.81-.75-1.07c-.34-.21-.7-.3-1.06-.24-.36.05-.68.23-.97.54-.08.09-.19.22-.3.38-.22.31-.46.39-.71.24-.23-.14-.26-.38-.11-.72.07-.13.12-.24.15-.33.14-.33.17-.65.08-.96-.09-.31-.27-.56-.56-.73-.37-.23-.74-.3-1.11-.22-.37.08-.67.3-.89.66-.2.33-.31.72-.32,1.19-.01.47-.04.74-.1.83-.07.11-.16.18-.27.21-.11.03-.22.01-.33-.05-.24-.15-.34-.51-.3-1.09.04-.58.21-1.13.54-1.66.38-.6.87-.99,1.49-1.17.61-.17,1.19-.1,1.72.24.41.25.68.56.83.91.14.35.17.78.06,1.27Z" fill="#fff"/></g></g><g isolation="isolate"><g isolation="isolate"><path d="M37.85,93.7c-.03.05-.05.09-.06.12-.01.03-.03.05-.04.07-.08.12-.18.19-.29.22-.12.03-.23,0-.34-.07-.09-.06-.15-.15-.17-.26s-.01-.24.04-.38l.69-1.99s.04-.1.06-.14c.02-.04.05-.08.07-.13.05-.07.12-.11.21-.1.09,0,.2.04.31.12l6.11,4.16.62-.9c.23-.34.4-.53.52-.58.12-.05.25-.03.4.07.14.09.21.2.23.32.02.12-.03.26-.13.41l-2.3,3.38c-.1.15-.21.24-.33.27s-.25,0-.38-.09c-.15-.1-.22-.22-.22-.35,0-.13.12-.36.35-.69l.64-.94-5.52-3.76-.47,1.24Z" fill="#fff"/></g></g><g isolation="isolate"><g isolation="isolate"><path d="M49.25,80.58c.02.2-.03.39-.17.55-.14.17-.31.26-.51.28s-.39-.03-.55-.16c-.16-.13-.25-.3-.28-.52-.02-.21.03-.39.16-.55.13-.16.3-.25.5-.27.22-.02.4.04.57.17.16.13.26.3.28.5ZM52.02,80.29l1.92,1.56c.06.05.11.11.15.17.04.07.06.13.07.19.01.13-.02.26-.11.36s-.2.17-.33.18c-.06,0-.13,0-.21-.03-.07-.02-.14-.06-.2-.11l-1.92-1.56-1.62,1.97c-.05.07-.11.12-.17.16s-.12.06-.18.06c-.14.02-.26-.02-.37-.11-.11-.09-.17-.2-.19-.33,0-.08,0-.15.02-.22.02-.07.06-.14.11-.2l1.61-1.99-1.9-1.56c-.06-.05-.11-.11-.15-.17-.04-.07-.07-.13-.07-.2-.01-.14.02-.26.1-.36.08-.1.19-.16.32-.17.07,0,.14,0,.22.03.08.02.14.06.2.11l1.92,1.54,1.63-1.98c.05-.06.11-.12.18-.16.07-.04.14-.06.21-.07.13-.01.25.03.36.12.11.09.17.2.18.33,0,.06,0,.13-.03.21-.03.08-.06.14-.11.2l-1.62,1.99ZM50.96,76.77c.21-.02.39.04.56.18s.26.31.28.52c.02.21-.04.4-.17.56-.13.17-.3.26-.51.28-.21.02-.39-.03-.55-.17-.16-.14-.25-.31-.27-.52-.02-.21.03-.4.16-.56.13-.17.3-.26.5-.28ZM51.54,82.41c.2-.02.39.03.55.17.17.14.26.31.28.52.02.21-.03.39-.16.55s-.3.26-.52.28c-.21.02-.39-.03-.55-.16-.16-.13-.25-.3-.27-.5-.02-.21.04-.4.17-.57.13-.16.3-.26.5-.28ZM54.89,79.99c.02.21-.04.39-.18.56s-.31.26-.52.28c-.21.02-.4-.04-.56-.17-.17-.13-.26-.3-.28-.51-.02-.21.03-.39.17-.55.14-.16.31-.25.52-.27.21-.02.4.03.56.16.17.13.26.3.28.5Z" fill="#fff"/></g></g><g isolation="isolate"><g isolation="isolate"><path d="M64.12,72.45c-.17.17-.33.27-.48.28-.15.02-.3-.05-.45-.19-.21-.21-.31-.91-.29-2.1v-.28c0-.18,0-.45,0-.79.03-2.17-.21-3.49-.69-3.96-.35-.34-.73-.51-1.14-.52s-.77.14-1.08.46c-.2.21-.35.45-.44.72-.1.27-.13.53-.09.79,0,.04.02.12.04.22.1.33.08.58-.06.73-.11.12-.23.17-.35.15-.12-.02-.28-.13-.48-.33-.12-.11-.19-.21-.22-.28-.03-.08-.05-.17-.05-.3,0-.41.09-.82.27-1.25.18-.43.42-.8.74-1.13.53-.54,1.14-.83,1.84-.86.71-.03,1.31.21,1.82.7.64.62.96,2,.95,4.15,0,.54-.01.96,0,1.26v1.17s2.17-2.25,2.17-2.25c-.13-.15-.2-.29-.21-.43-.01-.14.03-.26.14-.37s.22-.16.36-.15c.13,0,.26.07.39.19,0,0,.02.03.05.06.02.03.04.04.05.05l.34.41c.09.11.14.21.15.32,0,.1-.02.2-.1.27l-3.14,3.26Z" fill="#fff"/></g></g><g isolation="isolate"><g isolation="isolate"><path d="M71.83,65.04c-.62.59-1.39.77-2.32.53-.92-.24-1.87-.87-2.84-1.89-.97-1.02-1.55-1.99-1.74-2.92-.19-.93.02-1.69.64-2.29.62-.59,1.39-.77,2.32-.53s1.87.86,2.84,1.88c.96,1.01,1.54,1.99,1.74,2.93.19.94-.02,1.7-.64,2.29ZM66.25,59.18c-.38.36-.46.87-.25,1.52.22.65.72,1.39,1.5,2.2.78.82,1.5,1.36,2.14,1.61.64.25,1.15.19,1.53-.17.38-.36.47-.87.25-1.52-.22-.65-.72-1.39-1.5-2.21-.78-.82-1.49-1.35-2.13-1.6-.64-.25-1.15-.19-1.53.17Z" fill="#fff"/></g></g><g isolation="isolate"><g isolation="isolate"><path d="M75.52,55.03c.5-.24.98-.31,1.46-.22.47.1.9.35,1.26.77.53.6.74,1.28.65,2.03-.09.75-.47,1.43-1.15,2.02-.52.46-1.07.76-1.66.92-.58.15-.98.11-1.19-.13-.09-.1-.13-.22-.11-.35.01-.13.08-.24.18-.34.06-.05.35-.15.87-.29.52-.14.93-.35,1.25-.63.41-.36.64-.76.69-1.22.05-.46-.08-.87-.41-1.24-.27-.31-.58-.49-.94-.54-.36-.06-.72.02-1.08.23-.11.06-.24.16-.4.28-.3.24-.55.24-.75.02-.18-.2-.14-.44.11-.72.1-.11.18-.2.24-.27.23-.28.35-.57.36-.9,0-.32-.1-.61-.32-.86-.29-.33-.62-.5-1-.53-.38-.03-.73.09-1.04.37-.29.25-.51.6-.65,1.04-.15.44-.26.7-.33.76-.1.08-.2.12-.32.12-.12,0-.22-.06-.3-.15-.18-.21-.17-.59.03-1.13.2-.54.54-1.02,1-1.43.54-.47,1.12-.7,1.76-.68.64.01,1.17.26,1.58.73.31.36.49.73.52,1.11.03.38-.07.79-.31,1.24Z" fill="#fff"/></g></g><g isolation="isolate"><g isolation="isolate"><path d="M82.32,55.43c-.19.15-.36.23-.51.22-.15,0-.29-.09-.42-.25-.18-.23-.19-.94-.02-2.12l.04-.27c.02-.18.06-.44.11-.79.3-2.15.24-3.48-.19-4.01-.3-.38-.66-.6-1.07-.66-.41-.06-.78.04-1.13.32-.22.18-.4.4-.53.65-.13.26-.2.51-.19.77,0,.04,0,.12.01.23.06.34,0,.58-.16.71-.13.1-.25.14-.37.1-.12-.04-.26-.16-.44-.38-.1-.13-.17-.23-.19-.31-.02-.08-.03-.18-.01-.3.05-.4.19-.8.42-1.2.23-.4.52-.74.88-1.02.59-.47,1.24-.68,1.94-.62.7.06,1.27.37,1.72.93.56.7.7,2.11.42,4.23-.08.54-.13.95-.17,1.25l-.15,1.16,2.44-1.95c-.11-.17-.16-.32-.16-.45,0-.14.07-.25.18-.35.12-.09.24-.13.37-.11.13.02.25.1.36.24,0,.01.02.03.04.06.02.03.03.05.04.06l.29.44c.08.12.12.23.11.34,0,.1-.05.19-.13.26l-3.53,2.83Z" fill="#fff"/></g></g><g isolation="isolate"><g isolation="isolate"><path d="M93.03,40.04c-.04.2-.14.36-.33.48-.18.12-.37.16-.58.12s-.36-.15-.48-.32c-.12-.17-.15-.36-.11-.58.04-.2.15-.36.32-.48.17-.12.36-.15.56-.11.21.04.38.15.5.33.12.17.16.36.12.56ZM95.76,40.57l1.38,2.05c.04.06.07.13.09.21.02.08.02.14.01.2-.03.13-.1.24-.21.32s-.24.1-.37.08c-.06-.01-.12-.04-.19-.08-.06-.04-.11-.1-.16-.16l-1.38-2.05-2.13,1.41c-.07.05-.14.08-.21.1-.07.02-.13.02-.19,0-.14-.02-.24-.09-.32-.21-.08-.12-.1-.24-.08-.37.01-.08.04-.15.08-.21.04-.06.1-.11.17-.16l2.12-1.43-1.37-2.05c-.04-.06-.08-.13-.1-.21-.02-.08-.02-.15-.01-.21.03-.14.1-.24.2-.31s.23-.09.36-.07c.07.01.14.04.2.09.07.05.12.1.16.16l1.38,2.04,2.14-1.42c.07-.05.14-.08.22-.1.08-.02.15-.02.21,0,.13.02.23.1.31.22.08.12.11.24.08.37-.01.06-.04.13-.09.19-.05.06-.1.12-.17.16l-2.13,1.43ZM94.68,42.46c.2.04.36.14.48.33.12.18.16.37.12.58-.04.2-.14.36-.32.48-.17.12-.36.16-.58.11-.2-.04-.36-.15-.48-.32-.12-.17-.16-.36-.11-.56.04-.21.15-.38.33-.5.17-.12.36-.16.56-.12ZM95.77,36.89c.2.04.36.15.48.33.12.18.16.37.12.58-.04.2-.15.37-.33.49-.17.12-.36.16-.57.12-.21-.04-.37-.14-.48-.32-.11-.18-.15-.37-.11-.57.04-.21.14-.37.32-.49.18-.12.36-.16.56-.12ZM98.6,41.12c-.04.2-.15.36-.33.48-.18.12-.37.16-.58.12-.21-.04-.37-.15-.49-.33-.12-.17-.16-.36-.12-.57.04-.21.15-.37.32-.48.18-.11.37-.15.58-.11.21.04.37.15.49.32.12.18.16.36.12.56Z" fill="#fff"/></g></g><g isolation="isolate"><g isolation="isolate"><path d="M109.66,36.59c-.21.12-.39.16-.54.13-.15-.03-.27-.13-.37-.31-.14-.26-.03-.96.34-2.09l.08-.26c.05-.18.13-.43.24-.76.66-2.06.82-3.39.5-3.99-.24-.43-.55-.7-.94-.84-.39-.13-.78-.09-1.17.13-.25.14-.46.32-.63.56-.17.23-.28.47-.32.73,0,.04-.01.12-.02.22,0,.35-.09.57-.28.68-.14.08-.27.09-.38.04-.11-.05-.23-.21-.37-.45-.08-.14-.12-.26-.13-.34,0-.08,0-.18.04-.3.12-.39.33-.76.62-1.11.3-.35.64-.64,1.04-.86.66-.37,1.33-.46,2.01-.28s1.19.58,1.54,1.2c.43.78.33,2.2-.31,4.24-.17.52-.29.92-.37,1.2l-.34,1.11,2.73-1.51c-.08-.18-.11-.34-.08-.47.03-.13.11-.24.24-.31s.26-.09.38-.04c.12.05.23.14.31.3,0,.01.02.03.03.07.01.03.02.05.03.07l.21.49c.06.13.07.25.05.35-.02.1-.08.18-.18.23l-3.96,2.19Z" fill="#fff"/></g></g><g isolation="isolate"><g isolation="isolate"><path d="M119.19,31.78c-.77.38-1.56.32-2.37-.17-.81-.5-1.53-1.38-2.16-2.64-.63-1.26-.9-2.36-.81-3.31.09-.95.52-1.61,1.28-2s1.56-.33,2.37.17,1.54,1.38,2.16,2.63c.63,1.25.89,2.35.8,3.31-.09.95-.52,1.62-1.28,2ZM115.57,24.54c-.47.23-.7.69-.68,1.38.02.68.28,1.53.78,2.54.51,1.02,1.03,1.74,1.57,2.17s1.04.52,1.51.29c.47-.24.7-.7.68-1.39-.02-.69-.28-1.54-.79-2.56-.51-1.01-1.03-1.73-1.57-2.15-.54-.42-1.04-.52-1.52-.28Z" fill="#fff"/></g></g><g isolation="isolate"><g isolation="isolate"><path d="M125.65,23.29c.55-.08,1.03-.01,1.46.22s.75.6.98,1.11c.33.73.33,1.44.02,2.13-.31.69-.87,1.23-1.69,1.59-.63.28-1.25.41-1.85.39-.6-.02-.97-.18-1.1-.47-.06-.12-.06-.25,0-.37.05-.12.14-.21.27-.27.07-.03.38-.04.91-.03.54.01,1-.06,1.38-.24.5-.22.83-.54,1.02-.96.18-.42.17-.86-.03-1.31-.17-.37-.41-.64-.74-.79-.33-.16-.7-.19-1.1-.1-.12.03-.28.08-.46.15-.36.14-.6.07-.72-.2-.11-.25,0-.46.32-.66.13-.07.23-.14.31-.19.3-.2.5-.45.61-.75s.09-.61-.05-.92c-.18-.4-.44-.66-.8-.8s-.72-.13-1.1.04c-.35.16-.66.42-.93.81s-.45.59-.54.63c-.12.05-.23.06-.34.02-.11-.04-.19-.12-.24-.23-.11-.25,0-.61.36-1.07.35-.46.81-.82,1.38-1.07.65-.29,1.28-.34,1.88-.13.61.2,1.04.59,1.29,1.16.2.44.25.84.17,1.22-.08.38-.3.74-.66,1.09Z" fill="#fff"/></g></g><g isolation="isolate"><g isolation="isolate"><path d="M133.51,20.03c.55-.06,1.03.03,1.45.28.42.25.73.63.93,1.15.29.74.27,1.45-.07,2.13-.34.68-.92,1.19-1.76,1.52-.64.26-1.27.36-1.87.31-.6-.05-.96-.22-1.08-.52-.05-.13-.05-.25.01-.37.06-.12.15-.2.28-.26.07-.03.38-.02.91.01.54.04,1-.02,1.39-.18.5-.2.86-.51,1.06-.92.2-.41.21-.85.03-1.31-.15-.38-.38-.65-.71-.83-.32-.17-.69-.22-1.1-.14-.12.02-.28.07-.47.13-.36.12-.6.04-.71-.23-.1-.25.02-.47.35-.65.13-.07.24-.13.32-.18.31-.18.52-.42.64-.72.12-.3.11-.61-.01-.92-.16-.4-.42-.68-.77-.84-.35-.15-.72-.16-1.1,0-.36.14-.68.4-.97.77-.29.37-.48.57-.57.61-.12.05-.23.05-.34,0-.11-.05-.19-.12-.23-.24-.1-.26.03-.61.41-1.05.37-.44.85-.78,1.42-1.01.66-.26,1.29-.28,1.89-.05.6.23,1.01.63,1.24,1.22.18.44.22.85.12,1.22-.1.37-.33.72-.71,1.06Z" fill="#fff"/></g></g><g isolation="isolate"><g isolation="isolate"><path d="M149.25,15.43l.71,2.37c.02.07.03.15.02.22,0,.08-.02.14-.05.2-.06.12-.16.2-.29.24-.13.04-.26.03-.38-.04-.06-.03-.11-.08-.16-.14-.05-.06-.08-.13-.1-.2l-.71-2.37-2.45.72c-.08.02-.16.04-.23.03-.07,0-.13-.02-.19-.05-.12-.06-.21-.16-.25-.29-.04-.13-.03-.26.03-.38.04-.07.08-.13.14-.17.06-.05.12-.08.21-.1l2.45-.74-.7-2.36c-.02-.07-.03-.15-.03-.23,0-.08.02-.15.05-.2.07-.12.16-.2.29-.24.12-.04.24-.02.36.04.06.03.12.08.17.15.05.06.09.13.11.2l.72,2.35,2.46-.73c.08-.02.16-.03.24-.03.08,0,.15.02.21.06.11.06.19.16.23.3.04.14.03.27-.03.38-.03.06-.08.11-.14.16-.06.05-.13.08-.21.11l-2.46.74ZM146.8,14.11c-.09.18-.24.3-.45.36-.21.06-.4.04-.58-.06-.18-.1-.3-.25-.37-.44-.06-.2-.04-.39.06-.59.1-.18.25-.3.44-.36.2-.06.39-.04.57.06.19.11.31.26.38.46.06.2.04.39-.05.57ZM147.67,16.92c.18.09.3.24.36.45.06.21.04.4-.06.58-.1.18-.25.3-.44.37-.2.06-.39.04-.59-.06-.18-.1-.3-.25-.36-.44-.06-.2-.04-.39.06-.57.11-.19.26-.31.46-.38.2-.06.39-.04.57.05ZM150.35,11.92c.18.1.3.25.36.46.06.21.04.4-.06.58-.1.18-.25.31-.46.37-.2.07-.39.05-.58-.06-.19-.1-.31-.25-.36-.45-.06-.2-.03-.4.07-.58.1-.19.25-.31.45-.38.21-.06.4-.05.57.05ZM151.8,16.8c-.1.18-.25.3-.46.36-.21.06-.4.04-.58-.06-.18-.1-.31-.25-.37-.46-.07-.2-.05-.39.05-.58.1-.19.25-.31.45-.36.2-.06.4-.03.58.07.19.1.31.25.37.45.06.2.05.39-.05.57Z" fill="#fff"/></g></g><g isolation="isolate"><g isolation="isolate"><path d="M163.7,15.73c-.24.05-.42.04-.55-.03-.13-.07-.22-.21-.26-.41-.06-.29.25-.92.94-1.9l.15-.23c.1-.15.25-.37.45-.65,1.24-1.78,1.79-3,1.65-3.66-.1-.48-.32-.84-.65-1.08-.33-.24-.72-.31-1.15-.22-.28.06-.54.17-.77.34s-.41.37-.52.6c-.02.04-.05.11-.09.21-.1.33-.26.52-.46.56-.16.03-.29,0-.37-.08-.09-.08-.16-.26-.22-.54-.03-.16-.04-.28-.03-.36.02-.08.06-.17.12-.28.23-.33.54-.63.92-.88.39-.25.8-.42,1.24-.52.74-.16,1.41-.04,2.01.33s.97.91,1.11,1.61c.18.88-.33,2.2-1.55,3.96-.31.44-.55.79-.71,1.04l-.66.96,3.06-.64c-.02-.2,0-.36.06-.48.07-.12.17-.2.32-.23.15-.03.27,0,.38.08.1.08.17.21.21.37,0,.01,0,.04,0,.07,0,.03,0,.06,0,.07l.05.53c.02.14,0,.26-.05.35-.05.09-.13.15-.24.17l-4.43.93Z" fill="#fff"/></g></g><g isolation="isolate"><g isolation="isolate"><path d="M174.23,13.94c-.85.14-1.58-.15-2.21-.87-.63-.72-1.06-1.77-1.29-3.16-.23-1.38-.16-2.52.21-3.4.37-.88.97-1.39,1.82-1.53.85-.14,1.58.15,2.21.87s1.06,1.77,1.29,3.15c.23,1.38.16,2.51-.21,3.4-.37.88-.97,1.4-1.82,1.54ZM172.92,5.96c-.52.08-.87.46-1.06,1.12-.19.66-.19,1.55,0,2.66.18,1.12.47,1.96.86,2.53.39.57.84.81,1.36.72.52-.09.88-.46,1.06-1.12.19-.66.19-1.55,0-2.67-.18-1.12-.47-1.96-.86-2.52-.39-.56-.84-.8-1.37-.72Z" fill="#fff"/></g></g><g isolation="isolate"><g isolation="isolate"><path d="M182.91,7.75c.55.08.99.29,1.33.64.34.35.54.8.61,1.35.1.79-.11,1.47-.61,2.05-.5.57-1.2.91-2.09,1.02-.69.08-1.32.02-1.88-.17-.57-.2-.87-.46-.91-.77-.02-.14.02-.25.11-.35.09-.1.2-.16.34-.18.08,0,.37.07.88.25.51.17.97.23,1.39.18.54-.07.96-.27,1.26-.62.3-.35.42-.77.36-1.26-.05-.4-.21-.73-.47-.98-.27-.25-.61-.39-1.02-.42-.12,0-.29,0-.49,0-.38.02-.59-.11-.63-.41-.03-.27.13-.45.5-.54.14-.03.26-.06.35-.09.35-.1.61-.28.8-.54s.26-.56.22-.89c-.05-.43-.23-.76-.53-1-.3-.24-.66-.33-1.07-.28-.38.05-.76.21-1.13.49s-.61.43-.71.44c-.13.02-.24-.01-.33-.08-.09-.07-.15-.17-.16-.29-.03-.28.19-.58.66-.92.47-.34,1.02-.54,1.63-.62.71-.09,1.32.06,1.84.43.52.37.82.87.89,1.49.06.48,0,.88-.19,1.21-.19.33-.5.62-.95.85Z" fill="#fff"/></g></g><g isolation="isolate"><g isolation="isolate"><path d="M190.52,11.74c-.22.02-.37,0-.45-.07-.08-.06-.13-.19-.15-.38-.01-.16.02-.29.09-.37.07-.08.2-.13.38-.14l.79-.06-.09-1.15-3.18.25c-.11,0-.2-.02-.27-.09-.07-.07-.11-.17-.12-.31l-.04-.47c-.01-.18.04-.38.15-.59.02-.04.04-.07.05-.09l2.49-5.1c.05-.12.1-.2.14-.23.04-.04.09-.06.16-.06.03,0,.08,0,.14,0,.02,0,.04,0,.06,0l.7.05c.06,0,.12.04.16.09.04.06.07.14.08.24l.41,5.18.35-.03c.1,0,.17-.05.22-.14.05-.08.11-.13.17-.13.09,0,.17.02.24.08.07.06.11.15.12.24,0,.04,0,.08,0,.11,0,.03,0,.07-.02.11l-.03.28c-.02.17-.06.28-.11.35-.06.06-.15.1-.28.11l-.57.04.09,1.15.24-.02c.29-.02.49,0,.61.06.11.06.18.18.19.35.01.16-.02.29-.11.38-.08.09-.22.14-.4.16l-2.2.17ZM191.01,8.54l-.36-4.62-2.22,4.82,2.58-.2Z" fill="#fff"/></g></g><g isolation="isolate"><g isolation="isolate"><path d="M207.81,7.18l-.04,2.47c0,.08-.02.15-.04.22-.03.07-.06.13-.1.17-.1.09-.22.14-.35.14-.14,0-.26-.05-.35-.15-.04-.05-.08-.11-.11-.18-.03-.07-.04-.15-.04-.22l.04-2.47-2.56-.05c-.09,0-.16-.01-.23-.04-.07-.02-.12-.06-.16-.11-.1-.1-.15-.21-.14-.35,0-.14.05-.26.14-.35.06-.05.12-.09.19-.12.07-.03.14-.04.23-.03l2.56.03.05-2.46c0-.08.02-.15.04-.23.03-.07.06-.13.11-.18.1-.09.22-.14.34-.14.13,0,.24.05.33.15.05.05.09.11.12.19.03.08.04.15.04.22l-.03,2.46,2.56.06c.08,0,.16.02.24.04.08.03.13.07.18.12.09.09.13.21.13.35,0,.14-.05.26-.15.35-.05.05-.11.08-.18.11-.07.03-.15.04-.23.04l-2.57-.04ZM205.84,8.12c.14.14.21.32.21.54,0,.22-.08.4-.23.54-.15.14-.33.21-.53.21s-.39-.08-.54-.24c-.14-.15-.21-.33-.21-.53,0-.21.08-.38.23-.53.16-.15.34-.22.55-.22s.39.08.53.22ZM205.87,5.19c-.14.14-.32.21-.54.21-.22,0-.4-.08-.54-.23-.14-.15-.21-.33-.21-.53s.08-.39.24-.54c.15-.14.33-.21.53-.21.21,0,.38.08.53.23.15.16.22.34.22.55s-.08.39-.22.53ZM209.82,9.26c-.15.14-.33.21-.55.21-.22,0-.4-.08-.54-.23-.14-.15-.22-.33-.22-.55,0-.21.07-.39.23-.53.15-.15.33-.22.54-.21.21,0,.39.09.53.24.15.15.22.33.22.54s-.07.39-.22.53ZM209.91,4.18c.14.15.21.33.21.55,0,.22-.08.4-.23.54-.15.14-.33.21-.55.22-.21,0-.39-.08-.53-.23-.15-.15-.22-.33-.21-.54,0-.21.09-.39.24-.53.15-.15.33-.22.54-.22.21,0,.39.07.53.22Z" fill="#fff"/></g></g><g isolation="isolate"><g isolation="isolate"><path d="M221.52,11.71c-.24-.02-.41-.09-.52-.19-.11-.11-.15-.26-.13-.47.03-.29.51-.81,1.46-1.54l.21-.17c.14-.12.35-.28.62-.49,1.7-1.34,2.59-2.34,2.65-3.02.04-.49-.06-.89-.31-1.22-.25-.33-.59-.51-1.04-.55-.29-.03-.56,0-.84.1-.27.09-.5.24-.67.42-.03.03-.08.09-.15.17-.2.29-.4.42-.61.41-.16-.02-.27-.08-.33-.18-.06-.11-.08-.3-.05-.58.01-.16.04-.28.08-.35.04-.07.1-.15.2-.23.32-.25.7-.45,1.14-.57.44-.13.89-.17,1.34-.13.75.07,1.36.37,1.82.9.46.53.66,1.15.6,1.86-.08.89-.96,2-2.64,3.34-.43.33-.76.59-.98.78l-.91.73,3.11.28c.04-.2.1-.34.2-.44.1-.09.22-.13.37-.12.15.01.26.07.34.18.08.11.11.25.09.42,0,.01,0,.04-.01.07,0,.03-.01.06-.01.07l-.1.52c-.03.14-.08.25-.15.32-.08.07-.17.1-.28.09l-4.51-.41Z" fill="#fff"/></g></g><g isolation="isolate"><g isolation="isolate"><path d="M232.09,13.07c-.85-.11-1.47-.6-1.86-1.47-.39-.87-.5-2-.31-3.4.19-1.39.58-2.45,1.19-3.19.61-.74,1.33-1.05,2.18-.93s1.47.6,1.87,1.48c.39.87.5,2,.31,3.39-.18,1.39-.58,2.45-1.19,3.19-.61.74-1.34,1.05-2.19.94ZM233.16,5.05c-.52-.07-.96.18-1.34.76s-.63,1.42-.78,2.55c-.15,1.13-.12,2.02.08,2.67.21.66.57,1.02,1.09,1.09.52.07.97-.18,1.34-.76.37-.58.63-1.43.78-2.56.15-1.12.12-2.01-.09-2.66s-.57-1.02-1.1-1.08Z" fill="#fff"/></g></g><g isolation="isolate"><g isolation="isolate"><path d="M242.21,9.67c.5.24.86.57,1.08,1,.22.43.29.92.19,1.47-.14.79-.53,1.38-1.18,1.78-.64.4-1.41.53-2.29.37-.68-.12-1.27-.36-1.75-.72-.49-.36-.7-.69-.64-1.01.02-.13.09-.24.2-.31.11-.07.24-.09.38-.07.08.01.33.18.77.49.44.31.86.51,1.28.58.53.09.99.02,1.38-.23.39-.25.62-.61.71-1.1.07-.4.02-.76-.17-1.07-.18-.32-.47-.55-.86-.7-.12-.04-.27-.09-.47-.14-.37-.09-.53-.28-.48-.57.05-.26.26-.39.63-.37.15.01.27.02.37.02.36,0,.67-.08.92-.28.26-.2.41-.46.47-.79.08-.43,0-.8-.21-1.11s-.53-.51-.94-.58c-.38-.07-.78-.02-1.22.15-.44.16-.71.24-.81.22-.12-.02-.22-.08-.29-.18-.07-.1-.09-.2-.07-.32.05-.27.35-.5.9-.68.55-.18,1.13-.22,1.74-.11.7.12,1.24.44,1.63.95.39.5.53,1.07.42,1.69-.08.47-.26.84-.54,1.11-.28.26-.66.44-1.16.53Z" fill="#fff"/></g></g><g isolation="isolate"><g isolation="isolate"><path d="M248.14,10.19c.32-.04.61-.06.87-.06.26,0,.5.03.73.08.78.17,1.37.59,1.77,1.24s.51,1.38.33,2.18c-.19.85-.63,1.49-1.33,1.91s-1.49.54-2.39.34c-.75-.17-1.35-.4-1.81-.72-.46-.31-.66-.62-.59-.91.03-.12.1-.21.21-.28.11-.07.23-.09.36-.07.05.01.29.16.73.43.44.28.86.46,1.26.55.6.13,1.12.06,1.57-.21.45-.28.74-.7.86-1.26.12-.55.05-1.05-.22-1.49-.27-.45-.67-.73-1.21-.85-.4-.09-.82-.08-1.24.04s-.68.16-.76.15c-.13-.03-.22-.1-.25-.21-.03-.11-.02-.29.04-.55l.74-3.33c.03-.15.1-.24.21-.29.1-.05.27-.04.5,0l3.38.75c.21.05.36.13.45.24.09.11.11.25.07.43-.04.17-.12.28-.25.35-.13.07-.3.08-.5.03l-3.02-.67-.48,2.16Z" fill="#fff"/></g></g><g isolation="isolate"><g isolation="isolate"><path d="M266.17,16.4l-.74,2.36c-.02.07-.06.14-.11.2s-.1.1-.15.14c-.12.06-.25.07-.38.03-.13-.04-.23-.12-.29-.24-.03-.06-.05-.12-.05-.2,0-.08,0-.15.03-.22l.74-2.36-2.44-.78c-.08-.03-.15-.06-.21-.1-.06-.04-.1-.09-.12-.15-.07-.12-.08-.25-.04-.38.04-.13.12-.23.23-.29.07-.04.14-.06.21-.07.07,0,.15,0,.23.03l2.44.76.74-2.35c.02-.07.06-.14.11-.21.04-.06.1-.11.15-.14.12-.06.25-.07.37-.03.12.04.21.12.28.24.03.06.05.13.06.22,0,.08,0,.16-.02.22l-.72,2.35,2.44.78c.08.02.15.06.21.11.06.05.11.1.14.17.06.11.07.24.02.38-.05.14-.12.24-.24.29-.06.03-.12.05-.21.05-.08,0-.16,0-.23-.03l-2.45-.77ZM264.02,16.74c.1.18.11.37.04.58-.07.21-.19.36-.38.45-.18.1-.37.11-.57.05-.2-.06-.35-.19-.45-.38-.1-.18-.11-.37-.05-.57.06-.2.18-.35.37-.44.19-.1.39-.12.59-.06.2.06.35.18.44.37ZM264.88,13.94c-.18.1-.37.11-.58.04-.21-.07-.36-.19-.45-.37-.09-.18-.11-.37-.05-.57.06-.2.19-.35.38-.45.18-.09.37-.11.57-.05.2.06.34.18.44.37.1.19.12.39.05.59-.06.2-.18.35-.37.45ZM267.51,18.96c-.18.09-.38.11-.58.04-.21-.07-.36-.19-.45-.37-.09-.19-.11-.38-.05-.59.06-.2.18-.35.37-.45.18-.1.38-.12.58-.05.2.07.35.2.44.38.1.18.12.38.06.58-.06.21-.18.35-.36.45ZM269.04,14.11c.09.18.11.38.04.58-.07.21-.19.36-.38.45-.19.09-.38.11-.59.05-.2-.06-.35-.18-.45-.37-.1-.18-.12-.38-.05-.58.07-.2.2-.35.38-.44.18-.1.38-.12.58-.06.21.06.35.18.45.36Z" fill="#fff"/></g></g><g isolation="isolate"><g isolation="isolate"><path d="M277.96,24.77c-.22-.09-.37-.2-.44-.34-.07-.14-.07-.3.01-.49.11-.27.73-.62,1.85-1.04l.26-.1c.17-.07.42-.16.74-.29,2.02-.78,3.16-1.48,3.42-2.1.19-.45.21-.87.07-1.26-.14-.38-.42-.66-.83-.83-.27-.11-.54-.16-.83-.15s-.54.08-.77.2c-.04.02-.1.06-.19.12-.27.22-.5.29-.7.21-.15-.06-.24-.15-.26-.27-.03-.12.02-.31.12-.57.06-.15.12-.26.18-.31.06-.06.14-.11.26-.16.38-.15.8-.22,1.26-.21.46,0,.9.1,1.32.27.7.29,1.19.75,1.48,1.4.28.65.29,1.3.02,1.95-.34.83-1.51,1.63-3.5,2.41-.51.19-.9.34-1.17.46l-1.08.43,2.89,1.19c.09-.18.2-.3.32-.36.12-.06.25-.06.39,0,.14.06.23.15.27.27.04.12.03.27-.04.43,0,.01-.02.03-.03.06-.02.03-.03.05-.03.06l-.25.47c-.07.13-.15.21-.24.26s-.19.05-.29,0l-4.19-1.72Z" fill="#fff"/></g></g><g isolation="isolate"><g isolation="isolate"><path d="M287.68,29.2c-.78-.36-1.23-1.01-1.34-1.96-.12-.94.12-2.06.71-3.33.59-1.27,1.28-2.17,2.08-2.7.8-.52,1.58-.6,2.36-.25.78.36,1.23,1.01,1.34,1.96.12.95-.11,2.06-.7,3.33s-1.28,2.17-2.08,2.69c-.8.53-1.59.61-2.37.25ZM291.07,21.85c-.48-.22-.98-.11-1.5.33-.52.44-1.03,1.18-1.5,2.2-.48,1.03-.71,1.89-.71,2.58,0,.69.24,1.14.72,1.36.48.22.98.11,1.51-.33.53-.44,1.03-1.18,1.5-2.21.47-1.03.71-1.88.7-2.57,0-.69-.25-1.14-.73-1.36Z" fill="#fff"/></g></g><g isolation="isolate"><g isolation="isolate"><path d="M298.34,28.94c.41.37.65.8.74,1.28.08.48,0,.96-.25,1.46-.37.71-.92,1.16-1.65,1.35-.74.19-1.5.08-2.3-.33-.62-.32-1.1-.72-1.46-1.2-.36-.49-.46-.87-.32-1.15.06-.12.16-.2.29-.23.13-.03.25-.02.38.05.07.04.27.27.59.7.32.43.67.74,1.05.93.48.25.95.31,1.39.19s.78-.4,1-.84c.18-.36.24-.72.16-1.08-.08-.36-.29-.66-.61-.92-.1-.08-.23-.17-.41-.27-.33-.2-.43-.42-.29-.69.12-.24.36-.29.71-.16.14.05.25.1.34.12.34.11.66.12.97,0,.3-.11.53-.32.69-.62.2-.38.24-.76.13-1.13s-.36-.64-.72-.83c-.34-.18-.74-.25-1.21-.22-.47.03-.74.02-.83-.03-.11-.06-.19-.14-.23-.25-.04-.11-.03-.22.03-.33.13-.25.48-.38,1.06-.39.58-.01,1.15.12,1.7.41.63.33,1.06.79,1.28,1.39.22.6.19,1.18-.1,1.74-.22.42-.5.72-.84.9s-.76.23-1.26.16Z" fill="#fff"/></g></g><g isolation="isolate"><g isolation="isolate"><path d="M303.34,31.9c.37-.16.73-.23,1.07-.22s.67.1.97.28c.62.36,1.02.89,1.19,1.62.17.72.06,1.42-.34,2.11-.41.72-.96,1.19-1.65,1.41-.69.22-1.36.14-2.02-.23-.78-.44-1.23-1.11-1.34-2-.12-.89.12-1.85.71-2.88.77-1.35,1.73-2.23,2.89-2.65,1.16-.42,2.31-.31,3.44.34.38.22.62.39.71.52s.09.27,0,.42c-.14.25-.45.25-.92,0-.31-.17-.57-.29-.78-.36-.69-.24-1.38-.21-2.06.07-.68.29-1.31.82-1.88,1.58ZM302.57,33.55c-.28.49-.38.96-.29,1.41.08.45.33.8.73,1.03.38.22.77.25,1.18.1.41-.15.75-.46,1.01-.93.27-.48.37-.95.29-1.39-.08-.45-.32-.78-.71-1-.38-.22-.78-.26-1.2-.11-.42.15-.75.45-1.01.9Z" fill="#fff"/></g></g><g isolation="isolate"><g isolation="isolate"><path d="M317.1,42.15c.04.2,0,.39-.13.56-.12.18-.29.29-.49.32s-.39,0-.56-.12c-.17-.12-.28-.28-.32-.5-.04-.2,0-.39.12-.56.12-.17.28-.28.48-.31.21-.04.41,0,.58.12.17.12.28.28.32.48ZM319.26,42.46l-1.4,2.04c-.04.06-.1.12-.16.16-.06.04-.12.07-.18.09-.13.02-.26,0-.37-.08-.11-.08-.18-.18-.21-.32-.01-.06,0-.13,0-.21s.05-.14.09-.21l1.4-2.04-2.1-1.46c-.07-.05-.13-.1-.17-.16-.04-.06-.07-.12-.08-.18-.03-.14,0-.26.08-.38.08-.11.18-.18.31-.21.08-.01.15-.01.22,0,.07.01.14.05.21.1l2.11,1.45,1.4-2.02c.04-.06.1-.12.16-.17.06-.05.13-.08.19-.09.14-.02.26,0,.36.08s.17.17.19.31c.01.07,0,.14,0,.22-.02.08-.05.15-.09.21l-1.38,2.04,2.1,1.47c.07.05.12.1.17.17.05.07.07.13.08.2.02.13,0,.25-.09.37-.08.12-.19.19-.32.21-.06.01-.13,0-.21-.01-.08-.02-.15-.05-.21-.1l-2.12-1.46ZM318.75,39.73c-.2.04-.39,0-.56-.13-.18-.12-.28-.29-.32-.49-.04-.2,0-.39.12-.56.12-.17.28-.28.5-.32.2-.04.39,0,.56.12.17.12.27.28.31.48.04.21,0,.41-.12.58-.12.17-.28.28-.48.32ZM319.78,45.3c-.2.04-.39,0-.57-.13-.18-.12-.28-.29-.32-.49-.04-.21,0-.4.12-.58.12-.18.28-.28.48-.32.21-.04.39,0,.57.12.17.12.28.29.31.5.04.21,0,.4-.12.57-.12.18-.28.29-.47.32ZM322.68,41.12c.04.2,0,.39-.13.57s-.29.29-.49.32c-.21.03-.4,0-.58-.12-.18-.12-.28-.28-.32-.48-.04-.21,0-.39.12-.57.12-.17.29-.28.5-.31.21-.04.4,0,.57.12.18.12.29.28.32.48Z" fill="#fff"/></g></g><g isolation="isolate"><g isolation="isolate"><path d="M328.04,53.92c-.19-.15-.29-.31-.32-.46-.03-.15.02-.3.15-.46.19-.23.88-.38,2.07-.46l.27-.02c.18-.01.45-.03.79-.06,2.16-.15,3.46-.48,3.89-1.01.31-.38.45-.77.43-1.18-.02-.41-.2-.76-.55-1.04-.22-.18-.47-.31-.75-.38-.28-.08-.54-.09-.79-.03-.04.01-.12.03-.22.06-.32.13-.57.13-.73,0-.13-.1-.18-.22-.17-.34.01-.12.11-.29.29-.51.1-.13.19-.21.26-.25.07-.04.17-.06.29-.07.4-.03.83.02,1.26.17s.83.36,1.18.65c.58.48.92,1.07,1,1.77s-.1,1.32-.55,1.87c-.57.69-1.92,1.12-4.06,1.28-.54.03-.96.06-1.25.09l-1.16.09,2.41,1.98c.14-.14.28-.22.41-.25s.26.01.38.11.18.21.18.34c0,.13-.05.27-.16.4,0,0-.03.03-.05.05s-.04.04-.05.05l-.38.37c-.1.1-.2.16-.31.18-.1.02-.2,0-.28-.08l-3.5-2.87Z" fill="#fff"/></g></g><g isolation="isolate"><g isolation="isolate"><path d="M336.04,61.01c-.64-.57-.88-1.33-.71-2.27.17-.94.72-1.93,1.66-2.98.94-1.04,1.86-1.7,2.78-1.97.91-.27,1.69-.11,2.33.46.64.57.88,1.33.71,2.27s-.71,1.93-1.65,2.98-1.86,1.7-2.78,1.97c-.92.27-1.7.12-2.34-.46ZM341.44,54.98c-.39-.35-.9-.39-1.53-.12-.63.27-1.32.82-2.08,1.67-.76.85-1.24,1.6-1.44,2.26-.2.66-.1,1.16.29,1.51.39.35.91.39,1.54.13s1.33-.83,2.09-1.67c.76-.84,1.23-1.59,1.43-2.25s.1-1.16-.29-1.51Z" fill="#fff"/></g></g><g isolation="isolate"><g isolation="isolate"><path d="M346.29,63.89c.28.48.39.96.33,1.44-.06.48-.28.92-.67,1.32-.56.57-1.22.84-1.97.81-.76-.03-1.46-.36-2.1-.99-.5-.48-.84-1.01-1.04-1.58-.2-.57-.19-.97.03-1.19.1-.1.21-.14.34-.14.13,0,.25.06.35.16.06.05.18.33.36.84.19.51.43.9.73,1.2.39.38.81.58,1.27.59.46.02.86-.15,1.21-.51.28-.29.44-.62.47-.98.03-.37-.08-.72-.32-1.06-.07-.1-.18-.23-.31-.38-.26-.28-.28-.53-.08-.74.19-.19.43-.17.73.05.11.09.21.17.29.22.29.21.6.3.92.29.32-.02.6-.15.84-.39.3-.31.45-.66.45-1.04,0-.38-.15-.72-.45-1.01-.27-.27-.64-.46-1.09-.57-.46-.11-.72-.2-.79-.27-.09-.09-.14-.19-.14-.31,0-.12.04-.22.12-.31.19-.2.57-.22,1.13-.06.56.16,1.06.46,1.5.89.51.5.78,1.06.82,1.7.04.64-.16,1.18-.6,1.63-.33.34-.69.55-1.07.61-.38.06-.8,0-1.26-.21Z" fill="#fff"/></g></g><g isolation="isolate"><g isolation="isolate"><path d="M348.24,72.41c-.11.05-.18.07-.22.07-.04,0-.1-.03-.16-.1l-.08-.08-.33-.35c-.06-.07-.1-.13-.11-.2,0-.06,0-.12.06-.16.03-.03.06-.05.08-.06.03-.02.06-.04.11-.06l7.15-3.05-2.38-2.53c-.17.14-.31.21-.44.22-.13,0-.25-.04-.36-.16-.11-.11-.16-.22-.15-.33,0-.11.07-.22.19-.33.03-.03.06-.05.08-.07s.04-.02.05-.03l.49-.37c.1-.08.21-.11.31-.1s.2.07.3.17l3.1,3.29c.09.1.14.19.14.27,0,.08-.04.17-.13.25l-.17.16s-.1.08-.18.12c-.08.04-.19.1-.34.17l-6.99,3.26Z" fill="#fff"/></g></g><g isolation="isolate"><g isolation="isolate"><path d="M360.37,82.02c-.02.2-.12.37-.29.5-.17.13-.36.19-.56.16-.21-.03-.37-.12-.5-.28s-.18-.35-.16-.57c.02-.21.12-.37.28-.5.16-.13.35-.18.55-.16.21.03.39.12.52.29.13.16.19.35.16.55ZM362.34,82.94l-1.94,1.54c-.06.05-.13.08-.2.11-.07.02-.14.03-.2.03-.13-.02-.24-.08-.33-.19-.09-.11-.12-.23-.11-.37,0-.06.03-.13.07-.19.04-.07.09-.12.15-.17l1.94-1.54-1.58-2.01c-.05-.07-.09-.14-.12-.2-.02-.07-.03-.13-.02-.19.01-.14.07-.25.18-.34.11-.09.23-.12.36-.11.08,0,.15.03.21.07.06.04.12.09.17.15l1.59,2,1.93-1.52c.06-.05.13-.09.2-.11.07-.03.14-.04.21-.03.14.02.25.08.33.18.08.1.11.22.1.35,0,.07-.03.14-.07.21-.04.07-.09.13-.15.17l-1.92,1.54,1.58,2.02c.05.06.09.13.12.21.02.08.03.15.02.21-.02.13-.08.24-.19.32-.11.09-.23.12-.36.11-.06,0-.13-.03-.2-.07-.07-.04-.13-.09-.17-.15l-1.6-2.01ZM362.01,85.81c-.21-.02-.37-.12-.51-.29-.13-.17-.19-.36-.16-.56.03-.21.12-.38.29-.51.16-.13.35-.19.56-.16.21.02.38.12.5.28.13.17.18.36.15.57-.02.21-.12.38-.28.51-.17.13-.35.19-.55.17ZM362.65,80.18c-.2-.02-.37-.12-.5-.29-.13-.17-.19-.36-.17-.56.02-.21.12-.37.28-.5.16-.13.35-.18.57-.16.21.02.37.12.5.28.13.16.18.35.16.55-.03.21-.12.39-.29.52-.16.13-.35.19-.55.16ZM366,82.66c-.02.21-.12.38-.29.51-.17.13-.36.19-.56.16-.21-.03-.38-.12-.51-.29s-.19-.35-.16-.56c.02-.21.12-.38.29-.5.17-.13.36-.18.56-.15.21.02.38.11.51.28.13.17.19.35.17.55Z" fill="#fff"/></g></g><g isolation="isolate"><g isolation="isolate"><path d="M367.39,96.45c-.13-.2-.19-.38-.17-.53s.11-.28.28-.4c.25-.16.95-.11,2.12.17l.27.06c.18.04.44.1.77.18,2.11.49,3.45.55,4.01.18.41-.27.66-.6.76-1,.1-.4.02-.78-.22-1.15-.16-.24-.36-.44-.6-.59-.24-.15-.49-.24-.75-.26-.04,0-.12,0-.22,0-.35.03-.58-.04-.7-.22-.09-.14-.11-.26-.07-.37.05-.11.19-.25.42-.4.14-.09.25-.14.33-.16.08-.02.18,0,.3.01.4.09.78.26,1.16.53.38.27.69.59.94.96.42.63.56,1.29.44,1.99s-.48,1.24-1.08,1.63c-.75.5-2.16.51-4.25.03-.53-.12-.94-.22-1.23-.28l-1.14-.25,1.73,2.6c.17-.09.33-.13.47-.12.14.02.25.09.33.21.08.13.11.25.07.38s-.13.24-.27.33c-.01,0-.03.02-.06.04-.03.01-.05.03-.06.03l-.47.25c-.12.07-.24.09-.34.08s-.19-.06-.25-.16l-2.5-3.77Z" fill="#fff"/></g></g><g isolation="isolate"><g isolation="isolate"><path d="M372.95,105.56c-.44-.73-.45-1.52-.02-2.37.43-.85,1.25-1.64,2.46-2.37,1.2-.73,2.28-1.08,3.23-1.07.95.01,1.65.39,2.09,1.12.44.73.45,1.53.02,2.38-.43.85-1.25,1.64-2.45,2.36-1.2.72-2.27,1.08-3.23,1.07-.96-.01-1.66-.38-2.1-1.12ZM379.88,101.38c-.27-.45-.75-.64-1.43-.57-.68.07-1.51.4-2.47.98-.97.59-1.65,1.17-2.03,1.74-.38.57-.44,1.08-.17,1.53.27.45.75.64,1.43.57.68-.07,1.51-.4,2.49-.99.97-.58,1.64-1.16,2.02-1.73.38-.57.43-1.08.16-1.53Z" fill="#fff"/></g></g><g isolation="isolate"><g isolation="isolate"><path d="M381.93,111.32c.13.54.09,1.03-.1,1.47-.2.44-.54.8-1.03,1.06-.7.38-1.41.45-2.12.2-.72-.25-1.29-.77-1.72-1.56-.33-.61-.51-1.21-.54-1.81-.02-.6.1-.98.38-1.13.12-.07.24-.08.37-.03.13.04.22.13.29.25.04.07.07.37.1.91.03.54.14.99.35,1.36.26.48.61.79,1.04.94.44.15.87.11,1.3-.13.36-.19.6-.46.73-.8.13-.34.14-.71,0-1.11-.04-.12-.1-.27-.19-.45-.16-.35-.12-.59.14-.73.23-.13.46-.04.68.27.08.12.15.22.22.29.22.29.48.47.8.54.31.08.62.04.91-.12.38-.21.63-.5.74-.86s.07-.73-.13-1.1c-.18-.34-.48-.62-.88-.86s-.63-.4-.67-.49c-.06-.11-.08-.22-.04-.34.03-.11.1-.2.21-.26.24-.13.61-.04,1.1.27.49.32.88.75,1.18,1.29.34.62.44,1.25.28,1.87-.15.62-.5,1.08-1.05,1.38-.42.23-.82.32-1.2.27-.38-.05-.76-.24-1.14-.57Z" fill="#fff"/></g></g><g isolation="isolate"><g isolation="isolate"><path d="M384.48,116.84c0-.49.1-.91.31-1.26.2-.35.5-.62.9-.82.63-.31,1.27-.34,1.9-.09.63.25,1.12.73,1.47,1.44.34.69.42,1.37.24,2.04-.18.66-.57,1.14-1.16,1.43-.44.22-.86.3-1.26.25s-.8-.23-1.2-.54c.04.5-.05.93-.27,1.31s-.54.68-.98.89c-.67.33-1.34.37-1.99.12-.65-.25-1.16-.75-1.53-1.49-.37-.74-.45-1.45-.25-2.12.2-.67.64-1.18,1.33-1.52.42-.21.84-.28,1.28-.22.43.06.84.25,1.21.57ZM382.49,117.49c-.43.21-.72.52-.85.93s-.09.83.13,1.28c.22.45.53.75.93.89s.81.11,1.24-.11c.42-.21.7-.52.83-.93.13-.41.08-.83-.14-1.27-.22-.44-.52-.73-.92-.88-.4-.15-.8-.12-1.22.08ZM386.17,115.75c-.41.2-.67.5-.8.89-.13.4-.09.8.12,1.22.21.42.51.7.9.84.39.14.79.11,1.2-.09.39-.19.65-.49.78-.88.12-.39.08-.8-.13-1.22-.21-.42-.5-.7-.89-.84s-.78-.11-1.18.09Z" fill="#fff"/></g></g><g isolation="isolate"><g isolation="isolate"><path d="M390.07,132.79c-.08.19-.22.32-.42.4-.2.08-.4.07-.59,0s-.32-.22-.4-.41-.07-.39.02-.59c.08-.19.22-.32.41-.4s.38-.07.57.01c.2.09.33.23.41.43.08.19.08.39,0,.58ZM391.68,134.25l-2.31.9c-.07.03-.14.04-.22.04-.08,0-.14,0-.2-.03-.12-.05-.21-.15-.26-.28s-.05-.26,0-.38c.03-.06.07-.11.12-.17.06-.05.12-.09.19-.12l2.31-.9-.92-2.39c-.03-.08-.05-.16-.05-.23,0-.07,0-.14.04-.19.05-.13.14-.22.27-.27.13-.05.25-.05.38,0,.07.03.13.07.19.13s.09.12.12.2l.94,2.38,2.29-.89c.07-.03.15-.04.23-.05.08,0,.15,0,.21.03.13.06.21.15.26.27.05.12.04.24-.01.36-.03.06-.07.12-.13.18-.06.05-.12.1-.19.12l-2.29.91.92,2.39c.03.08.04.16.05.24s-.01.15-.04.21c-.05.12-.15.2-.28.25-.14.05-.26.05-.38,0-.06-.03-.11-.07-.17-.13-.05-.06-.09-.13-.12-.2l-.93-2.39ZM390.52,136.9c-.19-.08-.32-.23-.4-.43-.08-.2-.07-.4,0-.59.09-.19.23-.33.43-.41.19-.08.39-.08.58,0,.19.08.33.22.4.42.07.2.07.39-.02.58-.08.19-.22.33-.42.41-.2.08-.39.08-.57,0ZM392.79,131.7c-.19-.08-.32-.22-.4-.42-.08-.2-.07-.4,0-.59.08-.19.22-.32.41-.4s.39-.07.59.02c.19.08.32.22.4.41s.07.38-.01.57c-.09.2-.23.33-.43.41-.2.08-.39.08-.58,0ZM395.26,135.06c-.08.19-.23.32-.43.4s-.4.07-.59,0c-.19-.09-.33-.23-.41-.42-.08-.2-.08-.39,0-.58.08-.19.22-.33.42-.4.2-.07.39-.07.58.02.19.08.33.22.41.42.08.2.08.39,0,.57Z" fill="#fff"/></g></g><g isolation="isolate"><g isolation="isolate"><path d="M392.52,148.65c-.07-.23-.07-.42-.01-.56.06-.14.19-.24.39-.29.28-.08.94.18,1.97.79l.24.14c.16.09.39.22.69.4,1.87,1.09,3.13,1.54,3.78,1.35.47-.14.81-.38,1.02-.74.21-.35.25-.74.13-1.16-.08-.28-.22-.52-.4-.74-.19-.22-.4-.37-.64-.47-.04-.02-.11-.04-.21-.07-.34-.08-.54-.21-.6-.42-.05-.16-.03-.28.05-.38.08-.09.25-.18.52-.26.16-.05.28-.06.36-.05.08,0,.18.04.28.1.35.2.67.48.95.85.28.37.49.76.61,1.2.21.73.16,1.4-.17,2.03-.33.62-.83,1.04-1.51,1.24-.86.25-2.22-.15-4.08-1.22-.47-.28-.83-.48-1.09-.63l-1.01-.58.88,3c.2-.04.35-.03.48.03.12.06.21.16.25.3.04.14.03.27-.04.38-.07.11-.19.19-.36.24-.01,0-.04,0-.07.01-.03,0-.06,0-.07.01l-.52.1c-.14.03-.26.02-.35-.02-.1-.04-.16-.12-.19-.22l-1.28-4.34Z" fill="#fff"/></g></g><g isolation="isolate"><g isolation="isolate"><path d="M395.14,159.01c-.21-.83.02-1.59.69-2.27.66-.68,1.68-1.2,3.04-1.53,1.36-.34,2.5-.36,3.4-.07.91.29,1.46.86,1.67,1.69.21.83-.02,1.59-.69,2.28-.67.69-1.68,1.2-3.03,1.54-1.36.34-2.49.36-3.41.06-.91-.29-1.47-.86-1.68-1.69ZM403,157.06c-.13-.51-.53-.83-1.2-.96-.67-.13-1.56-.06-2.66.21-1.1.27-1.92.63-2.46,1.06-.53.43-.74.9-.61,1.41.13.51.53.84,1.2.97.67.13,1.56.06,2.67-.21,1.1-.27,1.91-.62,2.44-1.06s.73-.91.61-1.42Z" fill="#fff"/></g></g><g isolation="isolate"><g isolation="isolate"><path d="M402.02,167.16c-.04.55-.21,1.01-.53,1.37-.32.37-.75.6-1.29.71-.78.16-1.48.01-2.09-.44-.61-.45-1.01-1.12-1.18-2-.14-.68-.13-1.31.02-1.89.15-.58.39-.91.7-.97.13-.03.26,0,.36.08.11.08.17.19.2.32.02.08-.04.38-.17.9-.13.52-.16.99-.07,1.4.11.53.35.93.72,1.2.37.27.8.36,1.28.26.4-.08.71-.26.94-.55.23-.29.34-.64.33-1.05,0-.12-.02-.29-.04-.49-.05-.38.06-.6.35-.66.26-.05.45.1.57.46.04.14.08.26.12.35.12.34.32.59.6.76.28.17.58.22.91.15.42-.09.74-.29.96-.61.21-.32.28-.68.2-1.09-.08-.38-.27-.74-.58-1.08-.31-.35-.48-.57-.5-.67-.03-.12,0-.24.06-.34.06-.1.16-.16.28-.18.27-.06.59.14.96.58.37.44.62.97.74,1.58.14.7.05,1.32-.28,1.87-.33.55-.8.88-1.42,1.01-.47.1-.88.06-1.23-.1-.35-.16-.65-.45-.92-.88Z" fill="#fff"/></g></g><g isolation="isolate"><g isolation="isolate"><path d="M403,176.14c-.35-.19-.62-.42-.82-.69s-.33-.58-.38-.93c-.11-.71.06-1.36.51-1.94.46-.58,1.07-.93,1.85-1.06.82-.13,1.53,0,2.14.4s.97.97,1.09,1.71c.14.88-.1,1.65-.72,2.3-.62.65-1.52,1.07-2.69,1.26-1.54.25-2.84.05-3.88-.6-1.04-.64-1.67-1.63-1.88-2.95-.07-.42-.08-.7-.04-.85s.15-.23.32-.26c.29-.05.48.2.58.73.07.35.13.63.21.83.24.69.69,1.21,1.33,1.56.65.35,1.45.51,2.4.48ZM404.79,175.71c.56-.09.99-.31,1.29-.66.3-.35.42-.75.34-1.21-.07-.44-.29-.76-.66-.98s-.82-.28-1.35-.2c-.55.09-.97.3-1.27.64-.3.34-.41.73-.34,1.18.07.44.29.77.67,1.01s.82.31,1.33.23Z" fill="#fff"/></g></g><g isolation="isolate"><g isolation="isolate"><path d="M404.56,191.92l-2.47.18c-.08,0-.15,0-.22-.03-.07-.02-.13-.05-.18-.09-.1-.09-.16-.2-.17-.34s.03-.26.12-.36c.04-.05.1-.09.17-.12.07-.03.14-.05.22-.06l2.47-.18-.17-2.55c0-.09,0-.16.02-.23.02-.07.05-.13.09-.17.09-.11.2-.17.34-.18.14,0,.26.03.36.11.06.05.1.11.14.17.03.07.05.14.05.22l.19,2.55,2.45-.17c.08,0,.15,0,.23.02.08.02.14.05.19.09.1.09.16.2.17.33,0,.13-.03.24-.12.34-.05.05-.11.1-.18.13-.07.04-.14.05-.22.06l-2.45.19.17,2.56c0,.08,0,.16-.02.24s-.06.14-.1.19c-.08.1-.2.15-.34.16-.14,0-.26-.03-.36-.11-.05-.04-.09-.1-.12-.17-.03-.07-.05-.15-.06-.23l-.19-2.56ZM403.45,190.05c-.13.16-.3.24-.52.25-.22.01-.4-.05-.56-.18s-.24-.31-.26-.51c-.02-.21.04-.39.19-.56.13-.16.31-.24.51-.26.21-.01.39.04.54.18.16.14.25.32.27.53.02.21-.04.39-.18.55ZM402.67,194.11c-.16-.13-.24-.31-.25-.53-.01-.22.05-.4.18-.56.14-.16.31-.25.53-.26.21-.02.4.04.55.18.16.13.25.31.26.52,0,.21-.05.4-.19.55-.13.16-.31.25-.52.27-.21.02-.4-.04-.55-.17ZM406.37,189.82c-.16-.13-.24-.3-.25-.52-.01-.22.05-.4.18-.56.14-.16.31-.24.51-.26s.39.05.56.19c.16.14.24.31.26.51s-.04.39-.18.54c-.14.16-.32.25-.53.27-.21.02-.39-.04-.55-.18ZM407.74,193.76c-.13.16-.31.24-.53.25-.22.01-.4-.05-.56-.18-.16-.14-.24-.31-.26-.53-.02-.21.04-.39.18-.55.13-.16.31-.25.52-.26.21-.01.4.05.55.19.16.13.25.31.27.52.02.21-.04.4-.17.55Z" fill="#fff"/></g></g><g isolation="isolate"><g isolation="isolate"><path d="M401.13,205.94c0-.24.06-.42.16-.53.1-.12.25-.17.46-.17.29,0,.84.45,1.65,1.34l.19.2c.13.13.3.33.54.58,1.46,1.6,2.53,2.41,3.21,2.42.49,0,.88-.12,1.19-.4.31-.27.46-.63.47-1.07,0-.29-.05-.56-.16-.83-.11-.26-.27-.48-.47-.64-.04-.03-.1-.07-.18-.13-.3-.17-.45-.37-.45-.58,0-.16.05-.28.16-.35s.29-.1.58-.09c.16,0,.28.02.36.05.08.03.15.09.24.18.28.3.5.66.66,1.09.16.43.24.88.23,1.33-.01.76-.27,1.38-.76,1.89-.5.5-1.1.74-1.81.73-.89-.01-2.07-.81-3.53-2.38-.36-.4-.65-.71-.85-.92l-.79-.85-.05,3.12c.2.02.35.08.45.17.1.09.15.21.15.36,0,.15-.05.27-.16.35-.1.08-.24.13-.41.12-.01,0-.04,0-.07,0-.03,0-.06,0-.07,0l-.53-.06c-.14-.02-.25-.06-.33-.13-.08-.07-.12-.16-.12-.27l.07-4.52Z" fill="#fff"/></g></g><g isolation="isolate"><g isolation="isolate"><path d="M400.6,216.64c.04-.86.48-1.51,1.32-1.97.83-.46,1.95-.65,3.36-.58,1.4.07,2.49.39,3.27.93.78.55,1.15,1.25,1.1,2.1-.05.86-.49,1.51-1.32,1.98-.84.46-1.95.66-3.35.58s-2.49-.39-3.27-.93c-.78-.55-1.15-1.25-1.11-2.11ZM408.69,217.07c.03-.52-.26-.95-.87-1.27-.6-.32-1.47-.52-2.6-.58-1.13-.06-2.02.04-2.66.3-.64.26-.97.65-1,1.17-.03.53.26.95.87,1.28.61.32,1.48.52,2.61.58,1.13.06,2.01-.04,2.65-.3.63-.26.97-.65,1-1.18Z" fill="#fff"/></g></g><g isolation="isolate"><g isolation="isolate"><path d="M400.23,224.77c.02-.22.07-.36.15-.43.08-.07.21-.1.4-.08.16.02.28.07.35.15.07.09.09.22.08.39l-.08.79,1.14.11.3-3.18c.01-.11.05-.2.13-.25s.19-.08.32-.07l.47.04c.18.02.37.1.55.25.03.03.06.05.08.06l4.6,3.34c.11.07.18.13.2.18.03.04.04.1.03.17,0,.03-.01.07-.03.14,0,.02-.01.04-.02.05l-.18.68c-.01.06-.06.11-.12.14-.06.03-.15.04-.25.04l-5.17-.5-.03.35c0,.1.02.18.1.24.07.06.11.13.1.19,0,.09-.05.17-.12.22-.07.06-.16.08-.26.07-.04,0-.08,0-.11-.02-.03,0-.07-.02-.1-.04l-.27-.08c-.16-.05-.27-.1-.32-.17-.05-.07-.07-.17-.06-.3l.05-.57-1.14-.11-.02.24c-.03.29-.08.49-.16.59-.08.1-.21.14-.38.13-.16-.02-.28-.07-.35-.17-.07-.1-.1-.24-.08-.42l.21-2.2ZM403.29,225.8l4.61.44-4.37-3.02-.25,2.58Z" fill="#fff"/></g></g><g isolation="isolate"><g isolation="isolate"><path d="M399.02,233.16c.12-.85.61-1.47,1.48-1.85.87-.39,2-.48,3.4-.29,1.39.19,2.45.59,3.18,1.21.73.61,1.04,1.34.92,2.19-.12.85-.61,1.47-1.49,1.86s-2,.49-3.39.29c-1.39-.19-2.45-.59-3.18-1.21-.74-.61-1.04-1.34-.93-2.19ZM407.04,234.27c.07-.52-.18-.97-.75-1.34-.57-.37-1.42-.64-2.54-.79-1.13-.16-2.02-.13-2.67.07-.66.2-1.02.56-1.09,1.08-.07.52.18.97.75,1.35.58.37,1.43.64,2.55.8,1.12.16,2.01.13,2.66-.07.65-.2,1.02-.57,1.09-1.09Z" fill="#fff"/></g></g><g isolation="isolate"><g isolation="isolate"><path d="M400,250.87l-2.41-.55c-.08-.02-.15-.05-.21-.09-.06-.04-.11-.09-.15-.14-.07-.11-.09-.24-.06-.38.03-.14.1-.24.22-.31.05-.03.12-.06.19-.07.07-.01.15,0,.23,0l2.41.55.58-2.49c.02-.08.05-.16.08-.22s.08-.11.14-.14c.12-.08.24-.1.38-.07.13.03.24.1.31.21.04.07.07.13.08.21s0,.15-.01.23l-.56,2.5,2.4.55c.08.02.15.05.21.09.07.04.12.09.15.14.07.12.09.24.07.37-.03.12-.1.22-.21.29-.06.04-.13.06-.21.07-.08.01-.15.01-.23,0l-2.4-.53-.58,2.5c-.02.08-.05.15-.09.22-.04.07-.1.12-.15.15-.11.07-.23.09-.37.05-.14-.04-.25-.11-.31-.21-.04-.05-.06-.12-.07-.2,0-.08,0-.16.01-.23l.57-2.51ZM397.55,252.41c-.11-.17-.14-.37-.09-.58.05-.21.16-.37.34-.48.18-.11.37-.14.58-.1.21.04.37.15.47.33.11.18.15.37.09.57-.05.21-.17.36-.35.47-.17.11-.37.15-.58.1-.21-.04-.37-.15-.47-.32ZM399.48,248.76c-.17.11-.36.14-.57.09-.21-.05-.37-.16-.48-.34-.11-.17-.14-.36-.1-.57.04-.2.16-.36.34-.48.17-.11.36-.14.56-.1.2.05.36.16.47.33.11.18.15.38.1.58-.04.2-.15.36-.33.47ZM402.51,253.55c-.17.11-.37.14-.58.09-.21-.05-.37-.16-.48-.34-.11-.18-.14-.37-.1-.58.04-.21.15-.37.33-.47.17-.11.37-.15.57-.09.21.05.36.17.47.35.12.17.15.37.11.58-.05.21-.15.37-.32.47ZM402.35,249.39c-.11-.17-.14-.36-.09-.57.05-.21.16-.37.34-.48.17-.11.36-.14.57-.1.2.04.36.16.48.34.11.17.14.36.1.56-.05.2-.16.36-.33.47-.18.11-.38.15-.58.1-.21-.04-.36-.15-.47-.33Z" fill="#fff"/></g></g><g isolation="isolate"><g isolation="isolate"><path d="M392.62,263.25c.07-.23.17-.39.3-.47.13-.08.29-.09.49-.03.28.09.68.68,1.19,1.76l.12.25c.08.16.2.4.35.71.94,1.95,1.73,3.04,2.37,3.24.46.15.88.14,1.26-.04.37-.17.63-.47.76-.89.09-.27.11-.55.08-.84-.03-.29-.12-.54-.26-.75-.03-.04-.07-.1-.14-.18-.24-.25-.33-.48-.26-.68.05-.16.13-.25.25-.29.12-.04.31,0,.58.08.16.05.27.1.33.15.06.05.12.13.18.24.18.36.28.78.31,1.24.03.46-.03.91-.16,1.34-.23.72-.66,1.25-1.28,1.58-.62.34-1.27.4-1.95.18-.85-.27-1.75-1.37-2.69-3.3-.23-.49-.42-.87-.55-1.13l-.51-1.05-.95,2.98c.18.08.31.17.38.29.07.12.08.25.04.39s-.13.24-.25.29-.27.05-.43,0c-.01,0-.04-.01-.07-.03-.03-.01-.05-.02-.07-.03l-.48-.21c-.13-.06-.22-.13-.28-.22s-.07-.19-.03-.29l1.38-4.31Z" fill="#fff"/></g></g><g isolation="isolate"><g isolation="isolate"><path d="M388.97,273.32c.29-.8.91-1.3,1.84-1.5.93-.19,2.06-.05,3.38.44,1.32.48,2.27,1.1,2.85,1.85.58.75.73,1.53.43,2.33-.3.8-.91,1.3-1.85,1.5-.94.2-2.06.05-3.37-.43-1.31-.48-2.26-1.1-2.85-1.86-.59-.75-.74-1.53-.44-2.34ZM396.57,276.12c.18-.49.03-.98-.45-1.47-.48-.49-1.25-.93-2.31-1.32-1.07-.39-1.94-.56-2.63-.5s-1.12.33-1.3.83c-.18.5-.03.99.45,1.48.48.49,1.26.93,2.33,1.32,1.06.39,1.93.55,2.62.5.68-.06,1.12-.34,1.3-.83Z" fill="#fff"/></g></g><g isolation="isolate"><g isolation="isolate"><path d="M386.22,280.97c.08-.2.17-.32.27-.37.09-.04.23-.03.4.04.15.06.25.15.29.25.04.1.02.24-.04.4l-.31.73,1.06.44,1.23-2.95c.04-.1.11-.17.2-.2.09-.03.2-.02.33.03l.44.18c.17.07.32.21.45.4.02.03.04.06.06.08l3.41,4.55c.08.1.13.18.14.23.01.05,0,.11-.02.17-.01.03-.03.07-.07.13-.01.01-.02.03-.03.04l-.37.6c-.03.06-.09.09-.16.1-.07.01-.15,0-.25-.04l-4.79-2-.13.32c-.04.09-.03.18.02.26.05.08.06.15.04.22-.04.08-.1.14-.18.17-.09.03-.18.03-.27,0-.04-.02-.07-.03-.1-.05-.03-.02-.06-.04-.09-.07l-.24-.16c-.14-.09-.22-.18-.25-.26-.03-.08-.02-.18.03-.3l.22-.53-1.06-.44-.09.22c-.11.27-.22.44-.33.51-.11.07-.24.08-.4.01-.15-.06-.25-.15-.29-.27-.04-.12-.03-.26.04-.43l.85-2.04ZM388.84,282.87l4.28,1.78-3.28-4.18-1,2.39Z" fill="#fff"/></g></g><g isolation="isolate"><g isolation="isolate"><path d="M390.14,290.34c.02-.06.03-.1.04-.13,0-.03.02-.05.03-.07.06-.13.14-.21.25-.26.11-.05.22-.04.34.01.1.05.17.12.21.23.04.1.05.23.03.38l-.37,2.07c0,.05-.02.1-.03.15-.01.04-.03.09-.05.14-.04.08-.1.12-.19.14-.09.01-.2-.01-.33-.07l-6.7-3.14-.46.99c-.17.37-.31.59-.42.66-.11.07-.24.07-.41,0-.15-.07-.24-.16-.28-.28s-.01-.26.06-.42l1.73-3.7c.08-.17.17-.27.29-.32s.24-.04.39.03c.17.08.25.18.27.31.01.13-.07.37-.24.74l-.48,1.03,6.05,2.83.27-1.29Z" fill="#fff"/></g></g><g isolation="isolate"><g isolation="isolate"><path d="M375.49,306.6c-.05-.2-.02-.39.09-.58s.26-.31.46-.36c.2-.05.4-.03.58.08.18.1.3.25.35.46.06.2.03.39-.08.57-.11.18-.27.3-.47.35-.2.06-.4.03-.58-.07s-.3-.25-.36-.45ZM378.29,305.85l-2.14-1.24c-.07-.04-.12-.09-.17-.15-.05-.06-.08-.12-.1-.18-.04-.13-.02-.26.05-.38s.17-.2.3-.23c.06-.02.13-.02.21,0,.08.01.15.04.21.08l2.14,1.24,1.29-2.21c.04-.08.09-.14.15-.18.05-.05.11-.08.17-.09.13-.04.26-.02.38.05.12.07.2.17.24.29.02.07.03.15.02.22,0,.07-.04.15-.08.21l-1.27,2.22,2.13,1.24c.07.04.13.09.18.15.05.06.09.12.1.18.03.13.02.26-.05.37s-.16.18-.29.22c-.07.02-.14.02-.22,0-.08-.01-.15-.04-.21-.07l-2.14-1.22-1.29,2.21c-.04.07-.09.13-.15.18-.06.05-.12.08-.19.1-.12.03-.25.01-.37-.06-.12-.07-.2-.17-.24-.3-.02-.06-.02-.13,0-.21.01-.08.04-.15.08-.22l1.29-2.23ZM378.42,303.68c-.2.05-.39.03-.57-.08-.19-.11-.31-.27-.36-.46-.05-.2-.03-.39.07-.57s.26-.3.47-.36c.2-.05.39-.03.57.08.18.1.3.25.35.45.05.21.03.41-.07.59-.1.18-.25.3-.45.35ZM379.89,309.15c-.2.05-.39.03-.58-.08-.19-.11-.31-.27-.36-.46-.05-.2-.03-.4.08-.58s.25-.3.46-.36c.2-.06.39-.03.58.08.18.11.3.27.35.47.06.2.03.4-.07.58-.11.19-.25.31-.45.36ZM380.97,305.12c-.06-.19-.03-.39.08-.57.11-.19.26-.31.46-.36.2-.05.39-.03.57.07.18.1.3.26.36.47.05.2.03.39-.08.57s-.25.29-.45.35c-.21.05-.41.03-.59-.08-.18-.1-.3-.25-.35-.45Z" fill="#fff"/></g></g><g isolation="isolate"><g isolation="isolate"><path d="M367.57,315.51c.14-.2.28-.32.43-.36.15-.04.3,0,.47.12.24.17.45.85.62,2.03l.04.27c.03.18.07.44.12.78.32,2.14.75,3.41,1.31,3.8.4.28.8.39,1.21.34.41-.05.74-.26.99-.63.16-.23.27-.49.33-.78.05-.28.04-.55-.03-.79-.01-.04-.04-.11-.08-.21-.15-.31-.17-.56-.05-.73.09-.13.2-.2.32-.2s.3.08.53.24c.13.09.22.18.27.24.04.07.08.16.1.29.07.4.04.83-.07,1.27-.11.45-.29.86-.55,1.23-.43.62-.99,1-1.69,1.14-.69.14-1.33,0-1.91-.4-.73-.51-1.27-1.83-1.6-3.95-.08-.54-.14-.95-.19-1.24l-.18-1.15-1.79,2.56c.15.13.24.26.28.39.03.13,0,.26-.08.38s-.19.19-.33.21c-.13.01-.27-.03-.41-.13-.01,0-.03-.02-.06-.05-.02-.02-.04-.04-.05-.05l-.4-.35c-.11-.09-.18-.19-.2-.29-.03-.1,0-.2.05-.29l2.59-3.71Z" fill="#fff"/></g></g><g isolation="isolate"><g isolation="isolate"><path d="M361.13,324.04c.52-.68,1.25-.98,2.2-.89s1.98.56,3.1,1.41c1.12.85,1.84,1.72,2.18,2.61.34.89.25,1.68-.27,2.36-.52.68-1.25.98-2.21.89-.95-.09-1.98-.56-3.1-1.41-1.11-.85-1.84-1.72-2.18-2.62-.34-.89-.25-1.68.27-2.37ZM367.57,328.95c.32-.42.32-.93,0-1.54-.32-.61-.92-1.25-1.82-1.94-.9-.69-1.69-1.11-2.36-1.25-.67-.15-1.17,0-1.48.41-.32.42-.32.94,0,1.54.32.61.93,1.26,1.83,1.95.9.69,1.68,1.1,2.35,1.24.67.14,1.17,0,1.49-.41Z" fill="#fff"/></g></g><g isolation="isolate"><g isolation="isolate"><path d="M356.24,330.55c.14-.17.26-.26.37-.27.1-.01.23.04.37.16.12.11.19.21.2.32,0,.11-.05.23-.16.37l-.51.61.88.73,2.04-2.46c.07-.09.16-.13.25-.14.1,0,.2.04.3.13l.36.3c.14.12.25.29.32.52.01.04.02.07.03.1l1.92,5.35c.05.12.07.21.07.26,0,.05-.03.1-.07.16-.02.02-.05.05-.1.1-.01.01-.03.02-.05.03l-.53.47s-.11.06-.18.05c-.07-.01-.15-.05-.22-.11l-4-3.32-.22.27c-.06.08-.08.16-.06.26.03.09.02.17-.03.22-.06.07-.13.11-.23.11-.09,0-.18-.03-.26-.09-.03-.03-.06-.05-.08-.08s-.04-.05-.06-.09l-.18-.22c-.11-.13-.16-.24-.17-.32,0-.08.03-.18.12-.28l.37-.44-.88-.73-.15.18c-.19.22-.34.36-.47.39-.12.04-.25,0-.38-.11-.13-.1-.19-.22-.2-.34,0-.12.05-.25.17-.39l1.41-1.7ZM358.2,333.14l3.56,2.96-1.91-4.95-1.66,1.99Z" fill="#fff"/></g></g><g isolation="isolate"><g isolation="isolate"><path d="M352.3,335.19c.16-.18.32-.28.47-.3.15-.02.3.04.45.18.22.2.34.9.35,2.09v.28c.02.18.02.45.03.79.04,2.17.32,3.48.82,3.93.36.33.75.49,1.16.49.41,0,.77-.17,1.06-.5.19-.21.33-.46.42-.73s.11-.54.07-.79c0-.04-.02-.12-.05-.22-.11-.33-.1-.57.04-.73.11-.12.22-.17.35-.16.12.02.29.12.49.31.12.11.2.2.23.28.03.07.05.17.06.29.01.41-.06.82-.23,1.25-.17.43-.4.81-.7,1.15-.51.56-1.11.87-1.82.92-.7.05-1.32-.17-1.84-.64-.66-.6-1.02-1.97-1.08-4.12,0-.54-.02-.96-.03-1.26l-.03-1.17-2.1,2.32c.13.15.21.29.23.42.02.13-.03.26-.13.37-.1.11-.22.17-.35.16-.13,0-.26-.06-.39-.18-.01,0-.03-.03-.05-.05-.02-.03-.04-.04-.05-.05l-.35-.39c-.1-.11-.15-.21-.16-.31-.01-.1.02-.2.09-.28l3.04-3.35Z" fill="#fff"/></g></g><g isolation="isolate"><g isolation="isolate"><path d="M338.48,351.91c0-.21.09-.38.25-.53.16-.15.34-.21.55-.21.21.01.39.09.54.24s.22.33.21.54c0,.21-.09.39-.24.53-.16.14-.34.21-.55.2-.21,0-.39-.08-.54-.24-.15-.16-.22-.33-.21-.53ZM341.36,352.01l-1.69-1.81c-.05-.06-.09-.12-.12-.19-.03-.07-.04-.14-.04-.2,0-.13.06-.25.16-.34.1-.1.22-.14.36-.13.06,0,.13.02.2.05s.13.08.18.13l1.69,1.81,1.88-1.73c.06-.06.13-.1.19-.13.07-.03.13-.04.19-.04.14,0,.26.05.35.16.09.1.14.22.14.35,0,.08-.02.15-.05.22-.03.07-.08.13-.14.18l-1.87,1.75,1.67,1.8c.05.06.1.12.13.19.03.07.05.14.04.21,0,.14-.06.25-.15.34-.09.09-.21.13-.34.12-.07,0-.14-.02-.22-.06-.07-.03-.13-.08-.18-.13l-1.69-1.79-1.88,1.74c-.06.06-.13.1-.2.13s-.15.04-.21.04c-.13,0-.24-.06-.34-.17-.1-.11-.14-.22-.14-.35,0-.06.02-.13.06-.2s.08-.13.14-.19l1.88-1.75ZM341.93,355.64c-.21,0-.38-.09-.53-.25-.15-.16-.22-.34-.21-.55.01-.21.09-.39.24-.54.15-.15.33-.22.54-.21.21,0,.38.08.53.24.14.16.21.34.19.55,0,.21-.08.39-.24.54-.16.15-.33.22-.53.21ZM342.13,349.97c-.2,0-.38-.09-.52-.25-.15-.16-.22-.34-.21-.55,0-.21.08-.38.24-.52s.33-.21.55-.2c.21,0,.38.09.52.24.14.15.21.33.2.54-.01.22-.09.4-.24.54-.15.14-.33.21-.54.21ZM344.14,352.1c0-.2.09-.38.25-.52.16-.15.34-.21.55-.21.21,0,.38.09.52.24.14.15.21.33.2.55,0,.21-.09.38-.24.52s-.33.21-.54.2c-.22-.01-.39-.09-.54-.24-.15-.15-.21-.33-.21-.54Z" fill="#fff"/></g></g><g isolation="isolate"><g isolation="isolate"><path d="M328.29,358.11c.19-.15.36-.22.51-.22s.29.09.42.25c.18.23.18.94,0,2.12l-.04.27c-.03.18-.06.44-.11.78-.32,2.14-.27,3.48.14,4.02.3.38.65.61,1.06.68.41.07.78-.04,1.13-.31.22-.18.4-.39.54-.65.13-.25.2-.51.2-.77,0-.05,0-.12-.01-.23-.05-.34,0-.58.16-.71.13-.1.25-.13.37-.1.12.04.26.17.44.39.1.13.16.23.18.31.02.08.02.18,0,.3-.05.4-.2.8-.44,1.2-.24.4-.53.73-.89,1.01-.6.47-1.24.67-1.95.59-.7-.07-1.27-.39-1.71-.94-.55-.7-.68-2.12-.37-4.24.08-.54.14-.95.18-1.25l.16-1.15-2.46,1.93c.11.17.16.32.15.46,0,.14-.07.25-.19.34s-.24.13-.37.1c-.13-.03-.25-.11-.36-.24,0-.01-.02-.03-.04-.06-.02-.03-.03-.05-.04-.06l-.28-.45c-.08-.12-.11-.23-.11-.34,0-.1.05-.19.14-.26l3.56-2.79Z" fill="#fff"/></g></g><g isolation="isolate"><g isolation="isolate"><path d="M319.64,364.39c.7-.5,1.48-.57,2.37-.21s1.73,1.12,2.55,2.26c.82,1.14,1.26,2.18,1.32,3.14.06.95-.25,1.67-.95,2.17s-1.49.57-2.37.2c-.88-.36-1.73-1.11-2.55-2.25-.82-1.14-1.26-2.18-1.32-3.14-.06-.96.25-1.68.95-2.18ZM324.36,370.96c.43-.31.58-.8.45-1.47-.13-.67-.52-1.47-1.18-2.39-.66-.92-1.29-1.55-1.9-1.89-.6-.33-1.11-.35-1.54-.04-.43.31-.58.8-.46,1.48.13.68.52,1.48,1.18,2.4.66.92,1.29,1.54,1.89,1.88.6.33,1.11.35,1.54.04Z" fill="#fff"/></g></g><g isolation="isolate"><g isolation="isolate"><path d="M313.05,369.19c.18-.12.33-.17.43-.16.1.02.21.1.31.26.09.14.12.26.1.37-.03.11-.11.21-.26.31l-.66.43.63.96,2.67-1.75c.1-.06.19-.08.28-.05.09.03.18.1.25.21l.26.39c.1.15.15.35.15.59,0,.04,0,.08,0,.1l.27,5.68c0,.13,0,.22-.01.27-.02.05-.05.09-.11.13-.02.02-.07.04-.13.07-.02,0-.04.01-.05.02l-.64.29c-.06.03-.12.03-.19,0-.07-.03-.13-.09-.18-.17l-2.85-4.34-.29.19c-.08.05-.13.13-.13.23,0,.1-.03.16-.09.2-.08.05-.16.06-.25.04-.09-.02-.16-.08-.22-.16-.02-.03-.04-.07-.06-.1-.01-.03-.03-.07-.03-.1l-.11-.26c-.06-.16-.08-.27-.07-.36.02-.08.08-.16.19-.23l.48-.31-.63-.96-.2.13c-.24.16-.43.24-.56.24-.13,0-.24-.07-.34-.21-.09-.14-.12-.27-.09-.38.03-.12.12-.23.28-.33l1.85-1.21ZM314.16,372.23l2.54,3.88-.38-5.3-2.17,1.42Z" fill="#fff"/></g></g><g isolation="isolate"><g isolation="isolate"><path d="M307.37,378.28c-.53.15-1.02.13-1.47-.05-.45-.18-.82-.51-1.1-.99-.41-.69-.5-1.39-.28-2.12.22-.73.72-1.32,1.49-1.78.59-.35,1.19-.56,1.79-.6.6-.05.98.07,1.15.34.07.12.09.24.05.37-.04.13-.12.23-.24.3-.07.04-.37.08-.9.13-.54.05-.98.18-1.34.4-.47.28-.77.64-.9,1.08-.13.44-.07.87.18,1.29.21.35.48.58.83.7.35.12.71.11,1.11-.03.12-.04.27-.11.44-.2.34-.18.59-.14.74.12.14.23.06.46-.24.69-.12.09-.21.16-.29.23-.28.23-.45.5-.52.82s-.01.62.16.91c.22.37.52.61.89.7.37.1.73.04,1.09-.17.33-.2.61-.5.83-.91.22-.41.38-.64.47-.69.11-.07.22-.08.34-.06s.2.09.27.2c.14.24.06.61-.23,1.11s-.71.91-1.24,1.22c-.61.36-1.23.48-1.85.35-.63-.13-1.1-.46-1.42-1-.25-.41-.35-.81-.32-1.19.04-.38.21-.77.53-1.16Z" fill="#fff"/></g></g><g isolation="isolate"><g isolation="isolate"><path d="M289.81,384.4c.07-.19.2-.34.39-.43.2-.09.39-.11.59-.04.2.07.34.2.44.39.1.19.11.38.04.58-.07.2-.19.34-.39.43-.19.09-.39.1-.58.03-.2-.06-.35-.19-.44-.39-.1-.19-.11-.38-.05-.57ZM292.54,385.35l-1.08-2.23c-.03-.07-.05-.14-.06-.22,0-.08,0-.14.02-.2.04-.13.13-.22.25-.28s.25-.07.38-.02c.06.02.12.06.17.11s.1.11.13.18l1.08,2.23,2.3-1.11c.08-.04.15-.06.22-.07s.14,0,.19.02c.13.04.23.13.29.25.06.12.07.25.03.38-.02.07-.06.14-.11.19s-.11.1-.19.13l-2.3,1.12,1.07,2.22c.03.07.06.14.07.22,0,.08,0,.15-.02.21-.05.13-.13.22-.24.28-.12.06-.24.06-.36.02-.07-.02-.13-.06-.19-.12-.06-.05-.11-.11-.14-.18l-1.09-2.21-2.31,1.11c-.07.04-.15.06-.23.07-.08,0-.15,0-.21-.03-.12-.04-.21-.13-.27-.26-.06-.13-.07-.26-.03-.38.02-.06.06-.12.12-.18s.12-.1.19-.14l2.31-1.12ZM292.02,388.98c-.2-.07-.34-.2-.43-.39-.09-.2-.11-.39-.04-.59.07-.2.2-.34.39-.44.19-.1.38-.11.58-.04.2.07.34.19.43.39.09.19.1.39.03.58-.07.2-.19.35-.38.44-.19.1-.38.11-.57.04ZM293.87,383.62c-.19-.06-.34-.19-.43-.39-.09-.2-.11-.39-.04-.59.07-.19.19-.34.38-.43.19-.09.38-.1.59-.03.2.07.34.19.43.38.09.19.1.38.04.57-.07.2-.2.35-.39.44s-.38.11-.57.04ZM295.17,386.25c.06-.19.19-.34.39-.43.2-.09.39-.11.59-.04.19.07.34.19.43.38.09.19.1.38.03.59-.07.2-.19.34-.38.43-.19.09-.38.1-.57.04-.2-.07-.35-.2-.45-.39s-.11-.38-.04-.57Z" fill="#fff"/></g></g><g isolation="isolate"><g isolation="isolate"><path d="M278.24,387.34c.23-.09.41-.1.55-.06.14.05.25.17.33.36.11.28-.1.95-.63,2.03l-.12.25c-.08.17-.19.41-.34.72-.94,1.95-1.29,3.25-1.04,3.88.17.46.45.77.81.96.37.18.76.19,1.17.04.27-.1.5-.26.71-.46.2-.2.34-.43.42-.67.01-.04.03-.12.06-.22.05-.35.17-.56.37-.63.15-.06.28-.05.38.02.1.07.2.24.3.5.06.15.09.27.08.35,0,.08-.03.18-.08.29-.17.37-.43.71-.77,1.02-.34.31-.72.55-1.15.71-.71.27-1.38.27-2.03,0s-1.1-.74-1.36-1.41c-.32-.83-.02-2.22.89-4.16.24-.49.42-.87.54-1.14l.5-1.06-2.92,1.12c.05.19.06.35.01.48-.05.13-.14.22-.28.27s-.27.05-.39-.01c-.12-.06-.21-.17-.27-.34,0-.01-.01-.04-.02-.07,0-.03-.01-.06-.02-.07l-.14-.51c-.04-.14-.04-.25,0-.35s.1-.17.21-.21l4.22-1.62Z" fill="#fff"/></g></g><g isolation="isolate"><g isolation="isolate"><path d="M268.14,390.79c.81-.27,1.59-.11,2.32.5.73.61,1.33,1.58,1.77,2.91.45,1.33.56,2.46.34,3.39-.22.93-.74,1.53-1.55,1.8-.81.27-1.59.1-2.33-.5-.74-.61-1.33-1.57-1.77-2.9s-.56-2.46-.34-3.39c.22-.93.74-1.53,1.55-1.81ZM270.72,398.47c.5-.17.79-.59.86-1.27s-.06-1.56-.42-2.63c-.36-1.08-.78-1.87-1.25-2.36-.47-.5-.96-.66-1.46-.5-.5.17-.79.59-.87,1.28-.08.68.06,1.56.43,2.64.36,1.07.78,1.86,1.25,2.35.47.5.96.66,1.46.49Z" fill="#fff"/></g></g><g isolation="isolate"><g isolation="isolate"><path d="M260.46,393.43c.21-.06.36-.07.46-.02.09.05.17.16.22.34.05.16.04.28-.01.38-.06.09-.17.17-.34.21l-.76.22.32,1.1,3.07-.88c.11-.03.21-.02.29.03.08.05.14.14.18.28l.13.45c.05.17.04.38-.03.61-.01.04-.02.08-.03.1l-1.42,5.5c-.03.13-.06.21-.09.25-.03.04-.08.07-.14.09-.03,0-.07.02-.14.03-.02,0-.04,0-.06,0l-.7.09c-.06,0-.12-.01-.18-.06-.05-.05-.1-.12-.12-.22l-1.44-4.99-.34.1c-.1.03-.16.09-.19.18-.03.09-.08.15-.14.17-.09.02-.17.01-.25-.04-.08-.05-.13-.12-.16-.22-.01-.04-.02-.08-.02-.11,0-.03,0-.07,0-.11l-.03-.28c-.01-.17,0-.29.04-.36.04-.08.13-.13.25-.17l.55-.16-.32-1.1-.23.07c-.28.08-.48.1-.61.06-.12-.04-.21-.14-.26-.3-.05-.16-.04-.29.03-.39.06-.1.18-.18.36-.23l2.12-.61ZM260.62,396.66l1.29,4.45,1.2-5.17-2.49.72Z" fill="#fff"/></g></g><g isolation="isolate"><g isolation="isolate"><path d="M252.41,395.57c.21-.05.36-.05.46,0,.09.05.16.17.2.35.04.16.03.28-.03.38-.06.09-.18.16-.35.2l-.77.19.27,1.12,3.1-.75c.11-.03.21-.01.29.04.08.06.13.15.17.28l.11.46c.04.18.02.38-.06.6-.01.04-.02.07-.03.1l-1.65,5.44c-.04.13-.07.21-.1.25-.03.04-.08.07-.15.08-.03,0-.07.01-.14.02h-.06l-.7.06c-.06,0-.12-.02-.17-.07-.05-.05-.09-.12-.11-.22l-1.23-5.05-.34.08c-.1.02-.16.08-.2.17s-.08.14-.15.16c-.09.02-.17,0-.25-.05s-.13-.12-.15-.22c0-.04-.02-.08-.02-.11,0-.03,0-.07,0-.11v-.29c-.02-.17,0-.29.04-.36.05-.07.13-.12.26-.16l.56-.14-.27-1.12-.23.06c-.28.07-.49.08-.61.04-.12-.04-.2-.15-.25-.32-.04-.16-.02-.29.05-.39s.19-.17.37-.22l2.15-.52ZM252.44,398.81l1.09,4.51,1.42-5.12-2.52.61Z" fill="#fff"/></g></g><g isolation="isolate"><g isolation="isolate"><path d="M236.08,402.81l-.38-2.45c-.01-.08,0-.15,0-.23.02-.07.04-.14.08-.19.08-.11.19-.17.33-.2.14-.02.26,0,.37.09.05.04.1.09.13.16.04.06.06.14.07.21l.38,2.45,2.53-.37c.09-.01.16-.01.23,0,.07.01.13.04.18.08.11.08.18.19.2.33.02.14,0,.26-.08.37-.05.06-.1.11-.16.15-.06.04-.13.06-.22.07l-2.53.39.37,2.43c.01.08.01.15,0,.23-.01.08-.04.14-.08.2-.08.11-.19.17-.32.19s-.24-.01-.35-.09c-.06-.04-.11-.1-.15-.17-.04-.07-.07-.14-.08-.21l-.39-2.43-2.54.38c-.08.01-.16.01-.24,0-.08-.02-.14-.04-.2-.09-.1-.08-.17-.19-.18-.33-.02-.14,0-.27.08-.37.04-.05.09-.1.16-.13.07-.04.14-.06.22-.08l2.54-.39ZM233.75,401.1c.12-.17.29-.26.5-.29.21-.03.4.02.57.14.17.13.27.29.3.5.04.21,0,.4-.13.56-.12.17-.29.27-.5.3-.21.03-.4-.02-.57-.15-.17-.12-.27-.29-.31-.5-.04-.21,0-.4.12-.56ZM234.51,406.13c-.17-.12-.26-.29-.29-.5-.03-.21.01-.41.14-.57.13-.17.29-.27.5-.31s.4,0,.56.13c.17.12.27.29.3.5.03.21-.02.4-.15.56-.12.17-.29.27-.5.31-.21.03-.4,0-.56-.13ZM237.86,401.56c-.17-.12-.26-.28-.29-.5-.03-.21.01-.41.14-.57.12-.17.29-.27.49-.3.2-.03.4.01.57.14.17.12.27.29.3.49s-.01.39-.14.56c-.13.17-.3.28-.51.31-.21.03-.39-.01-.56-.13ZM238.32,404.45c.12-.17.28-.26.5-.29.21-.03.4.02.57.14.17.12.27.29.3.49.03.2-.01.39-.14.57-.12.17-.29.26-.49.3-.21.03-.39-.01-.56-.14-.17-.13-.28-.3-.31-.51-.03-.21,0-.39.13-.56Z" fill="#fff"/></g></g><g isolation="isolate"><g isolation="isolate"><path d="M221.83,400.49c.24-.02.42.02.54.11.12.09.19.24.2.44.02.29-.38.88-1.2,1.75l-.18.21c-.12.14-.3.33-.54.58-1.47,1.59-2.19,2.72-2.14,3.4.03.49.2.87.5,1.16.3.28.67.41,1.11.38.29-.02.56-.1.81-.23.25-.13.45-.31.6-.52.03-.04.06-.1.12-.19.15-.32.33-.48.53-.5.16-.01.28.03.36.13s.12.28.14.57c.01.16,0,.29-.02.36-.03.08-.08.16-.16.25-.27.3-.62.55-1.04.74-.42.2-.85.31-1.3.34-.75.05-1.4-.15-1.94-.6-.54-.45-.83-1.03-.88-1.74-.06-.89.63-2.13,2.08-3.71.37-.4.65-.7.85-.93l.79-.86-3.12.21c0,.2-.05.35-.13.46-.08.11-.2.17-.35.18-.15,0-.27-.03-.37-.13-.09-.1-.15-.23-.16-.4,0-.01,0-.04,0-.07,0-.03,0-.06,0-.07l.02-.53c0-.14.04-.25.1-.34.06-.08.15-.13.26-.14l4.52-.3Z" fill="#fff"/></g></g><g isolation="isolate"><g isolation="isolate"><path d="M211.15,400.81c.86-.02,1.55.37,2.07,1.16.52.8.8,1.9.84,3.3.04,1.4-.19,2.52-.67,3.34-.48.82-1.15,1.24-2.01,1.26-.86.02-1.55-.37-2.07-1.16-.53-.8-.81-1.9-.84-3.3-.04-1.4.19-2.51.67-3.34.49-.83,1.16-1.25,2.01-1.27ZM211.35,408.9c.52-.01.92-.33,1.2-.96.28-.63.4-1.51.37-2.64-.03-1.14-.2-2.01-.5-2.63-.31-.62-.72-.92-1.25-.9-.53.01-.93.33-1.21.96-.28.63-.4,1.51-.37,2.65.03,1.13.2,2,.5,2.61.31.61.72.91,1.25.9Z" fill="#fff"/></g></g><g isolation="isolate"><g isolation="isolate"><path d="M203.02,401.09c.22,0,.37.04.44.11s.11.2.11.39c0,.16-.04.28-.13.36-.08.07-.21.11-.39.11h-.79s-.02,1.14-.02,1.14l3.19.05c.11,0,.2.04.26.11s.09.18.09.32v.47c-.01.18-.08.37-.22.57-.02.04-.04.07-.06.09l-2.96,4.85c-.07.11-.12.18-.16.22-.04.03-.1.05-.17.04-.03,0-.08,0-.14-.02-.02,0-.04,0-.05-.01l-.7-.12c-.06,0-.11-.05-.15-.11-.04-.06-.06-.14-.05-.24l.09-5.2h-.35c-.1,0-.18.03-.23.11-.06.08-.12.12-.19.12-.09,0-.17-.04-.23-.11s-.09-.15-.09-.25c0-.04,0-.08,0-.11,0-.03.02-.07.03-.11l.06-.28c.03-.16.08-.27.15-.33s.16-.09.29-.08h.57s.02-1.14.02-1.14h-.24c-.29,0-.49-.05-.6-.12-.11-.07-.16-.2-.16-.37,0-.16.05-.29.14-.37.09-.08.23-.12.41-.12l2.21.04ZM202.23,404.22l-.08,4.63,2.67-4.59-2.59-.04Z" fill="#fff"/></g></g><g isolation="isolate"><g isolation="isolate"><path d="M195.77,406.19c-.31.09-.59.16-.85.19-.26.04-.5.05-.73.04-.8-.05-1.44-.36-1.94-.95-.5-.58-.72-1.29-.67-2.1.05-.87.39-1.57,1.01-2.1.62-.53,1.39-.77,2.3-.71.76.04,1.4.18,1.9.42.5.24.75.5.73.8,0,.12-.06.22-.16.31-.1.09-.22.13-.34.12-.05,0-.31-.11-.79-.31-.47-.2-.92-.32-1.33-.34-.61-.04-1.12.12-1.52.46-.4.34-.62.8-.65,1.38-.03.56.12,1.04.46,1.44.34.4.78.61,1.33.64.41.02.82-.05,1.22-.24.41-.18.65-.27.73-.27.14,0,.23.06.28.17.05.1.07.29.05.55l-.2,3.4c0,.15-.06.25-.16.32-.1.06-.26.08-.49.07l-3.45-.2c-.22-.01-.38-.07-.48-.16-.1-.1-.15-.23-.14-.41,0-.17.07-.3.19-.39.12-.09.28-.12.49-.11l3.09.18.13-2.21Z" fill="#fff"/></g></g><g isolation="isolate"><g isolation="isolate"><path d="M176.97,402.93l.35-2.45c.01-.08.03-.15.07-.21.04-.07.08-.12.13-.16.11-.08.23-.11.37-.09s.25.08.33.19c.04.05.07.11.08.19.02.07.02.15,0,.23l-.35,2.45,2.53.38c.09.01.16.04.23.07.06.03.11.07.15.12.09.11.12.23.1.37-.02.14-.08.25-.19.33-.06.05-.13.08-.2.1-.07.02-.15.02-.23,0l-2.53-.36-.36,2.43c-.01.08-.04.15-.07.22-.04.07-.08.12-.13.16-.11.08-.23.11-.36.09-.13-.02-.23-.08-.31-.19-.04-.06-.07-.12-.09-.2-.02-.08-.02-.15-.01-.23l.34-2.44-2.54-.38c-.08-.01-.16-.04-.23-.07-.07-.04-.12-.08-.16-.14-.08-.1-.1-.23-.08-.37.02-.14.09-.25.19-.33.05-.04.12-.07.2-.08.08-.02.16-.02.23,0l2.54.37ZM174.5,405.64c-.12-.16-.17-.35-.14-.57.03-.21.13-.38.3-.51.17-.12.36-.17.57-.15.21.03.38.12.5.29.13.16.17.35.14.56-.03.21-.14.38-.31.5-.17.13-.35.18-.57.15s-.38-.12-.5-.28ZM175.24,400.61c.17-.12.35-.17.57-.13.21.03.38.13.51.3.12.17.17.36.15.57-.03.21-.12.38-.29.5-.17.13-.35.17-.56.14-.21-.04-.38-.14-.5-.31-.13-.16-.18-.35-.15-.57.03-.21.12-.38.28-.5ZM178.64,405.15c.16-.12.35-.17.56-.13.21.03.38.13.51.3.12.17.17.35.14.56-.03.21-.13.37-.3.5-.17.12-.35.17-.56.14-.21-.03-.37-.13-.49-.29-.13-.17-.18-.37-.15-.57.03-.21.12-.37.29-.5ZM179.04,402.24c-.12-.16-.17-.35-.14-.56.03-.21.13-.38.3-.51.17-.12.35-.17.56-.14.21.03.37.13.5.3.12.17.17.35.14.56-.03.21-.13.37-.29.49-.17.13-.37.18-.57.15-.21-.03-.37-.12-.5-.29Z" fill="#fff"/></g></g></g></g></svg>